<?xml version="1.0" encoding="UTF-8"?>
<svg version="1.1" xmlns="http://www.w3.org/2000/svg" width="500" height="500">
<path d="M0 0 C5.34371995 4.43172508 8.47145823 11.01292526 11.82470703 16.95458984 C13.21790333 19.37922603 14.65187196 21.77742962 16.08984375 24.17578125 C21.52899366 33.25679675 26.78520447 42.28199137 31.3828125 51.8203125 C33.72728005 56.4299661 36.44540742 60.7587976 39.19921875 65.1328125 C41.23359259 68.371924 43.13624017 71.66076364 45 75 C49.65796211 73.49381996 54.27603302 71.92034774 58.84765625 70.16796875 C119.17557352 47.10311661 187.09109608 48.38273781 247.25195312 70.98925781 C251.13939111 72.41907242 255.06181527 73.71723029 259 75 C259.29656494 74.48727539 259.59312988 73.97455078 259.89868164 73.44628906 C260.784382 71.91521192 261.67021741 70.38421291 262.55615234 68.85327148 C263.56592391 67.10818329 264.57536043 65.36290119 265.58447266 63.61743164 C269.91372974 56.13400154 269.91372974 56.13400154 272.11328125 52.41796875 C274.66080268 48.10808217 277.13352703 43.82123992 279.3125 39.3125 C294.87793483 7.51818558 294.87793483 7.51818558 304 0 C307.92493147 -1.22108979 309.54920229 -1.19200643 313.375 0.4375 C314.24125 0.953125 315.1075 1.46875 316 2 C316 2.66 316 3.32 316 4 C316.66 4 317.32 4 318 4 C318.97860613 12.75258002 315.83065559 17.85453128 311.3125 25.1875 C310.62475 26.33554721 309.93890407 27.48473703 309.25488281 28.63500977 C307.85987692 30.97452412 306.4545977 33.30731969 305.03955078 35.63476562 C302.61042871 39.64278797 300.22856359 43.67724172 297.8515625 47.71630859 C296.26917585 50.40491859 294.6802771 53.08958122 293.08984375 55.7734375 C289.9811555 61.02703214 286.8867964 66.28870284 283.8125 71.5625 C283.35456055 72.34230225 282.89662109 73.12210449 282.42480469 73.92553711 C280.32391491 77.54119886 278.40296567 81.04191249 277 85 C277.79265259 85.49814209 277.79265259 85.49814209 278.60131836 86.00634766 C281.04750041 87.54464907 283.49250303 89.08481576 285.9375 90.625 C286.76830078 91.14707031 287.59910156 91.66914063 288.45507812 92.20703125 C322.51705229 113.67800329 348.65854249 141.64553589 369.6484375 175.80322266 C370.47568838 177.1478042 371.30785298 178.48939724 372.1484375 179.82568359 C390.99019126 209.83259314 402 247.81573269 402 283 C237 283 72 283 -98 283 C-98 263.27144058 -98 263.27144058 -95.875 253.6875 C-95.5361377 252.0945813 -95.5361377 252.0945813 -95.19042969 250.46948242 C-86.36882675 210.20206298 -67.56984235 169.16931229 -39 139 C-37.95315384 137.77524156 -36.91136373 136.54614109 -35.875 135.3125 C-26.80983107 124.9402602 -16.85683515 115.46267855 -6 107 C-5.14792969 106.29230469 -4.29585938 105.58460938 -3.41796875 104.85546875 C1.02630037 101.17580507 5.37707654 98.03083911 10.4921875 95.36328125 C14.87857763 92.97877945 19.05976732 90.24288407 23.27734375 87.57421875 C26 86 26 86 28 86 C24.07526412 77.86000633 19.78093201 70.07857527 15.0625 62.375 C8.93704083 52.27639445 2.97107539 42.10290301 -2.90014648 31.85498047 C-3.48094971 30.84193848 -4.06175293 29.82889648 -4.66015625 28.78515625 C-5.21509766 27.81320313 -5.77003906 26.84125 -6.34179688 25.83984375 C-8.43437299 22.25609148 -10.64598435 18.75155757 -12.89477539 15.26391602 C-14.76536023 11.43225417 -14.40488308 8.18379186 -14 4 C-13.34 4 -12.68 4 -12 4 C-12 3.34 -12 2.68 -12 2 C-7.59625198 -0.62127859 -4.92156326 -1.84558622 0 0 Z M21 177 C17.87736222 182.49187725 16.27821573 187.54691889 17.390625 193.83203125 C19.09946284 199.9115505 21.50142119 204.59611788 27 208 C32.24466952 210.33096423 37.56800909 211.07733549 43.078125 209.34765625 C49.19669097 206.62699619 53.05635466 202.35720558 56.375 196.625 C57.81456467 190.5788284 57.73685068 185.76951529 54.8125 180.1875 C51.32021876 174.55668699 47.51290707 171.53244872 41 170 C33.20691982 169.38150157 26.55245908 171.14740799 21 177 Z M251 178 C247.2104961 183.32578926 245.90857622 187.47396088 247 194 C249.21748562 201.19042676 253.99895058 205.74299776 260.4375 209.375 C267.06839997 210.99229268 272.03002403 210.26659063 278 207 C283.05006464 202.75335474 285.78415062 198.23616287 286.9375 191.75 C287.36565287 186.23055105 285.92167796 181.6715176 283 177 C278.1917103 172.14254578 273.95053737 170.19347786 267.1875 169.75 C260.2580766 169.86591972 255.40556457 172.76095024 251 178 Z " fill="#010101" transform="translate(98,109)"/>
<path d="M0 0 C-0.78375 0.45375 -1.5675 0.9075 -2.375 1.375 C-5.03698031 2.88428742 -5.03698031 2.88428742 -7 5 C-7 4.34 -7 3.68 -7 3 C-8.98 3.33 -10.96 3.66 -13 4 C-10.81006393 1.81006393 -9.4012702 1.27802011 -6.5 0.3125 C-5.7059375 0.04050781 -4.911875 -0.23148438 -4.09375 -0.51171875 C-2 -1 -2 -1 0 0 Z " fill="#464647" transform="translate(173,175)"/>
<path d="M0 0 C-7.28571429 3.57142857 -7.28571429 3.57142857 -12 2 C-7.72170329 -0.29194467 -4.74957752 -1.52664992 0 0 Z " fill="#535354" transform="translate(197,169)"/>
<path d="" fill="#FFFFFF" transform="translate(0,0)"/>
<path d="" fill="#FFFFFF" transform="translate(0,0)"/>
<path d="" fill="#FFFFFF" transform="translate(0,0)"/>
<path d="" fill="#FFFFFF" transform="translate(0,0)"/>
<path d="" fill="#FFFFFF" transform="translate(0,0)"/>
<path d="" fill="#FFFFFF" transform="translate(0,0)"/>
<path d="" fill="#FFFFFF" transform="translate(0,0)"/>
<path d="" fill="#FFFFFF" transform="translate(0,0)"/>
<path d="" fill="#FFFFFF" transform="translate(0,0)"/>
<path d="" fill="#FFFFFF" transform="translate(0,0)"/>
<path d="" fill="#FFFFFF" transform="translate(0,0)"/>
<path d="" fill="#FFFFFF" transform="translate(0,0)"/>
<path d="" fill="#FFFFFF" transform="translate(0,0)"/>
<path d="" fill="#FFFFFF" transform="translate(0,0)"/>
<path d="" fill="#FFFFFF" transform="translate(0,0)"/>
<path d="" fill="#FFFFFF" transform="translate(0,0)"/>
<path d="" fill="#FFFFFF" transform="translate(0,0)"/>
<path d="" fill="#FFFFFF" transform="translate(0,0)"/>
<path d="" fill="#FFFFFF" transform="translate(0,0)"/>
<path d="" fill="#FFFFFF" transform="translate(0,0)"/>
<path d="" fill="#FFFFFF" transform="translate(0,0)"/>
<path d="" fill="#FFFFFF" transform="translate(0,0)"/>
<path d="" fill="#FFFFFF" transform="translate(0,0)"/>
<path d="" fill="#FFFFFF" transform="translate(0,0)"/>
<path d="" fill="#FFFFFF" transform="translate(0,0)"/>
<path d="" fill="#FFFFFF" transform="translate(0,0)"/>
<path d="" fill="#FFFFFF" transform="translate(0,0)"/>
<path d="" fill="#FFFFFF" transform="translate(0,0)"/>
<path d="" fill="#FFFFFF" transform="translate(0,0)"/>
<path d="" fill="#FFFFFF" transform="translate(0,0)"/>
<path d="" fill="#FFFFFF" transform="translate(0,0)"/>
<path d="" fill="#FFFFFF" transform="translate(0,0)"/>
<path d="" fill="#FFFFFF" transform="translate(0,0)"/>
<path d="" fill="#FFFFFF" transform="translate(0,0)"/>
<path d="" fill="#FFFFFF" transform="translate(0,0)"/>
<path d="" fill="#FFFFFF" transform="translate(0,0)"/>
<path d="" fill="#FFFFFF" transform="translate(0,0)"/>
<path d="" fill="#FFFFFF" transform="translate(0,0)"/>
<path d="" fill="#FFFFFF" transform="translate(0,0)"/>
<path d="" fill="#FFFFFF" transform="translate(0,0)"/>
<path d="" fill="#FFFFFF" transform="translate(0,0)"/>
<path d="" fill="#FFFFFF" transform="translate(0,0)"/>
<path d="" fill="#FFFFFF" transform="translate(0,0)"/>
<path d="" fill="#FFFFFF" transform="translate(0,0)"/>
<path d="" fill="#FFFFFF" transform="translate(0,0)"/>
<path d="" fill="#FFFFFF" transform="translate(0,0)"/>
<path d="" fill="#FFFFFF" transform="translate(0,0)"/>
<path d="" fill="#FFFFFF" transform="translate(0,0)"/>
</svg>
