<?xml version="1.0" encoding="UTF-8"?>
<svg version="1.1" xmlns="http://www.w3.org/2000/svg" width="225" height="225">
<path d="M0 0 C4.56073232 2.2356531 7.76691001 5.63879191 11.25390625 9.2578125 C12.90634579 10.90655531 14.61207577 12.36075085 16.4375 13.8125 C17.283125 14.534375 18.12875 15.25625 19 16 C19 16.66 19 17.32 19 18 C20.98 18.99 20.98 18.99 23 20 C23 20.66 23 21.32 23 22 C23.58910156 22.27328125 24.17820313 22.5465625 24.78515625 22.828125 C32.73366378 27.03368454 35.43307445 33.74156074 38.15234375 41.890625 C39 45 39 45 39 48 C39.87398437 48.11601563 40.74796875 48.23203125 41.6484375 48.3515625 C49.83388881 49.9352279 56.46996788 54.20898229 62.42138672 59.92138672 C66.36583718 63.66682289 70.40572331 67.15603139 74.6945858 70.50182152 C86.86618817 80.10445185 99.3445756 90.33222157 101.42871094 106.49511719 C102.40693868 116.96263245 101.78826591 127.46282274 101.05993652 137.92626953 C100.74726417 142.91169086 100.61486276 147.90203862 100.46484375 152.89453125 C100.14752339 162.60879181 99.6391675 172.30194975 99 182 C94.98965675 184.07913638 91.8193691 185.36875621 87.33203125 185.91796875 C80.24764033 187.16337846 73.83494949 188.60955806 68 193 C64.64848003 197.85516504 63.2793728 203.75269507 61.69921875 209.36328125 C61.23223416 210.87987433 60.76070947 212.39507723 60.2845459 213.90881348 C59.13669479 217.59192425 58.05198469 221.2884254 57 225 C-23.82470205 231.16779609 -23.82470205 231.16779609 -41.0390625 217.60546875 C-48.47686106 211.07511266 -54.56808517 203.15200975 -59.66015625 194.6887207 C-61.70194225 191.30044817 -64.09611037 188.70558124 -67 186 C-71.94874212 179.61903369 -75.45270127 172.6418962 -78 165 C-79.66085684 164.40025712 -81.32903576 163.81518559 -83.02388 163.31956482 C-94.28210852 159.97243162 -100.92826918 153.32015309 -108.8125 144.9375 C-110.06088592 143.65599264 -111.31152971 142.37668081 -112.56445312 141.09960938 C-125.53029629 127.75079464 -125.53029629 127.75079464 -126.1809082 120.13134766 C-125.42616609 111.23944665 -116.234293 101.68502793 -111.3125 94.375 C-110.45605133 93.09787674 -109.59992986 91.82053399 -108.74414062 90.54296875 C-105.27001788 85.35910076 -101.79552941 80.17560287 -98.30004883 75.00610352 C-93.05744487 67.2835181 -93.05744487 67.2835181 -88.34765625 59.23046875 C-81.27120732 46.32781593 -70.64919189 39.57501869 -58.41827393 32.05253601 C-52.57063469 28.42809533 -46.91271057 24.55158618 -41.25390625 20.640625 C-38.4219457 18.69720248 -35.58878457 16.7555405 -32.75543213 14.81414795 C-30.88718872 13.52852424 -29.02346589 12.23630476 -27.16448975 10.93731689 C-24.52900642 9.10018528 -21.87475207 7.29370578 -19.21484375 5.4921875 C-18.43339493 4.9368634 -17.65194611 4.38153931 -16.84681702 3.80938721 C-11.28503455 0.09744599 -6.67225421 -1.06050872 0 0 Z " fill="#01D1B7" transform="translate(126,0)"/>
<path d="M0 0 C14.38624518 -0.02336949 28.77248741 -0.04093259 43.15874767 -0.05181217 C49.83866808 -0.05703349 56.51857326 -0.06411757 63.19848633 -0.07543945 C69.6434625 -0.08629493 76.08842641 -0.09228251 82.53341103 -0.09487724 C84.99381008 -0.09672668 87.45420844 -0.10033808 89.91460228 -0.10573006 C93.35738965 -0.11297572 96.80012617 -0.11398944 100.24291992 -0.11352539 C101.77285332 -0.1189183 101.77285332 -0.1189183 103.33369446 -0.12442017 C104.27453888 -0.1230455 105.2153833 -0.12167084 106.18473816 -0.12025452 C107.40565297 -0.12163721 107.40565297 -0.12163721 108.65123272 -0.12304783 C111.22995907 0.01204716 113.51798776 0.27212017 116 1 C117.25759179 3.34139576 118.07382408 5.31321179 118.875 7.8125 C119.11911621 8.51665039 119.36323242 9.22080078 119.61474609 9.94628906 C120.14421412 11.47838095 120.66484273 13.01354911 121.17773438 14.55126953 C122.02482131 17.07391857 122.90588527 19.58238498 123.796875 22.08984375 C126.26938921 29.0572383 128.70038908 36.03591107 131 43.0625 C132.64783068 48.06910045 134.47060124 53.00009077 136.3125 57.9375 C139.13116882 65.49658888 141.72816813 73.10789611 144.21606445 80.78173828 C145.83448229 85.70830574 147.5782968 90.55654095 149.4765625 95.3828125 C149.89502441 96.45378174 150.31348633 97.52475098 150.74462891 98.62817383 C151.56215862 100.70188834 152.39446557 102.76985724 153.24365234 104.83081055 C156.25496515 112.48645926 156.59281138 117.29014222 153.4765625 125.03515625 C152.87018316 126.38252068 152.25287696 127.72501829 151.625 129.0625 C151.01282736 130.40746404 150.40084665 131.75251545 149.7890625 133.09765625 C149.49161133 133.74234863 149.19416016 134.38704102 148.88769531 135.05126953 C147.53893907 138.01215301 146.26985965 141.00453353 145 144 C140.77291606 143.53032401 138.79853751 140.8971674 136 138 C134.83842702 136.83434674 133.6746419 135.67089545 132.50915527 134.50915527 C43 45 43 45 40.88012695 42.87573242 C37.80933938 39.80480276 34.72373227 36.74885192 31.63981628 33.69111633 C28.21880431 30.29675431 24.80297632 26.89719645 21.38745117 23.49731445 C19.58029627 21.70029099 17.7713613 19.90505596 15.96069336 18.11157227 C13.34803553 15.52303783 10.74177011 12.92821765 8.13671875 10.33203125 C7.32120041 9.52683548 6.50568207 8.72163971 5.66545105 7.89204407 C4.92080093 7.14754501 4.17615082 6.40304596 3.40893555 5.63598633 C2.74895065 4.98044266 2.08896576 4.32489899 1.40898132 3.64949036 C0 2 0 2 0 0 Z " fill="#0079B1" transform="translate(49,47)"/>
<path d="M0 0 C4.56073232 2.2356531 7.76691001 5.63879191 11.25390625 9.2578125 C12.90634579 10.90655531 14.61207577 12.36075085 16.4375 13.8125 C17.283125 14.534375 18.12875 15.25625 19 16 C19 16.66 19 17.32 19 18 C20.98 18.99 20.98 18.99 23 20 C23 20.66 23 21.32 23 22 C23.58910156 22.27328125 24.17820313 22.5465625 24.78515625 22.828125 C32.73366378 27.03368454 35.43307445 33.74156074 38.15234375 41.890625 C39 45 39 45 39 48 C0.72 47.67 -37.56 47.34 -77 47 C-75.02 49.64 -73.04 52.28 -71 55 C-75 53 -75 53 -76 52 C-76.33 87.64 -76.66 123.28 -77 160 C-76.34 160.33 -75.68 160.66 -75 161 C-75.33 161.99 -75.66 162.98 -76 164 C-89.84820413 162.9742071 -97.21828221 156.65670075 -106.55249023 147.01000977 C-108.44329748 145.0565103 -110.35497489 143.12552533 -112.27148438 141.19726562 C-113.49344906 139.95697082 -114.71419634 138.71547516 -115.93359375 137.47265625 C-116.49920517 136.89854507 -117.06481659 136.3244339 -117.64756775 135.73292542 C-122.12044373 131.09729549 -125.60883526 126.83100892 -126.1809082 120.13134766 C-125.42616609 111.23944665 -116.234293 101.68502793 -111.3125 94.375 C-110.45605133 93.09787674 -109.59992986 91.82053399 -108.74414062 90.54296875 C-105.27001788 85.35910076 -101.79552941 80.17560287 -98.30004883 75.00610352 C-93.05744487 67.2835181 -93.05744487 67.2835181 -88.34765625 59.23046875 C-81.27120732 46.32781593 -70.64919189 39.57501869 -58.41827393 32.05253601 C-52.57063469 28.42809533 -46.91271057 24.55158618 -41.25390625 20.640625 C-38.4219457 18.69720248 -35.58878457 16.7555405 -32.75543213 14.81414795 C-30.88718872 13.52852424 -29.02346589 12.23630476 -27.16448975 10.93731689 C-24.52900642 9.10018528 -21.87475207 7.29370578 -19.21484375 5.4921875 C-18.43339493 4.9368634 -17.65194611 4.38153931 -16.84681702 3.80938721 C-11.28503455 0.09744599 -6.67225421 -1.06050872 0 0 Z " fill="#04D1B7" transform="translate(126,0)"/>
<path d="M0 0 C7.43451407 2.15531946 14.75388451 4.57769572 22.0625 7.125 C23.18068115 7.51316895 24.2988623 7.90133789 25.45092773 8.30126953 C34.53734046 11.46602108 43.59551 14.70716568 52.63891602 17.99267578 C57.67954029 19.82127353 62.72883771 21.59781728 67.8215332 23.27587891 C71.66790727 24.5544114 75.48847573 25.9064135 79.3125 27.25 C80.16626221 27.54793457 81.02002441 27.84586914 81.8996582 28.15283203 C86.42043215 29.73235466 90.93135153 31.33415814 95.4296875 32.9765625 C96.31100342 33.29463867 97.19231934 33.61271484 98.1003418 33.94042969 C99.77400565 34.5450145 101.44496812 35.15715363 103.11254883 35.77832031 C113.06102402 39.34983434 118.77217973 39.66455175 128.58007812 35.12890625 C129.68802734 34.59136719 130.79597656 34.05382812 131.9375 33.5 C134.17271366 32.441415 136.41085265 31.38897722 138.65234375 30.34375 C140.12175415 29.63508789 140.12175415 29.63508789 141.62084961 28.91210938 C142.40596924 28.61111328 143.19108887 28.31011719 144 28 C144.66 28.33 145.32 28.66 146 29 C142.37 39.56 138.74 50.12 135 61 C53.98544914 67.01822378 53.98544914 67.01822378 36.9609375 53.60546875 C29.52313894 47.07511266 23.43191483 39.15200975 18.33984375 30.6887207 C16.29805775 27.30044817 13.90388963 24.70558124 11 22 C5.88428052 15.40373112 1.96444767 8.13024779 0 0 Z " fill="#57DDC9" transform="translate(48,164)"/>
<path d="M0 0 C9.32686047 1.23807882 16.67617062 5.44706465 23.42138672 11.92138672 C27.36583718 15.66682289 31.40572331 19.15603139 35.6945858 22.50182152 C47.86618817 32.10445185 60.3445756 42.33222157 62.42871094 58.49511719 C63.40693868 68.96263245 62.78826591 79.46282274 62.05993652 89.92626953 C61.74726417 94.91169086 61.61486276 99.90203862 61.46484375 104.89453125 C61.14752339 114.60879181 60.6391675 124.30194975 60 134 C54.42163651 136.82944286 48.890487 138.80533447 42.9375 140.6875 C41.95716797 141.00783203 40.97683594 141.32816406 39.96679688 141.65820312 C39.01740234 141.96048828 38.06800781 142.26277344 37.08984375 142.57421875 C35.80388306 142.98546997 35.80388306 142.98546997 34.49194336 143.4050293 C31.9058854 144.02247059 29.64850621 144.10816882 27 144 C27.66 143.67 28.32 143.34 29 143 C29.47180994 141.37748617 29.93592224 139.75235413 30.36181641 138.1171875 C31.06617688 135.78045682 31.97991415 133.63196406 32.98046875 131.40625 C33.33947266 130.60316406 33.69847656 129.80007812 34.06835938 128.97265625 C34.81645854 127.31978795 35.57434933 125.67131767 36.34179688 124.02734375 C36.69693359 123.22425781 37.05207031 122.42117187 37.41796875 121.59375 C37.74563232 120.87896484 38.0732959 120.16417969 38.41088867 119.42773438 C39.79374813 113.72895505 37.54551951 108.20666377 35.62890625 102.86328125 C35.39122025 102.19480667 35.15353424 101.52633209 34.90864563 100.83760071 C34.13280407 98.66029152 33.34773008 96.48643889 32.5625 94.3125 C32.01583397 92.78390758 31.46978054 91.25509594 30.92431641 89.72607422 C29.81691682 86.62515976 28.70584268 83.52560335 27.59130859 80.42724609 C26.16450976 76.46049057 24.74650128 72.49070024 23.33203125 68.51953125 C20.02321882 59.23237756 16.70114193 49.95003223 13.3671875 40.671875 C5.84859702 19.72563885 5.84859702 19.72563885 2.375 9.375 C2.12717773 8.64071777 1.87935547 7.90643555 1.62402344 7.14990234 C0 2.24793469 0 2.24793469 0 0 Z " fill="#07A5E3" transform="translate(165,48)"/>
<path d="M0 0 C0.66 0 1.32 0 2 0 C2.33 37.95 2.66 75.9 3 115 C-7.41040409 112.68657687 -13.37832574 110.274363 -20.58203125 102.87890625 C-21.16288986 102.2971312 -21.74374847 101.71535614 -22.34220886 101.11595154 C-23.5577063 99.8944563 -24.76838501 98.66814835 -25.97436523 97.43725586 C-27.81457137 95.56038736 -29.67043317 93.70017044 -31.52929688 91.84179688 C-32.71449149 90.6467746 -33.89876885 89.45084176 -35.08203125 88.25390625 C-35.632043 87.70166885 -36.18205475 87.14943146 -36.74873352 86.58045959 C-41.20711046 82.01151662 -44.61431414 77.76684465 -45.1809082 71.13134766 C-44.42616609 62.23944665 -35.234293 52.68502793 -30.3125 45.375 C-29.45605133 44.09787674 -28.59992986 42.82053399 -27.74414062 41.54296875 C-26.03020413 38.98514438 -24.31474966 36.42834854 -22.59814453 33.87231445 C-14.69146098 22.10330986 -14.69146098 22.10330986 -6.90625 10.25390625 C-6.49632812 9.62548828 -6.08640625 8.99707031 -5.6640625 8.34960938 C-4.85190889 7.10276281 -4.04502052 5.85247767 -3.2421875 4.59960938 C-2.21318999 3.03121801 -1.1134628 1.5095986 0 0 Z " fill="#0482C4" transform="translate(45,49)"/>
<path d="M0 0 C2 3 2 3 4 12 C-34.28 11.67 -72.56 11.34 -112 11 C-110.02 13.64 -108.04 16.28 -106 19 C-110 17 -110 17 -111 16 C-111.33 51.64 -111.66 87.28 -112 124 C-111.34 124.33 -110.68 124.66 -110 125 C-110.33 125.99 -110.66 126.98 -111 128 C-111.66 128 -112.32 128 -113 128 C-114.16200507 122.39838693 -114.20791929 116.88854277 -114.28466797 111.19287109 C-114.31156456 109.57722511 -114.31156456 109.57722511 -114.33900452 107.92893982 C-114.39596829 104.37716582 -114.44515299 100.82535631 -114.4921875 97.2734375 C-114.50854374 96.05931812 -114.52489998 94.84519875 -114.54175186 93.59428787 C-114.62658921 87.17718046 -114.70430741 80.76002529 -114.77734375 74.34277344 C-114.83926365 69.02704402 -114.91571154 63.71182537 -115.00488281 58.39648438 C-115.11254862 51.97716205 -115.19576885 45.55796876 -115.26114273 39.1380806 C-115.2901247 36.6906948 -115.32772231 34.24339557 -115.37401962 31.79627609 C-115.4367806 28.38008996 -115.46809456 24.96498932 -115.49169922 21.54833984 C-115.51745529 20.53421524 -115.54321136 19.52009064 -115.56974792 18.47523499 C-115.57045466 11.599429 -115.57045466 11.599429 -112.4692688 8.34072876 C-111.6544101 7.89828827 -110.83955139 7.45584778 -110 7 C-109.34 7.33 -108.68 7.66 -108 8 C-108.33 8.66 -108.66 9.32 -109 10 C-73.03 9.67 -37.06 9.34 0 9 C0 6.03 0 3.06 0 0 Z " fill="#0DBCC6" transform="translate(161,36)"/>
<path d="M0 0 C2 3 2 3 4 12 C-34.94 11.67 -73.88 11.34 -114 11 C-112.68 9.68 -111.36 8.36 -110 7 C-109.34 7.33 -108.68 7.66 -108 8 C-108.33 8.66 -108.66 9.32 -109 10 C-73.03 9.67 -37.06 9.34 0 9 C0 6.03 0 3.06 0 0 Z " fill="#22C1CF" transform="translate(161,36)"/>
<path d="M0 0 C-1.19213397 4.63607655 -3.52902771 6.49826189 -7.24609375 9.1796875 C-9 10 -9 10 -12 9 C-12.33 9.99 -12.66 10.98 -13 12 C15.71 12.33 44.42 12.66 74 13 C74 13.33 74 13.66 74 14 C43.64 14 13.28 14 -18 14 C-15.74872381 8.37180952 -15.74872381 8.37180952 -12.8125 6.54296875 C-12.19632813 6.15302734 -11.58015625 5.76308594 -10.9453125 5.36132812 C-10.30335937 4.97396484 -9.66140625 4.58660156 -9 4.1875 C-8.35804687 3.78080078 -7.71609375 3.37410156 -7.0546875 2.95507812 C-2.30669643 0 -2.30669643 0 0 0 Z " fill="#10CDC0" transform="translate(70,32)"/>
<path d="M0 0 C36.63 0 73.26 0 111 0 C111 0.33 111 0.66 111 1 C97.50922941 1.15375997 84.01841026 1.30194156 70.52750015 1.4429636 C64.26341645 1.50861891 57.99936599 1.5762096 51.73535156 1.64819336 C45.69242244 1.71756578 39.64945891 1.78189353 33.60643768 1.84269524 C31.29870396 1.86680657 28.99098862 1.89274842 26.6832962 1.92053413 C23.45588557 1.95908376 20.22847141 1.99117713 17.00097656 2.02172852 C16.04288086 2.03467453 15.08478516 2.04762054 14.09765625 2.06095886 C13.21708557 2.06799835 12.33651489 2.07503784 11.42926025 2.08229065 C10.66601566 2.09058679 9.90277107 2.09888292 9.11639786 2.10743046 C6.95732086 1.99783356 5.07348629 1.5954596 3 1 C3 1.66 3 2.32 3 3 C3.66 3 4.32 3 5 3 C4.67 3.99 4.34 4.98 4 6 C2.62437146 4.71034824 1.29233607 3.37310707 0 2 C0 1.34 0 0.68 0 0 Z " fill="#007EA1" transform="translate(49,47)"/>
<path d="M0 0 C3.9492568 0.55105909 7.34920174 1.38935371 11 3 C10 6 10 6 7 8 C7.3659105 13.45080476 8.2237993 18.08104075 10.30078125 23.13671875 C11.26480695 25.70565875 11.66077736 28.28621892 12 31 C11.34 31 10.68 31 10 31 C8.57191631 26.90793253 7.14785715 22.81449396 5.72753906 18.71972656 C5.24362265 17.32643703 4.7586014 15.93353072 4.27246094 14.54101562 C3.57457494 12.5413586 2.8806516 10.54036477 2.1875 8.5390625 C1.76855469 7.33459473 1.34960938 6.13012695 0.91796875 4.88916016 C0 2 0 2 0 0 Z " fill="#109FDD" transform="translate(165,48)"/>
<path d="M0 0 C3.01724347 2.52220585 3.94999802 5.08260331 5.19140625 8.76953125 C5.57876953 9.90583984 5.96613281 11.04214844 6.36523438 12.21289062 C6.95788086 13.99469727 6.95788086 13.99469727 7.5625 15.8125 C7.96146484 16.98876953 8.36042969 18.16503906 8.77148438 19.37695312 C9.85664848 22.5817199 10.93113323 25.78976675 12 29 C12.36601318 30.04889404 12.73202637 31.09778809 13.10913086 32.1784668 C15.22491338 38.87950778 13.65003377 44.72744299 11 51 C10.34 51.99 9.68 52.98 9 54 C8.34 54 7.68 54 7 54 C8.04501654 50.70417862 9.16042281 47.67321279 10.6875 44.5625 C12.99939908 38.28734535 10.7453918 32.68345785 8.49609375 26.640625 C8.2533522 25.96956726 8.01061066 25.29850952 7.76051331 24.6071167 C6.99253387 22.4856996 6.21586207 20.36762753 5.4375 18.25 C4.65628961 16.11785141 3.87713557 13.98504572 3.10377502 11.85003662 C2.40556116 9.92324146 1.69991959 7.9991427 0.99389648 6.07519531 C0 3 0 3 0 0 Z " fill="#0EA0DC" transform="translate(192,124)"/>
<path d="M0 0 C0.86882812 0.00386719 1.73765625 0.00773438 2.6328125 0.01171875 C4.875 0.3125 4.875 0.3125 6.875 2.3125 C6.235625 2.60125 5.59625 2.89 4.9375 3.1875 C2.72293921 4.14073451 2.72293921 4.14073451 1.875 6.3125 C0.616875 6.18875 -0.64125 6.065 -1.9375 5.9375 C-2.99904297 5.83308594 -2.99904297 5.83308594 -4.08203125 5.7265625 C-6.125 5.3125 -6.125 5.3125 -9.125 3.3125 C-6.03435629 0.58842101 -4.10473095 -0.07964403 0 0 Z " fill="#28D7C1" transform="translate(121.125,-0.3125)"/>
<path d="M0 0 C-1.15083179 4.47545696 -3.27607565 6.50830133 -6.98046875 8.99609375 C-10.29485777 10.64367204 -13.32547853 10.80660413 -17 11 C-14.33687484 8.05849939 -11.22754654 6.0071969 -7.9375 3.8125 C-6.87402344 3.09707031 -5.81054688 2.38164063 -4.71484375 1.64453125 C-2 0 -2 0 0 0 Z " fill="#35D2BD" transform="translate(70,32)"/>
<path d="M0 0 C-3.36404218 2.24269478 -6.75716923 3.38655744 -10.5625 4.625 C-11.24763672 4.85445312 -11.93277344 5.08390625 -12.63867188 5.3203125 C-17.73272414 7 -17.73272414 7 -20 7 C-19.34 5.02 -18.68 3.04 -18 1 C-17.39671875 1.01160156 -16.7934375 1.02320313 -16.171875 1.03515625 C-15.37265625 1.04417969 -14.5734375 1.05320313 -13.75 1.0625 C-12.96109375 1.07410156 -12.1721875 1.08570313 -11.359375 1.09765625 C-7.45346364 0.93598773 -3.97566969 -0.11043527 0 0 Z " fill="#3EB2DF" transform="translate(215,185)"/>
<path d="M0 0 C1.90318884 2.85478326 2.4619099 4.41941308 3.125 7.6875 C3.29257813 8.49574219 3.46015625 9.30398437 3.6328125 10.13671875 C3.75398438 10.75160156 3.87515625 11.36648437 4 12 C2.700625 11.7834375 2.700625 11.7834375 1.375 11.5625 C-4.71104335 10.68046473 -10.86762363 10.39975269 -17 10 C-17 9.67 -17 9.34 -17 9 C-11.39 9 -5.78 9 0 9 C0 6.03 0 3.06 0 0 Z " fill="#11CBBD" transform="translate(161,36)"/>
<path d="M0 0 C0.66 0.99 1.32 1.98 2 3 C1.01 3.33 0.02 3.66 -1 4 C-0.67 6.97 -0.34 9.94 0 13 C0.66 13 1.32 13 2 13 C2.99 15.31 3.98 17.62 5 20 C4.01 20 3.02 20 2 20 C-1.63936059 15.71839931 -3.33261879 11.58799569 -3 6 C-1.5625 2.5 -1.5625 2.5 0 0 Z " fill="#53A5CB" transform="translate(3,112)"/>
<path d="M0 0 C0.66 0 1.32 0 2 0 C2.84416163 2.53851462 3.67547299 5.08010854 4.5 7.625 C4.73847656 8.33785156 4.97695312 9.05070312 5.22265625 9.78515625 C6.57381808 13.99306024 7.28250044 17.52236798 7 22 C4.83373625 18.75060437 3.73136699 15.74326193 2.4375 12.0625 C2.00308594 10.83660156 1.56867188 9.61070313 1.12109375 8.34765625 C-0.62431027 3.13577037 -0.62431027 3.13577037 -1 1 C-0.67 0.67 -0.34 0.34 0 0 Z " fill="#0E9FDC" transform="translate(178,82)"/>
<path d="M0 0 C3.9492568 0.55105909 7.34920174 1.38935371 11 3 C10 6 10 6 7 8 C5.80767387 10.05003955 5.80767387 10.05003955 5 12 C4.34 9.36 3.68 6.72 3 4 C2.01 4.495 2.01 4.495 1 5 C0.67 3.35 0.34 1.7 0 0 Z " fill="#10A6DE" transform="translate(165,48)"/>
<path d="M0 0 C0.66 0.99 1.32 1.98 2 3 C-1.94678861 11.83828726 -1.94678861 11.83828726 -6 14 C-6.66 14 -7.32 14 -8 14 C-6.6744419 10.37723685 -5.05653045 7.36494652 -2.875 4.1875 C-2.33617187 3.39730469 -1.79734375 2.60710938 -1.2421875 1.79296875 C-0.83226562 1.20128906 -0.42234375 0.60960937 0 0 Z " fill="#3692C7" transform="translate(37,61)"/>
<path d="M0 0 C1.32 0 2.64 0 4 0 C4 0.66 4 1.32 4 2 C4.99 2 5.98 2 7 2 C7 2.99 7 3.98 7 5 C7.66 5 8.32 5 9 5 C8.67 6.32 8.34 7.64 8 9 C6.66368764 7.6905332 5.33102075 6.37734515 4 5.0625 C3.2575 4.33160156 2.515 3.60070312 1.75 2.84765625 C0 1 0 1 0 0 Z " fill="#3C98C8" transform="translate(9,135)"/>
<path d="M0 0 C2.475 0.495 2.475 0.495 5 1 C5 1.99 5 2.98 5 4 C5.66 4 6.32 4 7 4 C8.7143618 5.95927063 10.38405168 7.95880212 12 10 C11.67 10.66 11.34 11.32 11 12 C9.16364422 10.19047409 7.33083792 8.37759362 5.5 6.5625 C4.97535156 6.04623047 4.45070312 5.52996094 3.91015625 4.99804688 C2.58775448 3.68423213 1.29164432 2.34406495 0 1 C0 0.67 0 0.34 0 0 Z " fill="#038AAC" transform="translate(134,133)"/>
<path d="M0 0 C0.33 0.99 0.66 1.98 1 3 C1.66 3.33 2.32 3.66 3 4 C2.38125 4.556875 1.7625 5.11375 1.125 5.6875 C-1.06106379 8.06645178 -1.98785699 9.96357096 -3 13 C-3.99 12.67 -4.98 12.34 -6 12 C-5.34 12 -4.68 12 -4 12 C-3.71125 10.948125 -3.4225 9.89625 -3.125 8.8125 C-2.22774807 5.77181289 -1.23576581 2.91287656 0 0 Z " fill="#129FD8" transform="translate(198,179)"/>
<path d="M0 0 C1.12894876 0.93274109 2.25300876 1.87140122 3.375 2.8125 C4.00148437 3.33457031 4.62796875 3.85664062 5.2734375 4.39453125 C7 6 7 6 9 9 C6 9 6 9 4.39453125 7.5390625 C3.61142578 6.59160156 3.61142578 6.59160156 2.8125 5.625 C2.28269531 4.99851562 1.75289062 4.37203125 1.20703125 3.7265625 C0 2 0 2 0 0 Z " fill="#57BEDD" transform="translate(215,87)"/>
<path d="M0 0 C1.60031344 3.20062687 0.03173691 5.72271806 -1 9 C-2.65 9.33 -4.3 9.66 -6 10 C-5.18957164 8.51969728 -4.37659652 7.04078858 -3.5625 5.5625 C-2.88380859 4.32693359 -2.88380859 4.32693359 -2.19140625 3.06640625 C-1 1 -1 1 0 0 Z " fill="#3B98C7" transform="translate(24,81)"/>
<path d="M0 0 C1.90318884 2.85478326 2.4619099 4.41941308 3.125 7.6875 C3.29257813 8.49574219 3.46015625 9.30398437 3.6328125 10.13671875 C3.75398437 10.75160156 3.87515625 11.36648437 4 12 C2.35 12 0.7 12 -1 12 C-0.34 11.67 0.32 11.34 1 11 C0.67 7.37 0.34 3.74 0 0 Z " fill="#57D4CB" transform="translate(161,36)"/>
<path d="M0 0 C0.99 0 1.98 0 3 0 C3.38909985 1.45463481 3.76088029 2.91391207 4.125 4.375 C4.43824219 5.59316406 4.43824219 5.59316406 4.7578125 6.8359375 C4.83773437 7.55007812 4.91765625 8.26421875 5 9 C4.34 9.66 3.68 10.32 3 11 C2.49384702 9.73160474 1.99530901 8.46016898 1.5 7.1875 C1.2215625 6.47980469 0.943125 5.77210937 0.65625 5.04296875 C0 3 0 3 0 0 Z " fill="#11A0DD" transform="translate(185,104)"/>
<path d="M0 0 C0.99 0.33 1.98 0.66 3 1 C4.6875 4.5625 4.6875 4.5625 6 8 C5.01 8 4.02 8 3 8 C0.19744677 5.0936485 0 4.21174952 0 0 Z " fill="#4497C4" transform="translate(2,124)"/>
<path d="M0 0 C0.66 0.33 1.32 0.66 2 1 C1 4 1 4 -0.8125 5.25 C-3 6 -3 6 -7 5 C-4.69 3.35 -2.38 1.7 0 0 Z " fill="#47D3C1" transform="translate(86,20)"/>
<path d="M0 0 C1.17539996 0.92652701 2.34010577 1.86663387 3.5 2.8125 C4.1496875 3.33457031 4.799375 3.85664062 5.46875 4.39453125 C7 6 7 6 7 9 C0.70535714 4.17857143 0.70535714 4.17857143 0 0 Z " fill="#57BEDD" transform="translate(207,79)"/>
<path d="M0 0 C1.17539996 0.92652701 2.34010577 1.86663387 3.5 2.8125 C4.1496875 3.33457031 4.799375 3.85664062 5.46875 4.39453125 C7 6 7 6 7 9 C0.70535714 4.17857143 0.70535714 4.17857143 0 0 Z " fill="#56BADF" transform="translate(199,71)"/>
<path d="M0 0 C0.66 0.33 1.32 0.66 2 1 C1.67 1.66 1.34 2.32 1 3 C3.31 3 5.62 3 8 3 C8 3.33 8 3.66 8 4 C4.04 4 0.08 4 -4 4 C-2.68 2.68 -1.36 1.36 0 0 Z " fill="#51CBD0" transform="translate(51,43)"/>
<path d="M0 0 C5.94 1.485 5.94 1.485 12 3 C12 3.33 12 3.66 12 4 C7.01137151 4.29344873 4.03770942 4.05887078 0 1 C0 0.67 0 0.34 0 0 Z " fill="#48DFCD" transform="translate(84,177)"/>
<path d="M0 0 C2.69069473 1.64913548 3.83824681 2.52629422 4.875 5.5625 C4.936875 6.7690625 4.936875 6.7690625 5 8 C4.34 8.66 3.68 9.32 3 10 C3 8.02 3 6.04 3 4 C2.01 4.33 1.02 4.66 0 5 C0 3.35 0 1.7 0 0 Z " fill="#57D9CA" transform="translate(156,28)"/>
<path d="M0 0 C5.75 0.75 5.75 0.75 8 3 C6.02 3 4.04 3 2 3 C1.67 3.66 1.34 4.32 1 5 C0.67 3.35 0.34 1.7 0 0 Z " fill="#43AFDE" transform="translate(165,48)"/>
<path d="M0 0 C2.97 0.495 2.97 0.495 6 1 C3.4345406 3.5654594 1.52313332 3.54046087 -2 4 C-1.34 2.68 -0.68 1.36 0 0 Z " fill="#51B8E1" transform="translate(218,181)"/>
<path d="M0 0 C0.99 0.66 1.98 1.32 3 2 C3 2.99 3 3.98 3 5 C-1.875 3.25 -1.875 3.25 -3 1 C-2.01 0.67 -1.02 0.34 0 0 Z " fill="#378FBE" transform="translate(33,155)"/>
<path d="M0 0 C0.33 0.66 0.66 1.32 1 2 C1.66 2.33 2.32 2.66 3 3 C5 4 5 4 6 6 C4.35 5.67 2.7 5.34 1 5 C0.67 3.35 0.34 1.7 0 0 Z " fill="#5CDACB" transform="translate(148,20)"/>
<path d="" fill="#FFFFFF" transform="translate(0,0)"/>
<path d="" fill="#FFFFFF" transform="translate(0,0)"/>
<path d="" fill="#FFFFFF" transform="translate(0,0)"/>
<path d="" fill="#FFFFFF" transform="translate(0,0)"/>
<path d="" fill="#00FFFF" transform="translate(0,0)"/>
<path d="" fill="#FFFFFF" transform="translate(0,0)"/>
<path d="" fill="#FFFFFF" transform="translate(0,0)"/>
<path d="" fill="#FFFFFF" transform="translate(0,0)"/>
<path d="" fill="#FFFFFF" transform="translate(0,0)"/>
<path d="" fill="#FFFFFF" transform="translate(0,0)"/>
<path d="" fill="#FFFFFF" transform="translate(0,0)"/>
<path d="" fill="#FFFFFF" transform="translate(0,0)"/>
<path d="" fill="#FFFFFF" transform="translate(0,0)"/>
<path d="" fill="#FFFFFF" transform="translate(0,0)"/>
<path d="" fill="#FFFFFF" transform="translate(0,0)"/>
<path d="" fill="#FFFFFF" transform="translate(0,0)"/>
<path d="" fill="#FFFFFF" transform="translate(0,0)"/>
<path d="" fill="#FFFFFF" transform="translate(0,0)"/>
<path d="" fill="#FFFFFF" transform="translate(0,0)"/>
<path d="" fill="#FFFFFF" transform="translate(0,0)"/>
<path d="" fill="#FFFFFF" transform="translate(0,0)"/>
<path d="" fill="#FFFFFF" transform="translate(0,0)"/>
<path d="" fill="#FFFFFF" transform="translate(0,0)"/>
<path d="" fill="#FFFFFF" transform="translate(0,0)"/>
<path d="" fill="#FFFFFF" transform="translate(0,0)"/>
<path d="" fill="#FFFFFF" transform="translate(0,0)"/>
<path d="" fill="#FFFFFF" transform="translate(0,0)"/>
<path d="" fill="#FFFFFF" transform="translate(0,0)"/>
<path d="" fill="#FFFFFF" transform="translate(0,0)"/>
<path d="" fill="#FFFFFF" transform="translate(0,0)"/>
<path d="" fill="#FFFFFF" transform="translate(0,0)"/>
<path d="" fill="#FFFFFF" transform="translate(0,0)"/>
<path d="" fill="#FFFFFF" transform="translate(0,0)"/>
<path d="" fill="#FFFFFF" transform="translate(0,0)"/>
<path d="" fill="#FFFFFF" transform="translate(0,0)"/>
<path d="" fill="#FFFFFF" transform="translate(0,0)"/>
<path d="" fill="#FFFFFF" transform="translate(0,0)"/>
<path d="" fill="#FFFFFF" transform="translate(0,0)"/>
<path d="" fill="#FFFFFF" transform="translate(0,0)"/>
<path d="" fill="#FFFFFF" transform="translate(0,0)"/>
</svg>
