<?xml version="1.0" encoding="UTF-8"?>
<svg version="1.1" xmlns="http://www.w3.org/2000/svg" width="512" height="512">
<path d="M0 0 C0.79053904 -0.00297112 1.58107808 -0.00594224 2.39557284 -0.0090034 C5.05325121 -0.01769776 7.71088457 -0.01919927 10.36857605 -0.02069092 C12.27059017 -0.02531856 14.17260337 -0.03034315 16.07461548 -0.03573608 C21.24822906 -0.04886706 26.42182967 -0.05530637 31.59545732 -0.05974674 C34.82661696 -0.06267627 38.05777304 -0.06678085 41.28893089 -0.07125092 C51.39527298 -0.08492753 61.50160696 -0.09459345 71.60795766 -0.09845281 C83.28025325 -0.10293445 94.95243179 -0.12048666 106.62469178 -0.1494534 C115.64303288 -0.1710583 124.66134101 -0.18115645 133.67970771 -0.18249393 C139.06782667 -0.18354278 144.45583563 -0.18946784 149.84392738 -0.20731354 C154.91233517 -0.22377363 159.98055002 -0.22595972 165.04897499 -0.21717453 C166.90896623 -0.21640306 168.76896775 -0.22076135 170.62893295 -0.23063278 C173.16894939 -0.24332258 175.70827942 -0.23749179 178.24829102 -0.22705078 C179.35127186 -0.23913539 179.35127186 -0.23913539 180.47653514 -0.25146413 C186.23518592 -0.19613537 189.98607832 1.50416868 194.62712097 4.76544189 C197.13507994 8.29516192 197.13329009 11.89729922 197.31462097 16.14044189 C198.22212097 16.07856689 199.12962097 16.01669189 200.06462097 15.95294189 C213.58231839 16.03470216 225.42886582 22.56596439 235.02555847 31.65997314 C245.18680854 42.67088405 249.70851063 56.06226852 249.52555847 70.86309814 C248.31695759 89.64117475 238.43419227 104.13817927 224.82072449 116.3526001 C212.49493244 126.96333252 198.27709425 135.3131377 184.3946991 143.68878174 C183.55874207 144.19747803 182.72278503 144.70617432 181.86149597 145.23028564 C181.12769714 145.67235352 180.39389832 146.11442139 179.63786316 146.56988525 C172.8387258 151.16623358 170.0119706 154.87965983 166.93962097 162.45294189 C166.58512878 163.28889893 166.2306366 164.12485596 165.86540222 164.98614502 C165.00033424 167.03191389 164.15074289 169.08271327 163.31462097 171.14044189 C164.42229639 171.13491114 164.42229639 171.13491114 165.55234909 171.12926865 C183.51258291 171.04096786 201.47277346 170.97475681 219.43317795 170.93319321 C228.1186731 170.91255958 236.80402345 170.8844238 245.48942566 170.83868408 C253.05879189 170.79884068 260.62805327 170.7730149 268.19752145 170.76408792 C272.20630894 170.75886889 276.21479643 170.74658601 280.22348785 170.71752167 C283.99589789 170.69039178 287.76788406 170.68199183 291.54038239 170.68801117 C292.92552493 170.68690983 294.3106815 170.67894105 295.69573975 170.66362 C297.5859911 170.64373456 299.47646938 170.65088386 301.36680603 170.65942383 C302.42502438 170.65573666 303.48324272 170.65204948 304.57352829 170.64825058 C308.02608487 171.26819254 309.20250224 172.38696198 311.31462097 175.14044189 C312.70751014 183.3646331 311.71315986 191.06154338 307.31462097 198.14044189 C306.90212097 198.81462158 306.48962097 199.48880127 306.06462097 200.18341064 C295.43827872 215.79085083 276.04355532 222.41712695 258.25212097 225.82794189 C247.92024186 227.73651399 237.66774771 228.28924606 227.17262268 228.27415466 C225.99915555 228.27642022 224.82568841 228.27868578 223.61666167 228.28101999 C220.39067087 228.28622019 217.16471551 228.28701091 213.9387219 228.28582561 C210.44707425 228.28562021 206.95543469 228.29115364 203.46379089 228.29588318 C196.6342573 228.30416049 189.80473234 228.3069367 182.97519414 228.30749556 C177.41829759 228.30797215 171.86140387 228.31003405 166.30450821 228.31319618 C150.51840449 228.32199517 134.73230755 228.3266168 118.94620137 228.32586571 C118.09663238 228.32582575 117.24706338 228.3257858 116.37174988 228.32574463 C115.09582399 228.32568331 115.09582399 228.32568331 113.79412182 228.32562075 C100.01965958 228.3252146 86.24522472 228.33477822 72.4707704 228.348883 C58.29659259 228.36328149 44.12242809 228.37015126 29.94824278 228.36928922 C22.00289669 228.36895842 14.0575793 228.37165368 6.11223984 228.38246727 C-0.65431971 228.39161817 -7.42083756 228.39371018 -14.18740065 228.38695785 C-17.63256567 228.38371549 -21.07765089 228.38355209 -24.52280807 228.3923111 C-54.69113569 228.4549262 -88.35713238 227.52970913 -111.54866028 205.35919189 C-117.45011126 198.91592036 -120.80064661 191.49644713 -121.06037903 182.76544189 C-121.1093634 181.64395752 -121.15834778 180.52247314 -121.20881653 179.36700439 C-120.67590153 176.08202093 -119.98593717 174.45118857 -117.5518589 172.17829323 C-113.2365141 169.77875685 -107.88594935 170.50142019 -103.09236145 170.57281494 C-101.81391357 170.57208481 -100.5354657 170.57135468 -99.21827698 170.57060242 C-95.7203975 170.56916982 -92.22337809 170.59853256 -88.72569823 170.6334722 C-85.06755309 170.66476269 -81.40938747 170.66766853 -77.75112915 170.67359924 C-70.82728422 170.6891299 -63.90383478 170.7301474 -56.98016387 170.78034669 C-49.09633611 170.83626472 -41.2124893 170.86373277 -33.32851255 170.88882387 C-17.11390332 170.94106431 -0.89969167 171.02899095 15.31462097 171.14044189 C15.0281177 170.4579645 14.74161444 169.7754871 14.44642925 169.07232857 C13.13262523 165.93973167 11.82162756 162.80596757 10.51066589 159.67218018 C10.05999504 158.59877884 9.60932419 157.5253775 9.14499664 156.41944885 C5.64795558 148.05158264 2.4505654 139.63398246 -0.37287903 131.01544189 C-0.71115219 129.99291824 -0.71115219 129.99291824 -1.05625916 128.94973755 C-12.39281498 94.5039536 -18.56511287 58.4060538 -19.06037903 22.14044189 C-19.08648254 21.03571533 -19.11258606 19.93098877 -19.13948059 18.79278564 C-19.15295103 12.58098758 -18.87815484 8.84661883 -14.68537903 4.14044189 C-10.09832715 0.10939631 -5.87873168 -0.00686486 0 0 Z M-1.68537903 17.14044189 C-1.69791191 33.06006226 -1.69791191 33.06006226 -0.56037903 48.82794189 C-0.42986145 50.04779785 -0.29934387 51.26765381 -0.16487122 52.5244751 C4.6612328 94.54421777 17.29737171 132.46487539 34.31462097 171.14044189 C70.61462097 171.14044189 106.91462097 171.14044189 144.31462097 171.14044189 C152.49035706 153.41758287 152.49035706 153.41758287 159.50212097 135.32794189 C160.11845398 133.56704224 160.11845398 133.56704224 160.74723816 131.77056885 C169.85936356 105.32868896 176.07024579 78.25196629 179.18962097 50.45294189 C179.30982605 49.40517578 179.43003113 48.35740967 179.55387878 47.27789307 C180.57037747 37.12942827 180.31462097 27.49305345 180.31462097 17.14044189 C120.25462097 17.14044189 60.19462097 17.14044189 -1.68537903 17.14044189 Z M197.31462097 33.14044189 C196.98462097 35.45044189 196.65462097 37.76044189 196.31462097 40.14044189 C197.16024597 40.28739502 198.00587097 40.43434814 198.87712097 40.58575439 C208.30442715 42.44978994 214.73542297 44.94393562 220.18962097 53.07794189 C224.546144 60.8082033 225.40736565 68.41994423 223.31462097 76.95294189 C217.90437166 93.41122369 201.3253856 104.8637237 186.62712097 112.64044189 C184.20718748 114.0822128 183.45371681 114.79475645 182.38883972 117.44122314 C181.87583036 119.68520285 181.51430628 121.84905293 181.31462097 124.14044189 C199.04179047 117.8777546 219.08304109 102.04204639 228.13102722 85.71466064 C233.13712648 74.82680781 233.3608985 65.58400408 229.63493347 54.32794189 C225.82362546 45.12667758 218.99439089 39.05525059 209.95133972 35.10919189 C205.64808543 33.5470021 201.93941551 32.78468847 197.31462097 33.14044189 Z M195.31462097 57.14044189 C193.59384821 64.44985052 192.34533206 71.78498886 191.18962097 79.20294189 C190.91698425 80.93060791 190.91698425 80.93060791 190.63883972 82.69317627 C190.19492239 85.50854673 189.75357581 88.32429421 189.31462097 91.14044189 C201.73115541 82.37051871 201.73115541 82.37051871 208.25212097 69.20294189 C208.56133549 65.86468717 208.23887026 64.98311349 206.68962097 61.76544189 C204.22247686 59.03859841 202.8427556 58.02247555 199.31462097 57.14044189 C197.99462097 57.14044189 196.67462097 57.14044189 195.31462097 57.14044189 Z M-101.68537903 188.14044189 C-96.31715679 198.87688636 -86.14180448 202.61983635 -75.36897278 206.26153564 C-58.06657738 211.63531715 -40.71363777 211.44068711 -22.77312899 211.41655028 C-19.29104745 211.41405573 -15.80899138 211.42313066 -12.32691956 211.43058777 C-5.52579849 211.4432622 1.27528295 211.44513757 8.07641384 211.44278751 C13.61171513 211.4409959 19.14700451 211.44277192 24.68230438 211.44701195 C25.86934699 211.44790473 25.86934699 211.44790473 27.08037026 211.44881555 C28.68864709 211.45002745 30.29692392 211.45124159 31.90520075 211.45245793 C46.94899745 211.46330565 61.99277168 211.46118421 77.03656963 211.45507308 C90.75697169 211.44990719 104.47730268 211.46115568 118.1976907 211.4801713 C132.33249561 211.499609 146.467267 211.50779529 160.60208535 211.50404805 C168.51896013 211.50214487 176.43577447 211.50453658 184.35263824 211.51876259 C191.09302568 211.53075338 197.83331548 211.53199602 204.57370445 211.51997242 C208.00310805 211.51413697 211.43233375 211.5128334 214.86172485 211.52497482 C240.37734944 211.59721945 270.14786339 211.57654333 289.87712097 192.89044189 C292.53572348 190.50345394 292.53572348 190.50345394 292.31462097 188.14044189 C162.29462097 188.14044189 32.27462097 188.14044189 -101.68537903 188.14044189 Z " fill="#000000" transform="translate(160.6853790283203,216.85955810546875)"/>
<path d="M0 0 C2.49226221 3.73839332 2.62737333 6.67044527 2 11 C0.96137926 13.85056608 -0.44242343 16.42758728 -1.9375 19.0625 C-5.49283558 25.43017356 -7.50791979 30.4445615 -6.4375 37.9375 C-4.12663576 45.92318109 2.39867933 51.55246838 8.4375 56.875 C19.11759095 66.58488298 26.23550139 76.06025251 27.046875 90.8125 C26.91034635 100.09644808 23.88240321 107.8624464 19.6875 116 C19.32092285 116.71824951 18.9543457 117.43649902 18.57666016 118.17651367 C16.01476745 122.88811062 13.40025834 125.90440047 9 129 C5.9375 129.625 5.9375 129.625 3 129 C0.125 126.9375 0.125 126.9375 -2 124 C-2.6476866 118.30717569 -1.22166545 114.90388799 1.8125 110.25 C6.31815988 102.81516606 9.85443824 95.74727289 8.5625 86.8125 C6.25649682 78.13428684 0.01337469 72.94830329 -6.45654297 67.14355469 C-16.35282249 58.24337934 -23.6816654 49.64983367 -25 36 C-25.16317491 23.65309838 -20.66865812 10.68433308 -13 1 C-7.97474807 -2.15554331 -5.51824941 -2.33464398 0 0 Z " fill="#000000" transform="translate(255,69)"/>
<path d="M0 0 C2.5 2.125 2.5 2.125 4 5 C4.24914292 11.10400157 1.24767382 15.78009669 -1.625 21.03515625 C-3.78103216 25.6841006 -4.67462106 30.0998085 -3.046875 35.08203125 C0.15927709 40.955989 6.11777453 45.28011291 11.1875 49.5 C17.97972845 55.32965716 22.79786329 63.09311152 23.8125 72.0625 C24.68781507 84.1386061 19.73489112 95.32424772 12.25 104.625 C9.66729526 107.35118834 8.87744239 107.9025064 5.1875 108.3125 C1.08551753 107.91034486 -0.36270753 107.18026445 -3 104 C-4.0852776 99.92000903 -3.81934867 96.46458575 -1.75 92.765625 C-0.69300375 91.27526028 0.3764178 89.79364296 1.45703125 88.3203125 C4.76604576 83.34422485 6.68101611 77.71186016 5.5 71.75 C3.40784902 65.52336017 -0.7427096 62.15183436 -5.8125 58.3125 C-13.24475255 52.53556229 -19.72096089 44.71255113 -21.51953125 35.2734375 C-22.77715429 22.83135351 -19.15447534 12.27908294 -12 2 C-7.71403077 -1.20946214 -5.19488521 -1.51123934 0 0 Z " fill="#000000" transform="translate(215,84)"/>
<path d="M0 0 C2.69464862 2.94727193 3.01018379 4.43989168 2.9375 8.4375 C1.90539709 12.35949107 0.23969452 14.64045822 -2 18 C-4.84840026 24.59805216 -5.62917506 29.25559442 -3 36 C-0.30750185 39.77548074 2.6396084 42.44467969 6.3125 45.25 C14.98009738 52.21648014 21.32413986 59.89529959 22.875 71.1875 C23.64435796 83.4470518 18.51809862 95.65375072 10.52734375 104.84375 C8.00741691 106.99367212 7.1606594 107.67143382 3.9375 107.5625 C0 107 0 107 -2.5 105.5 C-4.67944298 101.86759504 -5.00307298 99.03196004 -4 95 C-2.37061747 91.88936062 -0.55125218 88.94372562 1.30078125 85.9609375 C4.35443936 80.63985049 5.34526613 76.30177417 4.4375 70.25 C2.08094756 64.92214231 -2.45215356 61.57972214 -6.75854492 57.80175781 C-14.6224134 50.82639098 -22.05368124 43.00095561 -23 32 C-23.25953726 20.61280267 -19.32987673 8.85117189 -12 0 C-7.76951225 -2.89454425 -4.57107572 -1.94693966 0 0 Z " fill="#000000" transform="translate(296,75)"/>
<path d="M0 0 C4.44956777 0.79456567 5.62991375 2.18841103 8.5 5.625 C9.69091797 8.78100586 9.69091797 8.78100586 10.4921875 12.33984375 C10.64394943 12.98402252 10.79571136 13.62820129 10.95207214 14.29190063 C11.44177968 16.37886128 11.90805556 18.47034169 12.375 20.5625 C13.04734564 23.45843992 13.73419242 26.35078803 14.42578125 29.2421875 C14.68152168 30.31790764 14.68152168 30.31790764 14.94242859 31.4153595 C16.70084253 38.68767383 18.97462178 45.77046849 21.50537109 52.81030273 C23.2313399 57.81761338 23.85786443 61.32865318 22.5 66.625 C20.875 69.0625 20.875 69.0625 18.5 70.625 C14.45747977 71.28650331 12.42435655 71.28356712 9.0546875 68.8828125 C4.99956008 64.53907483 3.75521452 58.48582119 2.0625 52.9375 C1.67779541 51.70757324 1.29309082 50.47764648 0.89672852 49.21044922 C-9.57423112 14.99468252 -9.57423112 14.99468252 -8.5 5.625 C-5.89210172 1.98974785 -4.4297642 0.79102932 0 0 Z " fill="#000000" transform="translate(180.5,286.375)"/>
<path d="M0 0 C3.57363473 2.70437223 4.34574682 4.67328795 5 9 C5.16168179 11.01704662 5.26390869 13.03956724 5.3125 15.0625 C5.34988281 16.08472656 5.38726562 17.10695313 5.42578125 18.16015625 C4.88932767 21.73815397 3.87610561 22.86432788 1 25 C-1 25.49609375 -1 25.49609375 -3 25.4375 C-3.66 25.43621094 -4.32 25.43492187 -5 25.43359375 C-7.71325682 24.84536815 -9.03409142 23.96590858 -11 22 C-12.97167871 15.89760978 -13.71859014 9.21336437 -12 3 C-8.77627426 -1.39598964 -4.98104674 -1.3215022 0 0 Z " fill="#000000" transform="translate(180,254)"/>
</svg>
