<?xml version="1.0" encoding="UTF-8"?>
<svg version="1.1" xmlns="http://www.w3.org/2000/svg" width="225" height="225">
<path d="M0 0 C-5.45739891 6.63418301 -11.50391007 12.65227963 -17.57324219 18.71850586 C-18.74347953 19.89173932 -19.91351289 21.06517625 -21.08335876 22.23880005 C-24.2438355 25.40806707 -27.40750786 28.57412493 -30.57206249 31.73931956 C-32.54895077 33.71692027 -34.52512466 35.69523195 -36.50104523 37.67379951 C-43.39319318 44.57517884 -50.2878992 51.47399046 -57.18505859 58.37036133 C-63.61879008 64.80349006 -70.04690134 71.24219735 -76.47245097 77.68349737 C-81.99171917 83.21581309 -87.51480727 88.7442952 -93.04092336 94.26977068 C-96.34081934 97.56941119 -99.63912937 100.87060046 -102.93361664 104.17564201 C-106.02527648 107.27693786 -109.12164008 110.37345679 -112.22177315 113.46628189 C-113.36115635 114.60461418 -114.49881745 115.74467302 -115.63466454 116.88653374 C-117.17927835 118.43879798 -118.72985303 119.98484416 -120.28216553 121.52940369 C-121.15007595 122.39785888 -122.01798637 123.26631407 -122.91219711 124.16108608 C-125 126 -125 126 -127 126 C-127.268125 126.639375 -127.53625 127.27875 -127.8125 127.9375 C-129 130 -129 130 -132 131 C-132.27070313 131.55042969 -132.54140625 132.10085937 -132.8203125 132.66796875 C-134.56776584 136.12237154 -137.16948519 138.57778899 -139.875 141.3125 C-140.66970703 142.15651367 -140.66970703 142.15651367 -141.48046875 143.01757812 C-143.0546875 144.61328125 -143.0546875 144.61328125 -146 147 C-149.43221239 146.7304951 -151.12011765 145.24772715 -153.48339844 142.85717773 C-154.14378113 142.19656845 -154.80416382 141.53595917 -155.48455811 140.85533142 C-156.18574768 140.13865799 -156.88693726 139.42198456 -157.609375 138.68359375 C-158.33618469 137.95253922 -159.06299438 137.22148468 -159.81182861 136.46827698 C-162.13168401 134.13162843 -164.440892 131.78476516 -166.75 129.4375 C-168.32092443 127.85152964 -169.89253094 126.26623457 -171.46484375 124.68164062 C-175.31784726 120.79555934 -179.16154822 116.90044885 -183 113 C-168.71724717 96.22343747 -153.85742568 79.97178138 -138.7238245 63.96302891 C-132.81201913 57.69983131 -126.98299897 51.38863597 -121.31469727 44.90356445 C-84.34574107 2.71806899 -55.95091126 -8.56163315 0 0 Z " fill="#000000" transform="translate(204,0)"/>
<path d="M0 0 C3.80459564 0.00582374 7.60072883 0.17071749 11.40185547 0.32019043 C12.98124957 0.37390354 14.56067746 0.42663195 16.14013672 0.47839355 C19.85282872 0.60205719 23.56490932 0.73815853 27.27685547 0.88269043 C21.65747885 7.74176158 15.37371036 13.91278534 9.09716797 20.16003418 C7.917251 21.33808301 6.73755689 22.51635509 5.55807495 23.69483948 C2.47295856 26.77616185 -0.61515042 29.85446759 -3.70391846 32.93212891 C-6.86320186 36.08113077 -10.0196097 39.23301214 -13.17626953 42.38464355 C-19.3557698 48.55346153 -25.53843843 54.71909172 -31.72314453 60.88269043 C-30.11605792 64.89705685 -27.28957944 67.57785881 -24.26367188 70.55334473 C-23.42930351 71.38574173 -23.42930351 71.38574173 -22.57807922 72.23495483 C-20.74297095 74.06358448 -18.90099623 75.88513737 -17.05908203 77.70690918 C-15.78347933 78.97624131 -14.50839053 80.24609007 -13.23379517 81.51643372 C-9.88101269 84.85592203 -6.52270489 88.18979352 -3.16278076 91.52209473 C2.22382147 96.86554299 7.6036651 102.21577579 12.98035812 107.56919289 C14.86375597 109.44232708 16.75050678 111.31203574 18.63760376 113.18144226 C19.78390612 114.3209211 20.93010146 115.46050761 22.07617188 116.60021973 C22.60602188 117.12333237 23.13587189 117.64644501 23.68177795 118.18540955 C24.89922419 119.39898508 26.09114185 120.63809245 27.27685547 121.88269043 C27.27685547 122.21269043 27.27685547 122.54269043 27.27685547 122.88269043 C-39.58095726 128.6875426 -39.58095726 128.6875426 -55.38720703 115.93347168 C-62.39907292 109.69209941 -68.25802664 102.25628892 -73.34472656 94.38781738 C-75.46784199 91.1322764 -77.87997127 88.55075162 -80.72314453 85.88269043 C-88.3898112 78.21602376 -96.05647786 70.5493571 -103.72314453 62.88269043 C-95.30115193 52.9083314 -86.47672917 43.30108213 -77.47864151 33.84625435 C-74.42192849 30.6295569 -71.40366964 27.39023896 -68.45703125 24.07214355 C-47.07078675 0.06743148 -47.07078675 0.06743148 -31.79973412 -1.23730183 C-25.33283625 -1.54684453 -18.90532173 -1.12974741 -12.47216797 -0.4744873 C-8.29768239 -0.07677485 -4.18936519 -0.00019249 0 0 Z " fill="#000000" transform="translate(176.72314453125,102.1173095703125)"/>
<path d="" fill="#FFFFFF" transform="translate(0,0)"/>
<path d="" fill="#FFFFFF" transform="translate(0,0)"/>
<path d="" fill="#FFFFFF" transform="translate(0,0)"/>
<path d="" fill="#FFFFFF" transform="translate(0,0)"/>
<path d="" fill="#FFFFFF" transform="translate(0,0)"/>
<path d="" fill="#FFFFFF" transform="translate(0,0)"/>
<path d="" fill="#FFFFFF" transform="translate(0,0)"/>
<path d="" fill="#FFFFFF" transform="translate(0,0)"/>
<path d="" fill="#FFFFFF" transform="translate(0,0)"/>
<path d="" fill="#FFFFFF" transform="translate(0,0)"/>
<path d="" fill="#FFFFFF" transform="translate(0,0)"/>
<path d="" fill="#FFFFFF" transform="translate(0,0)"/>
<path d="" fill="#FFFFFF" transform="translate(0,0)"/>
<path d="" fill="#FFFFFF" transform="translate(0,0)"/>
<path d="" fill="#FFFFFF" transform="translate(0,0)"/>
<path d="" fill="#FFFFFF" transform="translate(0,0)"/>
<path d="" fill="#FFFFFF" transform="translate(0,0)"/>
<path d="" fill="#FFFFFF" transform="translate(0,0)"/>
<path d="" fill="#FFFFFF" transform="translate(0,0)"/>
<path d="" fill="#FFFFFF" transform="translate(0,0)"/>
<path d="" fill="#FFFFFF" transform="translate(0,0)"/>
<path d="" fill="#FFFFFF" transform="translate(0,0)"/>
<path d="" fill="#FFFFFF" transform="translate(0,0)"/>
<path d="" fill="#FFFFFF" transform="translate(0,0)"/>
<path d="" fill="#FFFFFF" transform="translate(0,0)"/>
<path d="" fill="#FFFFFF" transform="translate(0,0)"/>
<path d="" fill="#FFFFFF" transform="translate(0,0)"/>
<path d="" fill="#FFFFFF" transform="translate(0,0)"/>
<path d="" fill="#FFFFFF" transform="translate(0,0)"/>
<path d="" fill="#FFFFFF" transform="translate(0,0)"/>
<path d="" fill="#FFFFFF" transform="translate(0,0)"/>
<path d="" fill="#FFFFFF" transform="translate(0,0)"/>
<path d="" fill="#FFFFFF" transform="translate(0,0)"/>
<path d="" fill="#FFFFFF" transform="translate(0,0)"/>
<path d="" fill="#FFFFFF" transform="translate(0,0)"/>
<path d="" fill="#FFFFFF" transform="translate(0,0)"/>
</svg>
