<?xml version="1.0" encoding="UTF-8"?>
<svg version="1.1" xmlns="http://www.w3.org/2000/svg" width="458" height="240">
<path d="M0 0 C2.50557939 1.92587236 4.86150909 3.93699545 7.203125 6.05859375 C8.03328125 6.7959375 8.8634375 7.53328125 9.71875 8.29296875 C19.68900033 17.65154728 26.83333207 29.10986911 31.203125 42.05859375 C31.595 43.20070312 31.986875 44.3428125 32.390625 45.51953125 C38.77199457 67.01233849 36.19575948 90.10115942 26.203125 110.05859375 C21.85325256 117.96249731 16.51820898 124.63930046 10.203125 131.05859375 C9.44257813 131.83203125 8.68203125 132.60546875 7.8984375 133.40234375 C-1.02182276 141.9423962 -12.04716416 148.25234939 -23.796875 152.05859375 C-24.65152344 152.35636719 -25.50617188 152.65414062 -26.38671875 152.9609375 C-42.92004867 157.77668595 -62.63879031 156.72320965 -78.796875 151.05859375 C-79.85648438 150.69636719 -80.91609375 150.33414063 -82.0078125 149.9609375 C-102.13482353 142.32923023 -118.79089356 126.36762851 -127.82641602 106.93286133 C-137.55101376 84.85051984 -138.55199406 61.39841396 -130.19921875 38.5859375 C-122.14164796 18.31856584 -106.55102081 1.38997202 -86.796875 -7.94140625 C-57.86728638 -19.78945385 -25.89874549 -17.97720183 0 0 Z M-52.796875 9.05859375 C-54.42289082 11.45417431 -55.99469482 13.86550614 -57.546875 16.30859375 C-58.55438793 17.8804004 -59.56221299 19.452007 -60.5703125 21.0234375 C-61.09979492 21.85085449 -61.62927734 22.67827148 -62.17480469 23.53076172 C-64.82203969 27.65620893 -67.49740127 31.76327368 -70.171875 35.87109375 C-71.26963153 37.55852852 -72.36728685 39.24602913 -73.46484375 40.93359375 C-74.01317871 41.77664062 -74.56151367 42.6196875 -75.12646484 43.48828125 C-76.80624062 46.07300493 -78.48352971 48.65932634 -80.16015625 51.24609375 C-81.26816466 52.95446892 -82.37623683 54.66280274 -83.484375 56.37109375 C-84.01877197 57.19569092 -84.55316895 58.02028809 -85.10375977 58.86987305 C-87.65181534 62.79299527 -90.21825139 66.70105049 -92.8359375 70.578125 C-93.30555908 71.27446045 -93.77518066 71.9707959 -94.2590332 72.68823242 C-95.13611039 73.98426421 -96.01723693 75.27756818 -96.90307617 76.56762695 C-99.10246991 79.54493657 -99.10246991 79.54493657 -99.796875 83.05859375 C-87.586875 83.05859375 -75.376875 83.05859375 -62.796875 83.05859375 C-61.50650806 75.48500629 -60.21753852 67.91137385 -58.94069672 60.33552551 C-58.34549837 56.80625808 -57.74804926 53.27740855 -57.14477539 49.74951172 C-56.56182671 46.33991563 -55.98556399 42.92924622 -55.41357231 39.51779556 C-55.09178854 37.60867067 -54.76341148 35.70066073 -54.43482971 33.79269409 C-53.05895631 25.54160776 -52.2496386 17.40978867 -51.796875 9.05859375 C-52.126875 9.05859375 -52.456875 9.05859375 -52.796875 9.05859375 Z " fill="#26BAA1" transform="translate(206.796875,49.94140625)"/>
<path d="M0 0 C4.27432387 3.75934509 7.03440202 8.43021285 10.0625 13.1875 C10.6390332 14.08388184 11.21556641 14.98026367 11.80957031 15.90380859 C12.98913275 17.73814191 14.16671278 19.57375155 15.34228516 21.41064453 C17.63347361 24.98948764 19.94078047 28.55777612 22.25 32.125 C22.67853271 32.78822266 23.10706543 33.45144531 23.54858398 34.13476562 C28.25417114 41.41063148 33.00422989 48.65744485 37.75064087 55.90670776 C41.83849946 62.15080191 45.91864728 68.39873973 49.9375 74.6875 C52.94704367 79.39100346 56.01894052 84.04756965 59.125 88.6875 C62.12323913 93.17503787 65.12031928 97.66291942 68.0625 102.1875 C68.61035156 103.02667969 69.15820312 103.86585938 69.72265625 104.73046875 C71.86445147 108.53592143 71.86445147 108.53592143 72 111 C69.8349058 114.7060171 66.85354693 117.80641689 64 121 C63.25105469 121.84433594 62.50210938 122.68867188 61.73046875 123.55859375 C47.48353484 138.7033444 27.56583627 148.39328676 6.75390625 149.38671875 C-5.72823084 149.71469257 -17.16599096 149.14870432 -29 145 C-30.05960938 144.63777344 -31.11921875 144.27554688 -32.2109375 143.90234375 C-48.70300981 137.64892302 -63.8991758 125.17696272 -73 110 C-73 109.34 -73 108.68 -73 108 C-72.34 108 -71.68 108 -71 108 C-70.71479492 107.41371826 -70.42958984 106.82743652 -70.13574219 106.22338867 C-69.11275198 104.22072921 -68.01977958 102.33123589 -66.828125 100.42578125 C-66.41377197 99.7620752 -65.99941895 99.09836914 -65.57250977 98.41455078 C-64.91786743 97.37403564 -64.91786743 97.37403564 -64.25 96.3125 C-63.80261475 95.60077637 -63.35522949 94.88905273 -62.89428711 94.15576172 C-61.59963989 92.1016349 -60.30074301 90.0502708 -59 88 C-58.37738281 87.01644531 -57.75476563 86.03289062 -57.11328125 85.01953125 C-56.60152344 84.22933594 -56.08976562 83.43914062 -55.5625 82.625 C-55.13066406 81.95726562 -54.69882813 81.28953125 -54.25390625 80.6015625 C-53 79 -53 79 -50 77 C-47.17016801 76.82806927 -44.44118127 76.76791563 -41.61328125 76.8046875 C-40.79627243 76.8075174 -39.97926361 76.81034729 -39.13749695 76.81326294 C-36.52901541 76.82445459 -33.9208777 76.8495571 -31.3125 76.875 C-29.54362475 76.88503112 -27.77474412 76.89415674 -26.00585938 76.90234375 C-21.67044051 76.92439058 -17.33527855 76.9589133 -13 77 C-12.95137817 76.36020203 -12.90275635 75.72040405 -12.85266113 75.06121826 C-12.231232 67.54441286 -11.17042574 60.14691707 -9.96875 52.703125 C-9.67478333 50.85361237 -9.67478333 50.85361237 -9.37487793 48.96673584 C-8.85835941 45.72062825 -8.33878749 42.4750304 -7.81756592 39.22967529 C-7.08300937 34.65052066 -6.35464474 30.0703762 -5.62512207 25.49041748 C-5.23771887 23.0606071 -4.84933709 20.63095248 -4.45983887 18.20147705 C-4.19451355 16.54375275 -4.19451355 16.54375275 -3.92382812 14.85253906 C-3.67644897 13.31925964 -3.67644897 13.31925964 -3.42407227 11.75500488 C-3.06891396 9.4477027 -2.77212871 7.1449145 -2.49804688 4.82714844 C-2 2 -2 2 0 0 Z " fill="#89CFC1" transform="translate(157,56)"/>
<path d="M0 0 C4.27432387 3.75934509 7.03440202 8.43021285 10.0625 13.1875 C10.6390332 14.08388184 11.21556641 14.98026367 11.80957031 15.90380859 C12.98913275 17.73814191 14.16671278 19.57375155 15.34228516 21.41064453 C17.6334733 24.98948716 19.94070674 28.55782425 22.25 32.125 C22.67635742 32.78459717 23.10271484 33.44419434 23.54199219 34.1237793 C27.94474015 40.92939096 32.37779501 47.71519265 36.8125 54.5 C37.53018555 55.59844238 38.24787109 56.69688477 38.98730469 57.82861328 C40.02419434 59.41391846 40.02419434 59.41391846 41.08203125 61.03125 C41.74412598 62.04445312 42.4062207 63.05765625 43.08837891 64.1015625 C45.34350224 67.52082485 47.64763454 70.90516561 49.9753418 74.27539062 C51 76 51 76 51 78 C49.8761792 77.94650391 48.7523584 77.89300781 47.59448242 77.83789062 C43.37680748 77.65894014 39.16273958 77.58832157 34.94165039 77.54833984 C33.12450431 77.51644596 31.30760603 77.45616073 29.49243164 77.36572266 C19.16487366 76.60762865 19.16487366 76.60762865 10.0791626 80.62744141 C6.71609143 84.52915128 4.18185572 88.82787565 1.91645813 93.44152832 C1 95 1 95 -1 96 C-11.96856116 79.54715827 -13.20373417 72.55606397 -9.96875 52.60546875 C-9.77277222 51.37387527 -9.57679443 50.1422818 -9.37487793 48.87336731 C-8.75407184 44.97740122 -8.12722658 41.08243706 -7.5 37.1875 C-6.87346082 33.27461048 -6.249497 29.3613097 -5.62512207 25.44807434 C-5.23785529 23.02380616 -4.84948049 20.59971464 -4.45983887 18.17582703 C-4.28295532 17.07390518 -4.10607178 15.97198334 -3.92382812 14.83666992 C-3.67644897 13.30784683 -3.67644897 13.30784683 -3.42407227 11.74813843 C-3.06849276 9.44385733 -2.77178072 7.14420616 -2.49804688 4.8293457 C-2 2 -2 2 0 0 Z " fill="#EBEEEE" transform="translate(157,56)"/>
<path d="M0 0 C0.66 0.66 1.32 1.32 2 2 C1.34 2 0.68 2 0 2 C0 33.02 0 64.04 0 96 C-1.32 94.35 -2.64 92.7 -4 91 C-4.79019531 90.03964844 -5.58039063 89.07929688 -6.39453125 88.08984375 C-7.19246094 87.04957031 -7.99039063 86.00929688 -8.8125 84.9375 C-9.62332031 83.91527344 -10.43414062 82.89304687 -11.26953125 81.83984375 C-15.77320533 74.1151065 -11.32240975 60.95367582 -9.96875 52.60546875 C-9.77277222 51.37387527 -9.57679443 50.1422818 -9.37487793 48.87336731 C-8.75407184 44.97740122 -8.12722658 41.08243706 -7.5 37.1875 C-6.87346082 33.27461048 -6.249497 29.3613097 -5.62512207 25.44807434 C-5.23785529 23.02380616 -4.84948049 20.59971464 -4.45983887 18.17582703 C-4.28295532 17.07390518 -4.10607178 15.97198334 -3.92382812 14.83666992 C-3.67644897 13.30784683 -3.67644897 13.30784683 -3.42407227 11.74813843 C-3.06849276 9.44385733 -2.77178072 7.14420616 -2.49804688 4.8293457 C-2 2 -2 2 0 0 Z " fill="#DFE2E2" transform="translate(157,56)"/>
<path d="M0 0 C0.99 0 1.98 0 3 0 C5 0 7 0 9 0 C9.07453622 4.1625612 9.12878254 8.3247618 9.16479492 12.48779297 C9.17981825 13.90192437 9.20024305 15.31600968 9.22631836 16.72998047 C9.26298954 18.77062397 9.27979036 20.81064792 9.29296875 22.8515625 C9.3086792 24.07697754 9.32438965 25.30239258 9.34057617 26.56494141 C8.88085677 31.20168117 7.48556335 34.61027945 4.0625 37.8125 C-0.34526655 40.35030499 -4.98493539 40.53232529 -10 40 C-14.08620755 38.84502906 -16.57761406 37.63357891 -19 34 C-18.01 32.68 -17.02 31.36 -16 30 C-13 31.5 -13 31.5 -10 33 C-4.37028004 33.58610437 -4.37028004 33.58610437 0.5 31.25 C2.36980013 28.89599371 2.36980013 28.89599371 2 25 C1.01 25.66 0.02 26.32 -1 27 C-5.63221499 27.75880093 -9.16983489 27.41508256 -13.375 25.3125 C-16.66449988 22.41460725 -18.68645625 20.35157813 -19.28125 15.890625 C-19.48359554 10.86571081 -18.85286844 7.27930267 -16 3 C-10.86909159 -1.79988206 -6.532108 -0.93315829 0 0 Z M-12 9 C-13.16585191 12.41094915 -13.16585191 12.41094915 -13 16 C-11.20121842 19.18245972 -9.94890419 20.61070597 -6.5625 22 C-3.20521695 22 -1.65320395 21.00783002 1 19 C3.34549674 15.48175489 3.57991403 14.14224306 3 10 C0.51397551 6.63655511 -0.91425523 5.19942251 -5.0625 4.4375 C-8.74345769 5.14236424 -9.87000351 5.9233384 -12 9 Z " fill="#31B39D" transform="translate(291,107)"/>
<path d="M0 0 C0.99 0.495 0.99 0.495 2 1 C2.31298828 3.55810547 2.31298828 3.55810547 2.4453125 6.9921875 C2.89477453 14.74687956 4.09024109 22.23772547 5.46917725 29.87487793 C6.16147051 33.71336244 6.82867052 37.5562418 7.5 41.3984375 C7.6314743 42.1471814 7.76294861 42.89592529 7.89840698 43.6673584 C8.95315862 49.68542686 9.95433244 55.70980936 10.875 61.75 C10.99472168 62.50941895 11.11444336 63.26883789 11.23779297 64.05126953 C11.53325257 66.02843603 11.76900685 68.01426943 12 70 C12.13535156 71.15113281 12.27070313 72.30226563 12.41015625 73.48828125 C11.82936577 78.46095404 9.48765855 81.47566815 6.5625 85.4375 C6.04623047 86.16904297 5.52996094 86.90058594 4.99804688 87.65429688 C2.31467408 91.41101878 2.31467408 91.41101878 1 93 C0.67 93 0.34 93 0 93 C0 62.31 0 31.62 0 0 Z " fill="#F8FBFA" transform="translate(157,58)"/>
<path d="M0 0 C1.98 0 3.96 0 6 0 C6 15.18 6 30.36 6 46 C3 46 0 46 -3 46 C-3.82113281 46.05800781 -4.64226562 46.11601562 -5.48828125 46.17578125 C-14.05325175 46.59040638 -14.05325175 46.59040638 -17.5625 43.75 C-21.48440265 39.32528932 -22.47190174 36.1474623 -22.30859375 30.31640625 C-21.77276001 26.29426185 -20.51811602 24.22835388 -18 21 C-12.58965815 17.67055886 -8.98063121 17.78360043 -3 19 C-2.34 19.33 -1.68 19.66 -1 20 C-0.67 13.4 -0.34 6.8 0 0 Z M-15 28 C-16.15711808 31.62563666 -16.3351709 33.26262402 -14.75 36.75 C-13.02635231 39.21081851 -13.02635231 39.21081851 -10 41 C-6.34044098 40.86930146 -3.91584431 40.76812749 -1.0625 38.375 C0.4590889 34.97380129 0.51749792 32.68717269 0 29 C-2.47493359 25.57876827 -3.88263781 24.20522979 -8.0625 23.4375 C-11.71255579 24.13644685 -12.85564611 24.98202045 -15 28 Z " fill="#2AB79E" transform="translate(349,88)"/>
<path d="M0 0 C3.97108701 2.36575396 5.85325363 4.51726419 7 9 C7 11.31 7 13.62 7 16 C0.4 16.33 -6.2 16.66 -13 17 C-9.58251696 21.21111977 -9.58251696 21.21111977 -6.0625 21.4375 C-2.70012806 20.95716115 -0.75408181 19.94405774 2 18 C3.32 19.32 4.64 20.64 6 22 C3.17161657 25.14264825 1.37678517 26.73530686 -2.82421875 27.54296875 C-8.13030295 27.78929888 -11.99173913 27.65507097 -16.1875 24.1875 C-19.41244113 21.0096383 -20.15872567 18.08223002 -20.25 13.625 C-20.19098458 9.57916529 -19.64722201 7.19492312 -17 4 C-11.39870869 -1.04116218 -7.1742048 -1.62648931 0 0 Z M-13 8 C-13.33 8.99 -13.66 9.98 -14 11 C-9.05 11 -4.1 11 1 11 C-0.40177533 6.14123888 -0.40177533 6.14123888 -2.9375 4.6875 C-7.66429708 3.11190097 -9.54541183 4.81814248 -13 8 Z " fill="#29B7A0" transform="translate(379,107)"/>
<path d="M0 0 C1.98 0 3.96 0 6 0 C6 15.18 6 30.36 6 46 C4.02 46 2.04 46 0 46 C0 30.82 0 15.64 0 0 Z " fill="#35B09B" transform="translate(305,88)"/>
<path d="M0 0 C1.98 0 3.96 0 6 0 C6 15.18 6 30.36 6 46 C-0.66666667 46 -7.33333333 46 -14 46 C-14 45.67 -14 45.34 -14 45 C-9.545 44.505 -9.545 44.505 -5 44 C-9.455 42.02 -9.455 42.02 -14 40 C-13.67 39.34 -13.34 38.68 -13 38 C-12.01 38.66 -11.02 39.32 -10 40 C-6.42823885 39.91832511 -6.42823885 39.91832511 -3 39 C-0.51961093 35.2794164 -0.53662797 33.40203429 -1 29 C-2.41666667 26.41666667 -2.41666667 26.41666667 -5 25 C-8.6675213 24.66582071 -8.6675213 24.66582071 -12 25 C-12 24.34 -12 23.68 -12 23 C-2.87743733 22.37325905 -2.87743733 22.37325905 0.625 24.875 C2 27 2 27 2 29 C2.99 29 3.98 29 5 29 C4.83701416 28.45182617 4.67402832 27.90365234 4.50610352 27.33886719 C3.93196444 24.68558577 3.88726348 22.29257322 3.90234375 19.578125 C3.90556641 18.55332031 3.90878906 17.52851562 3.91210938 16.47265625 C3.92048828 15.40917969 3.92886719 14.34570312 3.9375 13.25 C3.94201172 12.17105469 3.94652344 11.09210938 3.95117188 9.98046875 C3.96294273 7.32025617 3.97938601 4.66015635 4 2 C3.01 2 2.02 2 1 2 C1 7.94 1 13.88 1 20 C0.67 20 0.34 20 0 20 C0 13.4 0 6.8 0 0 Z " fill="#3AAF9B" transform="translate(349,88)"/>
<path d="M0 0 C3.97108701 2.36575396 5.85325363 4.51726419 7 9 C7 11.31 7 13.62 7 16 C0.4 16 -6.2 16 -13 16 C-13 15.67 -13 15.34 -13 15 C-6.73 15 -0.46 15 6 15 C5.34 11.7 4.68 8.4 4 5 C3.01 5 2.02 5 1 5 C0.67 5.99 0.34 6.98 0 8 C-0.33 7.34 -0.66 6.68 -1 6 C-4.28692396 4.89864511 -4.28692396 4.89864511 -8 5 C-10.96050874 7.29199403 -10.96050874 7.29199403 -13 10 C-13.99 9.67 -14.98 9.34 -16 9 C-16 8.34 -16 7.68 -16 7 C-16.66 7 -17.32 7 -18 7 C-18.33 10.63 -18.66 14.26 -19 18 C-19.33 18 -19.66 18 -20 18 C-20.57007576 8.30871212 -20.57007576 8.30871212 -17 4 C-11.39870869 -1.04116218 -7.1742048 -1.62648931 0 0 Z " fill="#37AE99" transform="translate(379,107)"/>
<path d="M0 0 C1.98 0 3.96 0 6 0 C6 8.91 6 17.82 6 27 C4.02 27 2.04 27 0 27 C0 18.09 0 9.18 0 0 Z " fill="#42AD9A" transform="translate(317,107)"/>
<path d="M0 0 C0 -0.66 0 -1.32 0 -2 C0.99 -2 1.98 -2 3 -2 C3 5.26 3 12.52 3 20 C1.02 20.99 1.02 20.99 -1 22 C-1 20.68 -1 19.36 -1 18 C-1.99 18 -2.98 18 -4 18 C-3.690625 17.319375 -3.38125 16.63875 -3.0625 15.9375 C-1.86629351 12.63034088 -1.40994603 9.48454122 -1 6 C-1.66 6 -2.32 6 -3 6 C-3.309375 5.195625 -3.61875 4.39125 -3.9375 3.5625 C-5.7454438 0.76237398 -5.7454438 0.76237398 -8.640625 0.4453125 C-11.43170617 0.20914409 -14.19972753 0.05229711 -17 0 C-11.40162986 -6.13154825 -6.54425646 -2.89457497 0 0 Z " fill="#27B9A0" transform="translate(296,111)"/>
<path d="M0 0 C5.76417073 0.25116212 9.89802749 0.5251209 14 5 C16.46733737 9.34721347 16 11.55258321 16 17 C9.4 17 2.8 17 -4 17 C-4 16.67 -4 16.34 -4 16 C2.27 16 8.54 16 15 16 C14.34 12.7 13.68 9.4 13 6 C12.01 6 11.02 6 10 6 C9.67 6.99 9.34 7.98 9 9 C8.67 8.34 8.34 7.68 8 7 C3.9849265 5.99623162 1.83332509 5.59220261 -1.9375 7.4375 C-2.618125 7.953125 -3.29875 8.46875 -4 9 C-3.4375 7.0625 -3.4375 7.0625 -2 5 C1.76406238 4.16354169 5.14364222 4 9 4 C6.03 3.01 3.06 2.02 0 1 C0 0.67 0 0.34 0 0 Z " fill="#3EA896" transform="translate(370,106)"/>
<path d="M0 0 C1.65 0.99 3.3 1.98 5 3 C1.25 7.875 1.25 7.875 -1 9 C-3.04055005 9.07065617 -5.08334257 9.08421976 -7.125 9.0625 C-8.22070312 9.05347656 -9.31640625 9.04445312 -10.4453125 9.03515625 C-11.70988281 9.01775391 -11.70988281 9.01775391 -13 9 C-13 8.67 -13 8.34 -13 8 C-9.37 8 -5.74 8 -2 8 C-2 7.01 -2 6.02 -2 5 C-2.62648438 5.01160156 -3.25296875 5.02320313 -3.8984375 5.03515625 C-4.71570313 5.04417969 -5.53296875 5.05320313 -6.375 5.0625 C-7.18710937 5.07410156 -7.99921875 5.08570313 -8.8359375 5.09765625 C-11 5 -11 5 -13 4 C-12.67 3.34 -12.34 2.68 -12 2 C-11.34 2.33 -10.68 2.66 -10 3 C-6.51044604 3.30343947 -4.62494296 3.39470082 -1.625 1.5 C-0.820625 0.7575 -0.820625 0.7575 0 0 Z " fill="#39AC98" transform="translate(380,125)"/>
<path d="M0 0 C3.35585467 3.0202692 4.22157001 4.55392503 6 9 C-6.87 9 -19.74 9 -33 9 C-33 8.34 -33 7.68 -33 7 C-21.12 7.33 -9.24 7.66 3 8 C2.0022242 5.00667261 1.2477975 4.05233685 -1 2 C-0.67 1.34 -0.34 0.68 0 0 Z " fill="#DBF2EF" transform="translate(202,125)"/>
<path d="M0 0 C0.804375 0.185625 1.60875 0.37125 2.4375 0.5625 C3.283125 0.706875 4.12875 0.85125 5 1 C5.33 0.67 5.66 0.34 6 0 C7.98 0 9.96 0 12 0 C12 9.9 12 19.8 12 30 C11.67 30 11.34 30 11 30 C11 20.76 11 11.52 11 2 C10.01 2 9.02 2 8 2 C8 2.66 8 3.32 8 4 C5.64828869 3.40138258 3.3140622 2.73075648 1 2 C0.67 1.34 0.34 0.68 0 0 Z " fill="#41AE9B" transform="translate(288,107)"/>
<path d="M0 0 C2.6875 0.875 2.6875 0.875 5 2 C4.67 3.98 4.34 5.96 4 8 C2.02 8 0.04 8 -2 8 C-2.33 6.02 -2.66 4.04 -3 2 C-2.01 1.34 -1.02 0.68 0 0 Z " fill="#37AE9A" transform="translate(319,87)"/>
<path d="M0 0 C0.99 0 1.98 0 3 0 C2.67 0.99 2.34 1.98 2 3 C1.67 3 1.34 3 1 3 C0.67 16.2 0.34 29.4 0 43 C-0.33 43 -0.66 43 -1 43 C-1.02464574 37.03686834 -1.042834 31.07376605 -1.05493164 25.1105957 C-1.05997278 23.08031702 -1.06680557 21.05004198 -1.07543945 19.01977539 C-1.08751467 16.10822653 -1.09323034 13.1967255 -1.09765625 10.28515625 C-1.10281754 9.3716188 -1.10797882 8.45808136 -1.11329651 7.51686096 C-1.11349168 5.34424573 -1.06211805 3.17172704 -1 1 C-0.67 0.67 -0.34 0.34 0 0 Z " fill="#32B49D" transform="translate(307,89)"/>
<path d="M0 0 C1.65 0 3.3 0 5 0 C4.95875 1.19625 4.9175 2.3925 4.875 3.625 C4.86150263 7.45150519 5.71505679 10.38609723 7 14 C7.125 16.875 7.125 16.875 7 19 C4.52748562 15.99614299 3.12314723 13.15575167 1.8125 9.5 C1.46832031 8.5615625 1.12414062 7.623125 0.76953125 6.65625 C0 4 0 4 0 0 Z " fill="#36B39D" transform="translate(74,140)"/>
<path d="M0 0 C0.99 0.33 1.98 0.66 3 1 C1.87540329 2.77108948 0.75030797 4.54186236 -0.375 6.3125 C-1.00148438 7.29863281 -1.62796875 8.28476563 -2.2734375 9.30078125 C-3.49651613 11.21287929 -4.7409356 13.1114034 -6 15 C-7.9375 14.6875 -7.9375 14.6875 -10 14 C-10.33 13.01 -10.66 12.02 -11 11 C-9.68 11 -8.36 11 -7 11 C-6.01 9.02 -5.02 7.04 -4 5 C-3.01 5 -2.02 5 -1 5 C-0.67 3.35 -0.34 1.7 0 0 Z " fill="#35B49F" transform="translate(92,149)"/>
<path d="M0 0 C0.66 0 1.32 0 2 0 C2.33 7.26 2.66 14.52 3 22 C2.01 22 1.02 22 0 22 C0 14.74 0 7.48 0 0 Z " fill="#26BAA1" transform="translate(319,111)"/>
<path d="M0 0 C2 3 2 3 3 6 C5.09138456 7.23950042 5.09138456 7.23950042 7.5625 8.1875 C8.38878906 8.53167969 9.21507812 8.87585938 10.06640625 9.23046875 C10.70449219 9.48441406 11.34257812 9.73835937 12 10 C12 10.33 12 10.66 12 11 C8.7 11 5.4 11 2 11 C1.67 9.35 1.34 7.7 1 6 C0.34 6 -0.32 6 -1 6 C-0.67 4.02 -0.34 2.04 0 0 Z " fill="#27B8A0" transform="translate(333,122)"/>
<path d="M0 0 C0.66 0.66 1.32 1.32 2 2 C0.67935547 2.19916016 0.67935547 2.19916016 -0.66796875 2.40234375 C-1.82941406 2.57894531 -2.99085938 2.75554687 -4.1875 2.9375 C-5.91033203 3.19853516 -5.91033203 3.19853516 -7.66796875 3.46484375 C-10.46325212 3.91379313 -13.22933586 4.42082162 -16 5 C-15 2 -15 2 -11.9375 0.25 C-7.64334013 -1.44459615 -4.46533942 -0.98388835 0 0 Z " fill="#38AE99" transform="translate(346,107)"/>
<path d="M0 0 C0.33 0 0.66 0 1 0 C1.2954439 5.02254631 0.98514628 7.89542386 -2 12 C-1.01 12 -0.02 12 1 12 C1 14.97 1 17.94 1 21 C0.34 21 -0.32 21 -1 21 C-1 19.02 -1 17.04 -1 15 C-2.32 15 -3.64 15 -5 15 C-4.34 14.67 -3.68 14.34 -3 14 C-3 13.34 -3 12.68 -3 12 C-4.32 11.67 -5.64 11.34 -7 11 C-6.21625 10.67 -5.4325 10.34 -4.625 10 C-0.84142777 7.1172783 -0.83052742 4.60565207 0 0 Z " fill="#39AE9A" transform="translate(294,117)"/>
<path d="M0 0 C3.82516038 3.46766876 6.45754712 7.45579194 9.25 11.75 C9.70890625 12.44738281 10.1678125 13.14476563 10.640625 13.86328125 C11.76465406 15.57274211 12.88291224 17.28599512 14 19 C13.34 19.33 12.68 19.66 12 20 C9.06488119 18.53244059 8.39238248 16.30733209 6.875 13.4375 C6.06675781 11.91962891 6.06675781 11.91962891 5.2421875 10.37109375 C4.83226562 9.58863281 4.42234375 8.80617188 4 8 C3.34 8 2.68 8 2 8 C2 6.68 2 5.36 2 4 C1.34 4 0.68 4 0 4 C0 2.68 0 1.36 0 0 Z " fill="#D1F3F0" transform="translate(183,96)"/>
<path d="M0 0 C0.33 0 0.66 0 1 0 C1 1.65 1 3.3 1 5 C0.01 5.495 0.01 5.495 -1 6 C-1.33 6.66 -1.66 7.32 -2 8 C-3 10 -3 10 -5 11 C-5.72693904 12.97888961 -6.39816251 14.97954558 -7 17 C-7.99 17 -8.98 17 -10 17 C-8.5137853 12.80591769 -6.41721984 9.37332677 -3.9375 5.6875 C-3.22464844 4.61886719 -2.51179688 3.55023438 -1.77734375 2.44921875 C-1.19082031 1.64097656 -0.60429688 0.83273438 0 0 Z " fill="#78D3C4" transform="translate(99,143)"/>
<path d="M0 0 C8.16964286 0.66964286 8.16964286 0.66964286 11 4 C10.26394531 3.97679688 9.52789062 3.95359375 8.76953125 3.9296875 C7.30580078 3.90261719 7.30580078 3.90261719 5.8125 3.875 C4.36810547 3.84019531 4.36810547 3.84019531 2.89453125 3.8046875 C-0.12812778 4.0086456 -2.26769985 4.73125368 -5 6 C-5 5.01 -5 4.02 -5 3 C-3.35 2.67 -1.7 2.34 0 2 C0 1.34 0 0.68 0 0 Z " fill="#28BA9F" transform="translate(370,107)"/>
<path d="M0 0 C0.66 0.33 1.32 0.66 2 1 C1.319375 1.53625 0.63875 2.0725 -0.0625 2.625 C-3.43424062 5.35108816 -6.71710048 8.16823889 -10 11 C-11.31213883 12.12542122 -12.62462563 13.25043691 -13.9375 14.375 C-14.52402344 14.87773438 -15.11054687 15.38046875 -15.71484375 15.8984375 C-16.13894531 16.26195313 -16.56304687 16.62546875 -17 17 C-17.66 16.67 -18.32 16.34 -19 16 C-13.23253884 9.78634557 -6.96639689 4.81500962 0 0 Z " fill="#3FAB98" transform="translate(111,47)"/>
<path d="M0 0 C0.6875 1.8125 0.6875 1.8125 1 4 C-0.3125 5.4921875 -0.3125 5.4921875 -2 7 C-3.08455255 9.04948533 -4.0046871 11.13566316 -4.9375 13.2578125 C-6 15 -6 15 -9 16 C-8.37695259 11.92546771 -6.23467379 9.10460299 -3.9375 5.75 C-3.20402344 4.67234375 -2.47054687 3.5946875 -1.71484375 2.484375 C-1.14894531 1.66453125 -0.58304688 0.8446875 0 0 Z " fill="#97CCC2" transform="translate(168,135)"/>
<path d="M0 0 C0.66 0 1.32 0 2 0 C1.59060025 6.76215448 0.43046191 12.67162748 -2 19 C-2.99 17.68 -3.98 16.36 -5 15 C-4.34 14.67 -3.68 14.34 -3 14 C-3 12.35 -3 10.7 -3 9 C-2.34 9 -1.68 9 -1 9 C-0.67 6.03 -0.34 3.06 0 0 Z " fill="#38AE9B" transform="translate(239,132)"/>
<path d="M0 0 C4.47034438 3.95944788 7.7085099 8.44586447 10 14 C9.67 14.66 9.34 15.32 9 16 C6.44971017 14.72485508 6.06918289 13.59658703 5 11 C5 10.01 5 9.02 5 8 C4.01 7.67 3.02 7.34 2 7 C0.8125 3.4375 0.8125 3.4375 0 0 Z " fill="#39AD9A" transform="translate(224,68)"/>
<path d="M0 0 C0.66 0 1.32 0 2 0 C2 0.66 2 1.32 2 2 C2.8971875 2.1546875 2.8971875 2.1546875 3.8125 2.3125 C6.28243264 3.08876455 7.32251235 4.07088921 9 6 C8.34 7.65 7.68 9.3 7 11 C4.04250209 7.53258866 1.92151848 4.13126473 0 0 Z " fill="#38B69F" transform="translate(174,80)"/>
<path d="M0 0 C0.33 0 0.66 0 1 0 C1.9765625 6.0546875 1.9765625 6.0546875 2 8 C1.34 8.66 0.68 9.32 0 10 C-0.70710678 11.64991582 -1.37943989 13.31562256 -2 15 C-2.33 15 -2.66 15 -3 15 C-2.5547115 9.72684667 -1.91626837 4.98229776 0 0 Z " fill="#3AB09C" transform="translate(76,90)"/>
<path d="M0 0 C1.23556641 0.01740234 1.23556641 0.01740234 2.49609375 0.03515625 C3.32238281 0.04417969 4.14867187 0.05320313 5 0.0625 C5.63808594 0.07410156 6.27617187 0.08570313 6.93359375 0.09765625 C6.60359375 1.41765625 6.27359375 2.73765625 5.93359375 4.09765625 C3.29359375 4.09765625 0.65359375 4.09765625 -2.06640625 4.09765625 C-2.39640625 3.10765625 -2.72640625 2.11765625 -3.06640625 1.09765625 C-2.06640625 0.09765625 -2.06640625 0.09765625 0 0 Z " fill="#25BBA0" transform="translate(284.06640625,128.90234375)"/>
<path d="M0 0 C0.66 0 1.32 0 2 0 C2 3.3 2 6.6 2 10 C1.01 10 0.02 10 -1 10 C-1.33 7.69 -1.66 5.38 -2 3 C-1.34 3 -0.68 3 0 3 C0 2.01 0 1.02 0 0 Z " fill="#23BBA0" transform="translate(351,122)"/>
<path d="M0 0 C0 0.66 0 1.32 0 2 C-0.99 2 -1.98 2 -3 2 C-2.01 3.98 -1.02 5.96 0 8 C-2.86207152 6.71700242 -5.0245088 5.469364 -7 3 C-7 2.01 -7 1.02 -7 0 C-3.98968256 -0.93423645 -3.13349732 -1.04449911 0 0 Z " fill="#36AF9A" transform="translate(367,125)"/>
<path d="M0 0 C0.99 0.33 1.98 0.66 3 1 C3 1.66 3 2.32 3 3 C3.61875 3.04125 4.2375 3.0825 4.875 3.125 C7 4 7 4 8.1875 6.8125 C8.455625 7.864375 8.72375 8.91625 9 10 C9.20625 10.78375 9.4125 11.5675 9.625 12.375 C9.74875 12.91125 9.8725 13.4475 10 14 C6.95483798 11.16667533 4.83131399 8.34499689 2.75 4.75 C2.22921875 3.85796875 1.7084375 2.9659375 1.171875 2.046875 C0.78515625 1.37140625 0.3984375 0.6959375 0 0 Z " fill="#42B49F" transform="translate(189,104)"/>
<path d="M0 0 C3.10190545 4.65285818 4.33846504 9.41532676 4 15 C3.34 15 2.68 15 2 15 C2 12.69 2 10.38 2 8 C1.34 8 0.68 8 0 8 C-0.79953138 4.71303767 -1.09658936 3.28976808 0 0 Z " fill="#3AAF9D" transform="translate(237,92)"/>
<path d="M0 0 C0.77321882 2.98241547 1.41196203 5.97580475 2 9 C1.38125 8.814375 0.7625 8.62875 0.125 8.4375 C-2.04160178 7.76313824 -2.04160178 7.76313824 -4 9 C-2.94124926 5.59687262 -1.99097846 2.98646769 0 0 Z " fill="#33B09C" transform="translate(84,74)"/>
<path d="M0 0 C0 0.99 0 1.98 0 3 C-1.6796875 4.60546875 -1.6796875 4.60546875 -3.875 6.1875 C-4.59429687 6.71730469 -5.31359375 7.24710938 -6.0546875 7.79296875 C-8 9 -8 9 -10 9 C-10 8.01 -10 7.02 -10 6 C-9.236875 5.731875 -8.47375 5.46375 -7.6875 5.1875 C-5.09118877 4.04029271 -3.8749652 3.05353332 -2 1 C-1.34 0.67 -0.68 0.34 0 0 Z " fill="#95C7BE" transform="translate(212,183)"/>
<path d="M0 0 C0.99 0.33 1.98 0.66 3 1 C0.69 4.63 -1.62 8.26 -4 12 C-5.04449911 8.86650268 -4.93423645 8.01031744 -4 5 C-3.01 5 -2.02 5 -1 5 C-0.67 3.35 -0.34 1.7 0 0 Z " fill="#37AD96" transform="translate(120,107)"/>
<path d="M0 0 C-0.66 1.98 -1.32 3.96 -2 6 C-2.99 6 -3.98 6 -5 6 C-5.66 4.68 -6.32 3.36 -7 2 C-2.25 0 -2.25 0 0 0 Z " fill="#39B19E" transform="translate(233,158)"/>
<path d="M0 0 C0.99 0 1.98 0 3 0 C1.54955729 4.10958767 -0.51110752 7.43258745 -3 11 C-3.33 9.68 -3.66 8.36 -4 7 C-3.34 6.67 -2.68 6.34 -2 6 C-1.27306096 4.02111039 -0.60183749 2.02045442 0 0 Z " fill="#33AA99" transform="translate(141,74)"/>
<path d="M0 0 C1.32 0.66 2.64 1.32 4 2 C3.01 2.495 3.01 2.495 2 3 C1.34 2.67 0.68 2.34 0 2 C0 3.32 0 4.64 0 6 C0.66 6 1.32 6 2 6 C2 6.66 2 7.32 2 8 C0.68 7.34 -0.64 6.68 -2 6 C-2 3 -2 3 0 0 Z " fill="#41AA95" transform="translate(275,137)"/>
<path d="M0 0 C2.1875 -0.4375 2.1875 -0.4375 5 0 C6.98441782 2.13995327 8.5023304 4.50175965 10 7 C9.01 7 8.02 7 7 7 C6.773125 6.195625 6.54625 5.39125 6.3125 4.5625 C5.879375 3.716875 5.44625 2.87125 5 2 C2.45224694 1.10613836 2.45224694 1.10613836 0 1 C0 0.67 0 0.34 0 0 Z " fill="#9BCBC1" transform="translate(139,133)"/>
<path d="M0 0 C0.66 0.66 1.32 1.32 2 2 C0.69593116 4.01920337 -0.63823419 6.01924973 -2 8 C-2.33 8 -2.66 8 -3 8 C-3.1875 5.125 -3.1875 5.125 -3 2 C-2.01 1.34 -1.02 0.68 0 0 Z " fill="#E6FAF7" transform="translate(165,136)"/>
<path d="M0 0 C0.99 0 1.98 0 3 0 C1.8141763 3.37503669 0.72426311 5.64722731 -2 8 C-2 6.68 -2 5.36 -2 4 C-1.34 4 -0.68 4 0 4 C-0.33 3.01 -0.66 2.02 -1 1 C-0.67 0.67 -0.34 0.34 0 0 Z " fill="#32AC96" transform="translate(125,99)"/>
<path d="" fill="#FFFFFF" transform="translate(0,0)"/>
<path d="" fill="#FFFFFF" transform="translate(0,0)"/>
<path d="" fill="#FFFFFF" transform="translate(0,0)"/>
<path d="" fill="#FFFFFF" transform="translate(0,0)"/>
<path d="" fill="#FFFFFF" transform="translate(0,0)"/>
<path d="" fill="#FFFFFF" transform="translate(0,0)"/>
<path d="" fill="#FFFFFF" transform="translate(0,0)"/>
<path d="" fill="#FFFFFF" transform="translate(0,0)"/>
<path d="" fill="#FFFFFF" transform="translate(0,0)"/>
<path d="" fill="#FFFFFF" transform="translate(0,0)"/>
<path d="" fill="#FFFFFF" transform="translate(0,0)"/>
<path d="" fill="#FFFFFF" transform="translate(0,0)"/>
<path d="" fill="#FFFFFF" transform="translate(0,0)"/>
<path d="" fill="#FFFFFF" transform="translate(0,0)"/>
<path d="" fill="#FFFFFF" transform="translate(0,0)"/>
<path d="" fill="#FFFFFF" transform="translate(0,0)"/>
<path d="" fill="#FFFFFF" transform="translate(0,0)"/>
<path d="" fill="#FFFFFF" transform="translate(0,0)"/>
<path d="" fill="#FFFFFF" transform="translate(0,0)"/>
<path d="" fill="#FFFFFF" transform="translate(0,0)"/>
<path d="" fill="#FFFFFF" transform="translate(0,0)"/>
<path d="" fill="#FFFFFF" transform="translate(0,0)"/>
<path d="" fill="#FFFFFF" transform="translate(0,0)"/>
<path d="" fill="#FFFFFF" transform="translate(0,0)"/>
<path d="" fill="#FFFFFF" transform="translate(0,0)"/>
<path d="" fill="#FFFFFF" transform="translate(0,0)"/>
<path d="" fill="#FFFFFF" transform="translate(0,0)"/>
<path d="" fill="#FFFFFF" transform="translate(0,0)"/>
<path d="" fill="#FFFFFF" transform="translate(0,0)"/>
<path d="" fill="#FFFFFF" transform="translate(0,0)"/>
<path d="" fill="#FFFFFF" transform="translate(0,0)"/>
<path d="" fill="#FFFFFF" transform="translate(0,0)"/>
<path d="" fill="#FFFFFF" transform="translate(0,0)"/>
<path d="" fill="#FFFFFF" transform="translate(0,0)"/>
<path d="" fill="#FFFFFF" transform="translate(0,0)"/>
<path d="" fill="#FFFFFF" transform="translate(0,0)"/>
<path d="" fill="#FFFFFF" transform="translate(0,0)"/>
<path d="" fill="#FFFFFF" transform="translate(0,0)"/>
<path d="" fill="#FFFFFF" transform="translate(0,0)"/>
<path d="" fill="#FFFFFF" transform="translate(0,0)"/>
<path d="" fill="#FFFFFF" transform="translate(0,0)"/>
<path d="" fill="#FFFFFF" transform="translate(0,0)"/>
<path d="" fill="#FFFFFF" transform="translate(0,0)"/>
<path d="" fill="#FFFFFF" transform="translate(0,0)"/>
<path d="" fill="#FFFFFF" transform="translate(0,0)"/>
<path d="" fill="#FFFFFF" transform="translate(0,0)"/>
<path d="" fill="#FFFFFF" transform="translate(0,0)"/>
<path d="" fill="#FFFFFF" transform="translate(0,0)"/>
<path d="" fill="#FFFFFF" transform="translate(0,0)"/>
<path d="" fill="#FFFFFF" transform="translate(0,0)"/>
<path d="" fill="#FFFFFF" transform="translate(0,0)"/>
<path d="" fill="#FFFFFF" transform="translate(0,0)"/>
<path d="" fill="#FFFFFF" transform="translate(0,0)"/>
<path d="" fill="#FFFFFF" transform="translate(0,0)"/>
<path d="" fill="#FFFFFF" transform="translate(0,0)"/>
<path d="" fill="#FFFFFF" transform="translate(0,0)"/>
<path d="" fill="#FFFFFF" transform="translate(0,0)"/>
<path d="" fill="#FFFFFF" transform="translate(0,0)"/>
<path d="" fill="#FFFFFF" transform="translate(0,0)"/>
<path d="" fill="#FFFFFF" transform="translate(0,0)"/>
<path d="" fill="#FFFFFF" transform="translate(0,0)"/>
<path d="" fill="#FFFFFF" transform="translate(0,0)"/>
</svg>
