<?xml version="1.0" encoding="UTF-8"?>
<svg version="1.1" xmlns="http://www.w3.org/2000/svg" width="225" height="225">
<path d="M0 0 C0.99 0 1.98 0 3 0 C5.62702221 6.06515253 6.43539775 10.9130983 6.38818359 17.48608398 C6.39344055 18.39938477 6.39869751 19.31268555 6.40411377 20.25366211 C6.41724046 23.251317 6.40860093 26.24843412 6.3984375 29.24609375 C6.40046051 31.34302369 6.40337385 33.43995295 6.40713501 35.53688049 C6.4115486 39.9238253 6.405159 44.31058638 6.39111328 48.69750977 C6.37403272 54.30379863 6.38386176 59.90965621 6.40183067 65.51592922 C6.41270359 69.84409294 6.4092059 74.17215548 6.4014473 78.50032234 C6.39945444 80.56666173 6.40187224 82.63301047 6.40888596 84.69933891 C6.41655707 87.59464501 6.40481677 90.48926603 6.38818359 93.38452148 C6.39425629 94.2279158 6.40032898 95.07131012 6.40658569 95.94026184 C6.31610483 104.49856635 4.19196123 111.77986434 -1.74658203 118.06152344 C-6.33153287 122.005674 -11.64445855 124.75552828 -16.9375 127.625 C-18.19157493 128.32041543 -19.44465305 129.01763121 -20.69677734 129.71655273 C-23.24240153 131.1367823 -25.79124559 132.55094997 -28.34228516 133.96142578 C-33.65337585 136.90894299 -38.88866539 139.9847116 -44.125 143.0625 C-46.06350203 144.19582588 -48.00230667 145.32863432 -49.94140625 146.4609375 C-50.91609863 147.03038086 -51.89079102 147.59982422 -52.89501953 148.18652344 C-54.43198486 149.08419434 -54.43198486 149.08419434 -56 150 C-57.13937012 150.66547852 -58.27874023 151.33095703 -59.45263672 152.01660156 C-62.41235774 153.74399306 -65.37487376 155.46651524 -68.33905029 157.18624878 C-70.01493185 158.15986492 -71.68841109 159.13761247 -73.36181641 160.11547852 C-86.96937062 168 -86.96937062 168 -94 168 C-94 153.81 -94 139.62 -94 125 C-88.72 122.36 -83.44 119.72 -78 117 C-73.7909312 114.67363934 -69.59784268 112.34779228 -65.43432617 109.94506836 C-63.67216352 108.92865393 -61.90574592 107.91995645 -60.13867188 106.91210938 C-54.67999774 103.78831461 -49.2561459 100.60416365 -43.89453125 97.31640625 C-43.0435083 96.7963501 -42.19248535 96.27629395 -41.31567383 95.74047852 C-37.71627779 93.03514437 -35.42578877 90.2773663 -34 86 C-33.90620484 84.04286849 -33.87206929 82.08266825 -33.87060547 80.12329102 C-33.86587723 78.31109825 -33.86587723 78.31109825 -33.86105347 76.46229553 C-33.8630777 75.15602707 -33.86510193 73.84975861 -33.8671875 72.50390625 C-33.86651376 71.15014122 -33.86554314 69.79637631 -33.86428833 68.44261169 C-33.86281417 65.60552824 -33.86495655 62.76847628 -33.86962891 59.93139648 C-33.87532059 56.29868081 -33.87204898 52.6660391 -33.86605644 49.03332615 C-33.8624386 46.23747706 -33.86359514 43.44164544 -33.86618423 40.64579582 C-33.86717398 38.65608039 -33.86414157 36.66636428 -33.86105347 34.676651 C-33.86420563 33.46537033 -33.86735779 32.25408966 -33.87060547 31.00610352 C-33.87140106 29.94037613 -33.87219666 28.87464874 -33.87301636 27.77662659 C-33.98417531 25.34602302 -34.29797987 23.31853047 -35 21 C-27.93179472 16.06526947 -20.54540217 11.84490293 -13 7.6875 C-10.74920692 6.44283934 -8.49916316 5.19682234 -6.25 3.94921875 C-5.26515625 3.40612061 -4.2803125 2.86302246 -3.265625 2.3034668 C-1.10373903 1.19050185 -1.10373903 1.19050185 0 0 Z " fill="#090909" transform="translate(208,57)"/>
<path d="M0 0 C2.95724954 0.63452307 5.38431899 1.59156547 8.0546875 3.00390625 C8.82828613 3.41116943 9.60188477 3.81843262 10.39892578 4.23803711 C11.21603027 4.67510986 12.03313477 5.11218262 12.875 5.5625 C13.71401855 6.00924072 14.55303711 6.45598145 15.41748047 6.91625977 C17.9490238 8.2701563 20.47530747 9.63337732 23 11 C23.73927734 11.39799805 24.47855469 11.79599609 25.24023438 12.20605469 C27.20867989 13.27129859 29.16841685 14.35065364 31.125 15.4375 C32.24132813 16.05496094 33.35765625 16.67242187 34.5078125 17.30859375 C37 19 37 19 38 22 C38.07410949 24.01356767 38.0866074 26.02960881 38.06591797 28.04443359 C38.05128006 29.91184708 38.05128006 29.91184708 38.03634644 31.81698608 C38.02898342 32.48184399 38.02162041 33.14670189 38.01403427 33.831707 C37.99199308 35.91682967 37.97792579 38.00186116 37.96633911 40.08706665 C37.93276416 46.01520249 37.89117353 51.94318756 37.82861328 57.87109375 C37.79089664 61.49904624 37.76792135 65.12684347 37.75430679 68.75496292 C37.74626818 70.13525343 37.73268131 71.51552347 37.71337509 72.89570236 C37.68680312 74.82925311 37.68063136 76.76305139 37.67529297 78.69677734 C37.66561493 79.7958139 37.65593689 80.89485046 37.64596558 82.02719116 C38.04578616 85.38446402 39.15118303 87.21241854 41 90 C41 90.66 41 91.32 41 92 C41.83265381 92.40835083 41.83265381 92.40835083 42.68212891 92.82495117 C47.32270916 95.17750149 51.83477268 97.7732474 56.375 100.3125 C57.47956543 100.92899414 58.58413086 101.54548828 59.72216797 102.18066406 C68.18980811 106.92912217 76.55726106 111.82984623 84.82958984 116.91137695 C86.09343506 117.67454224 86.09343506 117.67454224 87.3828125 118.453125 C88.10871582 118.89817383 88.83461914 119.34322266 89.58251953 119.80175781 C92.65474772 121.41530765 92.65474772 121.41530765 99 123 C99 137.19 99 151.38 99 166 C88.87411423 164.87490158 88.87411423 164.87490158 85.58984375 162.98828125 C84.8407373 162.56772461 84.09163086 162.14716797 83.31982422 161.71386719 C82.53365723 161.25141602 81.74749023 160.78896484 80.9375 160.3125 C79.65383545 159.58208496 79.65383545 159.58208496 78.34423828 158.83691406 C75.55265495 157.24158016 72.77567156 155.62283978 70 154 C68.09263024 152.89421671 66.18507597 151.7887516 64.27734375 150.68359375 C60.28431933 148.36436585 56.29851881 146.03322052 52.31640625 143.6953125 C46.79900074 140.45956691 41.25897293 137.26454153 35.71240234 134.07910156 C31.38773311 131.59348814 27.06986658 129.09626812 22.75439453 126.59472656 C21.06979754 125.61938641 19.3836466 124.64671631 17.69482422 123.67871094 C8.32035043 118.29390759 1.94862794 113.96524696 -1.39076805 103.46661758 C-2.38179859 99.45419941 -2.40995573 95.57539943 -2.37231445 91.46044922 C-2.37596512 90.5535434 -2.37961578 89.64663757 -2.38337708 88.71224976 C-2.39142044 85.74286618 -2.37792647 82.77403897 -2.36328125 79.8046875 C-2.36276199 77.72681682 -2.36328225 75.64894564 -2.36479187 73.57107544 C-2.36470243 69.22878632 -2.35432906 64.88668395 -2.33618164 60.54443359 C-2.31346732 54.98849115 -2.31295863 49.43282054 -2.31969929 43.87684441 C-2.32304563 39.59080606 -2.31639708 35.3048293 -2.30657005 31.01880264 C-2.30273139 28.97035164 -2.30156429 26.92189377 -2.3031559 24.87343979 C-2.30352814 22.00908162 -2.29086282 19.14506795 -2.2746582 16.28076172 C-2.27713562 15.44109863 -2.27961304 14.60143555 -2.28216553 13.73632812 C-2.23763833 8.78668821 -1.58094627 4.69691573 0 0 Z " fill="#080808" transform="translate(13,59)"/>
<path d="M0 0 C4.18520461 1.97033967 8.19442575 4.23869625 12.19140625 6.5625 C12.8349707 6.93165527 13.47853516 7.30081055 14.14160156 7.68115234 C17.55923204 9.64728286 20.95286181 11.65084158 24.3359375 13.67578125 C30.10352106 17.12127179 35.93049634 20.46254991 41.75390625 23.8125 C43.98056841 25.09748358 46.20713014 26.38264118 48.43359375 27.66796875 C52.93303687 30.26410185 57.43916224 32.84813773 61.94921875 35.42578125 C64.09259345 36.65860117 66.2358282 37.89166447 68.37890625 39.125 C69.36383057 39.68413086 70.34875488 40.24326172 71.36352539 40.81933594 C76.82657869 43.97473245 81.54505227 47.28888257 86.19140625 51.5625 C84.93840225 55.32151199 83.88931426 55.5831611 80.484375 57.453125 C79.51008545 57.99493408 78.5357959 58.53674316 77.53198242 59.0949707 C76.49146729 59.66175537 75.45095215 60.22854004 74.37890625 60.8125 C72.27434983 61.97716058 70.1701795 63.14251911 68.06640625 64.30859375 C66.54466797 65.14753174 66.54466797 65.14753174 64.9921875 66.00341797 C60.67367584 68.40735934 56.4357367 70.93635624 52.203125 73.48828125 C50.19140625 74.5625 50.19140625 74.5625 48.19140625 74.5625 C48.19140625 73.9025 48.19140625 73.2425 48.19140625 72.5625 C47.51464844 72.31886719 46.83789062 72.07523437 46.140625 71.82421875 C42.5741972 70.29844898 39.31993579 68.37022115 36.00390625 66.375 C34.50454091 65.48330696 33.00449261 64.5927617 31.50390625 63.703125 C30.67246094 63.21005859 29.84101563 62.71699219 28.984375 62.20898438 C24.08759636 59.322282 19.16812526 56.47477304 14.24594116 53.63168335 C12.53068782 52.64047647 10.81672477 51.64703787 9.1027832 50.65356445 C8.03503662 50.03698975 6.96729004 49.42041504 5.8671875 48.78515625 C4.91755127 48.23609619 3.96791504 47.68703613 2.98950195 47.12133789 C-3.31393843 43.60964896 -7.59345599 41.34729103 -14.80859375 42.5625 C-23.06267096 46.02997649 -30.80413774 50.76090782 -38.49609375 55.3125 C-40.58593149 56.54297895 -42.67577529 57.77344763 -44.765625 59.00390625 C-45.78350098 59.60477051 -46.80137695 60.20563477 -47.85009766 60.82470703 C-50.58136017 62.42902512 -53.32253408 64.01402846 -56.0703125 65.58984375 C-57.24944214 66.26998535 -57.24944214 66.26998535 -58.45239258 66.96386719 C-59.90116116 67.79898185 -61.35268162 68.62934721 -62.80737305 69.45410156 C-65.95685851 71.28111374 -67.75444426 72.48127577 -69.80859375 75.5625 C-74.29342834 74.19539928 -78.25013853 72.40658818 -82.37890625 70.19140625 C-82.98241913 69.86841049 -83.58593201 69.54541473 -84.20773315 69.21263123 C-85.47450798 68.5332676 -86.74004771 67.85159633 -88.00439453 67.16772461 C-89.93199325 66.12586507 -91.86406637 65.09270299 -93.796875 64.06054688 C-104.08871769 58.52969211 -104.08871769 58.52969211 -107.80859375 55.5625 C-106.30007181 49.15128177 -100.58243884 46.29765182 -95.32324219 43.0078125 C-92.54191893 41.35243495 -89.74245256 39.73320482 -86.93359375 38.125 C-85.89058105 37.52228271 -84.84756836 36.91956543 -83.77294922 36.29858398 C-80.45410156 34.38200015 -77.1313453 32.4723058 -73.80859375 30.5625 C-71.66241171 29.32352051 -69.51657491 28.08394277 -67.37109375 26.84375 C-63.06995116 24.35806501 -58.76636072 21.87670004 -54.4609375 19.3984375 C-50.43125507 17.07775342 -46.4058927 14.74993492 -42.38616943 12.4120636 C-39.99869822 11.02370023 -37.60983055 9.6377493 -35.22088623 8.25192261 C-33.53604755 7.27320895 -31.85320337 6.29106435 -30.17041016 5.30883789 C-29.14737793 4.71578857 -28.1243457 4.12273926 -27.0703125 3.51171875 C-26.17272217 2.98924561 -25.27513184 2.46677246 -24.3503418 1.9284668 C-16.54776592 -2.26473386 -8.38823231 -3.51840337 0 0 Z " fill="#080808" transform="translate(122.80859375,1.4375)"/>
<path d="M0 0 C4.0825629 1.66510934 7.78573453 3.86132166 11.5625 6.125 C12.6364502 6.74938965 13.71040039 7.3737793 14.81689453 8.01708984 C17.07181769 9.33035341 19.32208549 10.6516397 21.56787109 11.98046875 C24.98158424 13.98916381 28.41744242 15.95326277 31.86328125 17.90625 C34.03426205 19.14511883 36.20484944 20.3846774 38.375 21.625 C39.3966626 22.2039502 40.4183252 22.78290039 41.47094727 23.37939453 C42.88911743 24.20093018 42.88911743 24.20093018 44.3359375 25.0390625 C45.58189697 25.75376709 45.58189697 25.75376709 46.85302734 26.48291016 C49.12284033 28.08680121 50.46749223 29.69845196 52 32 C49.58706946 33.48557291 47.1700253 34.96356592 44.75 36.4375 C44.06808594 36.85837891 43.38617188 37.27925781 42.68359375 37.71289062 C41.68779297 38.31713867 41.68779297 38.31713867 40.671875 38.93359375 C40.0644043 39.30540771 39.45693359 39.67722168 38.83105469 40.06030273 C36.78759991 41.10900373 35.29566478 41.76486598 33 42 C30.68505859 41.01538086 30.68505859 41.01538086 28.1484375 39.46484375 C27.21386719 38.90216797 26.27929688 38.33949219 25.31640625 37.75976562 C24.34574219 37.15841797 23.37507813 36.55707031 22.375 35.9375 C21.42753906 35.36322266 20.48007813 34.78894531 19.50390625 34.19726562 C15.72523404 31.9047333 11.95928088 29.59193406 8.19799805 27.27099609 C7.31926025 26.7342627 6.44052246 26.1975293 5.53515625 25.64453125 C4.755354 25.1647583 3.97555176 24.68498535 3.17211914 24.19067383 C-0.26938904 22.30416878 -3.08881634 21.34935449 -7 22 C-10.90848235 23.59381429 -14.39396481 25.8211778 -18 28 C-19.48320714 28.82453049 -20.9704925 29.64175107 -22.4609375 30.453125 C-23.25000488 30.88326904 -24.03907227 31.31341309 -24.85205078 31.7565918 C-26.41509223 32.60781443 -27.97854895 33.4582751 -29.54248047 34.30786133 C-33.17575701 36.31362469 -36.48761049 38.34232467 -39.734375 40.93359375 C-43 43 -43 43 -45.48046875 42.5703125 C-46.31191406 42.05210938 -47.14335938 41.53390625 -48 41 C-49.18228621 40.34918153 -50.36599121 39.70093661 -51.55078125 39.0546875 C-52.80660235 38.33143975 -54.06047984 37.60480784 -55.3125 36.875 C-55.95767578 36.50246094 -56.60285156 36.12992188 -57.26757812 35.74609375 C-58.84675945 34.83367787 -60.42361864 33.91724491 -62 33 C-60.81514136 29.44542407 -60.14493719 29.2036007 -57.00390625 27.390625 C-56.14716309 26.89022705 -55.29041992 26.3898291 -54.40771484 25.87426758 C-53.46879395 25.33825928 -52.52987305 24.80225098 -51.5625 24.25 C-50.11544678 23.41021606 -50.11544678 23.41021606 -48.63916016 22.5534668 C-46.54743215 21.34131758 -44.45324301 20.13340792 -42.35693359 18.92919922 C-38.86395589 16.92181669 -35.3786497 14.90160197 -31.89453125 12.87890625 C-27.36749013 10.25407629 -22.83887929 7.63199483 -18.3046875 5.01953125 C-17.37640137 4.48432861 -16.44811523 3.94912598 -15.49169922 3.39770508 C-10.03667577 0.33773945 -6.31935737 -1.09371192 0 0 Z " fill="#101010" transform="translate(117,46)"/>
<path d="M0 0 C4.14032846 1.54385129 7.93553053 3.51028938 11.8125 5.625 C12.40998047 5.94984375 13.00746094 6.2746875 13.62304688 6.609375 C15.08337135 7.40379151 16.54187491 8.20155376 18 9 C18.00410889 10.30670654 18.00821777 11.61341309 18.01245117 12.9597168 C18.03424804 17.81493395 18.08854402 22.66934134 18.15258789 27.52416992 C18.17576296 29.62402578 18.19016244 31.7239978 18.19555664 33.82397461 C18.20484963 36.84562525 18.24584846 39.86545017 18.29296875 42.88671875 C18.2890361 43.82335861 18.28510345 44.75999847 18.28105164 45.72502136 C18.37888569 50.11060018 18.48952907 52.31837925 21.17578125 55.90527344 C24.01281475 58.00950472 26.82517366 59.87983907 29.89453125 61.62890625 C31.01537109 62.27150391 32.13621094 62.91410156 33.29101562 63.57617188 C33.87020752 63.90286865 34.44939941 64.22956543 35.04614258 64.56616211 C36.80166793 65.55639002 38.55071361 66.55730467 40.29882812 67.56054688 C46.13827566 70.8902032 51.97727655 73.98863827 58 77 C58 83.93 58 90.86 58 98 C52.71288043 97.1188134 50.41874872 96.3933119 45.9921875 93.82421875 C44.84943359 93.16647461 43.70667969 92.50873047 42.52929688 91.83105469 C41.31094637 91.11696546 40.09285236 90.40243846 38.875 89.6875 C37.62337631 88.96069541 36.37142029 88.23446284 35.11914062 87.50878906 C31.99216589 85.69286757 28.8726229 83.86460707 25.7557373 82.03143311 C24.10617745 81.06237547 22.45405341 80.09768644 20.80175781 79.13330078 C18.02938973 77.51402124 15.26308645 75.88505654 12.5 74.25 C11.68901855 73.77393311 10.87803711 73.29786621 10.04248047 72.80737305 C0.74671748 67.24015243 0.74671748 67.24015243 -1 62 C-1.0938413 60.0269873 -1.12793129 58.05092615 -1.12939453 56.07568359 C-1.13254669 54.85787201 -1.13569885 53.64006042 -1.13894653 52.38534546 C-1.1369223 51.06966583 -1.13489807 49.75398621 -1.1328125 48.3984375 C-1.13348603 47.03748558 -1.13445646 45.67653378 -1.13571167 44.31558228 C-1.13718534 41.46591037 -1.13504402 38.61626983 -1.13037109 35.76660156 C-1.12466315 32.10668643 -1.1279616 28.44684446 -1.13394356 24.78693199 C-1.13754885 21.97833703 -1.13641093 19.16975956 -1.13381577 16.36116409 C-1.13282097 14.35302941 -1.13586641 12.34489405 -1.13894653 10.33676147 C-1.13579437 9.12525421 -1.13264221 7.91374695 -1.12939453 6.66552734 C-1.12859894 5.59313812 -1.12780334 4.5207489 -1.12698364 3.41586304 C-1 1 -1 1 0 0 Z " fill="#0E0E0E" transform="translate(54,81)"/>
<path d="M0 0 C1.3353128 2.6706256 1.14925758 4.74084302 1.17700195 7.73144531 C1.19625481 9.5340683 1.19625481 9.5340683 1.21589661 11.37310791 C1.22328354 12.67826355 1.23067047 13.98341919 1.23828125 15.328125 C1.24235678 15.99178825 1.2464323 16.65545151 1.25063133 17.33922577 C1.27149397 20.85391427 1.28579315 24.36856375 1.29516602 27.88330078 C1.30621365 31.50601176 1.34059275 35.12810562 1.38033772 38.75059891 C1.40654443 41.54224757 1.41486151 44.33375033 1.41844749 47.12551117 C1.42566057 49.1074652 1.45208531 51.08931934 1.47883606 53.07110596 C1.45163224 64.36298472 1.45163224 64.36298472 -3 69 C-4.97705078 70.6809082 -4.97705078 70.6809082 -7.0703125 71.98828125 C-7.85954102 72.48408691 -8.64876953 72.97989258 -9.46191406 73.49072266 C-13.89504918 76.12689438 -18.36709892 78.68144774 -22.875 81.1875 C-28.81628404 84.50958603 -34.75155016 87.83464562 -40.6171875 91.2890625 C-41.4848877 91.79928955 -42.35258789 92.3095166 -43.24658203 92.83520508 C-44.88347584 93.80115441 -46.51740669 94.77214707 -48.14794922 95.7487793 C-48.87771973 96.17843994 -49.60749023 96.60810059 -50.359375 97.05078125 C-50.99327148 97.42887939 -51.62716797 97.80697754 -52.28027344 98.1965332 C-54 99 -54 99 -57 99 C-57 92.07 -57 85.14 -57 78 C-55.32292969 77.07058594 -53.64585938 76.14117187 -51.91796875 75.18359375 C-49.67438193 73.93507054 -47.43089783 72.68636275 -45.1875 71.4375 C-43.53717773 70.52387695 -43.53717773 70.52387695 -41.85351562 69.59179688 C-29.09361014 63.35804353 -29.09361014 63.35804353 -19 54 C-18.77171911 51.96101375 -18.77171911 51.96101375 -18.91577148 49.71557617 C-18.94497177 48.85425583 -18.97417206 47.99293549 -19.0042572 47.10551453 C-19.04281326 46.17737442 -19.08136932 45.24923431 -19.12109375 44.29296875 C-19.17074921 42.32492237 -19.21820635 40.35681951 -19.26367188 38.38867188 C-19.34397129 35.28646233 -19.43751461 32.18715569 -19.5690918 29.08666992 C-19.69048046 26.09249577 -19.75410542 23.10151082 -19.80859375 20.10546875 C-19.86131943 19.18340134 -19.9140451 18.26133392 -19.96836853 17.31132507 C-19.99059301 14.59904402 -19.89784884 12.56347061 -19 10 C-16.30071509 7.36600482 -13.33736343 5.71156247 -10 4 C-8.70712573 3.21030701 -7.41532964 2.41884401 -6.125 1.625 C-3 0 -3 0 0 0 Z " fill="#121212" transform="translate(171,80)"/>
<path d="" fill="#FFFFFF" transform="translate(0,0)"/>
<path d="" fill="#FFFFFF" transform="translate(0,0)"/>
<path d="" fill="#FFFFFF" transform="translate(0,0)"/>
<path d="" fill="#FFFFFF" transform="translate(0,0)"/>
<path d="" fill="#FFFFFF" transform="translate(0,0)"/>
<path d="" fill="#FFFFFF" transform="translate(0,0)"/>
<path d="" fill="#FFFFFF" transform="translate(0,0)"/>
<path d="" fill="#FFFFFF" transform="translate(0,0)"/>
<path d="" fill="#FFFFFF" transform="translate(0,0)"/>
<path d="" fill="#FFFFFF" transform="translate(0,0)"/>
<path d="" fill="#FFFFFF" transform="translate(0,0)"/>
<path d="" fill="#FFFFFF" transform="translate(0,0)"/>
<path d="" fill="#FFFFFF" transform="translate(0,0)"/>
<path d="" fill="#FFFFFF" transform="translate(0,0)"/>
<path d="" fill="#FFFFFF" transform="translate(0,0)"/>
<path d="" fill="#FFFFFF" transform="translate(0,0)"/>
<path d="" fill="#FFFFFF" transform="translate(0,0)"/>
<path d="" fill="#FFFFFF" transform="translate(0,0)"/>
<path d="" fill="#FFFFFF" transform="translate(0,0)"/>
<path d="" fill="#FFFFFF" transform="translate(0,0)"/>
<path d="" fill="#FFFFFF" transform="translate(0,0)"/>
<path d="" fill="#FFFFFF" transform="translate(0,0)"/>
<path d="" fill="#FFFFFF" transform="translate(0,0)"/>
<path d="" fill="#FFFFFF" transform="translate(0,0)"/>
<path d="" fill="#FFFFFF" transform="translate(0,0)"/>
<path d="" fill="#FFFFFF" transform="translate(0,0)"/>
<path d="" fill="#FFFFFF" transform="translate(0,0)"/>
<path d="" fill="#FEFFFF" transform="translate(0,0)"/>
<path d="" fill="#FFFFFF" transform="translate(0,0)"/>
<path d="" fill="#FFFFFF" transform="translate(0,0)"/>
<path d="" fill="#FEFFFF" transform="translate(0,0)"/>
<path d="" fill="#FFFFFF" transform="translate(0,0)"/>
<path d="" fill="#FFFFFF" transform="translate(0,0)"/>
<path d="" fill="#FFFFFF" transform="translate(0,0)"/>
<path d="" fill="#FFFFFF" transform="translate(0,0)"/>
<path d="" fill="#FFFFFF" transform="translate(0,0)"/>
<path d="" fill="#FFFFFF" transform="translate(0,0)"/>
<path d="" fill="#FFFFFF" transform="translate(0,0)"/>
<path d="" fill="#FFFFFF" transform="translate(0,0)"/>
<path d="" fill="#FFFFFF" transform="translate(0,0)"/>
</svg>
