<?xml version="1.0" encoding="UTF-8"?>
<svg version="1.1" xmlns="http://www.w3.org/2000/svg" width="225" height="225">
<path d="M0 0 C0 7.59 0 15.18 0 23 C-2.60990628 24.30495314 -4.44679384 24.08067008 -7.36767578 24.02172852 C-8.48868683 24.00163223 -9.60969788 23.98153595 -10.76467896 23.96083069 C-11.97928802 23.93379562 -13.19389709 23.90676056 -14.4453125 23.87890625 C-16.30553543 23.84348976 -16.30553543 23.84348976 -18.20333862 23.80735779 C-21.50124903 23.74364252 -24.79902732 23.67544603 -28.09680176 23.60510254 C-31.4615966 23.53442463 -34.82650365 23.46960444 -38.19140625 23.40429688 C-44.79438801 23.2749464 -51.39722933 23.13968995 -58 23 C-58.08979126 24.54977539 -58.08979126 24.54977539 -58.18139648 26.13085938 C-58.64474543 33.94228811 -59.1860189 41.72204182 -60.0625 49.5 C-60.15337891 50.33402344 -60.24425781 51.16804688 -60.33789062 52.02734375 C-60.55532543 54.01858877 -60.77713437 56.0093555 -61 58 C-60.13753662 57.84063965 -59.27507324 57.6812793 -58.38647461 57.51708984 C-41.18403782 54.89040387 -21.56918772 54.77822828 -7 65.3125 C3.48706962 74.43684306 9.27937272 84.09999272 10.75 98.0625 C11.6611544 112.77595629 8.40565552 126.62818241 -1.19921875 138.04296875 C-12.1408125 149.93394157 -27.2190438 155.18368992 -43.13085938 156.1262207 C-56.68469882 156.60571974 -77.40375105 157.15464009 -89 149 C-92.3069327 143.40970901 -92.26518502 138.90681068 -91.6875 132.5625 C-91.62626953 131.73556641 -91.56503906 130.90863281 -91.50195312 130.05664062 C-91.35015323 128.03653436 -91.17724521 126.01803287 -91 124 C-84.72394866 124.4641663 -79.18683953 125.71952836 -73.18212891 127.57885742 C-59.39018797 131.84214805 -45.28135979 135.44882012 -31.37109375 129.45703125 C-25.38515986 125.77868966 -20.45739014 120.0103108 -18.40625 113.22265625 C-16.93322433 105.16350619 -17.33432109 98.30451571 -21.46484375 91.125 C-25.58289199 85.42469913 -30.98196924 83.14056562 -37.69921875 81.49609375 C-45.71144263 80.29188969 -54.0783916 80.44561538 -62.10546875 81.49609375 C-77.58304146 83.49870847 -77.58304146 83.49870847 -82.6875 80.125 C-86.49199617 76.62897649 -87.45291147 74.98011545 -87.92822266 69.72021484 C-88.06504857 64.53479203 -87.34193642 59.44773257 -86.6875 54.3125 C-86.40065791 51.903846 -86.115525 49.49498789 -85.83203125 47.0859375 C-85.68975098 45.89194336 -85.5474707 44.69794922 -85.40087891 43.46777344 C-84.82239648 38.46365384 -84.33187369 33.45401862 -83.875 28.4375 C-83.79983154 27.64448486 -83.72466309 26.85146973 -83.6472168 26.03442383 C-82.86642021 17.37205089 -82.45721832 8.68417921 -82 0 C-72.93283094 -0.1545879 -63.8655854 -0.3027571 -54.79818249 -0.4429636 C-50.58683254 -0.50827921 -46.37553999 -0.5757204 -42.16430664 -0.64819336 C-38.0924651 -0.71818635 -34.02056797 -0.78236853 -29.94857216 -0.84269524 C-28.40299527 -0.86658104 -26.85744805 -0.89248294 -25.31194115 -0.92053413 C-23.13012705 -0.95977333 -20.94831299 -0.9915269 -18.76635742 -1.02172852 C-17.52947678 -1.04171402 -16.29259613 -1.06169952 -15.01823425 -1.08229065 C-10.00022594 -0.97952532 -4.99844824 -0.45440439 0 0 Z M-79 3 C-79.33 7.95 -79.66 12.9 -80 18 C-80.46875 22.4921875 -80.46875 22.4921875 -80.71875 24.57714844 C-81.09050358 27.77965066 -81.40307842 30.98680686 -81.71875 34.1953125 C-81.84636719 35.48824219 -81.97398438 36.78117187 -82.10546875 38.11328125 C-82.30355395 40.12509941 -82.50116863 42.13696047 -82.69775391 44.14892578 C-82.89088182 46.12285595 -83.08604633 48.09658652 -83.28125 50.0703125 C-83.39533203 51.23320801 -83.50941406 52.39610352 -83.62695312 53.59423828 C-84.00835141 57.0762449 -84.49937281 60.53341264 -85 64 C-85.10434117 65.56026454 -85.17346332 67.1238135 -85.1875 68.6875 C-85.20167969 69.41324219 -85.21585937 70.13898438 -85.23046875 70.88671875 C-84.96025989 73.36439658 -84.33210008 74.89784871 -83 77 C-76.97795948 81.01469368 -70.56970131 79.9387821 -63.75 79.0625 C-50.19051891 77.51058161 -36.49336024 76.36913921 -24.6796875 84.62890625 C-17.94939244 90.12270524 -15.51016354 96.48140868 -14.5625 104.875 C-14.95150903 113.36554488 -18.93760128 122.08546467 -25 128 C-34.04148703 134.57562693 -44.05523727 136.11567408 -55 135 C-61.42986769 133.72094774 -67.71285454 131.83930937 -74 130 C-76.16527582 129.39086746 -78.33166755 128.78566068 -80.5 128.1875 C-81.3146875 127.95417969 -82.129375 127.72085938 -82.96875 127.48046875 C-85.1386897 126.88490671 -85.1386897 126.88490671 -88 127 C-89.50143544 130.00287088 -89.26574018 133.083109 -89.3125 136.375 C-89.34150391 137.04789063 -89.37050781 137.72078125 -89.40039062 138.4140625 C-89.44154217 141.63021439 -89.23941236 143.64148 -87.4375 146.33984375 C-84.35532195 148.43908361 -81.26891123 149.34627655 -77.6875 150.1875 C-75.77517578 150.67283203 -75.77517578 150.67283203 -73.82421875 151.16796875 C-54.01650798 155.47751154 -30.27660375 155.47294385 -12.4609375 144.74609375 C-1.35961397 136.86944039 4.63844638 126.27343232 7.53125 113.06640625 C9.71169353 98.80267148 6.97691176 85.81128216 -1.375 74.06640625 C-8.85755425 64.6115483 -20.30042597 60.53902443 -32 59 C-42.82359862 58.44394894 -53.30016902 59.5331933 -64 61 C-63.80083984 59.43378906 -63.80083984 59.43378906 -63.59765625 57.8359375 C-62.11441785 45.47200862 -61.56968361 33.53303932 -61 21 C-41.86 21 -22.72 21 -3 21 C-3 15.06 -3 9.12 -3 3 C-28.08 3 -53.16 3 -79 3 Z " fill="#B7423E" transform="translate(152,33)"/>
<path d="M0 0 C2.5625 2.375 2.5625 2.375 5 5 C6.20544025 5.98272611 7.41413323 6.961468 8.625 7.9375 C29.20003712 25.91644015 40.1048386 53.56622183 44 80 C45.84813945 112.88413639 39.79537713 140.43804314 18 166 C17.40832031 166.73734375 16.81664062 167.4746875 16.20703125 168.234375 C-2.04989489 190.18939918 -31.30433031 203.48836924 -59.2265625 206.68359375 C-86.86219776 209.00086751 -116.73070528 201.48546129 -138.54077148 183.78222656 C-141.1017814 181.59369266 -143.55525758 179.31847165 -146 177 C-147.11568359 175.98486328 -147.11568359 175.98486328 -148.25390625 174.94921875 C-167.77273438 156.49991545 -180.45716081 128.81418391 -181.3359375 101.99609375 C-181.36606022 99.47670893 -181.37852207 96.95706243 -181.375 94.4375 C-181.37445618 93.77836609 -181.37391235 93.11923218 -181.37335205 92.44012451 C-181.33179762 81.45546097 -180.37815213 71.4476797 -177 61 C-176.68651611 59.99356445 -176.68651611 59.99356445 -176.36669922 58.96679688 C-171.50906525 43.72801705 -163.84420466 29.79604708 -153 18 C-152.53110352 17.4834082 -152.06220703 16.96681641 -151.57910156 16.43457031 C-114.76665319 -23.7136339 -45.46153391 -30.27503012 0 0 Z M-140 9 C-140.80695313 9.66386719 -141.61390625 10.32773437 -142.4453125 11.01171875 C-163.41688218 28.79482094 -175.91424098 55.20789308 -178.75390625 82.375 C-180.75008712 111.77906107 -173.68860829 141.4703132 -154.40332031 164.39306641 C-145.42629795 174.67260037 -136.05489516 183.50743729 -124 190 C-123.35337402 190.35143066 -122.70674805 190.70286133 -122.04052734 191.06494141 C-95.45616009 205.21127979 -65.67727381 207.81047949 -36.83691406 199.36669922 C-8.41231774 190.45480723 16.51552184 170.249091 30.41308594 143.85253906 C44.00166446 116.79196658 45.62824655 85.60213113 36.17993164 56.82324219 C29.12683045 36.78214425 17.99540847 18.18011269 1 5 C0.34 5 -0.32 5 -1 5 C-1 4.34 -1 3.68 -1 3 C-42.34078114 -21.93484697 -102.21138007 -24.27179836 -140 9 Z " fill="#B4413B" transform="translate(181,18)"/>
<path d="M0 0 C2.5625 2.375 2.5625 2.375 5 5 C6.2258923 6.00401134 7.45544678 7.00355855 8.6875 8 C14.36572391 12.87480409 18.59570464 18.99824505 23 25 C22.01 25.99 22.01 25.99 21 27 C20.31035156 26.154375 19.62070313 25.30875 18.91015625 24.4375 C10.18796794 13.30081732 10.18796794 13.30081732 -1 5 C-1 4.34 -1 3.68 -1 3 C-1.67289063 2.74992187 -2.34578125 2.49984375 -3.0390625 2.2421875 C-5.90788666 1.03864385 -8.61939723 -0.35676568 -11.36401367 -1.81762695 C-19.65210655 -6.1754915 -27.76573958 -9.21501037 -37 -11 C-38.13767822 -11.22212158 -38.13767822 -11.22212158 -39.29833984 -11.44873047 C-70.51043442 -17.27005869 -102.59893274 -15.23043582 -130 2 C-133.52351582 4.47624862 -136.76997407 7.15540574 -140 10 C-140.81855469 10.67546875 -141.63710937 11.3509375 -142.48046875 12.046875 C-162.77836879 29.29222263 -174.81213116 55.47344677 -177.7734375 81.71875 C-178.25100089 88.63139414 -178.07827776 95.59959431 -177.92724609 102.5222168 C-177.91000488 103.56031494 -177.89276367 104.59841309 -177.875 105.66796875 C-177.85179687 106.59891357 -177.82859375 107.5298584 -177.8046875 108.48901367 C-178.01089738 111.14009949 -178.65058048 112.73314788 -180 115 C-183.22801987 97.74707044 -182.40352356 77.71158704 -177 61 C-176.68651611 59.99356445 -176.68651611 59.99356445 -176.36669922 58.96679688 C-171.50906525 43.72801705 -163.84420466 29.79604708 -153 18 C-152.53110352 17.4834082 -152.06220703 16.96681641 -151.57910156 16.43457031 C-114.76665319 -23.7136339 -45.46153391 -30.27503012 0 0 Z " fill="#B9433F" transform="translate(181,18)"/>
<path d="M0 0 C0 7.59 0 15.18 0 23 C-2.60990628 24.30495314 -4.44679384 24.08067008 -7.36767578 24.02172852 C-8.48868683 24.00163223 -9.60969788 23.98153595 -10.76467896 23.96083069 C-11.97928802 23.93379562 -13.19389709 23.90676056 -14.4453125 23.87890625 C-16.30553543 23.84348976 -16.30553543 23.84348976 -18.20333862 23.80735779 C-21.50124903 23.74364252 -24.79902732 23.67544603 -28.09680176 23.60510254 C-31.4615966 23.53442463 -34.82650365 23.46960444 -38.19140625 23.40429688 C-44.79438801 23.2749464 -51.39722933 23.13968995 -58 23 C-58 25.31 -58 27.62 -58 30 C-58.99 30 -59.98 30 -61 30 C-61 27.03 -61 24.06 -61 21 C-32.29 20.505 -32.29 20.505 -3 20 C-2.67 13.73 -2.34 7.46 -2 1 C-3.47331787 1.07726318 -4.94663574 1.15452637 -6.46459961 1.23413086 C-22.86151371 2.02835968 -39.15563217 1.95247837 -55.5625 1.5625 C-58.05011531 1.50906751 -60.53774565 1.4563301 -63.02539062 1.40429688 C-69.01712312 1.27749837 -75.00861647 1.14229457 -81 1 C-81 0.67 -81 0.34 -81 0 C-72.06321648 -0.15460394 -63.12635522 -0.30277271 -54.18933392 -0.4429636 C-50.03851714 -0.5082727 -45.88775875 -0.57571091 -41.73706055 -0.64819336 C-37.72357486 -0.71819838 -33.71003269 -0.78237758 -29.69639015 -0.84269524 C-28.1731414 -0.86657672 -26.6499228 -0.89247776 -25.12674522 -0.92053413 C-22.9760649 -0.95978679 -20.82538472 -0.99153351 -18.67456055 -1.02172852 C-17.45544479 -1.04171402 -16.23632904 -1.06169952 -14.98027039 -1.08229065 C-9.97490135 -0.97880646 -4.98587827 -0.45326166 0 0 Z " fill="#C54F4A" transform="translate(152,33)"/>
<path d="M0 0 C0 0.33 0 0.66 0 1 C-4.85886191 2.02380165 -9.61171152 2.16352091 -14.55444336 2.29052734 C-28.79326692 2.65970179 -42.4664817 3.77161758 -56.01953125 8.44921875 C-58 9 -58 9 -62 9 C-62 8.34 -62 7.68 -62 7 C-41.86160477 -0.71971817 -21.37510302 -2.53602917 0 0 Z " fill="#BC4542" transform="translate(129,1)"/>
<path d="M0 0 C0.66 0 1.32 0 2 0 C3.89789897 9.18088465 4.27541971 18.01849175 4.1875 27.375 C4.18603835 28.71484311 4.18538376 30.05468735 4.18554688 31.39453125 C4.1598736 37.05976831 4.05875528 42.42054449 3 48 C2.01 48 1.02 48 0 48 C0.0721875 46.90042969 0.144375 45.80085938 0.21875 44.66796875 C0.90700142 33.86291136 1.45192004 23.2902632 0.22265625 12.50390625 C-0.14777535 8.33817548 -0.08000478 4.17802762 0 0 Z " fill="#BA3F3C" transform="translate(221,86)"/>
<path d="M0 0 C0 0.66 0 1.32 0 2 C-14.01582332 5.4597038 -26.52590514 7.17162958 -41 7 C-40.67 6.01 -40.34 5.02 -40 4 C-38.329375 3.94392578 -38.329375 3.94392578 -36.625 3.88671875 C-27.34724316 3.50918321 -18.53425933 2.57372449 -9.453125 0.62109375 C-6.21134658 0.03801369 -3.28371404 -0.11583654 0 0 Z " fill="#BD3D37" transform="translate(144,218)"/>
<path d="M0 0 C2.41009173 3.72403448 2.29004429 7.40185363 2.265625 11.6875 C2.26753845 12.42701904 2.2694519 13.16653809 2.27142334 13.9284668 C2.27278135 15.48844748 2.26911176 17.04843961 2.26074219 18.60839844 C2.25003685 20.99179547 2.26065011 23.37443882 2.2734375 25.7578125 C2.27211584 27.27604332 2.2695533 28.79427368 2.265625 30.3125 C2.26967346 31.02301514 2.27372192 31.73353027 2.27789307 32.46557617 C2.2431926 36.13961241 2.02156619 38.87630885 0 42 C-0.83644097 37.63422668 -1.12859181 33.50507921 -1.1328125 29.0625 C-1.13410156 27.75539063 -1.13539062 26.44828125 -1.13671875 25.1015625 C-1.13357666 24.09077637 -1.13357666 24.09077637 -1.13037109 23.05957031 C-1.12501508 21.00578426 -1.13033445 18.95221685 -1.13671875 16.8984375 C-1.13542969 15.59132813 -1.13414063 14.28421875 -1.1328125 12.9375 C-1.13168457 11.75027344 -1.13055664 10.56304687 -1.12939453 9.33984375 C-1.00546467 6.1410504 -0.60171656 3.14063777 0 0 Z " fill="#C34A48" transform="translate(1,91)"/>
<path d="M0 0 C0.33 0.66 0.66 1.32 1 2 C0.14453125 4.328125 0.14453125 4.328125 -1.1875 7.25 C-4.90765324 15.85091138 -7.59912686 24.7262198 -9 34 C-9.66 34 -10.32 34 -11 34 C-11.99976243 22.80266079 -7.68626469 10.60782655 -2 1 C-1.34 0.67 -0.68 0.34 0 0 Z " fill="#B73C36" transform="translate(13,61)"/>
<path d="M0 0 C4.17496523 4.74427867 5.45897813 10.48391125 5.3359375 16.734375 C4.64829861 21.37193958 2.7765922 25.68541894 1 30 C0.34 29.67 -0.32 29.34 -1 29 C-0.67 27.9275 -0.34 26.855 0 25.75 C2.13307787 17.09492143 1.72853454 9.07849149 -2 1 C-1.34 0.67 -0.68 0.34 0 0 Z " fill="#B33A37" transform="translate(133,123)"/>
<path d="M0 0 C0 0.33 0 0.66 0 1 C-4.00924372 1.74882842 -7.80221663 2.12814008 -11.87890625 2.1328125 C-12.96494141 2.13410156 -14.05097656 2.13539062 -15.16992188 2.13671875 C-16.28947266 2.13285156 -17.40902344 2.12898437 -18.5625 2.125 C-19.68591797 2.12886719 -20.80933594 2.13273438 -21.96679688 2.13671875 C-23.05154297 2.13542969 -24.13628906 2.13414063 -25.25390625 2.1328125 C-26.72839233 2.13112061 -26.72839233 2.13112061 -28.23266602 2.12939453 C-30.921333 2.0036783 -33.38052451 1.60162204 -36 1 C-36 0.67 -36 0.34 -36 0 C-24.08020599 -1.70282772 -11.93881919 -1.41647007 0 0 Z " fill="#C54E4B" transform="translate(129,1)"/>
<path d="M0 0 C0.66 0 1.32 0 2 0 C1.40483555 9.91940744 -2.45276768 19.25123138 -7 28 C-7.66 28 -8.32 28 -9 28 C-8.40482105 23.58906266 -7.28657769 19.81123373 -5.625 15.6875 C-3.5730054 10.50100929 -1.70947026 5.30835501 0 0 Z " fill="#B33A37" transform="translate(221,134)"/>
<path d="M0 0 C0.33 0 0.66 0 1 0 C1.02917234 3.87498404 1.04685673 7.74993958 1.0625 11.625 C1.07087891 12.71941406 1.07925781 13.81382813 1.08789062 14.94140625 C1.09111328 16.00488281 1.09433594 17.06835938 1.09765625 18.1640625 C1.10289307 19.13811035 1.10812988 20.1121582 1.11352539 21.11572266 C0.99414506 24.14875321 0.55866724 27.01915268 0 30 C-0.99 30 -1.98 30 -3 30 C-2.67 24.39 -2.34 18.78 -2 13 C-1.34 13 -0.68 13 0 13 C0 8.71 0 4.42 0 0 Z " fill="#C44843" transform="translate(224,104)"/>
<path d="M0 0 C0.66 0 1.32 0 2 0 C1.96519531 1.86205078 1.96519531 1.86205078 1.9296875 3.76171875 C1.91092269 5.4036398 1.89272325 7.04556738 1.875 8.6875 C1.85824219 9.50412109 1.84148438 10.32074219 1.82421875 11.16210938 C1.7885198 15.57092929 1.92419186 18.98731576 4 23 C3.01 23 2.02 23 1 23 C-3.0596592 14.88068161 -2.4333095 8.51658324 0 0 Z " fill="#B8393A" transform="translate(62,159)"/>
<path d="M0 0 C1.41750563 0.11509661 2.83401169 0.24253658 4.25 0.375 C5.03890625 0.44460937 5.8278125 0.51421875 6.640625 0.5859375 C9.085877 1.01507113 10.84836903 1.78600638 13 3 C8.28400182 3.92470553 5.32734391 4.22923777 1 2 C1 3.65 1 5.3 1 7 C0.67 7 0.34 7 0 7 C0 4.69 0 2.38 0 0 Z " fill="#B64742" transform="translate(61,157)"/>
<path d="M0 0 C0.33 0.66 0.66 1.32 1 2 C2.64363134 2.72159424 4.31050386 3.39351421 6 4 C6 4.66 6 5.32 6 6 C9.96 6 13.92 6 18 6 C18 6.33 18 6.66 18 7 C5.10511658 7.68874748 5.10511658 7.68874748 1.25 5.125 C-1 3 -1 3 -2 1 C-1.34 0.67 -0.68 0.34 0 0 Z " fill="#B24443" transform="translate(68,108)"/>
<path d="M0 0 C0.433125 0.61875 0.86625 1.2375 1.3125 1.875 C2.99740483 4.2197245 2.99740483 4.2197245 6 6 C5 7 5 7 1.9375 7.0625 C0.4834375 7.0315625 0.4834375 7.0315625 -1 7 C-1.04254356 5.00045254 -1.04080783 2.99958364 -1 1 C-0.67 0.67 -0.34 0.34 0 0 Z " fill="#BF3837" transform="translate(89,87)"/>
<path d="M0 0 C3.24208567 0.35049575 4.61527704 0.56221181 6.8125 3.0625 C7.204375 3.701875 7.59625 4.34125 8 5 C6.68 5.33 5.36 5.66 4 6 C4 5.34 4 4.68 4 4 C2.68 3.34 1.36 2.68 0 2 C0 1.34 0 0.68 0 0 Z " fill="#BD5051" transform="translate(176,17)"/>
<path d="M0 0 C1.1725131 0.95117134 2.33787015 1.91117009 3.5 2.875 C4.47453125 3.67550781 4.47453125 3.67550781 5.46875 4.4921875 C5.9740625 4.98976562 6.479375 5.48734375 7 6 C7 6.66 7 7.32 7 8 C4.625 7.375 4.625 7.375 2 6 C0.6875 2.875 0.6875 2.875 0 0 Z " fill="#B83531" transform="translate(36,192)"/>
<path d="M0 0 C2.86697492 1.28519565 4.97607712 2.57129254 7 5 C7 5.66 7 6.32 7 7 C3.17053157 5.54744301 1.87949705 3.57104439 0 0 Z " fill="#C6393C" transform="translate(145,100)"/>
<path d="" fill="#FFFFFF" transform="translate(0,0)"/>
<path d="" fill="#FFFFFF" transform="translate(0,0)"/>
<path d="" fill="#FFFFFF" transform="translate(0,0)"/>
<path d="" fill="#FFFFFF" transform="translate(0,0)"/>
<path d="" fill="#FFFFFF" transform="translate(0,0)"/>
<path d="" fill="#FFFFFF" transform="translate(0,0)"/>
<path d="" fill="#FFFFFF" transform="translate(0,0)"/>
<path d="" fill="#FFFFFF" transform="translate(0,0)"/>
<path d="" fill="#FFFFFF" transform="translate(0,0)"/>
<path d="" fill="#FFFFFF" transform="translate(0,0)"/>
<path d="" fill="#FFFFFF" transform="translate(0,0)"/>
<path d="" fill="#FFFFFF" transform="translate(0,0)"/>
<path d="" fill="#FFFFFF" transform="translate(0,0)"/>
<path d="" fill="#FFFFFF" transform="translate(0,0)"/>
<path d="" fill="#FFFFFF" transform="translate(0,0)"/>
<path d="" fill="#FFFFFF" transform="translate(0,0)"/>
<path d="" fill="#FFFFFF" transform="translate(0,0)"/>
<path d="" fill="#FFFFFF" transform="translate(0,0)"/>
<path d="" fill="#FFFFFF" transform="translate(0,0)"/>
<path d="" fill="#FFFFFF" transform="translate(0,0)"/>
<path d="" fill="#FFFFFF" transform="translate(0,0)"/>
<path d="" fill="#FFFFFF" transform="translate(0,0)"/>
<path d="" fill="#FFFFFF" transform="translate(0,0)"/>
<path d="" fill="#FFFFFF" transform="translate(0,0)"/>
<path d="" fill="#FFFFFF" transform="translate(0,0)"/>
<path d="" fill="#FFFFFF" transform="translate(0,0)"/>
<path d="" fill="#FFFFFF" transform="translate(0,0)"/>
<path d="" fill="#FFFFFF" transform="translate(0,0)"/>
<path d="" fill="#FFFFFF" transform="translate(0,0)"/>
<path d="" fill="#FEFFFF" transform="translate(0,0)"/>
<path d="" fill="#FFFFFF" transform="translate(0,0)"/>
<path d="" fill="#FEFFFF" transform="translate(0,0)"/>
<path d="" fill="#FFFFFF" transform="translate(0,0)"/>
<path d="" fill="#FFFFFF" transform="translate(0,0)"/>
<path d="" fill="#FFFFFF" transform="translate(0,0)"/>
<path d="" fill="#FFFFFF" transform="translate(0,0)"/>
<path d="" fill="#FFFFFF" transform="translate(0,0)"/>
<path d="" fill="#FFFFFF" transform="translate(0,0)"/>
<path d="" fill="#FFFFFF" transform="translate(0,0)"/>
<path d="" fill="#FFFFFF" transform="translate(0,0)"/>
<path d="" fill="#FFFFFF" transform="translate(0,0)"/>
<path d="" fill="#FFFFFF" transform="translate(0,0)"/>
<path d="" fill="#FFFFFF" transform="translate(0,0)"/>
<path d="" fill="#FFFFFF" transform="translate(0,0)"/>
<path d="" fill="#FFFFFF" transform="translate(0,0)"/>
<path d="" fill="#FFFFFF" transform="translate(0,0)"/>
<path d="" fill="#FFFFFF" transform="translate(0,0)"/>
<path d="" fill="#FFFFFF" transform="translate(0,0)"/>
<path d="" fill="#FFFFFF" transform="translate(0,0)"/>
<path d="" fill="#FFFFFF" transform="translate(0,0)"/>
<path d="" fill="#FFFFFF" transform="translate(0,0)"/>
<path d="" fill="#FFFFFF" transform="translate(0,0)"/>
<path d="" fill="#FFFFFF" transform="translate(0,0)"/>
<path d="" fill="#FFFFFF" transform="translate(0,0)"/>
<path d="" fill="#FFFFFF" transform="translate(0,0)"/>
<path d="" fill="#FFFFFF" transform="translate(0,0)"/>
<path d="" fill="#FFFFFF" transform="translate(0,0)"/>
<path d="" fill="#FFFFFF" transform="translate(0,0)"/>
<path d="" fill="#FFFFFF" transform="translate(0,0)"/>
<path d="" fill="#FFFFFF" transform="translate(0,0)"/>
<path d="" fill="#FFFFFF" transform="translate(0,0)"/>
<path d="" fill="#FFFFFF" transform="translate(0,0)"/>
<path d="" fill="#FFFFFF" transform="translate(0,0)"/>
<path d="" fill="#FFFFFF" transform="translate(0,0)"/>
<path d="" fill="#FFFFFF" transform="translate(0,0)"/>
<path d="" fill="#FFFFFF" transform="translate(0,0)"/>
<path d="" fill="#FFFFFF" transform="translate(0,0)"/>
<path d="" fill="#FFFFFF" transform="translate(0,0)"/>
<path d="" fill="#FFFFFF" transform="translate(0,0)"/>
</svg>
