<?xml version="1.0" encoding="UTF-8"?>
<svg version="1.1" xmlns="http://www.w3.org/2000/svg" width="225" height="225">
<path d="M0 0 C1.65706349 0.01045082 3.314133 0.01998137 4.97120667 0.02867126 C9.42907618 0.05461495 13.88675167 0.09328474 18.34450364 0.13439512 C23.01824832 0.17528149 27.69206724 0.20424834 32.3658905 0.23452759 C41.1982754 0.29353456 50.03054332 0.3631233 58.86281842 0.43659842 C68.92574948 0.51978972 78.98875422 0.59105575 89.05178225 0.66136432 C109.73539499 0.80614188 130.41887098 0.96575158 151.10229492 1.13525391 C146.74533594 6.34589313 142.16643332 11.20941972 137.3527832 15.99829102 C136.22493156 17.12636169 136.22493156 17.12636169 135.07429504 18.27722168 C132.60943092 20.74139386 130.14105282 23.20201341 127.67260742 25.66259766 C125.95460517 27.37873317 124.2368248 29.09509084 122.51925659 30.81166077 C118.01372631 35.31338599 113.50520021 39.81209907 108.99603271 44.31018066 C104.38900691 48.906949 99.78483579 53.50657468 95.18041992 58.10595703 C86.1571619 67.11851323 77.13083144 76.12798573 68.10229492 85.13525391 C72.45672135 90.34458113 77.03465726 95.20090492 81.85180664 99.98242188 C82.60370773 100.7328627 83.35560883 101.48330353 84.1302948 102.25648499 C85.75133357 103.87373848 87.37352588 105.48983641 88.99676132 107.1048851 C91.5620049 109.6573139 94.12406636 112.21289878 96.68533325 114.76931763 C102.11318495 120.18577703 107.54496723 125.59828412 112.97729492 131.01025391 C119.29329473 137.30268396 125.60768984 143.59670685 131.91791153 149.89493179 C134.44869412 152.41920656 136.98245542 154.94046582 139.5163269 157.4616394 C141.05408098 158.99576406 142.59169658 160.53002755 144.12915039 162.06445312 C144.83973099 162.7698674 145.55031158 163.47528168 146.28242493 164.20207214 C147.24125328 165.16079475 147.24125328 165.16079475 148.2194519 166.1388855 C149.05949925 166.97560193 149.05949925 166.97560193 149.91651726 167.82922173 C151.10229492 169.13525391 151.10229492 169.13525391 151.10229492 170.13525391 C92.03229492 170.13525391 32.96229492 170.13525391 -27.89770508 170.13525391 C-27.89770508 116.67525391 -27.89770508 63.21525391 -27.89770508 8.13525391 C-28.55770508 8.13525391 -29.21770508 8.13525391 -29.89770508 8.13525391 C-29.89770508 6.15525391 -29.89770508 4.17525391 -29.89770508 2.13525391 C-19.86952473 0.2062572 -10.15723763 -0.11148322 0 0 Z M-12.89770508 16.13525391 C-12.89770508 32.96525391 -12.89770508 49.79525391 -12.89770508 67.13525391 C-8.7688191 63.59620878 -4.87681116 60.23979494 -1.06396484 56.4309082 C-0.18358047 55.55367599 0.69680389 54.67644379 1.60386658 53.77262878 C2.53018387 52.84428726 3.45650116 51.91594574 4.41088867 50.95947266 C5.38722915 49.98380699 6.36371793 49.00828971 7.34034729 48.03291321 C9.37159104 46.00313389 11.40103941 43.97158137 13.42919922 41.9387207 C16.03411407 39.32806341 18.64355481 36.72198298 21.25431728 34.1171751 C23.26432062 32.11077255 25.27195208 30.10201037 27.27885628 28.09250832 C28.24103388 27.12966246 29.20395811 26.16756213 30.16763115 25.206213 C31.50560466 23.87076294 32.8400563 22.53178711 34.17431641 21.19262695 C35.31512917 20.0506208 35.31512917 20.0506208 36.47898865 18.88554382 C38.21562983 17.41091702 38.21562983 17.41091702 38.10229492 16.13525391 C21.27229492 16.13525391 4.44229492 16.13525391 -12.89770508 16.13525391 Z M19.60229492 48.63525391 C18.79987366 49.43767517 17.99745239 50.24009644 17.17071533 51.0668335 C-0.63916035 69.07847487 -17.3328104 86.76259159 -17.8371582 113.22705078 C-17.42980025 123.79147617 -15.82525145 133.98518533 -12.89770508 144.13525391 C-6.18772595 138.62287371 -0.12259331 132.50128303 6.00439453 126.36254883 C7.19732362 125.17097651 8.39046496 123.97961665 9.58380127 122.78845215 C12.8066935 119.57009847 16.02643929 116.34861446 19.24547267 113.12640166 C22.61653982 109.75279593 25.99005378 106.38163834 29.36317444 103.01008606 C35.0196317 97.35544462 40.67398449 91.69870524 46.32714844 86.04077148 C52.87089321 79.49156943 59.41825399 72.94599893 65.96747392 66.4022724 C71.59148751 60.78278789 77.21356126 55.16136824 82.83399969 49.53830796 C86.19081243 46.17993334 89.54830408 42.82224495 92.90754509 39.46629906 C96.05921227 36.31750813 99.20844691 33.16630486 102.35577393 30.01317596 C103.51433382 28.85328782 104.67375662 27.69426089 105.83407784 26.53613472 C107.41028817 24.96263294 108.9834241 23.38612266 110.55577087 21.8087616 C111.43897475 20.92518069 112.32217863 20.04159979 113.23214626 19.13124371 C115.2162497 17.46950127 115.2162497 17.46950127 115.10229492 16.13525391 C73.16467809 3.75699844 48.64697127 19.59057756 19.60229492 48.63525391 Z M52.29711914 99.80490112 C51.75837158 100.34567291 51.21962402 100.8864447 50.66455078 101.44360352 C50.09869766 102.00770432 49.53284454 102.57180511 48.94984436 103.15299988 C47.06974215 105.02868086 45.1933447 106.90801997 43.31713867 108.78759766 C42.01834023 110.08572314 40.71939332 111.38370009 39.42030334 112.68153381 C36.69409777 115.40626205 33.96971708 118.13279883 31.24658203 120.8605957 C27.74691399 124.36596104 24.24277705 127.86681917 20.73726559 131.36633968 C18.05298956 134.04701108 15.37108901 136.73004879 12.6899128 139.41382027 C11.3983876 140.706015 10.10611241 141.99746057 8.81309319 143.28816032 C7.00985308 145.0888755 5.20982533 146.89274001 3.41064453 148.69750977 C2.86987274 149.23625732 2.32910095 149.77500488 1.77194214 150.33007812 C-0.7641378 152.38501647 -0.7641378 152.38501647 -1.89770508 155.13525391 C36.71229492 155.13525391 75.32229492 155.13525391 115.10229492 155.13525391 C111.3385744 150.74424663 107.72205641 146.62917914 103.66357422 142.56713867 C103.15711868 142.05893082 102.65066315 141.55072296 102.12886047 141.02711487 C100.48055735 139.37446596 98.82869053 137.72543572 97.17651367 136.07666016 C96.02148588 134.92095786 94.8666065 133.76510723 93.71186829 132.6091156 C91.30546307 130.20124384 88.89727754 127.79517108 86.48779297 125.39038086 C83.39286733 122.30119054 80.3025046 119.20748035 77.21342754 116.11244297 C74.83644033 113.73185467 72.45709209 111.35363772 70.07700539 108.97614861 C68.93552983 107.83534159 67.79480067 106.69378727 66.6548214 105.55148506 C65.07029415 103.9644346 63.48262574 102.38059698 61.89404297 100.79760742 C60.9905864 99.89494644 60.08712982 98.99228546 59.15629578 98.06227112 C55.71205956 94.83096649 55.32610788 96.79336496 52.29711914 99.80490112 Z " fill="#0E0E0E" transform="translate(55.897705078125,26.86474609375)"/>
<path d="M0 0 C0.99 0 1.98 0 3 0 C3 55.11 3 110.22 3 167 C61.08 167 119.16 167 179 167 C179 167.33 179 167.66 179 168 C120.59 168 62.18 168 2 168 C2 114.54 2 61.08 2 6 C1.34 6 0.68 6 0 6 C0 4.02 0 2.04 0 0 Z " fill="#303030" transform="translate(26,29)"/>
<path d="M0 0 C0.99 0 1.98 0 3 0 C3 43.56 3 87.12 3 132 C2.67 132 2.34 132 2 132 C2 90.42 2 48.84 2 6 C1.34 6 0.68 6 0 6 C0 4.02 0 2.04 0 0 Z " fill="#303030" transform="translate(26,29)"/>
<path d="M0 0 C0.99 0 1.98 0 3 0 C3 4.62 3 9.24 3 14 C2.67 14 2.34 14 2 14 C2 11.36 2 8.72 2 6 C1.34 6 0.68 6 0 6 C0 4.02 0 2.04 0 0 Z " fill="#8E8E8E" transform="translate(26,29)"/>
<path d="" fill="#FFFFFF" transform="translate(0,0)"/>
<path d="" fill="#FFFFFF" transform="translate(0,0)"/>
<path d="" fill="#FFFFFF" transform="translate(0,0)"/>
<path d="" fill="#FFFFFF" transform="translate(0,0)"/>
<path d="" fill="#FFFFFF" transform="translate(0,0)"/>
<path d="" fill="#FFFFFF" transform="translate(0,0)"/>
<path d="" fill="#FFFFFF" transform="translate(0,0)"/>
<path d="" fill="#FFFFFF" transform="translate(0,0)"/>
<path d="" fill="#FFFFFF" transform="translate(0,0)"/>
<path d="" fill="#FFFFFF" transform="translate(0,0)"/>
<path d="" fill="#FFFFFF" transform="translate(0,0)"/>
<path d="" fill="#FFFFFF" transform="translate(0,0)"/>
<path d="" fill="#FFFFFF" transform="translate(0,0)"/>
<path d="" fill="#FFFFFF" transform="translate(0,0)"/>
<path d="" fill="#FFFFFF" transform="translate(0,0)"/>
<path d="" fill="#FFFFFF" transform="translate(0,0)"/>
<path d="" fill="#FFFFFF" transform="translate(0,0)"/>
<path d="" fill="#FFFFFF" transform="translate(0,0)"/>
<path d="" fill="#FFFFFF" transform="translate(0,0)"/>
<path d="" fill="#FFFFFF" transform="translate(0,0)"/>
<path d="" fill="#FFFFFF" transform="translate(0,0)"/>
<path d="" fill="#FFFFFF" transform="translate(0,0)"/>
<path d="" fill="#FFFFFF" transform="translate(0,0)"/>
<path d="" fill="#FFFFFF" transform="translate(0,0)"/>
<path d="" fill="#FFFFFF" transform="translate(0,0)"/>
<path d="" fill="#FFFFFF" transform="translate(0,0)"/>
<path d="" fill="#FFFFFF" transform="translate(0,0)"/>
<path d="" fill="#FFFFFF" transform="translate(0,0)"/>
<path d="" fill="#FFFFFF" transform="translate(0,0)"/>
<path d="" fill="#FFFFFF" transform="translate(0,0)"/>
<path d="" fill="#FFFFFF" transform="translate(0,0)"/>
<path d="" fill="#FFFFFF" transform="translate(0,0)"/>
<path d="" fill="#FFFFFF" transform="translate(0,0)"/>
<path d="" fill="#FFFFFF" transform="translate(0,0)"/>
<path d="" fill="#FFFFFF" transform="translate(0,0)"/>
<path d="" fill="#FFFFFF" transform="translate(0,0)"/>
<path d="" fill="#FFFFFF" transform="translate(0,0)"/>
<path d="" fill="#FFFFFF" transform="translate(0,0)"/>
<path d="" fill="#FFFFFF" transform="translate(0,0)"/>
<path d="" fill="#FFFFFF" transform="translate(0,0)"/>
<path d="" fill="#FFFFFF" transform="translate(0,0)"/>
<path d="" fill="#FFFFFF" transform="translate(0,0)"/>
<path d="" fill="#FFFFFF" transform="translate(0,0)"/>
<path d="" fill="#FFFFFF" transform="translate(0,0)"/>
<path d="" fill="#FFFFFF" transform="translate(0,0)"/>
<path d="" fill="#FFFFFF" transform="translate(0,0)"/>
<path d="" fill="#FFFFFF" transform="translate(0,0)"/>
<path d="" fill="#FFFFFF" transform="translate(0,0)"/>
<path d="" fill="#FFFFFF" transform="translate(0,0)"/>
<path d="" fill="#FFFFFF" transform="translate(0,0)"/>
<path d="" fill="#FFFFFF" transform="translate(0,0)"/>
<path d="" fill="#FFFFFF" transform="translate(0,0)"/>
<path d="" fill="#FFFFFF" transform="translate(0,0)"/>
<path d="" fill="#FFFFFF" transform="translate(0,0)"/>
<path d="" fill="#FFFFFF" transform="translate(0,0)"/>
<path d="" fill="#FFFFFF" transform="translate(0,0)"/>
<path d="" fill="#FFFFFF" transform="translate(0,0)"/>
<path d="" fill="#FFFFFF" transform="translate(0,0)"/>
</svg>
