<?xml version="1.0" encoding="UTF-8"?>
<svg version="1.1" xmlns="http://www.w3.org/2000/svg" width="225" height="225">
<path d="M0 0 C3.58501877 3.67464424 5.39842429 7.80502705 7.125 12.5625 C7.38361816 13.26052734 7.64223633 13.95855469 7.90869141 14.67773438 C10.06229855 20.7127947 11.20421849 26.63374791 12 33 C17.61 33.33 23.22 33.66 29 34 C29 39.94 29 45.88 29 52 C23.72 52 18.44 52 13 52 C12.773125 54.59875 12.54625 57.1975 12.3125 59.875 C10.16988672 80.39768939 3.83841893 99.33715098 -12.41015625 113.03125 C-23.82871613 121.57254994 -35.98069771 123.95123534 -50 122 C-58.64901719 119.51949182 -65.00197987 114.41604376 -70 107 C-75.4090653 97.14197849 -77.16885964 88.24692979 -75.375 77.125 C-71.37832837 63.4536267 -63.10138847 52.71897102 -50.85546875 45.5234375 C-37.28449254 38.2831082 -22.30473796 35.00358937 -7 34 C-7.81488863 27.82144143 -9.10023072 22.44199241 -11.6875 16.75 C-13.83489876 11.84529042 -14.80558402 9.09811959 -13 4 C-8.92621829 -0.99366791 -6.25894618 -1.51078011 0 0 Z M-49 66 C-55.04064595 72.53007995 -58.66347191 79.47273836 -58.34765625 88.5078125 C-57.56473494 94.1202147 -55.08374936 97.81543674 -51.3125 101.9375 C-45.87148679 105.32530068 -40.74148473 105.48319378 -34.5 104.4375 C-25.35114826 102.04251263 -18.40912324 95.67215946 -13.62890625 87.71875 C-7.59934651 76.411089 -5.77033954 64.68236118 -6 52 C-20.63892962 52 -38.02824451 55.90598495 -49 66 Z " fill="#027783" transform="translate(116,74)"/>
<path d="M0 0 C1.58206057 0.00667536 3.16410534 0.0186375 4.74609375 0.03515625 C5.55240234 0.03966797 6.35871094 0.04417969 7.18945312 0.04882812 C9.18753131 0.06065107 11.18557158 0.07858711 13.18359375 0.09765625 C14.16338392 19.5845941 8.77797403 40.35121931 -4.06640625 55.34765625 C-12.27354457 63.99397254 -22.04872023 70.91787874 -34.29296875 71.3359375 C-38.47404379 71.38491246 -42.63920412 71.27395083 -46.81640625 71.09765625 C-46.95512105 66.46804966 -46.63172544 62.5993585 -45.31640625 58.16015625 C-45.03796875 57.20238281 -44.75953125 56.24460938 -44.47265625 55.2578125 C-44.25609375 54.54496094 -44.03953125 53.83210938 -43.81640625 53.09765625 C-43.06617187 53.08347656 -42.3159375 53.06929687 -41.54296875 53.0546875 C-32.03330981 52.61154218 -24.65522591 50.49151813 -18.00390625 43.41015625 C-9.37938075 32.57369362 -6.80238037 20.1238076 -5.4621582 6.67163086 C-4.80228784 0.12288352 -4.80228784 0.12288352 0 0 Z " fill="#04CFBF" transform="translate(114.81640625,124.90234375)"/>
<path d="M0 0 C1.39120471 0.00015906 2.78241534 0.00585033 4.17358398 0.01586914 C4.90463852 0.01728409 5.63569305 0.01869904 6.38890076 0.02015686 C8.73253406 0.02577131 11.07607313 0.03832617 13.41967773 0.05102539 C15.00496282 0.05603853 16.59024939 0.06060176 18.17553711 0.06469727 C22.06948316 0.07489618 25.9632245 0.09446852 29.85717773 0.11352539 C29.85717773 6.05352539 29.85717773 11.99352539 29.85717773 18.11352539 C18.63717773 18.11352539 7.41717773 18.11352539 -4.14282227 18.11352539 C-4.14282227 0.14964751 -4.14282227 0.14964751 0 0 Z " fill="#007885" transform="translate(195.142822265625,107.886474609375)"/>
<path d="M0 0 C3.56431575 3.66027809 5.39715688 7.76637047 7.125 12.5 C7.38361816 13.19544922 7.64223633 13.89089844 7.90869141 14.60742188 C10.17989179 20.98363896 11.33028455 27.25665819 12 34 C9.02077407 34.02683987 6.04178705 34.04676037 3.0625 34.0625 C2.21236328 34.07087891 1.36222656 34.07925781 0.48632812 34.08789062 C-0.32255859 34.09111328 -1.13144531 34.09433594 -1.96484375 34.09765625 C-2.7137085 34.10289307 -3.46257324 34.10812988 -4.23413086 34.11352539 C-6 34 -6 34 -7 33 C-7.27632268 31.56732696 -7.52019671 30.12836665 -7.75 28.6875 C-8.54256322 24.39905716 -9.88398929 20.77922439 -11.6875 16.8125 C-13.82411323 11.88817543 -14.80957287 9.10938222 -13 4 C-8.92621829 -0.99366791 -6.25894618 -1.51078011 0 0 Z " fill="#05CFBF" transform="translate(116,74)"/>
<path d="M0 0 C9.9 0 19.8 0 30 0 C30 5.94 30 11.88 30 18 C20.1 18 10.2 18 0 18 C0 12.06 0 6.12 0 0 Z " fill="#067582" transform="translate(153,108)"/>
<path d="M0 0 C3.89442497 0.78765174 6.20885274 3.35362678 8.91650391 6.11303711 C9.4753125 6.64348633 10.03412109 7.17393555 10.60986328 7.72045898 C13.66191687 10.6852071 16.23361553 13.55304286 18.10400391 17.42553711 C18.03165594 20.97058722 17.51774765 22.83674794 15.47900391 25.73803711 C12.1151715 28.12812856 10.25467853 28.63307084 6.10400391 28.42553711 C3.07181073 26.46281488 0.65706359 23.96409077 -1.89599609 21.42553711 C-3.3673992 20.14572295 -4.84631655 18.87448405 -6.33349609 17.61303711 C-9.64366617 14.7822263 -10.76544556 13.57873353 -11.27099609 9.11303711 C-10.89599609 5.42553711 -10.89599609 5.42553711 -8.89599609 2.48803711 C-5.72161501 0.30565012 -3.81907617 -0.10528453 0 0 Z " fill="#09CDBD" transform="translate(88.89599609375,43.574462890625)"/>
<path d="M0 0 C3.74785043 2.08213913 4.79482295 3.2947039 6 7.4375 C6 11.4184894 5.5177436 12.96134393 3 16 C0.50085312 17.89590453 -0.77963304 18.00468866 -3.9375 17.9375 C-7.86328825 16.73572809 -9.53262389 15.26564485 -12 12 C-12.7446324 8.02862719 -12.37266878 6.55900317 -10.125 3.1875 C-6.82233621 -0.21230096 -4.68601439 -0.45941318 0 0 Z " fill="#09CCBC" transform="translate(68,29)"/>
<path d="M0 0 C1.39120471 0.00015906 2.78241534 0.00585033 4.17358398 0.01586914 C4.90463852 0.01728409 5.63569305 0.01869904 6.38890076 0.02015686 C8.73253406 0.02577131 11.07607313 0.03832617 13.41967773 0.05102539 C15.00496282 0.05603853 16.59024939 0.06060176 18.17553711 0.06469727 C22.06945383 0.07574542 25.96329979 0.09301967 29.85717773 0.11352539 C29.85717773 0.77352539 29.85717773 1.43352539 29.85717773 2.11352539 C19.29717773 2.11352539 8.73717773 2.11352539 -2.14282227 2.11352539 C-2.14282227 6.73352539 -2.14282227 11.35352539 -2.14282227 16.11352539 C13.69717773 16.60852539 13.69717773 16.60852539 29.85717773 17.11352539 C29.85717773 17.44352539 29.85717773 17.77352539 29.85717773 18.11352539 C18.63717773 18.11352539 7.41717773 18.11352539 -4.14282227 18.11352539 C-4.14282227 0.14964751 -4.14282227 0.14964751 0 0 Z " fill="#146D7A" transform="translate(195.142822265625,107.886474609375)"/>
<path d="M0 0 C-0.6875 1.9375 -0.6875 1.9375 -2 4 C-4.4375 4.625 -4.4375 4.625 -7 5 C-7.99 5.66 -8.98 6.32 -10 7 C-10.8572848 12.7560551 -8.97862115 16.94270523 -6.890625 22.265625 C-5.6621558 26.03724097 -5.70330037 29.06872992 -6 33 C-6.33 33 -6.66 33 -7 33 C-7.08636719 32.41734375 -7.17273438 31.8346875 -7.26171875 31.234375 C-8.15015593 26.05046632 -9.50931229 21.61056349 -11.6875 16.8125 C-13.82411323 11.88817543 -14.80957287 9.10938222 -13 4 C-8.79495077 -1.15457648 -6.39725128 -1.06620855 0 0 Z " fill="#1DC1B4" transform="translate(116,74)"/>
<path d="M0 0 C0.66 0.66 1.32 1.32 2 2 C1.36191406 2.37511719 0.72382812 2.75023438 0.06640625 3.13671875 C-0.75988281 3.64847656 -1.58617188 4.16023438 -2.4375 4.6875 C-3.26121094 5.18636719 -4.08492187 5.68523437 -4.93359375 6.19921875 C-7.48683218 8.42425262 -7.44718436 9.74453012 -8 13 C-9.48828125 14.66015625 -9.48828125 14.66015625 -11.3125 16.0625 C-14.05010624 18.24244571 -16.56936394 20.47213849 -19 23 C-16.84637141 13.66760945 -9.34417597 6.67274282 -2 1 C-1.34 0.67 -0.68 0.34 0 0 Z " fill="#0E6D74" transform="translate(63,121)"/>
<path d="M0 0 C1.58206057 0.00667536 3.16410534 0.0186375 4.74609375 0.03515625 C5.55240234 0.03966797 6.35871094 0.04417969 7.18945312 0.04882812 C9.18753131 0.06065107 11.18557158 0.07858711 13.18359375 0.09765625 C13.18359375 3.39765625 13.18359375 6.69765625 13.18359375 10.09765625 C12.85359375 10.09765625 12.52359375 10.09765625 12.18359375 10.09765625 C12.18359375 7.45765625 12.18359375 4.81765625 12.18359375 2.09765625 C7.56359375 2.42765625 2.94359375 2.75765625 -1.81640625 3.09765625 C-2.47640625 5.73765625 -3.13640625 8.37765625 -3.81640625 11.09765625 C-4.14640625 11.09765625 -4.47640625 11.09765625 -4.81640625 11.09765625 C-4.84328776 9.45191059 -4.86274748 7.80604212 -4.87890625 6.16015625 C-4.89050781 5.24363281 -4.90210937 4.32710937 -4.9140625 3.3828125 C-4.74806315 -0.5015722 -4.08167578 0.10444411 0 0 Z " fill="#13BDB4" transform="translate(114.81640625,124.90234375)"/>
<path d="M0 0 C0.33 0 0.66 0 1 0 C1.12779553 7.41214058 1.12779553 7.41214058 0.375 10.875 C-0.28830049 16.40250412 1.11537059 21.81170619 3.1875 26.9375 C4 29 4 29 3 32 C-2.15176317 21.00158467 -3.5006577 11.81471974 0 0 Z " fill="#10686F" transform="translate(42,147)"/>
<path d="M0 0 C0.66 0.33 1.32 0.66 2 1 C1.63379732 9.11138929 -0.41540233 16.33035667 -3 24 C-3.93423645 20.98968256 -4.04449911 20.13349732 -3 17 C-2.9559484 15.3755972 -2.960498 13.7495198 -3 12.125 C-3.04122038 8.60065761 -2.91468525 5.43006968 -2 2 C-1.34 2 -0.68 2 0 2 C0 1.34 0 0.68 0 0 Z " fill="#1AC1B3" transform="translate(125,138)"/>
<path d="M0 0 C0.66 1.32 1.32 2.64 2 4 C1.01 4.495 1.01 4.495 0 5 C-0.33 5.99 -0.66 6.98 -1 8 C-0.34 8 0.32 8 1 8 C1 8.99 1 9.98 1 11 C5.455 11.99 5.455 11.99 10 13 C10 12.34 10 11.68 10 11 C11.32 11.33 12.64 11.66 14 12 C11.17128122 14.07994028 9.55490809 15 6 15 C2.15558401 13.718528 0.43793831 12.22668305 -2 9 C-2.57991403 4.85775694 -2.34549674 3.51824511 0 0 Z " fill="#24BBAE" transform="translate(58,32)"/>
<path d="M0 0 C-9.34827573 4.52270791 -17.87863851 4.4271618 -28 4 C-28 3.67 -28 3.34 -28 3 C-24.84692171 2.38476521 -22.03192118 1.99874819 -18.8125 2.125 C-14.39830234 1.98027221 -10.73927027 0.89156409 -6.55078125 -0.44140625 C-3.90968436 -1.01977816 -2.51694368 -0.89006673 0 0 Z " fill="#1EBFB2" transform="translate(96,192)"/>
<path d="M0 0 C1.32 0.33 2.64 0.66 4 1 C3 4 3 4 1.375 5.25 C-2.0402198 6.32849046 -4.55424873 5.82953271 -8 5 C-8.66 4.01 -9.32 3.02 -10 2 C-7.36 2.66 -4.72 3.32 -2 4 C-1.34 2.68 -0.68 1.36 0 0 Z " fill="#1DC1B4" transform="translate(101,66)"/>
<path d="M0 0 C2.97 0.495 2.97 0.495 6 1 C5.67 1.66 5.34 2.32 5 3 C3.35 3 1.7 3 0 3 C0.061875 4.2375 0.12375 5.475 0.1875 6.75 C0.20362826 9.78211302 0.10651023 10.82248296 -1.5 13.5 C-1.995 13.995 -2.49 14.49 -3 15 C-2.5547115 9.72684667 -1.91626837 4.98229776 0 0 Z " fill="#14BFB7" transform="translate(71,178)"/>
<path d="M0 0 C0.66 1.32 1.32 2.64 2 4 C-1.20336822 6.83374881 -3.78087253 7.5205537 -8 8 C-5.33333333 5.33333333 -2.66666667 2.66666667 0 0 Z " fill="#1AC1B0" transform="translate(98,167)"/>
<path d="M0 0 C-1.40691607 0.72750788 -2.82606022 1.43140353 -4.25 2.125 C-5.03890625 2.51945312 -5.8278125 2.91390625 -6.640625 3.3203125 C-9 4 -9 4 -11.296875 3.1171875 C-11.85890625 2.74851562 -12.4209375 2.37984375 -13 2 C-11.5882217 1.46605821 -10.17029756 0.94834896 -8.75 0.4375 C-7.96109375 0.14746094 -7.1721875 -0.14257812 -6.359375 -0.44140625 C-3.80896548 -1.04522837 -2.44677771 -0.8473932 0 0 Z " fill="#166D79" transform="translate(88,113)"/>
<path d="M0 0 C4.43601966 3.51822249 5.52033129 7.75390186 7 13 C4.64283596 10.84545751 3.21033856 8.80280126 1.8125 5.9375 C1.29623047 4.89916016 1.29623047 4.89916016 0.76953125 3.83984375 C0 2 0 2 0 0 Z " fill="#22BBAC" transform="translate(116,75)"/>
<path d="M0 0 C1.32 0 2.64 0 4 0 C2.60667426 3.36720387 1.0210714 4.9859524 -2 7 C-2.33 6.01 -2.66 5.02 -3 4 C-2.01 3.67 -1.02 3.34 0 3 C0 2.01 0 1.02 0 0 Z " fill="#19C1B5" transform="translate(109,176)"/>
<path d="M0 0 C1.32 0.99 2.64 1.98 4 3 C2.38405168 5.04119788 0.7143618 7.04072937 -1 9 C-1.66 9 -2.32 9 -3 9 C-2.01 6.03 -1.02 3.06 0 0 Z " fill="#18C1B5" transform="translate(106,151)"/>
<path d="M0 0 C0.66 0.66 1.32 1.32 2 2 C0.25 4 0.25 4 -2 6 C-3.32 6 -4.64 6 -6 6 C-4.95125002 3.37812506 -4.35068687 2.20628639 -1.875 0.75 C-1.25625 0.5025 -0.6375 0.255 0 0 Z " fill="#03D1C7" transform="translate(101,64)"/>
<path d="M0 0 C1.32 0 2.64 0 4 0 C4.33 1.65 4.66 3.3 5 5 C3.35 5 1.7 5 0 5 C0 3.35 0 1.7 0 0 Z " fill="#096C73" transform="translate(140,121)"/>
<path d="M0 0 C2.03833424 1.2739589 4.03852126 2.61061923 6 4 C6 4.66 6 5.32 6 6 C3.97954558 5.39816251 1.97888961 4.72693904 0 4 C-0.33 3.34 -0.66 2.68 -1 2 C-0.67 1.34 -0.34 0.68 0 0 Z " fill="#0D7072" transform="translate(62,173)"/>
<path d="M0 0 C0.66 1.32 1.32 2.64 2 4 C-0.31 4 -2.62 4 -5 4 C-3 1 -3 1 0 0 Z " fill="#0C6A71" transform="translate(105,123)"/>
<path d="M0 0 C0.66 0.66 1.32 1.32 2 2 C1.625 4.125 1.625 4.125 1 6 C-0.32 6 -1.64 6 -3 6 C-1.125 1.125 -1.125 1.125 0 0 Z " fill="#17C2B3" transform="translate(102,161)"/>
<path d="" fill="#FFFFFF" transform="translate(0,0)"/>
<path d="" fill="#FFFFFF" transform="translate(0,0)"/>
<path d="" fill="#FFFFFF" transform="translate(0,0)"/>
<path d="" fill="#FFFFFF" transform="translate(0,0)"/>
<path d="" fill="#FFFFFF" transform="translate(0,0)"/>
<path d="" fill="#FFFFFF" transform="translate(0,0)"/>
<path d="" fill="#FFFFFF" transform="translate(0,0)"/>
<path d="" fill="#FFFFFF" transform="translate(0,0)"/>
<path d="" fill="#FFFFFF" transform="translate(0,0)"/>
<path d="" fill="#FFFFFF" transform="translate(0,0)"/>
<path d="" fill="#FFFFFF" transform="translate(0,0)"/>
<path d="" fill="#FFFFFF" transform="translate(0,0)"/>
<path d="" fill="#FFFFFF" transform="translate(0,0)"/>
<path d="" fill="#FFFFFF" transform="translate(0,0)"/>
<path d="" fill="#FFFFFF" transform="translate(0,0)"/>
<path d="" fill="#FFFFFF" transform="translate(0,0)"/>
<path d="" fill="#FFFFFF" transform="translate(0,0)"/>
<path d="" fill="#FFFFFF" transform="translate(0,0)"/>
<path d="" fill="#FFFFFF" transform="translate(0,0)"/>
<path d="" fill="#FFFFFF" transform="translate(0,0)"/>
<path d="" fill="#FFFFFF" transform="translate(0,0)"/>
<path d="" fill="#FFFFFF" transform="translate(0,0)"/>
<path d="" fill="#FFFFFF" transform="translate(0,0)"/>
<path d="" fill="#FFFFFF" transform="translate(0,0)"/>
<path d="" fill="#FFFFFF" transform="translate(0,0)"/>
<path d="" fill="#FFFFFF" transform="translate(0,0)"/>
<path d="" fill="#FFFFFF" transform="translate(0,0)"/>
<path d="" fill="#FFFFFF" transform="translate(0,0)"/>
<path d="" fill="#FFFFFF" transform="translate(0,0)"/>
<path d="" fill="#FFFFFF" transform="translate(0,0)"/>
<path d="" fill="#FFFFFF" transform="translate(0,0)"/>
<path d="" fill="#FFFFFF" transform="translate(0,0)"/>
<path d="" fill="#FFFFFF" transform="translate(0,0)"/>
<path d="" fill="#FFFFFF" transform="translate(0,0)"/>
<path d="" fill="#FFFFFF" transform="translate(0,0)"/>
<path d="" fill="#FFFFFF" transform="translate(0,0)"/>
<path d="" fill="#FFFFFF" transform="translate(0,0)"/>
<path d="" fill="#FFFFFF" transform="translate(0,0)"/>
<path d="" fill="#FFFFFF" transform="translate(0,0)"/>
<path d="" fill="#FFFFFF" transform="translate(0,0)"/>
<path d="" fill="#FFFFFF" transform="translate(0,0)"/>
<path d="" fill="#FFFFFF" transform="translate(0,0)"/>
<path d="" fill="#FFFFFF" transform="translate(0,0)"/>
<path d="" fill="#FFFFFF" transform="translate(0,0)"/>
<path d="" fill="#FFFFFF" transform="translate(0,0)"/>
<path d="" fill="#FFFFFF" transform="translate(0,0)"/>
<path d="" fill="#FFFFFF" transform="translate(0,0)"/>
<path d="" fill="#FFFFFF" transform="translate(0,0)"/>
<path d="" fill="#FFFFFF" transform="translate(0,0)"/>
<path d="" fill="#FFFFFF" transform="translate(0,0)"/>
<path d="" fill="#FFFFFF" transform="translate(0,0)"/>
<path d="" fill="#FFFFFF" transform="translate(0,0)"/>
<path d="" fill="#FFFFFF" transform="translate(0,0)"/>
<path d="" fill="#FFFFFF" transform="translate(0,0)"/>
<path d="" fill="#FFFFFF" transform="translate(0,0)"/>
<path d="" fill="#FFFFFF" transform="translate(0,0)"/>
<path d="" fill="#FFFFFF" transform="translate(0,0)"/>
<path d="" fill="#FFFFFF" transform="translate(0,0)"/>
<path d="" fill="#FFFFFF" transform="translate(0,0)"/>
<path d="" fill="#FFFFFF" transform="translate(0,0)"/>
<path d="" fill="#FFFFFF" transform="translate(0,0)"/>
<path d="" fill="#FFFFFF" transform="translate(0,0)"/>
<path d="" fill="#FFFFFF" transform="translate(0,0)"/>
<path d="" fill="#FFFFFF" transform="translate(0,0)"/>
<path d="" fill="#FFFFFF" transform="translate(0,0)"/>
<path d="" fill="#FFFFFF" transform="translate(0,0)"/>
<path d="" fill="#FFFFFF" transform="translate(0,0)"/>
<path d="" fill="#FFFFFF" transform="translate(0,0)"/>
<path d="" fill="#FFFFFF" transform="translate(0,0)"/>
<path d="" fill="#FFFFFF" transform="translate(0,0)"/>
<path d="" fill="#FFFFFF" transform="translate(0,0)"/>
<path d="" fill="#FFFFFF" transform="translate(0,0)"/>
<path d="" fill="#FFFFFF" transform="translate(0,0)"/>
<path d="" fill="#FFFFFF" transform="translate(0,0)"/>
<path d="" fill="#FFFFFF" transform="translate(0,0)"/>
<path d="" fill="#FFFFFF" transform="translate(0,0)"/>
<path d="" fill="#FFFFFF" transform="translate(0,0)"/>
<path d="" fill="#FFFFFF" transform="translate(0,0)"/>
<path d="" fill="#FFFFFF" transform="translate(0,0)"/>
<path d="" fill="#FFFFFF" transform="translate(0,0)"/>
<path d="" fill="#FFFFFF" transform="translate(0,0)"/>
<path d="" fill="#FFFFFF" transform="translate(0,0)"/>
</svg>
