<?xml version="1.0" encoding="UTF-8"?>
<svg version="1.1" xmlns="http://www.w3.org/2000/svg" width="318" height="159">
<path d="M0 0 C1.88879556 5.49467799 0.36741015 6.68690628 -2 13 C3.61 13.66 9.22 14.32 15 15 C15.37125 12.834375 15.37125 12.834375 15.75 10.625 C16.171875 8.1640625 16.171875 8.1640625 17 6 C19.078125 4.7109375 19.078125 4.7109375 21 4 C21.99 4.99 21.99 4.99 23 6 C22.62916167 9.4117126 21.89141824 12.68901795 21 16 C22.65 16 24.3 16 26 16 C26.28875 15.236875 26.5775 14.47375 26.875 13.6875 C28 11 28 11 30 8 C31.32 8.66 32.64 9.32 34 10 C33.66226563 10.96292969 33.32453125 11.92585938 32.9765625 12.91796875 C31.68314414 17.46546346 32.01182718 21.64365594 32.375 26.3125 C32.48633362 28.09745586 32.5943405 29.88262196 32.69921875 31.66796875 C32.75255371 32.56177246 32.80588867 33.45557617 32.86083984 34.37646484 C33.95916784 55.08283786 33.88448215 79.61371083 21 97 C15.92907684 102.07092316 10.02784297 103.06326077 3.125 103.3125 C-3.50248088 103.17954128 -10.26962236 101.39395757 -16 98 C-18.25881554 94.28908876 -19 92.39989151 -19 88 C-19.49628906 88.34933594 -19.99257812 88.69867188 -20.50390625 89.05859375 C-26.2292748 92.89361291 -30.48735822 94.43908022 -37.5 93.5625 C-42.67030941 91.25432616 -46.45880969 87.08238063 -49 82 C-49.58218635 76.24494478 -49.88685987 70.44560278 -46.5234375 65.5078125 C-42.79237347 61.81501579 -37.93152605 59.1456056 -32.640625 58.8828125 C-29.89002442 59.19401184 -27.48154142 59.75922929 -25 61 C-24.34 51.1 -23.68 41.2 -23 31 C-25.64 31 -28.28 31 -31 31 C-31.36787834 24.86869436 -30.40168553 20.88202263 -26.4375 16.125 C-25 15 -25 15 -23 15 C-23.185625 14.21625 -23.37125 13.4325 -23.5625 12.625 C-24 10 -24 10 -23 8 C-21.948125 7.71125 -20.89625 7.4225 -19.8125 7.125 C-15.97955427 6.20522352 -15.97955427 6.20522352 -13.0625 4 C-9.04534796 1.37655377 -4.87749125 0 0 0 Z M-40 68.9375 C-42.69087222 73.05789809 -42.92007864 76.20864706 -42 81 C-40.63057551 84.10847573 -40.63057551 84.10847573 -38 86 C-34.05070721 87.14888518 -31.97041141 87.43129396 -28.1875 85.75 C-25.7897427 84.01308468 -25.7897427 84.01308468 -24 81 C-23.49435546 74.64966803 -23.49435546 74.64966803 -26 69 C-30.91264063 65.72490625 -35.18672657 65.82892758 -40 68.9375 Z " fill="#E6F2F6" transform="translate(256,19)"/>
<path d="M0 0 C1.88879556 5.49467799 0.36741015 6.68690628 -2 13 C3.61 13.66 9.22 14.32 15 15 C15.37125 12.834375 15.37125 12.834375 15.75 10.625 C16.171875 8.1640625 16.171875 8.1640625 17 6 C19.078125 4.7109375 19.078125 4.7109375 21 4 C21.99 4.99 21.99 4.99 23 6 C22.66083005 9.18819752 22.01406317 11.95781049 21 15 C20.34 15 19.68 15 19 15 C18.87238281 15.72058594 18.74476563 16.44117187 18.61328125 17.18359375 C18.01246752 19.94274472 17.1863998 22.42397184 16.1875 25.0625 C13.98073488 30.99570731 11.97328097 36.98569152 10 43 C9.01 43 8.02 43 7 43 C7.40535365 36.24410585 9.47114628 30.48962211 11.84375 24.171875 C13.09888243 20.90024939 13.09888243 20.90024939 14 17 C6.08 16.67 -1.84 16.34 -10 16 C-10 17.98 -10 19.96 -10 22 C-11.7578125 22.61848958 -13.515625 23.23697917 -15.2734375 23.85546875 C-17.73561417 25.48763564 -18.05548899 27.22891397 -19 30 C-19.34316431 31.8297094 -19.62446982 33.67182263 -19.8515625 35.51953125 C-19.98046875 36.54111328 -20.109375 37.56269531 -20.2421875 38.61523438 C-20.43167969 40.19788086 -20.43167969 40.19788086 -20.625 41.8125 C-20.7590625 42.88693359 -20.893125 43.96136719 -21.03125 45.06835938 C-21.36018134 47.71155761 -21.68288499 50.35536252 -22 53 C-20.68 53 -19.36 53 -18 53 C-17.01 49.7 -16.02 46.4 -15 43 C-12.125 42.875 -12.125 42.875 -9 43 C-7 45 -7 45 -6.98828125 47.27734375 C-7.09527344 48.15519531 -7.20226562 49.03304687 -7.3125 49.9375 C-7.41175781 50.81277344 -7.51101562 51.68804687 -7.61328125 52.58984375 C-8 55 -8 55 -9 58 C-8.01 58.33 -7.02 58.66 -6 59 C-6 58.34 -6 57.68 -6 57 C5.06024096 47 5.06024096 47 10 47 C11.43410534 52.34530173 10.36554982 55.09367445 8 60 C7.31163487 61.99263591 6.63718601 63.99041337 6 66 C6.99 66 7.98 66 9 66 C9.33 67.32 9.66 68.64 10 70 C11.98 70 13.96 70 16 70 C16 70.99 16 71.98 16 73 C14.741875 73.020625 13.48375 73.04125 12.1875 73.0625 C11.47980469 73.07410156 10.77210938 73.08570312 10.04296875 73.09765625 C8 73 8 73 5 72 C5 72.66 5 73.32 5 74 C4.01 74.33 3.02 74.66 2 75 C1.19593497 76.80438416 1.19593497 76.80438416 0.8125 78.9375 C0.65394531 79.64777344 0.49539063 80.35804687 0.33203125 81.08984375 C-0.05708538 83.00527568 -0.05708538 83.00527568 0 85 C0.99 85.33 1.98 85.66 3 86 C2.67 86.66 2.34 87.32 2 88 C-2.18686806 88.34890567 -3.82527463 87.67867453 -7 85 C-7.825 84.505 -8.65 84.01 -9.5 83.5 C-11.82167741 82.10699355 -13.97536264 80.79967765 -16 79 C-16 78.01 -16 77.02 -16 76 C-16.99 75.67 -17.98 75.34 -19 75 C-18.94779297 75.99580078 -18.94779297 75.99580078 -18.89453125 77.01171875 C-18.61445666 86.14748516 -18.61445666 86.14748516 -22 90 C-25.80470872 92.95921789 -29.21528227 93.7525146 -34 94 C-40.20652233 93.22418471 -42.82098264 90.50534853 -46.6171875 85.875 C-49.98267551 81.31162643 -49.50790716 76.48084893 -49 71 C-47.96226394 66.97597312 -46.15725367 64.82193635 -42.7890625 62.4296875 C-37.08772148 59.21939394 -33.33968608 58.41507848 -27 60 C-26.34 60.33 -25.68 60.66 -25 61 C-24.34 51.1 -23.68 41.2 -23 31 C-25.64 31 -28.28 31 -31 31 C-31.36787834 24.86869436 -30.40168553 20.88202263 -26.4375 16.125 C-25 15 -25 15 -23 15 C-23.185625 14.21625 -23.37125 13.4325 -23.5625 12.625 C-24 10 -24 10 -23 8 C-21.948125 7.71125 -20.89625 7.4225 -19.8125 7.125 C-15.97955427 6.20522352 -15.97955427 6.20522352 -13.0625 4 C-9.04534796 1.37655377 -4.87749125 0 0 0 Z M-40 68.9375 C-42.69087222 73.05789809 -42.92007864 76.20864706 -42 81 C-40.63057551 84.10847573 -40.63057551 84.10847573 -38 86 C-34.05070721 87.14888518 -31.97041141 87.43129396 -28.1875 85.75 C-25.7897427 84.01308468 -25.7897427 84.01308468 -24 81 C-23.49435546 74.64966803 -23.49435546 74.64966803 -26 69 C-30.91264063 65.72490625 -35.18672657 65.82892758 -40 68.9375 Z " fill="#7BA262" transform="translate(256,19)"/>
<path d="M0 0 C2.31 0.66 4.62 1.32 7 2 C6.33627687 5.15989923 5.2254083 7.75822564 3.75 10.625 C3.30785156 11.49125 2.86570312 12.3575 2.41015625 13.25 C1.94480469 14.1575 1.47945313 15.065 1 16 C0.06046362 17.87398043 -0.8771325 19.74893527 -1.8125 21.625 C-2.54166667 23.08333333 -3.27083333 24.54166667 -4 26 C-4.66 26 -5.32 26 -6 26 C-6.66 29.3 -7.32 32.6 -8 36 C-8.495 34.02 -8.495 34.02 -9 32 C-12.99729012 34.3841705 -16.84989305 36.75857071 -20.375 39.8125 C-23 42 -23 42 -25 42 C-25 42.66 -25 43.32 -25 44 C-26.32 43.67 -27.64 43.34 -29 43 C-28.67 41.96875 -28.34 40.9375 -28 39.875 C-27.0284808 36.51573291 -26.82883229 33.50893798 -27 30 C-29.31 29.34 -31.62 28.68 -34 28 C-34.99 31.3 -35.98 34.6 -37 38 C-38.32 38 -39.64 38 -41 38 C-41.13185179 31.70878601 -40.73125614 25.82522302 -39.6875 19.625 C-39.56955078 18.83222656 -39.45160156 18.03945313 -39.33007812 17.22265625 C-39.20439453 16.46082031 -39.07871094 15.69898438 -38.94921875 14.9140625 C-38.83924561 14.2329541 -38.72927246 13.5518457 -38.6159668 12.85009766 C-37.85116096 10.55295195 -36.87354259 9.51214137 -35 8 C-32.3125 7.3125 -32.3125 7.3125 -30 7 C-29.67 5.02 -29.34 3.04 -29 1 C-20.92138585 0.90420616 -13.01659634 0.87486367 -5 2 C-5.40535365 8.75589415 -7.47114628 14.51037789 -9.84375 20.828125 C-10.71849231 23.22775594 -11.45796898 25.51158485 -12 28 C-11.01 28 -10.02 28 -9 28 C-8.76925781 26.98421875 -8.53851563 25.9684375 -8.30078125 24.921875 C-6.26278349 16.22754775 -3.76182212 8.14033638 0 0 Z " fill="#C4DBC0" transform="translate(275,34)"/>
<path d="M0 0 C1.64453125 1.37890625 1.64453125 1.37890625 4.08203125 3.81640625 C3.75203125 5.13640625 3.42203125 6.45640625 3.08203125 7.81640625 C1.33203125 8.44140625 1.33203125 8.44140625 -0.91796875 8.81640625 C-1.51609375 8.50703125 -2.11421875 8.19765625 -2.73046875 7.87890625 C-5.91277704 6.33321365 -8.4293864 6.50492568 -11.91796875 6.81640625 C-14.41796875 7.64973958 -14.41796875 7.64973958 -15.91796875 9.81640625 C-16.81562744 13.46789922 -16.91796875 17.0704161 -16.91796875 20.81640625 C-16.25796875 20.81640625 -15.59796875 20.81640625 -14.91796875 20.81640625 C-14.25796875 21.80640625 -13.59796875 22.79640625 -12.91796875 23.81640625 C-8.56694491 24.17899157 -5.74090064 24.09589255 -1.60546875 22.69140625 C-0.71859375 22.40265625 0.16828125 22.11390625 1.08203125 21.81640625 C2.07203125 22.47640625 3.06203125 23.13640625 4.08203125 23.81640625 C4.08203125 26.06640625 4.08203125 26.06640625 3.08203125 28.81640625 C-0.71570505 31.93597535 -4.66411247 33.16371466 -9.54296875 32.81640625 C-14.83943039 31.87158291 -18.3369262 29.92446298 -21.6171875 25.55078125 C-23.11040492 23.33706032 -24.53999071 21.10326343 -25.91796875 18.81640625 C-26.30984375 19.70328125 -26.70171875 20.59015625 -27.10546875 21.50390625 C-30.11736548 27.00840716 -33.92814364 30.78212602 -39.91796875 32.81640625 C-45.72224026 33.32367031 -49.88528939 32.34570332 -54.41796875 28.62890625 C-58.22699952 24.82757049 -59.89258925 21.91778159 -59.9375 16.4296875 C-59.54681162 9.3656193 -57.60380248 5.30571556 -52.35546875 0.44140625 C-47.49262011 -1.85739492 -43.20846596 -1.83984226 -37.91796875 -1.18359375 C-32.51907151 0.92901821 -28.98154103 5.48667649 -26.60546875 10.69140625 C-26.26515625 11.74328125 -26.26515625 11.74328125 -25.91796875 12.81640625 C-25.40234375 11.62015625 -24.88671875 10.42390625 -24.35546875 9.19140625 C-21.90853845 4.28883771 -18.2922298 -0.02496194 -12.97265625 -1.8515625 C-8.54463172 -2.56711779 -3.87866168 -2.39355293 0 0 Z M-49.91796875 8.81640625 C-52.38016647 12.50970283 -52.70995558 15.53134065 -51.91796875 19.81640625 C-49.92209978 22.8102097 -48.53537704 24.45449113 -44.9453125 25.2578125 C-41.37842118 25.46449218 -39.31970877 25.12543704 -36.48046875 22.94140625 C-33.66842809 19.11703096 -33.5146456 16.57561939 -33.91796875 11.81640625 C-35.32674971 8.82624195 -35.32674971 8.82624195 -37.91796875 6.81640625 C-42.98488029 5.34239562 -45.77281163 5.50028056 -49.91796875 8.81640625 Z " fill="#7C9346" transform="translate(135.91796875,80.18359375)"/>
<path d="M0 0 C1.32 0.66 2.64 1.32 4 2 C3.66226563 2.96292969 3.32453125 3.92585938 2.9765625 4.91796875 C1.6832281 9.46516825 2.01103386 13.64388164 2.375 18.3125 C2.48792569 20.0844127 2.597222 21.85655996 2.703125 23.62890625 C2.78336914 24.96719482 2.78336914 24.96719482 2.86523438 26.33251953 C3.07437603 30.47216039 3.12237396 34.60567196 3.125 38.75 C3.12935059 39.46325439 3.13370117 40.17650879 3.13818359 40.91137695 C3.12581922 45.68346239 2.66751045 50.27444982 2 55 C0.68 54.67 -0.64 54.34 -2 54 C-2 55.65 -2 57.3 -2 59 C-3.65 59 -5.3 59 -7 59 C-7 59.66 -7 60.32 -7 61 C-9.97 61.495 -9.97 61.495 -13 62 C-13 63.32 -13 64.64 -13 66 C-12.34 66 -11.68 66 -11 66 C-10.6875 68.1875 -10.6875 68.1875 -11 71 C-13.5 73.8125 -13.5 73.8125 -16 76 C-16.33 75.01 -16.66 74.02 -17 73 C-15.515 72.505 -15.515 72.505 -14 72 C-13.67 70.35 -13.34 68.7 -13 67 C-17.62 67.33 -22.24 67.66 -27 68 C-27.33 68.99 -27.66 69.98 -28 71 C-28.66 71 -29.32 71 -30 71 C-29.34 69.35 -28.68 67.7 -28 66 C-27.01 66 -26.02 66 -25 66 C-25 65.34 -25 64.68 -25 64 C-21.37 64.33 -17.74 64.66 -14 65 C-14 64.01 -14 63.02 -14 62 C-15.98 62 -17.96 62 -20 62 C-20.33 60.68 -20.66 59.36 -21 58 C-21.99 58 -22.98 58 -24 58 C-24.125 55.625 -24.125 55.625 -24 53 C-23.34 52.34 -22.68 51.68 -22 51 C-20.21453177 46.69387074 -19.66161788 42.65191884 -19.34375 38.05078125 C-19 36 -19 36 -17 33 C-16.34 33 -15.68 33 -15 33 C-14.87109375 32.42765625 -14.7421875 31.8553125 -14.609375 31.265625 C-13.11168674 25.69729687 -10.48396409 20.60187041 -7.3125 15.8125 C-5.15747342 12.5146563 -4.59466652 9.90780854 -4 6 C-1.9375 2.625 -1.9375 2.625 0 0 Z " fill="#D3E0DA" transform="translate(286,27)"/>
<path d="M0 0 C2.78323445 -0.24739862 4.52211229 -0.76105615 7 -2 C11.16324314 -2.4253215 14.87808608 -2.42383415 18.8125 -0.9375 C22.57089611 2.39136513 24.73431404 5.74721711 25.3215332 10.72631836 C25.3927306 13.80592004 25.34937548 16.85877126 25.25 19.9375 C25.23195312 21.00291016 25.21390625 22.06832031 25.1953125 23.16601562 C25.14845557 25.77828929 25.08286926 28.38866226 25 31 C22.525 31.495 22.525 31.495 20 32 C17.94797739 28.92196609 17.74214673 28.15432045 17.65625 24.65625 C17.62660156 23.82222656 17.59695312 22.98820312 17.56640625 22.12890625 C17.52213542 20.37630208 17.47786458 18.62369792 17.43359375 16.87109375 C17.40394531 16.03707031 17.37429687 15.20304687 17.34375 14.34375 C17.31571289 13.20196289 17.31571289 13.20196289 17.28710938 12.03710938 C17.10632683 9.69024389 17.10632683 9.69024389 15 7 C13.02252878 6.63702064 13.02252878 6.63702064 10.875 6.8125 C9.59625 6.874375 8.3175 6.93625 7 7 C6.97494385 7.58491211 6.9498877 8.16982422 6.92407227 8.77246094 C6.80777038 11.43184471 6.68519933 14.09090403 6.5625 16.75 C6.52318359 17.67039062 6.48386719 18.59078125 6.44335938 19.5390625 C6.40146484 20.42851563 6.35957031 21.31796875 6.31640625 22.234375 C6.27974854 23.05131836 6.24309082 23.86826172 6.20532227 24.70996094 C6.00865725 26.9034423 5.59699406 28.88396413 5 31 C2.525 31.495 2.525 31.495 0 32 C-2.09308841 28.86036739 -2.26067694 27.99990852 -2.34375 24.40234375 C-2.37339844 23.51869141 -2.40304688 22.63503906 -2.43359375 21.72460938 C-2.4779576 19.86263242 -2.52222805 18.00065324 -2.56640625 16.13867188 C-2.59605469 15.25630859 -2.62570313 14.37394531 -2.65625 13.46484375 C-2.68428711 12.25235962 -2.68428711 12.25235962 -2.71289062 11.01538086 C-2.82657168 8.7732203 -2.82657168 8.7732203 -5 7 C-8 6.58333333 -8 6.58333333 -11 7 C-13.09308841 10.13963261 -13.26067694 11.00009148 -13.34375 14.59765625 C-13.37339844 15.48130859 -13.40304688 16.36496094 -13.43359375 17.27539062 C-13.4779576 19.13736758 -13.52222805 20.99934676 -13.56640625 22.86132812 C-13.59605469 23.74369141 -13.62570313 24.62605469 -13.65625 25.53515625 C-13.67494141 26.343479 -13.69363281 27.15180176 -13.71289062 27.98461914 C-14 30 -14 30 -16 32 C-18.625 31.625 -18.625 31.625 -21 31 C-22.81745251 25.54764246 -22.18467442 19.64235314 -22.1875 13.9375 C-22.19974609 12.63232422 -22.21199219 11.32714844 -22.22460938 9.98242188 C-22.22654297 8.73912109 -22.22847656 7.49582031 -22.23046875 6.21484375 C-22.23663208 4.49962524 -22.23663208 4.49962524 -22.24291992 2.74975586 C-22 0 -22 0 -20 -2 C-12.44667429 -3.40502422 -6.8219788 -3.4109894 0 0 Z " fill="#81984E" transform="translate(49,81)"/>
<path d="M0 0 C3.53571429 0.53571429 3.53571429 0.53571429 5 2 C5.08685603 3.56172745 5.10702219 5.12729344 5.09765625 6.69140625 C5.09443359 7.63564453 5.09121094 8.57988281 5.08789062 9.55273438 C5.07951172 10.54595703 5.07113281 11.53917969 5.0625 12.5625 C5.05798828 13.55958984 5.05347656 14.55667969 5.04882812 15.58398438 C5.03700007 18.05604849 5.02051849 20.52799518 5 23 C5.46374023 22.6918335 5.92748047 22.38366699 6.40527344 22.06616211 C8.51184063 20.67678577 10.63052281 19.30709296 12.75 17.9375 C13.84441406 17.20950195 13.84441406 17.20950195 14.9609375 16.46679688 C15.66992188 16.01240234 16.37890625 15.55800781 17.109375 15.08984375 C17.75874023 14.66566162 18.40810547 14.24147949 19.07714844 13.80444336 C21.45841624 12.80821718 22.61384328 13.14349044 25 14 C25.33 15.65 25.66 17.3 26 19 C22.80331012 21.6486859 19.60513403 23.93992341 16 26 C16.64311135 30.85906351 20.05832476 34.44373874 22.9375 38.22265625 C26.00934816 42.43911026 26.00934816 42.43911026 25.9609375 45.34375 C25 47 25 47 22 48 C17.76995085 44.03432892 14.34612447 39.64804526 10.8671875 35.01171875 C10.25101563 34.34785156 9.63484375 33.68398437 9 33 C8.01 33 7.02 33 6 33 C5.92652344 34.37285156 5.92652344 34.37285156 5.8515625 35.7734375 C5.77679688 36.96195313 5.70203125 38.15046875 5.625 39.375 C5.55539063 40.55835938 5.48578125 41.74171875 5.4140625 42.9609375 C5 46 5 46 3 48 C-0.53571429 47.46428571 -0.53571429 47.46428571 -2 46 C-2.10312037 44.62940407 -2.13848953 43.25360341 -2.14526367 41.87915039 C-2.15164352 41.00476822 -2.15802338 40.13038605 -2.16459656 39.22950745 C-2.16570938 38.27849655 -2.1668222 37.32748566 -2.16796875 36.34765625 C-2.17129715 35.37718857 -2.17462555 34.40672089 -2.17805481 33.40684509 C-2.1831283 31.3497668 -2.18546301 29.29268025 -2.18530273 27.2355957 C-2.18748826 24.07945256 -2.20563691 20.92365929 -2.22460938 17.76757812 C-2.22754333 15.7734387 -2.22952811 13.77929761 -2.23046875 11.78515625 C-2.23765427 10.83616959 -2.24483978 9.88718292 -2.25224304 8.90943909 C-2.24916641 8.03190475 -2.24608978 7.15437042 -2.24291992 6.25024414 C-2.24434494 5.4760463 -2.24576996 4.70184845 -2.24723816 3.90419006 C-2 2 -2 2 0 0 Z " fill="#7C9348" transform="translate(145,65)"/>
<path d="M0 0 C1.88879556 5.49467799 0.36741015 6.68690628 -2 13 C3.61 13.66 9.22 14.32 15 15 C15.2475 13.55625 15.495 12.1125 15.75 10.625 C16.171875 8.1640625 16.171875 8.1640625 17 6 C19.078125 4.7109375 19.078125 4.7109375 21 4 C21.66 4.66 22.32 5.32 23 6 C22.66083005 9.18819752 22.01406317 11.95781049 21 15 C20.34 15 19.68 15 19 15 C18.80857422 16.08087891 18.80857422 16.08087891 18.61328125 17.18359375 C18.01246752 19.94274472 17.1863998 22.42397184 16.1875 25.0625 C13.98073488 30.99570731 11.97328097 36.98569152 10 43 C9.01 43 8.02 43 7 43 C7.40535365 36.24410585 9.47114628 30.48962211 11.84375 24.171875 C13.09888243 20.90024939 13.09888243 20.90024939 14 17 C6.08 16.67 -1.84 16.34 -10 16 C-10 17.98 -10 19.96 -10 22 C-11.6396875 22.556875 -11.6396875 22.556875 -13.3125 23.125 C-16.54588489 24.4798799 -16.98576455 24.97658038 -18.9375 28.1875 C-19.4634375 29.5796875 -19.4634375 29.5796875 -20 31 C-20.33 30.01 -20.66 29.02 -21 28 C-22.32 28.33 -23.64 28.66 -25 29 C-25 28.34 -25 27.68 -25 27 C-26.32 27 -27.64 27 -29 27 C-28.51282051 20.66666667 -28.51282051 20.66666667 -26.125 17.5625 C-24 16 -24 16 -21 16 C-21.495 14.8553125 -21.495 14.8553125 -22 13.6875 C-23 11 -23 11 -23 8 C-21.96875 7.7525 -20.9375 7.505 -19.875 7.25 C-17.06279974 6.46100594 -15.56296544 5.70244455 -13.0625 4 C-9.04534796 1.37655377 -4.87749125 0 0 0 Z " fill="#7A8B66" transform="translate(256,19)"/>
<path d="M0 0 C4.64741831 3.69570484 6.00121974 7.17411663 6.875 12.875 C7.06835938 13.89787109 7.06835938 13.89787109 7.265625 14.94140625 C8.04611363 19.49425657 8.09813342 23.4505901 7 28 C4.29040135 31.41378813 0.62563135 32.83242018 -3.5 33.9375 C-8.51811703 34.02710923 -12.17793019 33.7168108 -15.9609375 30.15234375 C-20.96592636 24.52428485 -22.39035424 21.39392273 -22.26171875 13.82421875 C-21.87717712 9.67461278 -20.98553939 6.95491848 -18 4 C-12.05895471 -0.21961167 -7.0658495 -2.1556829 0 0 Z M-13 8.9375 C-15.69087222 13.05789809 -15.92007864 16.20864706 -15 21 C-13.63057551 24.10847573 -13.63057551 24.10847573 -11 26 C-7.05070721 27.14888518 -4.97041141 27.43129396 -1.1875 25.75 C1.2102573 24.01308468 1.2102573 24.01308468 3 21 C3.50564454 14.64966803 3.50564454 14.64966803 1 9 C-3.91264063 5.72490625 -8.18672657 5.82892758 -13 8.9375 Z " fill="#0C080D" transform="translate(229,79)"/>
<path d="M0 0 C8.07861415 -0.09579384 15.98340366 -0.12513633 24 1 C23.63206679 7.37750889 21.76896503 12.31134131 19.2109375 18.14453125 C17.83101266 21.39848304 16.85572389 24.57710443 16 28 C13.36 27.67 10.72 27.34 8 27 C8 26.01 8 25.02 8 24 C6.02 24.33 4.04 24.66 2 25 C1.06714187 21.86617971 0.92393836 19.13614297 1 15.875 C1.05765366 10.52041653 0.64523796 5.31169108 0 0 Z " fill="#F7F8FA" transform="translate(246,35)"/>
<path d="M0 0 C1.32 0.33 2.64 0.66 4 1 C2.93750108 12.72412601 0.50539061 28.09489788 -8.25 36.8046875 C-14.56393642 41.11733157 -22.56803912 41.87434834 -30 41 C-33.42798728 40.22944378 -36.71857912 39.25499956 -40 38 C-40.70769531 37.73574219 -41.41539062 37.47148438 -42.14453125 37.19921875 C-44.664864 35.5702879 -45.23516666 33.96194532 -46.3125 31.1875 C-46.83263672 29.90939453 -46.83263672 29.90939453 -47.36328125 28.60546875 C-48.07623908 25.68802782 -47.79767599 23.86648727 -47 21 C-46.67 21 -46.34 21 -46 21 C-45.82726562 21.89203125 -45.65453125 22.7840625 -45.4765625 23.703125 C-44.00880994 30.45098481 -44.00880994 30.45098481 -39.9296875 35.75390625 C-31.48987407 39.43105969 -21.40738786 39.27342547 -12.83984375 36.06640625 C-9.82159096 34.31697311 -8.6731446 32.01166029 -7 29 C-6.34 29 -5.68 29 -5 29 C-5 27.68 -5 26.36 -5 25 C-5.66 25 -6.32 25 -7 25 C-7 25.66 -7 26.32 -7 27 C-10.31371 29.20914 -11.3446021 29.22481553 -15.1875 29.125 C-16.08855469 29.10695313 -16.98960937 29.08890625 -17.91796875 29.0703125 C-18.60503906 29.04710938 -19.29210937 29.02390625 -20 29 C-20 28.67 -20 28.34 -20 28 C-17.36 28 -14.72 28 -12 28 C-12 27.01 -12 26.02 -12 25 C-14.97 25.33 -17.94 25.66 -21 26 C-21.33 23.69 -21.66 21.38 -22 19 C-21.34 19.33 -20.68 19.66 -20 20 C-20 19.01 -20 18.02 -20 17 C-19.34 17 -18.68 17 -18 17 C-18 16.34 -18 15.68 -18 15 C-15.525 15.495 -15.525 15.495 -13 16 C-13.495 18.475 -13.495 18.475 -14 21 C-13.34 21 -12.68 21 -12 21 C-11.01 18.03 -10.02 15.06 -9 12 C-9.66 12 -10.32 12 -11 12 C-11 10.68 -11 9.36 -11 8 C-9.02 7.67 -7.04 7.34 -5 7 C-5 6.34 -5 5.68 -5 5 C-3.35 5 -1.7 5 0 5 C0 3.35 0 1.7 0 0 Z " fill="#DAE3E9" transform="translate(284,81)"/>
<path d="M0 0 C1.9375 0.6875 1.9375 0.6875 2.9375 2.6875 C3.00700541 4.22773996 3.02202357 5.77084988 3 7.3125 C2.99097656 8.12976563 2.98195312 8.94703125 2.97265625 9.7890625 C2.96105469 10.41554688 2.94945312 11.04203125 2.9375 11.6875 C3.72125 11.64625 4.505 11.605 5.3125 11.5625 C7.9375 11.6875 7.9375 11.6875 9.9375 13.6875 C9.40178571 17.22321429 9.40178571 17.22321429 7.9375 18.6875 C6.2875 18.6875 4.6375 18.6875 2.9375 18.6875 C3.2675 24.9575 3.5975 31.2275 3.9375 37.6875 C5.9175 38.3475 7.8975 39.0075 9.9375 39.6875 C10.8125 41.8125 10.8125 41.8125 10.9375 43.6875 C7.9375 45.6875 7.9375 45.6875 4.5 45.5625 C0.65388704 44.61784068 -0.6519251 43.74707584 -3.0625 40.6875 C-4.26279908 38.28690183 -4.17709743 36.79389351 -4.16015625 34.1171875 C-4.15693359 33.22128906 -4.15371094 32.32539062 -4.15039062 31.40234375 C-4.14201172 30.46519531 -4.13363281 29.52804688 -4.125 28.5625 C-4.12048828 27.61761719 -4.11597656 26.67273438 -4.11132812 25.69921875 C-4.09952357 23.36191613 -4.08305759 21.02473939 -4.0625 18.6875 C-5.7125 18.3575 -7.3625 18.0275 -9.0625 17.6875 C-9.6875 15.8125 -9.6875 15.8125 -10.0625 13.6875 C-9.4025 13.0275 -8.7425 12.3675 -8.0625 11.6875 C-6.7425 11.6875 -5.4225 11.6875 -4.0625 11.6875 C-4.0625 8.0575 -4.0625 4.4275 -4.0625 0.6875 C-2.0625 -0.3125 -2.0625 -0.3125 0 0 Z " fill="#090508" transform="translate(195.0625,67.3125)"/>
<path d="M0 0 C1.43410534 5.34530173 0.36554982 8.09367445 -2 13 C-2.68836513 14.99263591 -3.36281399 16.99041337 -4 19 C-3.01 19 -2.02 19 -1 19 C-0.67 20.32 -0.34 21.64 0 23 C1.98 23 3.96 23 6 23 C6 23.99 6 24.98 6 26 C4.741875 26.020625 3.48375 26.04125 2.1875 26.0625 C1.47980469 26.07410156 0.77210938 26.08570312 0.04296875 26.09765625 C-2 26 -2 26 -5 25 C-5 25.66 -5 26.32 -5 27 C-5.99 27.33 -6.98 27.66 -8 28 C-9.44870619 29.85804317 -9.44870619 29.85804317 -10.6875 32.0625 C-11.12449219 32.79597656 -11.56148437 33.52945313 -12.01171875 34.28515625 C-12.33785156 34.85105469 -12.66398438 35.41695312 -13 36 C-13.99 35.67 -14.98 35.34 -16 35 C-14.87811159 31.91480689 -13.5383537 29.13194351 -11.875 26.3125 C-9.83580059 23.34430563 -9.83580059 23.34430563 -10 21 C-11.32 21 -12.64 21 -14 21 C-14.33 21.66 -14.66 22.32 -15 23 C-15.99 23 -16.98 23 -18 23 C-18 22.34 -18 21.68 -18 21 C-20.31 21 -22.62 21 -25 21 C-25 20.34 -25 19.68 -25 19 C-24.34 18.67 -23.68 18.34 -23 18 C-22.525625 17.175 -22.05125 16.35 -21.5625 15.5 C-20 13 -20 13 -17 12 C-16.278125 11.278125 -15.55625 10.55625 -14.8125 9.8125 C-5 0 -5 0 0 0 Z " fill="#61894A" transform="translate(266,66)"/>
<path d="M0 0 C1.00926479 4.15626368 1.10239579 8.04365094 1.0625 12.3125 C1.05347656 13.56675781 1.04445312 14.82101563 1.03515625 16.11328125 C1.02355469 17.06589844 1.01195312 18.01851562 1 19 C2.98 19 4.96 19 7 19 C7 19.99 7 20.98 7 22 C2.71 22 -1.58 22 -6 22 C-6.99 25.3 -7.98 28.6 -9 32 C-10.32 32 -11.64 32 -13 32 C-13.13185179 25.70878601 -12.73125614 19.82522302 -11.6875 13.625 C-11.56955078 12.83222656 -11.45160156 12.03945313 -11.33007812 11.22265625 C-11.20439453 10.46082031 -11.07871094 9.69898438 -10.94921875 8.9140625 C-10.83924561 8.2329541 -10.72927246 7.5518457 -10.6159668 6.85009766 C-9.84811605 4.54380636 -8.87682005 3.52531891 -7 2 C-1.73684211 0 -1.73684211 0 0 0 Z " fill="#ECEDF4" transform="translate(247,40)"/>
<path d="M0 0 C2.0625 0.4375 2.0625 0.4375 4 1 C4.625 3.375 4.625 3.375 5 6 C4.34 6.66 3.68 7.32 3 8 C3.66 8.66 4.32 9.32 5 10 C5.25878906 13.04101562 5.25878906 13.04101562 5.265625 16.90625 C5.26753845 17.58675415 5.2694519 18.2672583 5.27142334 18.96838379 C5.27278463 20.40747446 5.26909205 21.84657744 5.26074219 23.28564453 C5.25004128 25.49149087 5.26063872 27.69652281 5.2734375 29.90234375 C5.27211589 31.29948097 5.26955348 32.69661768 5.265625 34.09375 C5.26224121 36.00704102 5.26224121 36.00704102 5.25878906 37.95898438 C5 41 5 41 3 43 C-0.53571429 42.46428571 -0.53571429 42.46428571 -2 41 C-2.0883967 38.6243148 -2.11530305 36.27791326 -2.09765625 33.90234375 C-2.0962413 33.19348526 -2.09482635 32.48462677 -2.09336853 31.75428772 C-2.08775443 29.48198288 -2.07519963 27.20977525 -2.0625 24.9375 C-2.05748681 23.40039204 -2.05292359 21.86328255 -2.04882812 20.32617188 C-2.03778042 16.55074358 -2.02050641 12.77538829 -2 9 C-1.34 9 -0.68 9 0 9 C-0.66 8.01 -1.32 7.02 -2 6 C-1.45945946 1.45945946 -1.45945946 1.45945946 0 0 Z " fill="#0E0B0E" transform="translate(177,70)"/>
<path d="M0 0 C0.66 0 1.32 0 2 0 C2 1.32 2 2.64 2 4 C1.34 4 0.68 4 0 4 C-0.268125 4.763125 -0.53625 5.52625 -0.8125 6.3125 C-2.57575758 10.3030303 -2.57575758 10.3030303 -5 12 C-13.0101837 14.76715437 -22.1695415 15.60745072 -30 12 C-30 10.02 -30 8.04 -30 6 C-28.02 5.34 -26.04 4.68 -24 4 C-24 3.67 -24 3.34 -24 3 C-23.37955811 3.00523682 -22.75911621 3.01047363 -22.11987305 3.01586914 C-19.30909233 3.03665466 -16.49832779 3.04966517 -13.6875 3.0625 C-12.22280273 3.07506836 -12.22280273 3.07506836 -10.72851562 3.08789062 C-9.79072266 3.09111328 -8.85292969 3.09433594 -7.88671875 3.09765625 C-7.02264404 3.10289307 -6.15856934 3.10812988 -5.26831055 3.11352539 C-2.83271286 3.09335523 -2.83271286 3.09335523 0 2 C0 1.34 0 0.68 0 0 Z " fill="#E5F3F5" transform="translate(277,106)"/>
<path d="M0 0 C1.32 0 2.64 0 4 0 C4 0.66 4 1.32 4 2 C3.01 2.495 3.01 2.495 2 3 C1.67 3.99 1.34 4.98 1 6 C2.65 6 4.3 6 6 6 C6 7.32 6 8.64 6 10 C6.66 9.34 7.32 8.68 8 8 C10.27734375 7.5859375 10.27734375 7.5859375 12.9375 7.375 C13.81277344 7.30023438 14.68804687 7.22546875 15.58984375 7.1484375 C17.390496 7.03753833 19.19593594 7 21 7 C18.69 10.96 16.38 14.92 14 19 C17.00259517 19.33218192 17.00259517 19.33218192 18.6875 17.5 C19.120625 17.005 19.55375 16.51 20 16 C20 17.98 20 19.96 20 22 C20.99 22.33 21.98 22.66 23 23 C22.67 23.66 22.34 24.32 22 25 C17.81313194 25.34890567 16.17472537 24.67867453 13 22 C12.175 21.505 11.35 21.01 10.5 20.5 C8.17832259 19.10699355 6.02463736 17.79967765 4 16 C4 15.01 4 14.02 4 13 C3.01 12.67 2.02 12.34 1 12 C0.34 12.66 -0.32 13.32 -1 14 C-1.02694851 12.04174127 -1.04637218 10.08337774 -1.0625 8.125 C-1.07410156 7.03445312 -1.08570313 5.94390625 -1.09765625 4.8203125 C-1 2 -1 2 0 0 Z " fill="#80A17E" transform="translate(236,82)"/>
<path d="M0 0 C2.50037734 2.17424117 3.43628586 3.73045798 4 7 C4.66 7 5.32 7 6 7 C5.34 4.69 4.68 2.38 4 0 C4.66 0 5.32 0 6 0 C6 0.99 6 1.98 6 3 C6.5775 3.2475 7.155 3.495 7.75 3.75 C10.3002997 5.16683317 12.01785701 6.87627537 14 9 C11.03 8.505 11.03 8.505 8 8 C8 9.32 8 10.64 8 12 C9.32 12.33 10.64 12.66 12 13 C11.67 13.99 11.34 14.98 11 16 C8.9375 16.6875 8.9375 16.6875 7 17 C7 18.32 7 19.64 7 21 C7.66 21 8.32 21 9 21 C9.3125 23.1875 9.3125 23.1875 9 26 C6.5 28.8125 6.5 28.8125 4 31 C3.67 30.01 3.34 29.02 3 28 C3.99 27.67 4.98 27.34 6 27 C6.33 25.35 6.66 23.7 7 22 C2.38 22.33 -2.24 22.66 -7 23 C-7.33 23.99 -7.66 24.98 -8 26 C-8.66 26 -9.32 26 -10 26 C-9.34 24.35 -8.68 22.7 -8 21 C-7.01 21 -6.02 21 -5 21 C-5 20.34 -5 19.68 -5 19 C-1.37 19.33 2.26 19.66 6 20 C6 19.01 6 18.02 6 17 C4.02 17 2.04 17 0 17 C-0.33 15.68 -0.66 14.36 -1 13 C-1.99 13 -2.98 13 -4 13 C-4.125 10.625 -4.125 10.625 -4 8 C-3.34 7.34 -2.68 6.68 -2 6 C-1.28591666 4.01643517 -0.61382258 2.01684563 0 0 Z " fill="#A7C48D" transform="translate(266,72)"/>
<path d="M0 0 C8.42986425 4.28959276 8.42986425 4.28959276 10 9 C10.08209792 10.77313851 10.10746294 12.54920775 10.09765625 14.32421875 C10.09443359 15.35224609 10.09121094 16.38027344 10.08789062 17.43945312 C10.07951172 18.51130859 10.07113281 19.58316406 10.0625 20.6875 C10.05798828 21.77095703 10.05347656 22.85441406 10.04882812 23.97070312 C10.03703743 26.64719085 10.02058063 29.32356777 10 32 C7.525 32.495 7.525 32.495 5 33 C2.70825923 29.56238884 2.70475953 28.07928385 2.5859375 24.01953125 C2.54726562 22.85615234 2.50859375 21.69277344 2.46875 20.49414062 C2.4378125 19.27919922 2.406875 18.06425781 2.375 16.8125 C2.33632812 15.58595703 2.29765625 14.35941406 2.2578125 13.09570312 C2.16343897 10.06395344 2.07785451 7.03221159 2 4 C-0.75078884 3.08307039 -2.35948913 2.89113917 -5.1875 2.9375 C-6.445625 2.958125 -7.70375 2.97875 -9 3 C-9 2.34 -9 1.68 -9 1 C-5.77239609 -0.61380195 -3.59420831 -0.39935648 0 0 Z " fill="#7C974B" transform="translate(64,80)"/>
<path d="M0 0 C0.66 0.33 1.32 0.66 2 1 C2.53809482 3.73232591 2.9362368 6.36572949 3.25 9.125 C3.353125 9.87265625 3.45625 10.6203125 3.5625 11.390625 C4.16663219 16.49021139 3.72083366 20.15855007 2 25 C1.34 24.01 0.68 23.02 0 22 C-0.33 22.66 -0.66 23.32 -1 24 C-4.4375 25.1875 -4.4375 25.1875 -8 26 C-8.66 25.67 -9.32 25.34 -10 25 C-10.59034867 19.10603503 -8.54196842 14.90196301 -6.125 9.6875 C-5.76019531 8.86443359 -5.39539063 8.04136719 -5.01953125 7.19335938 C-2.27328758 1.13664379 -2.27328758 1.13664379 0 0 Z " fill="#E1E1EA" transform="translate(285,38)"/>
<path d="M0 0 C1.32 0.33 2.64 0.66 4 1 C3.34 5.62 2.68 10.24 2 15 C1.34 15 0.68 15 0 15 C-0.33 15.66 -0.66 16.32 -1 17 C-1.66 17 -2.32 17 -3 17 C-3.33 18.32 -3.66 19.64 -4 21 C-4.66 21 -5.32 21 -6 21 C-6 21.66 -6 22.32 -6 23 C-10.75 24.125 -10.75 24.125 -13 23 C-12.71125 22.29875 -12.4225 21.5975 -12.125 20.875 C-10.97866412 17.94547497 -9.97374346 14.99078347 -9 12 C-9.66 12 -10.32 12 -11 12 C-11 10.68 -11 9.36 -11 8 C-9.02 7.67 -7.04 7.34 -5 7 C-5 6.34 -5 5.68 -5 5 C-3.35 5 -1.7 5 0 5 C0 3.35 0 1.7 0 0 Z " fill="#E6EDF3" transform="translate(284,81)"/>
<path d="M0 0 C-0.33 1.32 -0.66 2.64 -1 4 C1.31 4.33 3.62 4.66 6 5 C6.33 5.99 6.66 6.98 7 8 C7.66 8 8.32 8 9 8 C9.02700675 10.91672884 9.04684237 13.83320677 9.0625 16.75 C9.07087891 17.575 9.07925781 18.4 9.08789062 19.25 C9.09272461 20.44882813 9.09272461 20.44882813 9.09765625 21.671875 C9.10551147 22.77160645 9.10551147 22.77160645 9.11352539 23.89355469 C8.9975109 26.0461849 8.59073271 27.9314135 8 30 C6.35 30 4.7 30 3 30 C2.98018066 29.41508789 2.96036133 28.83017578 2.93994141 28.22753906 C2.84446519 25.56791975 2.73487858 22.90906162 2.625 20.25 C2.5940625 19.32960938 2.563125 18.40921875 2.53125 17.4609375 C2.49257813 16.57148437 2.45390625 15.68203125 2.4140625 14.765625 C2.3826416 13.94868164 2.3512207 13.13173828 2.31884766 12.29003906 C1.97656307 9.83167042 1.2260723 8.14240001 0 6 C-1.98 6 -3.96 6 -6 6 C-6 4 -6 4 -5 3 C-5.99 3 -6.98 3 -8 3 C-8.33 5.31 -8.66 7.62 -9 10 C-9.66 9.01 -10.32 8.02 -11 7 C-10.67 6.67 -10.34 6.34 -10 6 C-10.66 5.34 -11.32 4.68 -12 4 C-8.35616205 0.00912986 -5.26350451 -0.11696677 0 0 Z " fill="#779740" transform="translate(44,80)"/>
<path d="M0 0 C3.35433109 0.94933899 6.69246505 1.89748835 10 3 C12.33006911 3.35543427 14.66327016 3.6913753 17 4 C17 4.66 17 5.32 17 6 C17.99 6 18.98 6 20 6 C20 8.31 20 10.62 20 13 C18.68 12.67 17.36 12.34 16 12 C16 13.65 16 15.3 16 17 C14.35 17 12.7 17 11 17 C11 17.66 11 18.32 11 19 C10.34 18.67 9.68 18.34 9 18 C9.33 17.34 9.66 16.68 10 16 C8.35 15.67 6.7 15.34 5 15 C5.33 13.68 5.66 12.36 6 11 C7.32 11 8.64 11 10 11 C9.01 10.236875 8.02 9.47375 7 8.6875 C5.3125 7.38671875 5.3125 7.38671875 4 6 C4 5.01 4 4.02 4 3 C3.34 3 2.68 3 2 3 C2.515625 3.763125 3.03125 4.52625 3.5625 5.3125 C4.036875 6.199375 4.51125 7.08625 5 8 C4.67 8.99 4.34 9.98 4 11 C0.91053744 8.47225791 -0.02451306 5.82065719 -1 2 C-0.67 1.34 -0.34 0.68 0 0 Z " fill="#C7D5C5" transform="translate(268,69)"/>
<path d="M0 0 C3.69230769 0.69230769 3.69230769 0.69230769 5 2 C5.08685603 3.56172745 5.10702219 5.12729344 5.09765625 6.69140625 C5.09443359 7.63564453 5.09121094 8.57988281 5.08789062 9.55273438 C5.07951172 10.54595703 5.07113281 11.53917969 5.0625 12.5625 C5.05798828 13.55958984 5.05347656 14.55667969 5.04882812 15.58398438 C5.03700007 18.05604849 5.02051849 20.52799518 5 23 C5.46374023 22.6918335 5.92748047 22.38366699 6.40527344 22.06616211 C8.51184063 20.67678577 10.63052281 19.30709296 12.75 17.9375 C13.47960937 17.45216797 14.20921875 16.96683594 14.9609375 16.46679688 C15.66992188 16.01240234 16.37890625 15.55800781 17.109375 15.08984375 C17.75874023 14.66566162 18.40810547 14.24147949 19.07714844 13.80444336 C21.45841624 12.80821718 22.61384328 13.14349044 25 14 C25.33 15.65 25.66 17.3 26 19 C22.80331012 21.6486859 19.60513403 23.93992341 16 26 C16.33 27.98 16.66 29.96 17 32 C16.01 31.34 15.02 30.68 14 30 C14 29.34 14 28.68 14 28 C13.38125 27.896875 12.7625 27.79375 12.125 27.6875 C10 27 10 27 8 24 C7.34 24 6.68 24 6 24 C6 24.66 6 25.32 6 26 C5.34 26 4.68 26 4 26 C4 18.74 4 11.48 4 4 C3.34 4 2.68 4 2 4 C2 3.34 2 2.68 2 2 C1.01 1.67 0.02 1.34 -1 1 C-0.67 0.67 -0.34 0.34 0 0 Z " fill="#839B4F" transform="translate(145,65)"/>
<path d="M0 0 C2 1.5625 2 1.5625 3 3 C0.03 2.505 0.03 2.505 -3 2 C-3.99 3.485 -3.99 3.485 -5 5 C-4.34 5.66 -3.68 6.32 -3 7 C-3.62648437 7.10957031 -4.25296875 7.21914062 -4.8984375 7.33203125 C-5.71570313 7.49058594 -6.53296875 7.64914063 -7.375 7.8125 C-8.59316406 8.03873047 -8.59316406 8.03873047 -9.8359375 8.26953125 C-12.35820641 8.87544942 -12.35820641 8.87544942 -14 12 C-14.70164642 13.98799818 -15.37372872 15.98698517 -16 18 C-16.99 17.67 -17.98 17.34 -19 17 C-19.99 19.475 -19.99 19.475 -21 22 C-21.33 22 -21.66 22 -22 22 C-22.76393327 10.26513608 -22.76393327 10.26513608 -19.5234375 5.5078125 C-13.92770286 -0.03052999 -7.51120091 -2.10840727 0 0 Z " fill="#0F0A0F" transform="translate(229,79)"/>
<path d="M0 0 C1.5 1.3125 1.5 1.3125 3 3 C3 3.99 3 4.98 3 6 C1.576875 6.86625 1.576875 6.86625 0.125 7.75 C-3.71065128 10.51166892 -4.12654651 12.45804187 -5 17 C-3.68 17 -2.36 17 -1 17 C-1 17.66 -1 18.32 -1 19 C0.32 18.67 1.64 18.34 3 18 C3.77818956 22.84206839 4.02116816 26.75319983 3.2578125 31.63671875 C2.70228834 36.72902356 2.92981488 41.88428486 3 47 C5.89234315 47.82638376 7.88742431 48 11 48 C10.67 49.32 10.34 50.64 10 52 C6.7 52.66 3.4 53.32 0 54 C-0.02723328 50.37494824 -0.04695114 46.75010573 -0.0625 43.125 C-0.07087891 42.11179688 -0.07925781 41.09859375 -0.08789062 40.0546875 C-0.10845895 33.63736985 0.21676321 27.37009043 1 21 C-1.64 21 -4.28 21 -7 21 C-7.36787834 14.86869436 -6.40168553 10.88202263 -2.4375 6.125 C-1 5 -1 5 1 5 C0.67 3.35 0.34 1.7 0 0 Z " fill="#838D6C" transform="translate(232,29)"/>
<path d="M0 0 C4.62 0 9.24 0 14 0 C13.67 1.65 13.34 3.3 13 5 C12.34 4.34 11.68 3.68 11 3 C8.93125966 2.3574765 8.93125966 2.3574765 7 2 C7 2.66 7 3.32 7 4 C6.34 4 5.68 4 5 4 C5.33 5.65 5.66 7.3 6 9 C5.34 8.67 4.68 8.34 4 8 C4 9.65 4 11.3 4 13 C8.455 12.505 8.455 12.505 13 12 C13 12.99 13 13.98 13 15 C5.08 15 -2.84 15 -11 15 C-10.67 14.01 -10.34 13.02 -10 12 C-9.01 11.67 -8.02 11.34 -7 11 C-6.67 11.33 -6.34 11.66 -6 12 C-4.33382885 12.04063832 -2.66611905 12.042721 -1 12 C-1.515625 11.4225 -2.03125 10.845 -2.5625 10.25 C-4 8 -4 8 -3.6875 5.75 C-3.460625 5.1725 -3.23375 4.595 -3 4 C-2.34 4 -1.68 4 -1 4 C-0.67 2.68 -0.34 1.36 0 0 Z " fill="#CEDEDA" transform="translate(259,94)"/>
<path d="M0 0 C0.99 0 1.98 0 3 0 C3 0.66 3 1.32 3 2 C3.66 2 4.32 2 5 2 C5 9.26 5 16.52 5 24 C5.66 24.33 6.32 24.66 7 25 C6.67 26.32 6.34 27.64 6 29 C5.34 29 4.68 29 4 29 C4 31.31 4 33.62 4 36 C3.01 36 2.02 36 1 36 C-0.00025163 28.10849953 -0.12008681 20.32197932 -0.0625 12.375 C-0.05798828 11.18003906 -0.05347656 9.98507813 -0.04882812 8.75390625 C-0.03715603 5.83588353 -0.02078326 2.91796963 0 0 Z " fill="#748D42" transform="translate(144,67)"/>
<path d="M0 0 C2.31 0.66 4.62 1.32 7 2 C6.33627687 5.15989923 5.2254083 7.75822564 3.75 10.625 C3.30785156 11.49125 2.86570312 12.3575 2.41015625 13.25 C1.94480469 14.1575 1.47945313 15.065 1 16 C0.06046362 17.87398043 -0.8771325 19.74893527 -1.8125 21.625 C-2.54166667 23.08333333 -3.27083333 24.54166667 -4 26 C-4.66 26 -5.32 26 -6 26 C-6.33 26.99 -6.66 27.98 -7 29 C-7.99 28.67 -8.98 28.34 -10 28 C-7.14274805 18.41908709 -4.07090089 9.14653477 0 0 Z " fill="#D7D9E0" transform="translate(275,34)"/>
<path d="M0 0 C1.71050559 4.97601626 0.00885647 8.42616295 -2 13 C-2.66 12.01 -3.32 11.02 -4 10 C-4.99 10.495 -4.99 10.495 -6 11 C-6 10.34 -6 9.68 -6 9 C-7.98 9.99 -7.98 9.99 -10 11 C-9.67 11.66 -9.34 12.32 -9 13 C-10.65 13.33 -12.3 13.66 -14 14 C-14 13.01 -14 12.02 -14 11 C-16.97 10.67 -19.94 10.34 -23 10 C-23 9.34 -23 8.68 -23 8 C-21.96875 7.7525 -20.9375 7.505 -19.875 7.25 C-17.06279974 6.46100594 -15.56296544 5.70244455 -13.0625 4 C-9.04534796 1.37655377 -4.87749125 0 0 0 Z " fill="#6C8847" transform="translate(256,19)"/>
<path d="M0 0 C0.99 0.66 1.98 1.32 3 2 C2.51421457 5.12290635 2.0013988 7.99580359 1 11 C0.34 11 -0.32 11 -1 11 C-1.12761719 11.72058594 -1.25523437 12.44117188 -1.38671875 13.18359375 C-1.98753248 15.94274472 -2.8136002 18.42397184 -3.8125 21.0625 C-6.01926512 26.99570731 -8.02671903 32.98569152 -10 39 C-10.99 39 -11.98 39 -13 39 C-12.47862634 33.27124794 -11.31008617 28.60939778 -9.125 23.3125 C-6.65936049 17.11221707 -4.93946801 11.06266134 -3.73828125 4.4765625 C-3 2 -3 2 0 0 Z " fill="#5D5F66" transform="translate(276,23)"/>
<path d="M0 0 C1.32 0.66 2.64 1.32 4 2 C3.01 5.3 2.02 8.6 1 12 C-0.32 12 -1.64 12 -3 12 C-3.08378906 12.65742187 -3.16757812 13.31484375 -3.25390625 13.9921875 C-4.25327176 18.02104321 -6.04497096 21.44712941 -7.9375 25.125 C-8.47793945 26.19814453 -8.47793945 26.19814453 -9.02929688 27.29296875 C-10.56933732 30.32767091 -12.10744241 33.16116361 -14 36 C-14.66 36 -15.32 36 -16 36 C-15.5789016 31.68374143 -14.41563844 28.6743631 -12.17578125 24.9765625 C-8.55057203 18.88235698 -5.7859712 12.68042129 -3.69140625 5.91796875 C-2.8499281 3.58369884 -1.66974681 1.82877031 0 0 Z " fill="#42454F" transform="translate(286,27)"/>
<path d="M0 0 C0.9796875 -0.01417969 1.959375 -0.02835937 2.96875 -0.04296875 C5.5 0.1875 5.5 0.1875 7.5 2.1875 C4.86 2.1875 2.22 2.1875 -0.5 2.1875 C-0.17 3.1775 0.16 4.1675 0.5 5.1875 C3.00447516 6.40619929 3.00447516 6.40619929 5.5 7.1875 C2.5 8.1875 2.5 8.1875 -1 8.625 C-4.60172077 8.95512637 -4.60172077 8.95512637 -7.5 11.1875 C-8.49 10.8575 -9.48 10.5275 -10.5 10.1875 C-10.83 12.1675 -11.16 14.1475 -11.5 16.1875 C-12.49 15.5275 -13.48 14.8675 -14.5 14.1875 C-13.18 11.8775 -11.86 9.5675 -10.5 7.1875 C-9.84 7.1875 -9.18 7.1875 -8.5 7.1875 C-8.83 6.5275 -9.16 5.8675 -9.5 5.1875 C-10.49 5.1875 -11.48 5.1875 -12.5 5.1875 C-7.97116436 1.49292356 -5.85337773 0.03850906 0 0 Z " fill="#879D5A" transform="translate(92.5,78.8125)"/>
<path d="M0 0 C0.33 0 0.66 0 1 0 C1.17273438 0.89203125 1.34546875 1.7840625 1.5234375 2.703125 C2.99119006 9.45098481 2.99119006 9.45098481 7.0703125 14.75390625 C15.78021636 18.54873574 25.43078249 18.00472914 34.2578125 14.94921875 C36.34426483 13.98762491 36.34426483 13.98762491 38 11 C38.66 11 39.32 11 40 11 C39.65246835 13.51960447 39.218246 14.77302416 37.4375 16.625 C30.46026491 20.5608762 22.01007626 21.11574974 14.28125 19.39453125 C11.80906296 18.67832412 9.40383557 17.91936168 7 17 C6.29230469 16.73574219 5.58460938 16.47148438 4.85546875 16.19921875 C2.335136 14.5702879 1.76483334 12.96194532 0.6875 10.1875 C0.16736328 8.90939453 0.16736328 8.90939453 -0.36328125 7.60546875 C-1.07623908 4.68802782 -0.79767599 2.86648727 0 0 Z " fill="#8F9297" transform="translate(237,102)"/>
<path d="M0 0 C0 0.66 0 1.32 0 2 C0.99 1.67 1.98 1.34 3 1 C3 1.99 3 2.98 3 4 C-3.91801604 6.9349159 -10.50587348 7.8350908 -18 7 C-20.35546875 5.98046875 -20.35546875 5.98046875 -22 5 C-21.34 5 -20.68 5 -20 5 C-20 4.34 -20 3.68 -20 3 C-19.03578125 2.95101562 -18.0715625 2.90203125 -17.078125 2.8515625 C-15.81484375 2.77679688 -14.5515625 2.70203125 -13.25 2.625 C-11.99703125 2.55539063 -10.7440625 2.48578125 -9.453125 2.4140625 C-6.03094546 2.00371065 -3.27747944 0 0 0 Z " fill="#E2E8EB" transform="translate(270,113)"/>
<path d="M0 0 C2.35996886 1.47498054 4.01267601 3.01267601 6 5 C5.67 6.32 5.34 7.64 5 9 C3.25 9.625 3.25 9.625 1 10 C-0.34246312 9.35191436 -1.67432801 8.68177416 -3 8 C-5.32495277 7.61250787 -7.65851268 7.27017161 -10 7 C-10 6.67 -10 6.34 -10 6 C-7.69 6 -5.38 6 -3 6 C-3 5.34 -3 4.68 -3 4 C-3.66 3.67 -4.32 3.34 -5 3 C-3.68 2.67 -2.36 2.34 -1 2 C-2.41623216 1.94552953 -3.83308191 1.90699492 -5.25 1.875 C-6.43335937 1.84019531 -6.43335937 1.84019531 -7.640625 1.8046875 C-10.20731941 2.0171622 -11.7916067 2.71345895 -14 4 C-14.66 3.34 -15.32 2.68 -16 2 C-10.4740229 -0.93934952 -6.10560108 -1.86928729 0 0 Z " fill="#7F8C57" transform="translate(134,79)"/>
<path d="M0 0 C1.98 0.99 1.98 0.99 4 2 C4 2.99 4 3.98 4 5 C4.556875 5.268125 5.11375 5.53625 5.6875 5.8125 C9.12289979 7.57662422 12.25793106 9.25793106 15 12 C14.01 12 13.02 12 12 12 C12 12.66 12 13.32 12 14 C8.7 14 5.4 14 2 14 C0.4087311 9.126739 -0.21192221 5.19209404 0 0 Z " fill="#CEDDDA" transform="translate(236,93)"/>
<path d="M0 0 C1.46704593 5.46808029 0.56294428 8.15888302 -2 13 C-2.99 13.495 -2.99 13.495 -4 14 C-4.33 13.01 -4.66 12.02 -5 11 C-4.67 10.34 -4.34 9.68 -4 9 C-4.99 9 -5.98 9 -7 9 C-7.33 9.66 -7.66 10.32 -8 11 C-9.32 11 -10.64 11 -12 11 C-10.56314642 5.97101246 -8.05763331 4.04322498 -4 1 C-2 0 -2 0 0 0 Z " fill="#588040" transform="translate(266,66)"/>
<path d="M0 0 C4.70588235 0.70588235 4.70588235 0.70588235 6 2 C5.91036938 3.69141656 5.75422324 5.37959602 5.5625 7.0625 C5.46066406 7.98160156 5.35882813 8.90070313 5.25390625 9.84765625 C5.17011719 10.55792969 5.08632812 11.26820312 5 12 C4.34 12 3.68 12 3 12 C3 12.66 3 13.32 3 14 C1.35 13.67 -0.3 13.34 -2 13 C-2 10.40422333 -1.83531288 7.95203246 -1.5625 5.375 C-1.48128906 4.57835938 -1.40007812 3.78171875 -1.31640625 2.9609375 C-1 1 -1 1 0 0 Z " fill="#6C9643" transform="translate(243,62)"/>
<path d="M0 0 C0.33 0 0.66 0 1 0 C1.33 3.96 1.66 7.92 2 12 C4.97 12 7.94 12 11 12 C11 12.33 11 12.66 11 13 C9.02 13 7.04 13 5 13 C4.01 16.3 3.02 19.6 2 23 C0.68 23 -0.64 23 -2 23 C-2.2700558 15.1683819 -1.23107719 7.72720775 0 0 Z " fill="#BECFBA" transform="translate(236,49)"/>
<path d="M0 0 C8.42986425 4.28959276 8.42986425 4.28959276 10 9 C10.12255168 11.8243887 10.18512869 14.61326762 10.1875 17.4375 C10.19974609 18.20126953 10.21199219 18.96503906 10.22460938 19.75195312 C10.24268746 26.67585851 10.24268746 26.67585851 8 30 C6.45758085 25.48959248 7.07785692 20.70236446 7.390625 16.01953125 C7.50917165 12.08526416 7.09326803 9.59504232 4.671875 6.5546875 C1.36223876 3.39021075 -0.77811995 2.86521508 -5.1875 2.9375 C-6.445625 2.958125 -7.70375 2.97875 -9 3 C-9 2.34 -9 1.68 -9 1 C-5.77239609 -0.61380195 -3.59420831 -0.39935648 0 0 Z " fill="#6D8839" transform="translate(64,80)"/>
<path d="M0 0 C2.97 0.495 2.97 0.495 6 1 C6.33 1.99 6.66 2.98 7 4 C7.66 3.01 8.32 2.02 9 1 C9.33 2.65 9.66 4.3 10 6 C10.66 6 11.32 6 12 6 C12.33 5.01 12.66 4.02 13 3 C13 4.65 13 6.3 13 8 C13.99 8.33 14.98 8.66 16 9 C16 9.99 16 10.98 16 12 C16.66 12 17.32 12 18 12 C18.66 13.32 19.32 14.64 20 16 C19.34 16.33 18.68 16.66 18 17 C17.67 16.34 17.34 15.68 17 15 C14.7068617 14.15771266 12.38505043 13.53067061 10.03125 12.87890625 C9.3609375 12.58886719 8.690625 12.29882812 8 12 C7.67 11.01 7.34 10.02 7 9 C6.34 8.67 5.68 8.34 5 8 C5 6.02 5 4.04 5 2 C3.35 2 1.7 2 0 2 C0 1.34 0 0.68 0 0 Z " fill="#879C4A" transform="translate(103,89)"/>
<path d="M0 0 C-0.33 1.32 -0.66 2.64 -1 4 C-0.360625 4.309375 0.27875 4.61875 0.9375 4.9375 C3 6 3 6 4 7 C4.08713831 8.70772358 4.10700007 10.41898649 4.09765625 12.12890625 C4.09443359 13.16337891 4.09121094 14.19785156 4.08789062 15.26367188 C4.07951172 16.35228516 4.07113281 17.44089844 4.0625 18.5625 C4.05798828 19.65498047 4.05347656 20.74746094 4.04882812 21.87304688 C4.03699826 24.58208495 4.02051543 27.29101599 4 30 C3.67 30 3.34 30 3 30 C2.98018066 29.41508789 2.96036133 28.83017578 2.93994141 28.22753906 C2.84446519 25.56791975 2.73487858 22.90906162 2.625 20.25 C2.5940625 19.32960938 2.563125 18.40921875 2.53125 17.4609375 C2.49257813 16.57148437 2.45390625 15.68203125 2.4140625 14.765625 C2.3826416 13.94868164 2.3512207 13.13173828 2.31884766 12.29003906 C1.97656307 9.83167042 1.2260723 8.14240001 0 6 C-1.98 6 -3.96 6 -6 6 C-6 4 -6 4 -5 3 C-5.99 3 -6.98 3 -8 3 C-8.33 5.31 -8.66 7.62 -9 10 C-9.66 9.01 -10.32 8.02 -11 7 C-10.67 6.67 -10.34 6.34 -10 6 C-10.66 5.34 -11.32 4.68 -12 4 C-8.35616205 0.00912986 -5.26350451 -0.11696677 0 0 Z " fill="#7B9049" transform="translate(44,80)"/>
<path d="M0 0 C1.24546405 2.49092811 0.7767578 3.41080733 0 6 C1.32 6.33 2.64 6.66 4 7 C4 9.31 4 11.62 4 14 C3.67 12.68 3.34 11.36 3 10 C1.35 10.66 -0.3 11.32 -2 12 C-2 11.34 -2 10.68 -2 10 C-5.63 9.67 -9.26 9.34 -13 9 C-13 10.65 -13 12.3 -13 14 C-13.33 14 -13.66 14 -14 14 C-14.66 11.36 -15.32 8.72 -16 6 C-5.44191344 5.81548975 -5.44191344 5.81548975 -1 7 C-1.020625 6.030625 -1.04125 5.06125 -1.0625 4.0625 C-1 1 -1 1 0 0 Z " fill="#B9CDB9" transform="translate(263,56)"/>
<path d="M0 0 C0.99 0.33 1.98 0.66 3 1 C2.01 1.66 1.02 2.32 0 3 C-0.58189266 5.42521494 -0.58189266 5.42521494 -0.6875 8.125 C-0.75324219 9.03507812 -0.81898438 9.94515625 -0.88671875 10.8828125 C-0.92410156 11.58148438 -0.96148437 12.28015625 -1 13 C-1.66 13 -2.32 13 -3 13 C-3 13.66 -3 14.32 -3 15 C-1.68 15.33 -0.36 15.66 1 16 C0.34 16.66 -0.32 17.32 -1 18 C-1.27741245 20.23035297 -1.27741245 20.23035297 -1.1953125 22.7890625 C-1.18886719 23.73007813 -1.18242187 24.67109375 -1.17578125 25.640625 C-1.15902344 26.62546875 -1.14226562 27.6103125 -1.125 28.625 C-1.11146484 30.11386719 -1.11146484 30.11386719 -1.09765625 31.6328125 C-1.07404116 34.08878134 -1.04110799 36.54427168 -1 39 C-1.33 39 -1.66 39 -2 39 C-2 32.4 -2 25.8 -2 19 C-3.65 18.67 -5.3 18.34 -7 18 C-7.625 16.125 -7.625 16.125 -8 14 C-7.34 13.34 -6.68 12.68 -6 12 C-4.68 12 -3.36 12 -2 12 C-2 8.37 -2 4.74 -2 1 C-1.34 0.67 -0.68 0.34 0 0 Z " fill="#1E181D" transform="translate(193,67)"/>
<path d="M0 0 C0 0.99 0 1.98 0 3 C0.99 3.33 1.98 3.66 3 4 C1.12013348 7.47775306 -0.47569447 10.07765153 -4 12 C-6.25 11.6875 -6.25 11.6875 -8 11 C-7.51282051 4.66666667 -7.51282051 4.66666667 -5.125 1.5625 C-3 0 -3 0 0 0 Z " fill="#6A8943" transform="translate(235,35)"/>
<path d="M0 0 C0.33 0 0.66 0 1 0 C1 5.28 1 10.56 1 16 C0.01 16.33 -0.98 16.66 -2 17 C-2.19491452 15.54263913 -2.38069358 14.08405407 -2.5625 12.625 C-2.66691406 11.81289062 -2.77132813 11.00078125 -2.87890625 10.1640625 C-3 8 -3 8 -2 6 C-4.64 6 -7.28 6 -10 6 C-9.34 5.34 -8.68 4.68 -8 4 C-6.68 4 -5.36 4 -4 4 C-3.67 3.01 -3.34 2.02 -3 1 C-2.34 1 -1.68 1 -1 1 C-0.67 0.67 -0.34 0.34 0 0 Z " fill="#D8DCE2" transform="translate(288,58)"/>
<path d="M0 0 C2.89077271 2.89077271 2.86742637 4.95650442 3 9 C1.92297097 11.60914076 0.59071043 13.63803603 -1 16 C-1.66 16 -2.32 16 -3 16 C-3.33 16.99 -3.66 17.98 -4 19 C-4.99 18.67 -5.98 18.34 -7 18 C-6.37720331 16.41579871 -5.75166599 14.83267469 -5.125 13.25 C-4.60292969 11.92742188 -4.60292969 11.92742188 -4.0703125 10.578125 C-3.13513493 8.32550749 -2.08974566 6.17949132 -1 4 C-0.63215869 2.6757713 -0.28797019 1.34386088 0 0 Z " fill="#ECECF4" transform="translate(272,44)"/>
<path d="M0 0 C0.495 0.309375 0.99 0.61875 1.5 0.9375 C4.97986781 2.41644382 8.24028509 2.62402851 12 3 C11.67 3.66 11.34 4.32 11 5 C9.35 5 7.7 5 6 5 C6 5.66 6 6.32 6 7 C6.66 7 7.32 7 8 7 C8 7.66 8 8.32 8 9 C8.99 9.66 9.98 10.32 11 11 C9.4156683 10.91231752 7.83246433 10.80412671 6.25 10.6875 C4.92742187 10.60048828 4.92742187 10.60048828 3.578125 10.51171875 C0.67696226 9.9358819 -0.79225607 8.92403852 -3 7 C-2.67 6.01 -2.34 5.02 -2 4 C0.31 4.66 2.62 5.32 5 6 C5 5.34 5 4.68 5 4 C2.525 3.01 2.525 3.01 0 2 C0 1.34 0 0.68 0 0 Z " fill="#869B52" transform="translate(85,102)"/>
<path d="M0 0 C2 3 2 3 1.5625 5.5625 C-0.67329883 10.48125742 -3.79713636 14.66671389 -7 19 C-7.99 18.67 -8.98 18.34 -10 18 C-8.54997977 13.89160936 -6.6020866 10.49655387 -4 7 C-3.34 7 -2.68 7 -2 7 C-2 5.35 -2 3.7 -2 2 C-1.34 2 -0.68 2 0 2 C0 1.34 0 0.68 0 0 Z " fill="#1C2E1F" transform="translate(260,83)"/>
<path d="M0 0 C1.71050559 4.97601626 0.00885647 8.42616295 -2 13 C-2.33 13 -2.66 13 -3 13 C-3 10.69 -3 8.38 -3 6 C-6.3 5.67 -9.6 5.34 -13 5 C-10.13490744 2.13490744 -9.5732413 1.60760604 -5.9375 0.8125 C-5.24527344 0.65394531 -4.55304688 0.49539062 -3.83984375 0.33203125 C-2 0 -2 0 0 0 Z " fill="#768856" transform="translate(256,19)"/>
<path d="M0 0 C1.62463842 -0.05395478 3.24978541 -0.09277195 4.875 -0.125 C6.23238281 -0.15980469 6.23238281 -0.15980469 7.6171875 -0.1953125 C10 0 10 0 12 2 C10.68 2.33 9.36 2.66 8 3 C8 3.66 8 4.32 8 5 C6.37512529 5.16788373 4.75009558 5.33426787 3.125 5.5 C1.76761719 5.63921875 1.76761719 5.63921875 0.3828125 5.78125 C-2 6 -2 6 -4 6 C-5.34882408 6.63474075 -6.6846659 7.29848848 -8 8 C-7 6 -6 4 -5 2 C-2.4375 1.375 -2.4375 1.375 0 1 C0 0.67 0 0.34 0 0 Z " fill="#77913E" transform="translate(123,80)"/>
<path d="M0 0 C0.33 0 0.66 0 1 0 C1 4.29 1 8.58 1 13 C0.34 12.01 -0.32 11.02 -1 10 C-1.33 10.66 -1.66 11.32 -2 12 C-5.4375 13.1875 -5.4375 13.1875 -9 14 C-9.66 13.67 -10.32 13.34 -11 13 C-10.67 11.35 -10.34 9.7 -10 8 C-6.61981469 6.95994298 -3.5219721 6.91995518 0 7 C0 4.69 0 2.38 0 0 Z " fill="#EAEDF5" transform="translate(286,50)"/>
<path d="M0 0 C0.33 1.32 0.66 2.64 1 4 C1.66 4 2.32 4 3 4 C3.3125 6.1875 3.3125 6.1875 3 9 C0.5 11.8125 0.5 11.8125 -2 14 C-2.33 13.01 -2.66 12.02 -3 11 C-2.01 10.67 -1.02 10.34 0 10 C0.33 8.35 0.66 6.7 1 5 C-3.62 5.33 -8.24 5.66 -13 6 C-13.33 6.99 -13.66 7.98 -14 9 C-14.66 9 -15.32 9 -16 9 C-15.34 7.35 -14.68 5.7 -14 4 C-13.01 4 -12.02 4 -11 4 C-11 3.34 -11 2.68 -11 2 C-7.37 2.33 -3.74 2.66 0 3 C0 2.01 0 1.02 0 0 Z " fill="#9AB093" transform="translate(272,89)"/>
<path d="M0 0 C0.99 0.66 1.98 1.32 3 2 C2.51421457 5.12290635 2.0013988 7.99580359 1 11 C0.34 11 -0.32 11 -1 11 C-1 11.66 -1 12.32 -1 13 C-1.99 13 -2.98 13 -4 13 C-5.08557659 9.75784173 -4.94015194 7.97678191 -3.6875 4.8125 C-3.42324219 4.11769531 -3.15898437 3.42289063 -2.88671875 2.70703125 C-2 1 -2 1 0 0 Z " fill="#2E2735" transform="translate(276,23)"/>
<path d="M0 0 C5.63281599 -0.2396943 10.54538831 0.61470179 16 2 C15 5 15 5 13 6 C11.45976004 6.06950541 9.91665012 6.08452357 8.375 6.0625 C7.14910156 6.04896484 7.14910156 6.04896484 5.8984375 6.03515625 C4.95871094 6.01775391 4.95871094 6.01775391 4 6 C3.67 4.68 3.34 3.36 3 2 C2.01 2 1.02 2 0 2 C0 1.34 0 0.68 0 0 Z " fill="#89B068" transform="translate(262,83)"/>
<path d="M0 0 C5.75 1.75 5.75 1.75 8 4 C8.125 6.625 8.125 6.625 8 9 C6.68 9.33 5.36 9.66 4 10 C4 9.34 4 8.68 4 8 C3.401875 7.71125 2.80375 7.4225 2.1875 7.125 C0 6 0 6 -3 4 C-2.01 2.68 -1.02 1.36 0 0 Z " fill="#08050A" transform="translate(226,80)"/>
<path d="M0 0 C3.69230769 0.69230769 3.69230769 0.69230769 5 2 C5.08685603 3.56172745 5.10702219 5.12729344 5.09765625 6.69140625 C5.09443359 7.63564453 5.09121094 8.57988281 5.08789062 9.55273438 C5.07951172 10.54595703 5.07113281 11.53917969 5.0625 12.5625 C5.05798828 13.55958984 5.05347656 14.55667969 5.04882812 15.58398438 C5.03700023 18.05601487 5.01906415 20.52801472 5 23 C10.94 19.535 10.94 19.535 17 16 C17.33 16.99 17.66 17.98 18 19 C17.195625 19.28875 16.39125 19.5775 15.5625 19.875 C12.8673532 20.73262568 12.8673532 20.73262568 12 23 C8.9375 23.625 8.9375 23.625 6 24 C6 24.66 6 25.32 6 26 C5.34 26 4.68 26 4 26 C4 18.74 4 11.48 4 4 C3.34 4 2.68 4 2 4 C2 3.34 2 2.68 2 2 C1.01 1.67 0.02 1.34 -1 1 C-0.67 0.67 -0.34 0.34 0 0 Z " fill="#8F9E64" transform="translate(145,65)"/>
<path d="M0 0 C0.33 0 0.66 0 1 0 C1.05790353 3.29159316 1.09356261 6.58305603 1.125 9.875 C1.14175781 10.81214844 1.15851562 11.74929687 1.17578125 12.71484375 C1.18222656 13.61074219 1.18867187 14.50664063 1.1953125 15.4296875 C1.20578613 16.25710449 1.21625977 17.08452148 1.22705078 17.93701172 C1 20 1 20 -1 22 C-3.625 21.625 -3.625 21.625 -6 21 C-5.34 19.68 -4.68 18.36 -4 17 C-3.01 17 -2.02 17 -1 17 C-1.09539063 15.94039062 -1.19078125 14.88078125 -1.2890625 13.7890625 C-1.40160106 12.40108691 -1.51354965 11.01306339 -1.625 9.625 C-1.68945312 8.92632812 -1.75390625 8.22765625 -1.8203125 7.5078125 C-1.96119739 5.67630889 -1.98761659 3.83687252 -2 2 C-1.34 1.34 -0.68 0.68 0 0 Z " fill="#829458" transform="translate(34,91)"/>
<path d="M0 0 C1.32 0 2.64 0 4 0 C4 0.66 4 1.32 4 2 C3.01 2.495 3.01 2.495 2 3 C1.67 3.99 1.34 4.98 1 6 C1.99 6 2.98 6 4 6 C4.33 8.64 4.66 11.28 5 14 C5.66 14 6.32 14 7 14 C7.33 15.32 7.66 16.64 8 18 C6.68 17.34 5.36 16.68 4 16 C4 15.01 4 14.02 4 13 C3.01 12.67 2.02 12.34 1 12 C0.34 12.66 -0.32 13.32 -1 14 C-1.02694851 12.04174127 -1.04637218 10.08337774 -1.0625 8.125 C-1.07410156 7.03445312 -1.08570313 5.94390625 -1.09765625 4.8203125 C-1 2 -1 2 0 0 Z " fill="#A1BA9B" transform="translate(236,82)"/>
<path d="M0 0 C0.33 0 0.66 0 1 0 C1.33 4.62 1.66 9.24 2 14 C5.9595774 15.16169042 5.9595774 15.16169042 10 15 C9.67 16.32 9.34 17.64 9 19 C5.7 19.66 2.4 20.32 -1 21 C-0.67 14.07 -0.34 7.14 0 0 Z " fill="#6C765E" transform="translate(233,62)"/>
<path d="M0 0 C0.33 0 0.66 0 1 0 C1 2.97 1 5.94 1 9 C1.78375 8.95875 2.5675 8.9175 3.375 8.875 C6 9 6 9 8 11 C7.625 13.125 7.625 13.125 7 15 C4.69 15.66 2.38 16.32 0 17 C0 11.33333333 0 5.66666667 0 0 Z " fill="#1E171C" transform="translate(197,70)"/>
<path d="M0 0 C1.32 0.66 2.64 1.32 4 2 C3.01 5.3 2.02 8.6 1 12 C-0.32 11.67 -1.64 11.34 -3 11 C-3.75 8.875 -3.75 8.875 -4 6 C-2.0625 2.6875 -2.0625 2.6875 0 0 Z " fill="#2D2532" transform="translate(286,27)"/>
<path d="M0 0 C3.875 1.75 3.875 1.75 5 4 C5.07181821 6.71760108 5.09299506 9.40859388 5.0625 12.125 C5.05798828 12.87910156 5.05347656 13.63320312 5.04882812 14.41015625 C5.03703499 16.27347127 5.01909942 18.13674555 5 20 C4.34 19.67 3.68 19.34 3 19 C2.5477526 16.35745638 2.20369503 13.78695034 1.9375 11.125 C1.37646422 5.48518076 1.37646422 5.48518076 0 0 Z " fill="#7CA140" transform="translate(67,86)"/>
<path d="M0 0 C0.33 0.66 0.66 1.32 1 2 C1.66 2.33 2.32 2.66 3 3 C2.67 4.32 2.34 5.64 2 7 C1.34 7 0.68 7 0 7 C0 9.31 0 11.62 0 14 C-0.99 14 -1.98 14 -3 14 C-3.33 10.04 -3.66 6.08 -4 2 C-2.68 2 -1.36 2 0 2 C0 1.34 0 0.68 0 0 Z " fill="#7DA13E" transform="translate(148,89)"/>
<path d="M0 0 C-0.99 0.495 -0.99 0.495 -2 1 C-2 1.99 -2 2.98 -2 4 C-3.32 4.33 -4.64 4.66 -6 5 C-5.85923685 6.9587043 -5.7122324 8.91696093 -5.5625 10.875 C-5.48128906 11.96554688 -5.40007812 13.05609375 -5.31640625 14.1796875 C-5.16998297 16.94728971 -5.16998297 16.94728971 -4 19 C-4.99 19 -5.98 19 -7 19 C-8.11221955 15.66334135 -8.20253779 13.01220338 -8.25 9.5 C-8.27578125 8.3553125 -8.3015625 7.210625 -8.328125 6.03125 C-8 3 -8 3 -6.65234375 1.10546875 C-4.38558039 -0.4110656 -2.66475882 -0.21606153 0 0 Z " fill="#D7DCDB" transform="translate(245,42)"/>
<path d="M0 0 C0.66 0 1.32 0 2 0 C1.65246835 2.51960447 1.218246 3.77302416 -0.5625 5.625 C-6.74295946 9.11141303 -13.08975784 9.28792676 -20 9 C-19.67 8.34 -19.34 7.68 -19 7 C-15.64067582 6.31611074 -12.29722303 5.78569138 -8.90234375 5.3203125 C-4.48416099 4.64708022 -4.48416099 4.64708022 -1.1171875 1.8984375 C-0.56417969 0.95871094 -0.56417969 0.95871094 0 0 Z " fill="#B4B6B8" transform="translate(275,113)"/>
<path d="M0 0 C0.66 0.33 1.32 0.66 2 1 C2.625 3.0625 2.625 3.0625 3 5 C4.175625 5.2165625 4.175625 5.2165625 5.375 5.4375 C8 6 8 6 10 7 C10 7.66 10 8.32 10 9 C8.906875 8.835 7.81375 8.67 6.6875 8.5 C3.12474127 7.93281816 3.12474127 7.93281816 0 8 C-0.66 7.34 -1.32 6.68 -2 6 C-1.44444444 1.44444444 -1.44444444 1.44444444 0 0 Z " fill="#7D9747" transform="translate(80,99)"/>
<path d="M0 0 C0.99 0 1.98 0 3 0 C3.33 1.32 3.66 2.64 4 4 C5.98 4 7.96 4 10 4 C10 4.99 10 5.98 10 7 C8.741875 7.020625 7.48375 7.04125 6.1875 7.0625 C5.47980469 7.07410156 4.77210938 7.08570312 4.04296875 7.09765625 C2 7 2 7 -1 6 C-1 6.66 -1 7.32 -1 8 C-1.66 7.67 -2.32 7.34 -3 7 C-2.01 4.69 -1.02 2.38 0 0 Z " fill="#6E9051" transform="translate(262,85)"/>
<path d="M0 0 C0.66 0 1.32 0 2 0 C2 0.66 2 1.32 2 2 C3.32 2.33 4.64 2.66 6 3 C2.98968256 3.93423645 2.13349732 4.04449911 -1 3 C-1 3.66 -1 4.32 -1 5 C1.31 5.33 3.62 5.66 6 6 C5.67 6.99 5.34 7.98 5 9 C4.01 9.33 3.02 9.66 2 10 C2 9.34 2 8.68 2 8 C-0.31 8 -2.62 8 -5 8 C-5 7.34 -5 6.68 -5 6 C-4.34 5.67 -3.68 5.34 -3 5 C-2.505 4.154375 -2.01 3.30875 -1.5 2.4375 C-1.005 1.633125 -0.51 0.82875 0 0 Z " fill="#6B9549" transform="translate(246,79)"/>
<path d="M0 0 C0.99 0 1.98 0 3 0 C2.67 4.29 2.34 8.58 2 13 C1.67 13 1.34 13 1 13 C0.67 18.28 0.34 23.56 0 29 C-0.33 29 -0.66 29 -1 29 C-1.18451025 9.03189066 -1.18451025 9.03189066 0 0 Z " fill="#7B7D7D" transform="translate(233,50)"/>
<path d="M0 0 C0.99 0.33 1.98 0.66 3 1 C3 2.65 3 4.3 3 6 C2.01 6 1.02 6 0 6 C0 8.64 0 11.28 0 14 C-1.98 14 -3.96 14 -6 14 C-4.02 9.38 -2.04 4.76 0 0 Z " fill="#DFE2EA" transform="translate(282,42)"/>
<path d="M0 0 C2.97 0 5.94 0 9 0 C9 1.65 9 3.3 9 5 C7.68 5.33 6.36 5.66 5 6 C5 6.66 5 7.32 5 8 C4.34 7.67 3.68 7.34 3 7 C3.33 6.34 3.66 5.68 4 5 C2.35 4.67 0.7 4.34 -1 4 C-0.67 2.68 -0.34 1.36 0 0 Z " fill="#B4CE9E" transform="translate(274,80)"/>
<path d="M0 0 C3.96 0 7.92 0 12 0 C11.67 1.65 11.34 3.3 11 5 C10.34 4.34 9.68 3.68 9 3 C6.93125966 2.3574765 6.93125966 2.3574765 5 2 C5 2.66 5 3.32 5 4 C4.34 4 3.68 4 3 4 C3.33 5.65 3.66 7.3 4 9 C3.34 8.67 2.68 8.34 2 8 C2 7.01 2 6.02 2 5 C1.34 5 0.68 5 0 5 C0 3.35 0 1.7 0 0 Z " fill="#C4D8BE" transform="translate(261,94)"/>
<path d="M0 0 C-2.99480917 0.8723412 -5.63575911 1.10829766 -8.75 1.0625 C-9.54921875 1.05347656 -10.3484375 1.04445313 -11.171875 1.03515625 C-11.77515625 1.02355469 -12.3784375 1.01195313 -13 1 C-14.01111093 4.04913228 -14.01111093 4.04913228 -13 7 C-14.65 7.66 -16.3 8.32 -18 9 C-18 7.02 -18 5.04 -18 3 C-17.01 3 -16.02 3 -15 3 C-15.95865509 0.66924071 -15.95865509 0.66924071 -19 -1 C-16.95999027 -1.22397733 -14.91783811 -1.42848537 -12.875 -1.625 C-11.73804688 -1.74101563 -10.60109375 -1.85703125 -9.4296875 -1.9765625 C-5.83488201 -2.00112837 -3.319329 -1.32167811 0 0 Z " fill="#889F5F" transform="translate(48,80)"/>
<path d="M0 0 C2.0625 0.4375 2.0625 0.4375 4 1 C4.625 3.375 4.625 3.375 5 6 C4.34 6.66 3.68 7.32 3 8 C3.33 8.66 3.66 9.32 4 10 C2.125 9.6875 2.125 9.6875 0 9 C-2 6 -2 6 -1.6875 3.375 C-1 1 -1 1 0 0 Z " fill="#251C23" transform="translate(177,70)"/>
<path d="M0 0 C1.258125 -0.020625 2.51625 -0.04125 3.8125 -0.0625 C4.52019531 -0.07410156 5.22789062 -0.08570312 5.95703125 -0.09765625 C8 0 8 0 11 1 C10.3125 2.9375 10.3125 2.9375 9 5 C6.375 5.75 6.375 5.75 4 6 C4 5.34 4 4.68 4 4 C2.68 4 1.36 4 0 4 C0 2.68 0 1.36 0 0 Z " fill="#D5E9D6" transform="translate(250,65)"/>
<path d="M0 0 C0.66 0 1.32 0 2 0 C1.67 1.32 1.34 2.64 1 4 C0.01 4 -0.98 4 -2 4 C-1.67 6.64 -1.34 9.28 -1 12 C-2.32 12.99 -3.64 13.98 -5 15 C-5.66 14.67 -6.32 14.34 -7 14 C-6.34 13.34 -5.68 12.68 -5 12 C-4.35232207 9.42938689 -4.35232207 9.42938689 -4 7 C-4.66 7 -5.32 7 -6 7 C-6 5.68 -6 4.36 -6 3 C-4.02 2.67 -2.04 2.34 0 2 C0 1.34 0 0.68 0 0 Z " fill="#D7E8D7" transform="translate(279,86)"/>
<path d="M0 0 C0.66 0 1.32 0 2 0 C2.85305168 2.90669462 3.07289715 5.31048873 2.87890625 8.328125 C2.83056641 9.12734375 2.78222656 9.9265625 2.73242188 10.75 C2.67634766 11.575 2.62027344 12.4 2.5625 13.25 C2.51029297 14.09046875 2.45808594 14.9309375 2.40429688 15.796875 C2.27504311 17.8649352 2.13825726 19.9325222 2 22 C1.34 22 0.68 22 0 22 C0 14.74 0 7.48 0 0 Z " fill="#81A046" transform="translate(145,68)"/>
<path d="M0 0 C0.33 1.32 0.66 2.64 1 4 C4.63 4.33 8.26 4.66 12 5 C12 5.66 12 6.32 12 7 C5.88514973 7.09706112 0.06696699 6.77040851 -6 6 C-5.67 4.35 -5.34 2.7 -5 1 C-4.67 1.99 -4.34 2.98 -4 4 C-2.68 2.68 -1.36 1.36 0 0 Z " fill="#C0C9CB" transform="translate(274,59)"/>
<path d="M0 0 C0.66 0.33 1.32 0.66 2 1 C1.88590407 2.45922693 1.75834456 3.91740598 1.625 5.375 C1.55539063 6.18710938 1.48578125 6.99921875 1.4140625 7.8359375 C1 10 1 10 -1 12 C-1.99 12 -2.98 12 -4 12 C-4 12.66 -4 13.32 -4 14 C-4.99 14 -5.98 14 -7 14 C-7 12.68 -7 11.36 -7 10 C-5.68 10 -4.36 10 -3 10 C-2.01 6.7 -1.02 3.4 0 0 Z " fill="#81A563" transform="translate(241,62)"/>
<path d="M0 0 C3.2542015 2.83430453 4.5206753 4.68607774 5 9 C3.02 9.99 3.02 9.99 1 11 C-0.32 9.68 -1.64 8.36 -3 7 C-2.34 7 -1.68 7 -1 7 C-0.67 4.69 -0.34 2.38 0 0 Z " fill="#8A995E" transform="translate(166,102)"/>
<path d="M0 0 C1.65 0.33 3.3 0.66 5 1 C4.67 3.31 4.34 5.62 4 8 C2.02 8.33 0.04 8.66 -2 9 C-2 6.69 -2 4.38 -2 2 C-1.34 2 -0.68 2 0 2 C0 1.34 0 0.68 0 0 Z " fill="#D2E1D3" transform="translate(266,96)"/>
<path d="M0 0 C-1.32 2.31 -2.64 4.62 -4 7 C-6.97 6.505 -6.97 6.505 -10 6 C-10.33 4.68 -10.66 3.36 -11 2 C-9.54494642 1.47007308 -8.08581873 0.9513211 -6.625 0.4375 C-5.81289062 0.14746094 -5.00078125 -0.14257812 -4.1640625 -0.44140625 C-2 -1 -2 -1 0 0 Z " fill="#B4CEB6" transform="translate(257,89)"/>
<path d="M0 0 C2 2 2 2 2.1953125 5.6953125 C2.182009 7.17200108 2.15814835 8.64862358 2.125 10.125 C2.11597656 10.87910156 2.10695312 11.63320312 2.09765625 12.41015625 C2.0740687 14.27357254 2.03819719 16.13682593 2 18 C1.01 17.67 0.02 17.34 -1 17 C-1.02699725 14.72923158 -1.04639453 12.45837179 -1.0625 10.1875 C-1.07990234 8.29064453 -1.07990234 8.29064453 -1.09765625 6.35546875 C-1 3 -1 3 0 0 Z " fill="#82A146" transform="translate(50,92)"/>
<path d="M0 0 C-0.33 1.32 -0.66 2.64 -1 4 C-1.66 4 -2.32 4 -3 4 C-3 4.66 -3 5.32 -3 6 C-7.75 7.125 -7.75 7.125 -10 6 C-8.26240984 0.78722952 -5.3189028 -0.4432419 0 0 Z " fill="#E8F2F8" transform="translate(281,98)"/>
<path d="M0 0 C0.33 0 0.66 0 1 0 C1.33 3.96 1.66 7.92 2 12 C4.97 12 7.94 12 11 12 C11 12.33 11 12.66 11 13 C9.02 13 7.04 13 5 13 C4.67 13.66 4.34 14.32 4 15 C2.02 15 0.04 15 -2 15 C-1.34 10.05 -0.68 5.1 0 0 Z " fill="#B1BDB8" transform="translate(236,49)"/>
<path d="M0 0 C2.375 -0.125 2.375 -0.125 5 0 C5.66 0.66 6.32 1.32 7 2 C6.625 4.125 6.625 4.125 6 6 C4.02 6.33 2.04 6.66 0 7 C0 4.66666667 0 2.33333333 0 0 Z " fill="#0F0C10" transform="translate(199,106)"/>
<path d="M0 0 C0.99 0 1.98 0 3 0 C3.33 1.32 3.66 2.64 4 4 C3.01 4.66 2.02 5.32 1 6 C0.01 5.67 -0.98 5.34 -2 5 C-2.33 6.98 -2.66 8.96 -3 11 C-3.99 10.34 -4.98 9.68 -6 9 C-4.68 6.69 -3.36 4.38 -2 2 C-1.34 2 -0.68 2 0 2 C0 1.34 0 0.68 0 0 Z " fill="#839F49" transform="translate(84,84)"/>
<path d="M0 0 C2 1.5625 2 1.5625 3 3 C2.071875 2.79375 1.14375 2.5875 0.1875 2.375 C-3.15173402 1.63307034 -3.15173402 1.63307034 -6 4 C-7.32 3.34 -8.64 2.68 -10 2 C-10.33 2.66 -10.66 3.32 -11 4 C-11 3.34 -11 2.68 -11 2 C-11.66 1.67 -12.32 1.34 -13 1 C-8.29317654 -1.50049996 -5.07149649 -1.0633783 0 0 Z " fill="#262026" transform="translate(229,79)"/>
<path d="M0 0 C0.66 0 1.32 0 2 0 C2.33 0.99 2.66 1.98 3 3 C4.98 3 6.96 3 9 3 C9 3.99 9 4.98 9 6 C6.8535247 5.88655624 4.70779408 5.75893655 2.5625 5.625 C1.36753906 5.55539063 0.17257813 5.48578125 -1.05859375 5.4140625 C-2.02925781 5.27742188 -2.99992188 5.14078125 -4 5 C-4.33 4.34 -4.66 3.68 -5 3 C-4.360625 2.87625 -3.72125 2.7525 -3.0625 2.625 C-2.0415625 2.315625 -2.0415625 2.315625 -1 2 C-0.67 1.34 -0.34 0.68 0 0 Z " fill="#E7F1EC" transform="translate(245,56)"/>
<path d="M0 0 C1.20628008 2.33214148 2.1654738 4.49642139 3 7 C4.32 7 5.64 7 7 7 C6.67 7.99 6.34 8.98 6 10 C3.36 10 0.72 10 -2 10 C-2.625 8.125 -2.625 8.125 -3 6 C-2.34 5.34 -1.68 4.68 -1 4 C-0.3574765 1.93125966 -0.3574765 1.93125966 0 0 Z " fill="#96BA7C" transform="translate(265,74)"/>
<path d="M0 0 C2.31 0.66 4.62 1.32 7 2 C6.43628586 5.26954202 5.50037734 6.82575883 3 9 C3 8.01 3 7.02 3 6 C2.34 6 1.68 6 1 6 C0.67 4.02 0.34 2.04 0 0 Z " fill="#CACFD8" transform="translate(275,34)"/>
<path d="M0 0 C0.66 0 1.32 0 2 0 C2 1.32 2 2.64 2 4 C2.66 3.34 3.32 2.68 4 2 C7.625 1.875 7.625 1.875 11 2 C11 2.33 11 2.66 11 3 C9.35 3 7.7 3 6 3 C6 4.32 6 5.64 6 7 C4.35 7.33 2.7 7.66 1 8 C-0.35439668 5.29120665 -0.06501451 2.99066732 0 0 Z " fill="#84AA76" transform="translate(240,88)"/>
<path d="M0 0 C0.99 0 1.98 0 3 0 C3 3.63 3 7.26 3 11 C2.01 10.67 1.02 10.34 0 10 C0 8.68 0 7.36 0 6 C-0.66 6 -1.32 6 -2 6 C-2 4.68 -2 3.36 -2 2 C-1.34 2 -0.68 2 0 2 C0 1.34 0 0.68 0 0 Z " fill="#4F7C39" transform="translate(259,75)"/>
<path d="M0 0 C0.33 0.66 0.66 1.32 1 2 C1.66 2.33 2.32 2.66 3 3 C2.67 3.33 2.34 3.66 2 4 C2.99 4.66 3.98 5.32 5 6 C3.35 6.33 1.7 6.66 0 7 C0 6.01 0 5.02 0 4 C-2.97 3.67 -5.94 3.34 -9 3 C-9 2.34 -9 1.68 -9 1 C-5.94152152 0.45627049 -3.11227195 0 0 0 Z " fill="#5F7E3E" transform="translate(242,26)"/>
<path d="M0 0 C3.0625 1.5 3.0625 1.5 5 3 C4.67 3.66 4.34 4.32 4 5 C2.9790625 4.2575 2.9790625 4.2575 1.9375 3.5 C-1.68707015 1.64915567 -3.97508528 1.56091839 -8 2 C-9.34275169 2.98731742 -10.67732273 3.98594743 -12 5 C-14.75 4.6875 -14.75 4.6875 -17 4 C-16.67 3.34 -16.34 2.68 -16 2 C-14.34385343 1.61781233 -12.67542976 1.28604898 -11 1 C-7.56143022 -0.71928489 -3.76751104 -0.38974252 0 0 Z " fill="#8F9D69" transform="translate(65,79)"/>
<path d="M0 0 C0.5534764 2.07553648 1 3.84365964 1 6 C1.99 6.33 2.98 6.66 4 7 C3.67 7.66 3.34 8.32 3 9 C1.35 9 -0.3 9 -2 9 C-2.99 7.02 -3.98 5.04 -5 3 C-4.01 3 -3.02 3 -2 3 C-1.34 2.01 -0.68 1.02 0 0 Z " fill="#7F9689" transform="translate(255,98)"/>
<path d="M0 0 C1.24546405 2.49092811 0.7767578 3.41080733 0 6 C1.32 6.33 2.64 6.66 4 7 C4 9.31 4 11.62 4 14 C3.67 12.68 3.34 11.36 3 10 C0.69 9.67 -1.62 9.34 -4 9 C-4 8.34 -4 7.68 -4 7 C-3.01 7 -2.02 7 -1 7 C-1.020625 6.030625 -1.04125 5.06125 -1.0625 4.0625 C-1 1 -1 1 0 0 Z " fill="#B0C0B4" transform="translate(263,56)"/>
<path d="M0 0 C2.97 0.495 2.97 0.495 6 1 C6.33 1.99 6.66 2.98 7 4 C7.66 3.01 8.32 2.02 9 1 C9 4.3 9 7.6 9 11 C7.68 10.01 6.36 9.02 5 8 C4.75 4.8125 4.75 4.8125 5 2 C3.35 2 1.7 2 0 2 C0 1.34 0 0.68 0 0 Z " fill="#889759" transform="translate(103,89)"/>
<path d="M0 0 C2.97 0 5.94 0 9 0 C9.33 1.32 9.66 2.64 10 4 C7 5 7 5 5.17578125 4.22265625 C3.45052083 3.1484375 1.72526042 2.07421875 0 1 C0 0.67 0 0.34 0 0 Z " fill="#DDEBE1" transform="translate(268,65)"/>
<path d="M0 0 C0.66 0 1.32 0 2 0 C3 3 3 3 1.5625 6.1875 C0.7890625 7.5796875 0.7890625 7.5796875 0 9 C-0.33 8.01 -0.66 7.02 -1 6 C-2.32 6.33 -3.64 6.66 -5 7 C-4.34 5.68 -3.68 4.36 -3 3 C-2.34 3 -1.68 3 -1 3 C-0.67 2.01 -0.34 1.02 0 0 Z " fill="#587045" transform="translate(236,41)"/>
<path d="M0 0 C1.98 0.99 1.98 0.99 4 2 C4 2.99 4 3.98 4 5 C4.99 5.33 5.98 5.66 7 6 C7.6875 8.0625 7.6875 8.0625 8 10 C5.125 8.9375 5.125 8.9375 2 7 C0.625 3.3125 0.625 3.3125 0 0 Z " fill="#CDD9DC" transform="translate(239,108)"/>
<path d="M0 0 C1.98 0 3.96 0 6 0 C6 1.32 6 2.64 6 4 C2.18243176 5.37432457 -1.07255329 4.67975039 -5 4 C-5 3.67 -5 3.34 -5 3 C-2.69 3 -0.38 3 2 3 C2 2.34 2 1.68 2 1 C1.34 0.67 0.68 0.34 0 0 Z " fill="#889954" transform="translate(129,82)"/>
<path d="M0 0 C0.598125 0.20625 1.19625 0.4125 1.8125 0.625 C2.1425 2.275 2.4725 3.925 2.8125 5.625 C1.1625 6.945 -0.4875 8.265 -2.1875 9.625 C-2.5175 8.965 -2.8475 8.305 -3.1875 7.625 C-2.1975 6.965 -1.2075 6.305 -0.1875 5.625 C-0.5175 4.635 -0.8475 3.645 -1.1875 2.625 C-3.20258358 1.89176204 -3.20258358 1.89176204 -5.1875 1.625 C-2.1875 -0.375 -2.1875 -0.375 0 0 Z " fill="#91996E" transform="translate(168.1875,78.375)"/>
<path d="M0 0 C1.32 0.66 2.64 1.32 4 2 C3.01 2.495 3.01 2.495 2 3 C2.515625 3.763125 3.03125 4.52625 3.5625 5.3125 C4.036875 6.199375 4.51125 7.08625 5 8 C4.67 8.99 4.34 9.98 4 11 C0.91053744 8.47225791 -0.02451306 5.82065719 -1 2 C-0.67 1.34 -0.34 0.68 0 0 Z " fill="#B8CBAC" transform="translate(268,69)"/>
<path d="M0 0 C0.66 0 1.32 0 2 0 C1.5317879 4.77576339 0.75668002 8.04476345 -2 12 C-2.66 11.01 -3.32 10.02 -4 9 C-3.67 8.34 -3.34 7.68 -3 7 C-2.34 7 -1.68 7 -1 7 C-1.020625 6.030625 -1.04125 5.06125 -1.0625 4.0625 C-1 1 -1 1 0 0 Z " fill="#CED1D8" transform="translate(280,103)"/>
<path d="M0 0 C1.29567565 2.5913513 1.34250494 4.12295849 1 7 C-1 9.3125 -1 9.3125 -3 11 C-3.66 10.67 -4.32 10.34 -5 10 C-3.66511872 6.40608886 -2.03977277 3.24509304 0 0 Z " fill="#303E42" transform="translate(255,91)"/>
<path d="M0 0 C0.33 1.65 0.66 3.3 1 5 C-2.21956783 6.07318928 -2.90421689 5.870689 -6 5 C-6.99 5 -7.98 5 -9 5 C-2.87096774 0 -2.87096774 0 0 0 Z " fill="#728F62" transform="translate(266,66)"/>
<path d="M0 0 C-1.32 0.33 -2.64 0.66 -4 1 C-4 1.66 -4 2.32 -4 3 C-3.38125 2.79375 -2.7625 2.5875 -2.125 2.375 C-1.073125 2.189375 -1.073125 2.189375 0 2 C0.66 2.66 1.32 3.32 2 4 C0.88625 4.28875 -0.2275 4.5775 -1.375 4.875 C-5.00291092 5.69241329 -5.00291092 5.69241329 -7 8 C-6.4140625 1.84765625 -6.4140625 1.84765625 -6 0 C-3.50907189 -1.24546405 -2.58919267 -0.7767578 0 0 Z " fill="#869B57" transform="translate(42,83)"/>
<path d="M0 0 C1.98 0.495 1.98 0.495 4 1 C4 1.66 4 2.32 4 3 C3.01 3 2.02 3 1 3 C1 7.29 1 11.58 1 16 C0.67 16 0.34 16 0 16 C-0.19504458 13.89651926 -0.38078496 11.79217415 -0.5625 9.6875 C-0.66691406 8.51574219 -0.77132813 7.34398438 -0.87890625 6.13671875 C-1 3 -1 3 0 0 Z " fill="#799246" transform="translate(29,80)"/>
<path d="M0 0 C3.02419525 0.58803797 6.01758453 1.22678118 9 2 C9.33 1.34 9.66 0.68 10 0 C10 0.99 10 1.98 10 3 C9.01 3 8.02 3 7 3 C6.67 3.99 6.34 4.98 6 6 C6 5.01 6 4.02 6 3 C4.576875 3.309375 4.576875 3.309375 3.125 3.625 C2.09375 3.74875 1.0625 3.8725 0 4 C-0.66 3.34 -1.32 2.68 -2 2 C-1.34 2 -0.68 2 0 2 C0 1.34 0 0.68 0 0 Z " fill="#7A9C56" transform="translate(237,74)"/>
<path d="M0 0 C1.36511719 0.43119141 1.36511719 0.43119141 2.7578125 0.87109375 C3.45648438 1.09925781 4.15515625 1.32742187 4.875 1.5625 C4.875 1.8925 4.875 2.2225 4.875 2.5625 C0.585 2.5625 -3.705 2.5625 -8.125 2.5625 C-7.795 1.5725 -7.465 0.5825 -7.125 -0.4375 C-4.30685434 -1.84657283 -2.95222796 -0.94622691 0 0 Z " fill="#C8DCD5" transform="translate(256.125,106.4375)"/>
<path d="M0 0 C2.9719385 1.12451727 5.33440687 2.22293791 8 4 C8 4.66 8 5.32 8 6 C6.35 6.33 4.7 6.66 3 7 C0 2.25 0 2.25 0 0 Z " fill="#7E9835" transform="translate(116,102)"/>
<path d="M0 0 C4.875 0.875 4.875 0.875 6 2 C5.91036938 3.69141656 5.75422324 5.37959602 5.5625 7.0625 C5.46066406 7.98160156 5.35882813 8.90070313 5.25390625 9.84765625 C5.12822266 10.91306641 5.12822266 10.91306641 5 12 C2.953125 8.28125 2.953125 8.28125 3.375 5.75 C3.58125 5.1725 3.7875 4.595 4 4 C1.525 3.01 1.525 3.01 -1 2 C-0.67 1.34 -0.34 0.68 0 0 Z " fill="#718F58" transform="translate(243,62)"/>
<path d="M0 0 C0.66 0.99 1.32 1.98 2 3 C3.32381517 4.67423683 4.65576661 6.34211215 6 8 C5.67 8.66 5.34 9.32 5 10 C2.36 8.35 -0.28 6.7 -3 5 C-2.01 4.67 -1.02 4.34 0 4 C0 2.68 0 1.36 0 0 Z " fill="#9BB89D" transform="translate(247,96)"/>
<path d="M0 0 C0.66 0 1.32 0 2 0 C2.25532751 3.06393013 2.21861333 4.63233212 0.625 7.3125 C-0.179375 8.1478125 -0.179375 8.1478125 -1 9 C-1.66 9 -2.32 9 -3 9 C-2.5020163 5.26512223 -2.12508244 3.18762365 0 0 Z " fill="#535762" transform="translate(273,54)"/>
<path d="M0 0 C0.66 0 1.32 0 2 0 C2 0.99 2 1.98 2 3 C2.66 3.33 3.32 3.66 4 4 C3.34 4 2.68 4 2 4 C1.87625 4.78375 1.7525 5.5675 1.625 6.375 C1 9 1 9 -1 11 C-1.66 10.67 -2.32 10.34 -3 10 C-2.690625 9.278125 -2.38125 8.55625 -2.0625 7.8125 C-1.07439461 5.19692691 -0.4712246 2.74881018 0 0 Z " fill="#52525B" transform="translate(281,35)"/>
<path d="M0 0 C0.99 0.495 0.99 0.495 2 1 C2 1.66 2 2.32 2 3 C2.66 3 3.32 3 4 3 C4 4.65 4 6.3 4 8 C2.68 8 1.36 8 0 8 C0 5.36 0 2.72 0 0 Z " fill="#F4F6FB" transform="translate(274,37)"/>
<path d="M0 0 C0.66 0.33 1.32 0.66 2 1 C1.88623383 3.12563103 1.75864369 5.2505261 1.625 7.375 C1.55539063 8.55835937 1.48578125 9.74171875 1.4140625 10.9609375 C1 14 1 14 -1 16 C-1.99 15.67 -2.98 15.34 -4 15 C-3.34 15 -2.68 15 -2 15 C-2 14.01 -2 13.02 -2 12 C-1.34 12 -0.68 12 0 12 C0 8.04 0 4.08 0 0 Z " fill="#879862" transform="translate(149,97)"/>
<path d="M0 0 C0.33 0.66 0.66 1.32 1 2 C2.32 1.67 3.64 1.34 5 1 C4.625 3.4375 4.625 3.4375 4 6 C3.01 6.495 3.01 6.495 2 7 C1.01 6.34 0.02 5.68 -1 5 C-0.67 3.35 -0.34 1.7 0 0 Z " fill="#829751" transform="translate(104,98)"/>
<path d="M0 0 C2.31 0 4.62 0 7 0 C6.67 0.99 6.34 1.98 6 3 C5.34 3 4.68 3 4 3 C3.67 3.99 3.34 4.98 3 6 C2.34 6.66 1.68 7.32 1 8 C0.67 5.36 0.34 2.72 0 0 Z " fill="#7E974E" transform="translate(101,91)"/>
<path d="M0 0 C1.98 0.495 1.98 0.495 4 1 C3.67 2.98 3.34 4.96 3 7 C1.68 6.34 0.36 5.68 -1 5 C-0.67 3.35 -0.34 1.7 0 0 Z " fill="#DBE0DC" transform="translate(284,81)"/>
<path d="M0 0 C0.66 0 1.32 0 2 0 C2 0.99 2 1.98 2 3 C2.86625 3.37125 2.86625 3.37125 3.75 3.75 C6.3002997 5.16683317 8.01785701 6.87627537 10 9 C7.33289346 8.84759391 5.5494129 8.50635081 3.5546875 6.66796875 C0 2.49375 0 2.49375 0 0 Z " fill="#94A881" transform="translate(270,72)"/>
<path d="M0 0 C0.99 0.33 1.98 0.66 3 1 C2.67 3.64 2.34 6.28 2 9 C1.67 8.01 1.34 7.02 1 6 C0.34 6 -0.32 6 -1 6 C-1.042721 4.33388095 -1.04063832 2.66617115 -1 1 C-0.67 0.67 -0.34 0.34 0 0 Z " fill="#E3E3EF" transform="translate(284,87)"/>
<path d="M0 0 C0 1.65 0 3.3 0 5 C-1.98 5.66 -3.96 6.32 -6 7 C-6 6.01 -6 5.02 -6 4 C-5.34 4 -4.68 4 -4 4 C-4 3.34 -4 2.68 -4 2 C-1 0 -1 0 0 0 Z " fill="#466528" transform="translate(241,31)"/>
<path d="M0 0 C0.33 0.66 0.66 1.32 1 2 C1.99 1.67 2.98 1.34 4 1 C4 1.99 4 2.98 4 4 C1.625 4.625 1.625 4.625 -1 5 C-1.66 4.34 -2.32 3.68 -3 3 C-2.01 2.01 -1.02 1.02 0 0 Z " fill="#D7DFE1" transform="translate(269,113)"/>
<path d="M0 0 C1.32 0 2.64 0 4 0 C4 1.65 4 3.3 4 5 C2.35 4.67 0.7 4.34 -1 4 C-0.67 2.68 -0.34 1.36 0 0 Z " fill="#DCEAE5" transform="translate(256,98)"/>
<path d="M0 0 C0.99 0 1.98 0 3 0 C3.33 1.65 3.66 3.3 4 5 C4.66 5 5.32 5 6 5 C6.33 6.32 6.66 7.64 7 9 C5.68 8.34 4.36 7.68 3 7 C3 6.01 3 5.02 3 4 C2.01 3.67 1.02 3.34 0 3 C0 2.01 0 1.02 0 0 Z " fill="#94B492" transform="translate(237,91)"/>
<path d="M0 0 C0 0.66 0 1.32 0 2 C-2.97 1.505 -2.97 1.505 -6 1 C-6.33 3.97 -6.66 6.94 -7 10 C-7.33 10 -7.66 10 -8 10 C-8.33 7.03 -8.66 4.06 -9 1 C-6.04335481 -0.4783226 -3.25770263 -0.06032783 0 0 Z " fill="#7F9476" transform="translate(242,81)"/>
<path d="M0 0 C0.33 1.32 0.66 2.64 1 4 C2.32 4.33 3.64 4.66 5 5 C4.01 5.33 3.02 5.66 2 6 C2 6.66 2 7.32 2 8 C0.68 7.67 -0.64 7.34 -2 7 C-1.34 4.69 -0.68 2.38 0 0 Z " fill="#A5C796" transform="translate(248,70)"/>
<path d="M0 0 C0.66 0.33 1.32 0.66 2 1 C-0.75 7.875 -0.75 7.875 -3 9 C-4 6 -4 6 -3.1875 3.375 C-2 1 -2 1 0 0 Z " fill="#5E854A" transform="translate(265,71)"/>
<path d="M0 0 C0.33 0.99 0.66 1.98 1 3 C1.99 3.33 2.98 3.66 4 4 C3.34 5.65 2.68 7.3 2 9 C0.68 9 -0.64 9 -2 9 C-1.34 6.03 -0.68 3.06 0 0 Z " fill="#72727B" transform="translate(271,33)"/>
<path d="M0 0 C0.66 0 1.32 0 2 0 C2.04254356 1.99954746 2.04080783 4.00041636 2 6 C1 7 1 7 -1.5625 7.0625 C-2.7690625 7.0315625 -2.7690625 7.0315625 -4 7 C-3.34 5.68 -2.68 4.36 -2 3 C-1.34 3 -0.68 3 0 3 C0 2.01 0 1.02 0 0 Z " fill="#96A884" transform="translate(244,35)"/>
<path d="M0 0 C1.65 0 3.3 0 5 0 C5.33 1.32 5.66 2.64 6 4 C5.34 4 4.68 4 4 4 C4 4.66 4 5.32 4 6 C3.34 6 2.68 6 2 6 C1.34 4.02 0.68 2.04 0 0 Z " fill="#5F7546" transform="translate(233,29)"/>
<path d="M0 0 C0.33 1.32 0.66 2.64 1 4 C-2.08888522 6.05925681 -2.70935927 6.2390374 -6.1875 6.125 C-8.0746875 6.063125 -8.0746875 6.063125 -10 6 C-6.55549263 3.70366176 -4.06187717 3.45983515 0 3 C0 2.01 0 1.02 0 0 Z " fill="#729166" transform="translate(256,84)"/>
<path d="M0 0 C0.33 0 0.66 0 1 0 C1 1.65 1 3.3 1 5 C0.01 5.33 -0.98 5.66 -2 6 C-2 6.99 -2 7.98 -2 9 C-2.99 9 -3.98 9 -5 9 C-5 7.68 -5 6.36 -5 5 C-3.68 5 -2.36 5 -1 5 C-0.67 3.35 -0.34 1.7 0 0 Z " fill="#A2B68C" transform="translate(239,67)"/>
<path d="M0 0 C-4.625 4 -4.625 4 -8 4 C-8 3.34 -8 2.68 -8 2 C-7.34 2 -6.68 2 -6 2 C-6 1.34 -6 0.68 -6 0 C-3 -1 -3 -1 0 0 Z " fill="#7D8F52" transform="translate(139,108)"/>
<path d="M0 0 C1.9375 0.75 1.9375 0.75 4 2 C4.75 4.125 4.75 4.125 5 6 C3.35 5.67 1.7 5.34 0 5 C0 3.35 0 1.7 0 0 Z " fill="#75874E" transform="translate(103,84)"/>
<path d="M0 0 C2.97 0.495 2.97 0.495 6 1 C5.67 1.99 5.34 2.98 5 4 C3.35 4 1.7 4 0 4 C0 2.68 0 1.36 0 0 Z " fill="#E3F6E6" transform="translate(255,65)"/>
<path d="M0 0 C2.64 0 5.28 0 8 0 C7.67 0.99 7.34 1.98 7 3 C4.36 3 1.72 3 -1 3 C-0.67 2.01 -0.34 1.02 0 0 Z " fill="#51673A" transform="translate(243,32)"/>
<path d="M0 0 C0.33 0.99 0.66 1.98 1 3 C1.66 3 2.32 3 3 3 C3.33 4.65 3.66 6.3 4 8 C2.02 8 0.04 8 -2 8 C-1.01 7.34 -0.02 6.68 1 6 C0.67 4.02 0.34 2.04 0 0 Z " fill="#91A346" transform="translate(127,105)"/>
<path d="M0 0 C0.33 0.66 0.66 1.32 1 2 C1.66 2 2.32 2 3 2 C3.66 3.65 4.32 5.3 5 7 C3.125 6.8125 3.125 6.8125 1 6 C-0.25 3.4375 -0.25 3.4375 -1 1 C-0.67 0.67 -0.34 0.34 0 0 Z " fill="#769042" transform="translate(113,100)"/>
<path d="M0 0 C0.66 0.99 1.32 1.98 2 3 C0.7934375 3.433125 0.7934375 3.433125 -0.4375 3.875 C-3.1326468 4.73262568 -3.1326468 4.73262568 -4 7 C-4.99 7 -5.98 7 -7 7 C-5.66667905 3.00003714 -3.5042173 2.16217663 0 0 Z " fill="#87975F" transform="translate(161,81)"/>
<path d="M0 0 C1.32 0.33 2.64 0.66 4 1 C4 1.66 4 2.32 4 3 C3.34 3 2.68 3 2 3 C1.67 3.99 1.34 4.98 1 6 C0.01 5.67 -0.98 5.34 -2 5 C-1.34 3.35 -0.68 1.7 0 0 Z " fill="#E1E8EF" transform="translate(267,57)"/>
<path d="M0 0 C0.99 0.33 1.98 0.66 3 1 C2.979375 1.94875 2.95875 2.8975 2.9375 3.875 C2.77448174 6.90666283 2.77448174 6.90666283 4 9 C3.01 9 2.02 9 1 9 C0.67 6.03 0.34 3.06 0 0 Z " fill="#DAE3E9" transform="translate(237,52)"/>
<path d="M0 0 C1.46726798 3.81489674 0.43336419 6.29011622 -1 10 C-1.66 9.67 -2.32 9.34 -3 9 C-2.67 7.02 -2.34 5.04 -2 3 C-1.34 3 -0.68 3 0 3 C0 2.01 0 1.02 0 0 Z " fill="#22242A" transform="translate(271,39)"/>
<path d="M0 0 C0 3.38023517 -0.87455622 5.83468937 -2 9 C-2.99 8.67 -3.98 8.34 -5 8 C-3.8141763 4.62496331 -2.72426311 2.35277269 0 0 Z " fill="#829959" transform="translate(117,82)"/>
<path d="M0 0 C2.0625 0.1875 2.0625 0.1875 4 1 C4.33 1.99 4.66 2.98 5 4 C4.01 4.33 3.02 4.66 2 5 C1.34 4.34 0.68 3.68 0 3 C-0.66 2.67 -1.32 2.34 -2 2 C-1.34 1.34 -0.68 0.68 0 0 Z " fill="#799040" transform="translate(159,84)"/>
<path d="M0 0 C2.31 0 4.62 0 7 0 C7 0.66 7 1.32 7 2 C4.36 2.33 1.72 2.66 -1 3 C-0.67 2.01 -0.34 1.02 0 0 Z " fill="#54813C" transform="translate(249,78)"/>
<path d="M0 0 C0 0.99 0 1.98 0 3 C-2.31 3 -4.62 3 -7 3 C-7 2.34 -7 1.68 -7 1 C-4 0 -4 0 0 0 Z " fill="#698A43" transform="translate(243,77)"/>
<path d="M0 0 C0.99 0.33 1.98 0.66 3 1 C3 2.65 3 4.3 3 6 C2.34 5.67 1.68 5.34 1 5 C0.01 5.33 -0.98 5.66 -2 6 C-1.34 4.02 -0.68 2.04 0 0 Z " fill="#CECCD9" transform="translate(282,42)"/>
<path d="M0 0 C1.98 0 3.96 0 6 0 C5.34 1.32 4.68 2.64 4 4 C2.68 4 1.36 4 0 4 C0 2.68 0 1.36 0 0 Z " fill="#ECF6E5" transform="translate(246,35)"/>
<path d="M0 0 C1.33333333 2.66666667 2.66666667 5.33333333 4 8 C2.0625 7.3125 2.0625 7.3125 0 6 C-0.8125 3.4375 -0.8125 3.4375 -1 1 C-0.67 0.67 -0.34 0.34 0 0 Z " fill="#758F44" transform="translate(161,101)"/>
<path d="M0 0 C2 3.75 2 3.75 2 6 C1.34 6 0.68 6 0 6 C-0.33 7.32 -0.66 8.64 -1 10 C-1.02689216 8.52093108 -1.04634621 7.04172517 -1.0625 5.5625 C-1.07410156 4.73878906 -1.08570312 3.91507812 -1.09765625 3.06640625 C-1 1 -1 1 0 0 Z " fill="#6E8C36" transform="translate(113,89)"/>
<path d="M0 0 C0.33 0 0.66 0 1 0 C1 2.97 1 5.94 1 9 C0.01 8.67 -0.98 8.34 -2 8 C-1.34 5.36 -0.68 2.72 0 0 Z " fill="#758746" transform="translate(117,89)"/>
<path d="M0 0 C0.66 0.33 1.32 0.66 2 1 C0.68 3.31 -0.64 5.62 -2 8 C-2.33 8 -2.66 8 -3 8 C-3.1875 5.125 -3.1875 5.125 -3 2 C-2.01 1.34 -1.02 0.68 0 0 Z " fill="#9EB1A8" transform="translate(255,88)"/>
<path d="M0 0 C0.66 1.32 1.32 2.64 2 4 C1.34 4 0.68 4 0 4 C0 5.98 0 7.96 0 10 C-0.33 10 -0.66 10 -1 10 C-1.33 7.03 -1.66 4.06 -2 1 C-1.34 0.67 -0.68 0.34 0 0 Z " fill="#1C1D1E" transform="translate(233,89)"/>
<path d="M0 0 C1.65 0 3.3 0 5 0 C4.67 0.99 4.34 1.98 4 3 C1.9375 3.6875 1.9375 3.6875 0 4 C-0.33 3.34 -0.66 2.68 -1 2 C-0.67 1.34 -0.34 0.68 0 0 Z " fill="#96B27C" transform="translate(273,85)"/>
<path d="M0 0 C2.3431213 0.25561323 4.67843403 0.59270772 7 1 C7.33 1.66 7.66 2.32 8 3 C5.69 3 3.38 3 1 3 C0.67 2.01 0.34 1.02 0 0 Z " fill="#7F9F43" transform="translate(92,81)"/>
<path d="M0 0 C0.33 1.32 0.66 2.64 1 4 C-1.31 3.67 -3.62 3.34 -6 3 C-6 2.34 -6 1.68 -6 1 C-4.02 0.67 -2.04 0.34 0 0 Z " fill="#869370" transform="translate(239,26)"/>
<path d="" fill="#FFFFFF" transform="translate(0,0)"/>
<path d="" fill="#FFFFFF" transform="translate(0,0)"/>
<path d="" fill="#FFFFFF" transform="translate(0,0)"/>
<path d="" fill="#FFFFFF" transform="translate(0,0)"/>
<path d="" fill="#FFFFFF" transform="translate(0,0)"/>
<path d="" fill="#FFFFFF" transform="translate(0,0)"/>
<path d="" fill="#FFFFFF" transform="translate(0,0)"/>
<path d="" fill="#FFFFFF" transform="translate(0,0)"/>
<path d="" fill="#FFFFFF" transform="translate(0,0)"/>
<path d="" fill="#FFFFFF" transform="translate(0,0)"/>
<path d="" fill="#FFFFFF" transform="translate(0,0)"/>
<path d="" fill="#FFFFFF" transform="translate(0,0)"/>
<path d="" fill="#FFFFFF" transform="translate(0,0)"/>
<path d="" fill="#FFFFFF" transform="translate(0,0)"/>
<path d="" fill="#FFFFFF" transform="translate(0,0)"/>
<path d="" fill="#FFFFFF" transform="translate(0,0)"/>
<path d="" fill="#FFFFFF" transform="translate(0,0)"/>
<path d="" fill="#FFFFFF" transform="translate(0,0)"/>
<path d="" fill="#FFFFFF" transform="translate(0,0)"/>
<path d="" fill="#FFFFFF" transform="translate(0,0)"/>
<path d="" fill="#FFFFFF" transform="translate(0,0)"/>
<path d="" fill="#FFFFFF" transform="translate(0,0)"/>
<path d="" fill="#FFFFFF" transform="translate(0,0)"/>
<path d="" fill="#FFFFFF" transform="translate(0,0)"/>
<path d="" fill="#00FFFF" transform="translate(0,0)"/>
<path d="" fill="#FFFFFF" transform="translate(0,0)"/>
<path d="" fill="#FFFFFF" transform="translate(0,0)"/>
<path d="" fill="#FFFFFF" transform="translate(0,0)"/>
<path d="" fill="#FFFFFF" transform="translate(0,0)"/>
<path d="" fill="#FFFFFF" transform="translate(0,0)"/>
<path d="" fill="#FFFFFF" transform="translate(0,0)"/>
<path d="" fill="#FFFFFF" transform="translate(0,0)"/>
<path d="" fill="#FFFFFF" transform="translate(0,0)"/>
<path d="" fill="#FFFFFF" transform="translate(0,0)"/>
<path d="" fill="#FFFFFF" transform="translate(0,0)"/>
<path d="" fill="#FFFFFF" transform="translate(0,0)"/>
<path d="" fill="#FFFFFF" transform="translate(0,0)"/>
<path d="" fill="#FFFFFF" transform="translate(0,0)"/>
<path d="" fill="#FFFFFF" transform="translate(0,0)"/>
<path d="" fill="#FFFFFF" transform="translate(0,0)"/>
<path d="" fill="#FFFFFF" transform="translate(0,0)"/>
<path d="" fill="#FFFFFF" transform="translate(0,0)"/>
<path d="" fill="#FFFFFF" transform="translate(0,0)"/>
<path d="" fill="#FFFFFF" transform="translate(0,0)"/>
<path d="" fill="#FFFFFF" transform="translate(0,0)"/>
<path d="" fill="#FFFFFF" transform="translate(0,0)"/>
<path d="" fill="#FFFFFF" transform="translate(0,0)"/>
<path d="" fill="#FFFFFF" transform="translate(0,0)"/>
<path d="" fill="#FFFFFF" transform="translate(0,0)"/>
<path d="" fill="#FFFFFF" transform="translate(0,0)"/>
<path d="" fill="#FFFFFF" transform="translate(0,0)"/>
<path d="" fill="#FFFFFF" transform="translate(0,0)"/>
<path d="" fill="#FFFFFF" transform="translate(0,0)"/>
<path d="" fill="#FFFFFF" transform="translate(0,0)"/>
<path d="" fill="#FFFFFF" transform="translate(0,0)"/>
<path d="" fill="#FFFFFF" transform="translate(0,0)"/>
<path d="" fill="#FFFFFF" transform="translate(0,0)"/>
<path d="" fill="#FFFFFF" transform="translate(0,0)"/>
<path d="" fill="#FFFFFF" transform="translate(0,0)"/>
<path d="" fill="#FFFFFF" transform="translate(0,0)"/>
<path d="" fill="#FFFFFF" transform="translate(0,0)"/>
<path d="" fill="#FFFFFF" transform="translate(0,0)"/>
<path d="" fill="#FFFFFF" transform="translate(0,0)"/>
<path d="" fill="#FFFFFF" transform="translate(0,0)"/>
<path d="" fill="#FFFFFF" transform="translate(0,0)"/>
<path d="" fill="#FFFFFF" transform="translate(0,0)"/>
<path d="" fill="#FFFFFF" transform="translate(0,0)"/>
<path d="" fill="#FFFFFF" transform="translate(0,0)"/>
<path d="" fill="#FFFFFF" transform="translate(0,0)"/>
<path d="" fill="#FFFFFF" transform="translate(0,0)"/>
<path d="" fill="#FFFFFF" transform="translate(0,0)"/>
<path d="" fill="#FFFFFF" transform="translate(0,0)"/>
<path d="" fill="#FFFFFF" transform="translate(0,0)"/>
<path d="" fill="#FFFFFF" transform="translate(0,0)"/>
<path d="" fill="#FFFFFF" transform="translate(0,0)"/>
<path d="" fill="#FFFFFF" transform="translate(0,0)"/>
<path d="" fill="#FFFFFF" transform="translate(0,0)"/>
<path d="" fill="#FFFFFF" transform="translate(0,0)"/>
<path d="" fill="#FFFFFF" transform="translate(0,0)"/>
<path d="" fill="#FFFFFF" transform="translate(0,0)"/>
</svg>
