<?xml version="1.0" encoding="UTF-8"?>
<svg version="1.1" xmlns="http://www.w3.org/2000/svg" width="512" height="512">
<path d="M0 0 C0.77778809 -0.00067474 1.55557617 -0.00134949 2.35693359 -0.00204468 C14.50594866 0.01466928 26.23396111 0.55601792 38.125 3.25 C38.91712891 3.42692383 39.70925781 3.60384766 40.52539062 3.78613281 C57.76116066 7.74940162 73.53029025 13.97886146 89.125 22.25 C90.27484375 22.84296875 91.4246875 23.4359375 92.609375 24.046875 C110.69062003 33.79574905 128.27338872 48.17094788 141.125 64.25 C141.88039063 65.17941406 142.63578125 66.10882813 143.4140625 67.06640625 C175.62499196 107.36325893 188.10491286 155.92499253 183.81152344 206.97753906 C183.02744964 213.84169408 181.77004217 220.5425139 180.125 227.25 C179.91601074 228.10609863 179.70702148 228.96219727 179.49169922 229.84423828 C172.05507176 259.11725499 157.54994845 286.79956353 136.59765625 308.63671875 C134.8170001 310.51864444 133.16028342 312.38462105 131.5234375 314.3828125 C128.37485121 318.14675768 124.90081215 321.13241184 121.125 324.25 C119.64193359 325.48943359 119.64193359 325.48943359 118.12890625 326.75390625 C96.43775089 344.54123199 71.06434462 357.0806296 43.9375 364.0625 C42.81843262 364.35483521 42.81843262 364.35483521 41.67675781 364.65307617 C28.25662871 367.91048663 14.68783111 368.63142539 0.9375 368.5625 C0.17630859 368.56067719 -0.58488281 368.55885437 -1.36914062 368.55697632 C-51.57306091 368.35545169 -96.66428474 348.44875377 -132.25 313.25 C-158.51602845 286.72120063 -175.11416085 252.84636007 -181.875 216.25 C-182.06118896 215.28908447 -182.24737793 214.32816895 -182.43920898 213.33813477 C-184.09499905 203.9430538 -184.23248941 194.69554201 -184.1875 185.1875 C-184.18534485 184.36885468 -184.1831897 183.55020935 -184.18096924 182.70675659 C-184.12870392 170.33241275 -183.68372626 158.34932583 -180.875 146.25 C-180.68695801 145.40614746 -180.49891602 144.56229492 -180.30517578 143.69287109 C-172.57541455 109.92666671 -155.9966933 78.33455917 -130.875 54.25 C-130.0809375 53.45464844 -129.286875 52.65929687 -128.46875 51.83984375 C-101.25003946 24.66212525 -65.08573282 6.3693716 -26.875 1.25 C-25.77430176 1.09966309 -25.77430176 1.09966309 -24.65136719 0.94628906 C-16.46578042 -0.0221951 -8.23121275 0.00642927 0 0 Z M-78.875 36.25 C-79.844375 36.74113281 -80.81375 37.23226562 -81.8125 37.73828125 C-93.20962324 43.61906432 -103.2293393 51.31519031 -112.546875 60.07421875 C-114.36068315 61.76933811 -116.1772971 63.34246535 -118.125 64.875 C-143.4509843 86.74744098 -157.99531497 120.24045402 -164.875 152.25 C-165.11089844 153.33023438 -165.34679687 154.41046875 -165.58984375 155.5234375 C-173.23533138 197.15507085 -163.37072244 243.02130976 -139.375 277.875 C-124.01583496 299.44041048 -105.29883707 317.65081491 -81.875 330.25 C-80.85239953 320.97510816 -80.57324551 311.70598041 -80.33984375 302.38671875 C-80.29662935 300.74794503 -80.25321367 299.10917661 -80.20960999 297.47041321 C-80.11909106 294.03705338 -80.03116158 290.60363958 -79.94506836 287.17016602 C-79.83693564 282.86650363 -79.72216946 278.56304953 -79.60550499 274.25961113 C-79.04853924 253.58453121 -78.73013478 232.93303943 -78.875 212.25 C-79.49024536 211.91095139 -80.10549072 211.57190277 -80.73937988 211.22257996 C-81.95216614 210.55202324 -81.95216614 210.55202324 -83.18945312 209.86791992 C-83.99032349 209.42574631 -84.79119385 208.98357269 -85.61633301 208.52799988 C-97.3455259 201.89138318 -106.14818241 193.30362703 -112.25 181.3125 C-112.57186279 180.68085938 -112.89372559 180.04921875 -113.2253418 179.3984375 C-117.66859618 170.12882877 -119.40073938 161.05158023 -119.25 150.8125 C-119.23912354 149.8026001 -119.22824707 148.7927002 -119.21704102 147.75219727 C-118.84166332 130.19726976 -112.14469873 114.63296747 -99.75 102.1015625 C-95.43881432 98.07479532 -91.06925479 94.94813059 -85.8203125 92.2578125 C-83.64524815 91.1761178 -83.64524815 91.1761178 -80.875 89.25 C-78.9375 88.984375 -78.9375 88.984375 -76.875 89 C-76.194375 88.99484375 -75.51375 88.9896875 -74.8125 88.984375 C-72.875 89.25 -72.875 89.25 -69.875 91.25 C-68.93202923 94.0789123 -68.78439188 95.59697636 -68.87597656 98.50268555 C-68.90899872 99.78498299 -68.90899872 99.78498299 -68.94268799 101.09318542 C-68.9667572 102.01505142 -68.99082642 102.93691742 -69.015625 103.88671875 C-69.047071 106.86969345 -69.06698589 109.85261815 -69.08642578 112.83569336 C-69.11203535 114.89499436 -69.15906309 116.95414595 -69.22802734 119.01245117 C-70.06928944 129.98638004 -70.06928944 129.98638004 -66.60327148 139.98052979 C-62.239812 143.91597572 -56.62858179 146.2122722 -50.875 147.25 C-45.1174797 145.52441096 -39.67943247 143.06200339 -35.875 138.25 C-33.31630293 131.22109197 -34.23451879 123.27805976 -34.5625 115.9375 C-34.62818879 112.90065693 -34.67302803 109.86414315 -34.71260071 106.82685852 C-34.74473215 104.94439908 -34.79619369 103.06214534 -34.86930847 101.18083191 C-34.912127 99.9034893 -34.912127 99.9034893 -34.95581055 98.6003418 C-34.98772995 97.85471481 -35.01964935 97.10908783 -35.05253601 96.34086609 C-34.84324139 93.87597452 -34.18204776 92.33974137 -32.875 90.25 C-29.45894092 88.54197046 -26.53011022 88.48406011 -22.875 89.25 C-6.21224575 97.23114089 4.69551187 109.83062651 11.86328125 126.66015625 C18.15859564 144.57159256 16.64113714 164.32426891 8.5625 181.3125 C1.18520272 195.84281377 -10.4497819 205.14526649 -24.875 212.25 C-25.22415451 239.63848523 -24.28624019 267.00132004 -23.48431396 294.37463379 C-23.30020529 300.69107251 -23.12103929 307.00765145 -22.94140625 313.32421875 C-22.59066228 325.63295124 -22.2346079 337.9415235 -21.875 350.25 C-10.34661801 353.34786523 2.42940561 352.37951203 14.1875 351.4375 C15.22092529 351.3552417 16.25435059 351.2729834 17.3190918 351.18823242 C23.69413454 350.61933502 29.87955394 349.64813121 36.125 348.25 C36.37407104 346.76173706 36.37407104 346.76173706 36.62817383 345.2434082 C37.25601596 341.49842565 37.88912442 337.75434811 38.52368164 334.01049805 C38.79558629 332.40200959 39.06613575 330.79329135 39.33520508 329.18432617 C39.72625483 326.8474944 40.12141702 324.51141955 40.51953125 322.17578125 C40.64965607 321.41153839 40.77978088 320.64729553 40.91384888 319.8598938 C41.91069069 314.14913527 43.18924521 308.54290386 44.6784668 302.93823242 C45.17082651 299.9741139 45.05928192 298.09996244 44.125 295.25 C43.61614258 294.80011719 43.10728516 294.35023438 42.58300781 293.88671875 C40.2088309 291.22153422 40.77196723 288.54271682 40.796875 285.0625 C40.79874817 284.36358643 40.80062134 283.66467285 40.80255127 282.94458008 C40.80926654 281.46853863 40.82317082 279.99251482 40.84375 278.51660156 C40.87488563 276.25829507 40.88472043 274.00068732 40.890625 271.7421875 C40.96093305 260.74220084 40.96093305 260.74220084 42.125 257.25 C46.745 256.92 51.365 256.59 56.125 256.25 C56.37622547 246.99892935 56.57682995 237.75022086 56.69493389 228.49647427 C56.7516965 224.19677279 56.82830183 219.89957736 56.95483398 215.60131836 C57.50457871 196.43870713 57.82032629 180.71924606 47.50708008 163.80883789 C42.83953501 155.79657685 45.38564978 147.81988802 47.4609375 139.265625 C47.70035065 138.24700378 47.93976379 137.22838257 48.18643188 136.17889404 C48.69119534 134.03985868 49.20074335 131.90194724 49.71484375 129.76513672 C50.50042297 126.49824105 51.2709629 123.22807608 52.0390625 119.95703125 C52.53298208 117.87218903 53.02774463 115.78754631 53.5234375 113.703125 C53.7537265 112.72909729 53.9840155 111.75506958 54.22128296 110.75152588 C54.55139877 109.38420319 54.55139877 109.38420319 54.88818359 107.98925781 C55.07915619 107.19255676 55.27012878 106.39585571 55.46688843 105.57501221 C56.18758626 103.02889188 57.01409351 100.65302169 58.125 98.25 C62.62392007 96.00053997 68.77702437 97.02278073 73.78295898 97.00976562 C76.05033949 97.0000521 78.31681639 96.96902607 80.58398438 96.9375 C82.02343211 96.93097058 83.46288634 96.92571986 84.90234375 96.921875 C86.21452881 96.9125293 87.52671387 96.90318359 88.87866211 96.89355469 C92.125 97.25 92.125 97.25 93.97338867 98.40405273 C95.53264782 100.90342912 96.10736826 103.24219527 96.7734375 106.11328125 C97.19484009 107.89351685 97.19484009 107.89351685 97.62475586 109.7097168 C97.91358643 110.98113525 98.20241699 112.25255371 98.5 113.5625 C98.80465149 114.87493447 99.11007778 116.18718932 99.41625977 117.49926758 C100.03304426 120.14960221 100.64337022 122.80131392 101.24951172 125.45410156 C102.03953156 128.8794302 102.85782628 132.2960006 103.69140625 135.7109375 C104.14889854 137.61968122 104.60595933 139.52852844 105.0625 141.4375 C105.37936768 142.71524292 105.37936768 142.71524292 105.70263672 144.01879883 C108.86765633 157.57567765 108.86765633 157.57567765 106.10151672 163.40797424 C105.16570133 164.83065287 104.21307584 166.24236865 103.24690247 167.64460754 C92.90974425 182.93731212 94.85336921 200.36240905 95.36968994 217.99554443 C95.4839267 222.31998687 95.53281247 226.64517447 95.58789062 230.97070312 C95.7045037 239.39936119 95.89729419 247.82361114 96.125 256.25 C100.745 256.58 105.365 256.91 110.125 257.25 C111.90256553 262.58269658 111.39027221 268.34320664 111.42016602 273.9284668 C111.431709 275.43279407 111.45219764 276.93707966 111.48168945 278.44116211 C111.52433344 280.61600539 111.54052698 282.78963452 111.55078125 284.96484375 C111.57265503 286.91571899 111.57265503 286.91571899 111.5949707 288.90600586 C111.04250946 292.83694694 109.97159782 293.65655881 107.125 296.25 C107.27780182 301.06325731 108.07035313 304.86675335 110.125 309.25 C131.23091313 300.43546551 147.79551554 266.07960901 156.25 246.25 C161.75391648 231.94883998 165.77051276 216.53139451 167.125 201.25 C167.18526367 200.57195312 167.24552734 199.89390625 167.30761719 199.1953125 C171.26941603 152.07296436 155.58806549 109.63214925 126.125 73.25 C125.25681641 72.16332031 125.25681641 72.16332031 124.37109375 71.0546875 C121.29996083 67.32246603 117.91306121 64.16474985 114.22265625 61.046875 C112.86579682 59.88457456 111.53729649 58.68795507 110.24609375 57.453125 C80.76763509 29.53223656 37.64985631 15.50323968 -2.42333984 15.96240234 C-29.49506815 16.73061257 -55.07079604 23.36491192 -78.875 36.25 Z M71.125 112.25 C69.53314626 116.80911525 68.27382396 121.40660992 67.14453125 126.09765625 C66.87886604 127.19913246 66.87886604 127.19913246 66.60783386 128.32286072 C66.23734992 129.86630278 65.86850457 131.41013901 65.5012207 132.9543457 C64.93783319 135.3111062 64.36056522 137.66420802 63.78320312 140.01757812 C63.42361331 141.52323097 63.06486055 143.02908403 62.70703125 144.53515625 C62.53315384 145.23423599 62.35927643 145.93331573 62.18013 146.65357971 C61.27494795 150.54398645 60.77529627 153.46079291 62.125 157.25 C63.1293811 158.83228394 63.1293811 158.83228394 64.15405273 160.4465332 C74.48671102 176.72468177 72.37108692 196.11169434 72.20654297 214.6395874 C72.17455227 219.33986111 72.19415684 224.0399165 72.20898438 228.74023438 C72.23052776 237.91064232 72.1962309 247.07987499 72.125 256.25 C74.765 256.25 77.405 256.25 80.125 256.25 C80.11532196 255.29216614 80.10564392 254.33433228 80.09567261 253.34747314 C80.01022229 244.2294468 79.9789696 235.11255168 79.99802971 225.99412918 C80.00615677 221.30830181 79.99653403 216.62404105 79.94335938 211.93847656 C79.5365498 174.13109214 79.5365498 174.13109214 87.80075073 162.22686768 C90.68551234 158.06708572 91.43451447 155.81428059 90.53100586 150.72973633 C90.08643442 148.89714348 89.61915525 147.06984914 89.125 145.25 C88.83289046 143.8973547 88.54741275 142.54324481 88.27124023 141.18725586 C87.85660522 139.34466187 87.85660522 139.34466187 87.43359375 137.46484375 C87.283423 136.79707413 87.13325226 136.1293045 86.97853088 135.44129944 C86.66626667 134.05574323 86.35286798 132.67044221 86.03833008 131.28540039 C85.55637196 129.16048193 85.07976404 127.03440772 84.60351562 124.90820312 C84.29719121 123.55201187 83.99056216 122.19588938 83.68359375 120.83984375 C83.40829834 119.62159912 83.13300293 118.40335449 82.84936523 117.14819336 C82.25729735 114.33377095 82.25729735 114.33377095 81.125 112.25 C77.825 112.25 74.525 112.25 71.125 112.25 Z M-90.875 116.25 C-100.13753619 128.30477683 -105.10445389 142.18792826 -103.25 157.4375 C-100.88031759 170.82620563 -94.61847974 182.04432743 -84.0078125 190.76171875 C-80.19945555 193.4191986 -76.08811811 195.3264753 -71.875 197.25 C-64.06730769 201.05769231 -64.06730769 201.05769231 -62.875 202.25 C-62.58673011 207.15494853 -62.68301314 212.08701776 -62.6875 217 C-62.6867749 217.80379089 -62.6860498 218.60758179 -62.68530273 219.43572998 C-62.6875105 242.46105916 -63.43322815 265.48213508 -64.09183216 288.49609375 C-64.20847033 292.57287723 -64.32356217 296.64970269 -64.4375 300.7265625 C-64.47024552 301.89603172 -64.47024552 301.89603172 -64.50365257 303.08912659 C-64.83680224 315.14488699 -65.00428116 327.1891454 -64.875 339.25 C-61.48083457 340.4008153 -58.08439392 341.5447661 -54.6875 342.6875 C-53.72779297 343.01298828 -52.76808594 343.33847656 -51.77929688 343.67382812 C-50.84794922 343.98642578 -49.91660156 344.29902344 -48.95703125 344.62109375 C-48.10343018 344.90911865 -47.2498291 345.19714355 -46.37036133 345.49389648 C-43.88595431 346.2466808 -41.42197486 346.75806026 -38.875 347.25 C-38.74976883 331.76432327 -38.88601193 316.30338748 -39.3125 300.82421875 C-39.33447449 300.02120457 -39.35644897 299.21819038 -39.37908936 298.39084244 C-39.58482217 290.92007676 -39.80122978 283.44962687 -40.02050781 275.97924805 C-40.30849301 266.10599363 -40.56350056 256.23274602 -40.76660156 246.35736084 C-40.83918776 242.82974622 -40.92355929 239.3026355 -41.01464844 235.77545166 C-41.12939815 231.22790913 -41.21126914 226.68076685 -41.27096558 222.13218117 C-41.2984445 220.40366788 -41.33630829 218.67528552 -41.38504028 216.94724083 C-41.45044592 214.55648243 -41.47792227 212.16813023 -41.49609375 209.77661133 C-41.53777176 208.71710864 -41.53777176 208.71710864 -41.58029175 207.63620186 C-41.57202148 205.65437317 -41.57202148 205.65437317 -40.875 202.25 C-37.51149854 199.44395973 -34.2542155 197.85792993 -30.125 196.5 C-17.70936877 191.70177861 -9.39265296 181.35319484 -3.87109375 169.5859375 C1.33071426 157.38718774 0.99853193 144.51056084 -3.5625 132.125 C-6.92628324 124.44352485 -10.9827864 117.19766585 -17.875 112.25 C-18.205 112.25 -18.535 112.25 -18.875 112.25 C-18.87910889 113.28930664 -18.88321777 114.32861328 -18.88745117 115.39941406 C-18.90924974 119.26140705 -18.96354527 123.12238221 -19.02758789 126.98388672 C-19.05076188 128.65403476 -19.06516225 130.32432881 -19.07055664 131.99462891 C-19.07985136 134.39838579 -19.1208466 136.79984841 -19.16796875 139.203125 C-19.1640361 139.94806213 -19.16010345 140.69299927 -19.15605164 141.46051025 C-19.25891735 145.12844703 -19.50741528 146.86848916 -22.09179688 149.55078125 C-23.01025391 150.11152344 -23.92871094 150.67226562 -24.875 151.25 C-25.71716064 151.79366211 -26.55932129 152.33732422 -27.42700195 152.89746094 C-30.33697328 154.61652061 -33.25826125 156.3139739 -36.1875 158 C-37.19490234 158.60199219 -38.20230469 159.20398438 -39.24023438 159.82421875 C-48.83345412 165.33641407 -48.83345412 165.33641407 -53.70141602 164.89404297 C-59.0943013 163.29610616 -63.86998265 160.27215514 -68.6875 157.4375 C-69.81865234 156.79490234 -70.94980469 156.15230469 -72.11523438 155.49023438 C-82.27823379 149.64908224 -82.27823379 149.64908224 -83.875 147.25 C-84.20598913 144.52975904 -84.36350826 142.02540705 -84.38671875 139.30078125 C-84.41364555 138.14185616 -84.41364555 138.14185616 -84.44111633 136.95951843 C-84.49526104 134.493901 -84.52912731 132.02847757 -84.5625 129.5625 C-84.59566952 127.88994694 -84.63015885 126.21741949 -84.66601562 124.54492188 C-84.75098949 120.4467545 -84.8177802 116.34864506 -84.875 112.25 C-87.17570968 112.25 -89.28031593 114.85904209 -90.875 116.25 Z M56.125 272.25 C56.125 274.89 56.125 277.53 56.125 280.25 C69.325 280.25 82.525 280.25 96.125 280.25 C96.125 277.61 96.125 274.97 96.125 272.25 C82.925 272.25 69.725 272.25 56.125 272.25 Z M63.125 296.25 C60.37600915 305.45314328 58.08520551 314.58691308 56.25976562 324.01367188 C55.86693329 326.0416439 55.46537546 328.06775129 55.0625 330.09375 C53.70007987 336.1265704 53.70007987 336.1265704 53.125 342.25 C58.75652844 341.65768714 63.40129271 339.6276495 68.5 337.3125 C69.37108398 336.92006104 70.24216797 336.52762207 71.13964844 336.12329102 C79.60194464 332.20735959 87.38613113 327.42726004 95.125 322.25 C94.5064845 319.04038175 93.87902356 315.83257402 93.25 312.625 C93.07597656 311.72136719 92.90195312 310.81773437 92.72265625 309.88671875 C92.54863281 309.00371094 92.37460937 308.12070312 92.1953125 307.2109375 C92.03820801 306.40446777 91.88110352 305.59799805 91.71923828 304.76708984 C91.03733909 301.87868365 90.0635029 299.06550869 89.125 296.25 C80.545 296.25 71.965 296.25 63.125 296.25 Z " fill="#000000" transform="translate(255.875,71.75)"/>
<path d="M0 0 C1.62494385 -0.00574036 1.62494385 -0.00574036 3.28271484 -0.01159668 C5.56543918 -0.0143099 7.84819492 -0.00699024 10.13085938 0.00976562 C13.61399004 0.0311823 17.09505807 0.0099424 20.578125 -0.015625 C22.80208786 -0.01298162 25.02604944 -0.00785644 27.25 0 C28.28560059 -0.00809692 29.32120117 -0.01619385 30.38818359 -0.02453613 C36.68401724 0.05663852 40.49213673 0.81167261 45.625 4.53125 C50.2539595 9.5686471 50.2727719 14.39153229 50.375 20.90625 C50.41947266 22.29650391 50.41947266 22.29650391 50.46484375 23.71484375 C50.53511861 25.98706435 50.58802048 28.25828459 50.625 30.53125 C51.55058716 30.70346069 51.55058716 30.70346069 52.49487305 30.87915039 C67.32688999 33.68491129 81.42902817 37.39999768 95.625 42.53125 C95.88539063 41.64824219 96.14578125 40.76523437 96.4140625 39.85546875 C97.60881047 36.57569288 98.98685384 34.17885758 101 31.34375 C101.58523438 30.50457031 102.17046875 29.66539063 102.7734375 28.80078125 C105.86424448 25.01226046 108.73573927 23.09176658 113.578125 22.15234375 C121.618477 21.50966255 127.46626943 25.07675319 134.14746094 29.05761719 C137.08656425 30.80578704 140.04775391 32.51412473 143.0078125 34.2265625 C145.277346 35.55506593 147.54557117 36.88580689 149.8125 38.21875 C150.91215088 38.86013916 152.01180176 39.50152832 153.14477539 40.16235352 C154.1836792 40.78295654 155.22258301 41.40355957 156.29296875 42.04296875 C157.22391357 42.59428467 158.1548584 43.14560059 159.11401367 43.71362305 C163.28620589 46.73374663 166.36782878 50.50256512 167.625 55.53125 C167.92499014 63.91430779 164.1636382 70.7232927 159.625 77.53125 C159.82409317 80.17561573 160.24033769 81.19732253 162.25390625 82.9453125 C162.89199219 83.34492187 163.53007812 83.74453125 164.1875 84.15625 C166.12890625 85.3828125 166.12890625 85.3828125 167.625 86.53125 C167.625 87.19125 167.625 87.85125 167.625 88.53125 C168.17542969 88.75683594 168.72585938 88.98242188 169.29296875 89.21484375 C177.43507181 93.81097228 184.2250003 103.06708659 189.625 110.53125 C193.2730082 109.83473292 196.17544819 108.27324429 199.4375 106.53125 C206.77764867 102.84340291 211.56695611 101.86011387 219.4140625 104.25390625 C226.52852462 108.36420504 230.16831629 117.35054363 234.0625 124.21875 C234.70509766 125.33958984 235.34769531 126.46042969 236.00976562 127.61523438 C237.28236902 129.84132132 238.54811662 132.07134297 239.80664062 134.30541992 C240.99550393 136.414503 242.19685583 138.51660759 243.41210938 140.6105957 C243.95544922 141.56409912 244.49878906 142.51760254 245.05859375 143.5 C245.78067017 144.75006836 245.78067017 144.75006836 246.51733398 146.02539062 C248.48637142 150.4799201 248.48288285 154.79391464 247.625 159.53125 C245.02304398 165.5270617 240.02823424 168.26036356 234.625 171.53125 C233.1709375 172.459375 233.1709375 172.459375 231.6875 173.40625 C229.625 174.53125 229.625 174.53125 227.625 174.53125 C228.00011719 175.57539063 228.37523437 176.61953125 228.76171875 177.6953125 C233.56360033 191.39131957 236.79947325 205.30927481 239.625 219.53125 C241.56052734 219.56992187 241.56052734 219.56992187 243.53515625 219.609375 C245.25263661 219.66568583 246.97008322 219.72303248 248.6875 219.78125 C249.53505859 219.79542969 250.38261719 219.80960938 251.25585938 219.82421875 C257.17894993 220.05290951 260.83180356 220.96477675 265.625 224.53125 C270.51632182 229.98531958 270.20908561 235.18392943 270.15625 242.28125 C270.1600769 243.41272461 270.16390381 244.54419922 270.16784668 245.70996094 C270.17056298 248.09701428 270.16322167 250.48409754 270.14648438 252.87109375 C270.12507246 256.51890606 270.14629746 260.16474875 270.171875 263.8125 C270.16923168 266.135421 270.16410661 268.45834078 270.15625 270.78125 C270.16434692 271.86889648 270.17244385 272.95654297 270.18078613 274.07714844 C270.10509391 280.20797686 269.73180255 283.86947413 265.625 288.53125 C262.03009626 291.69040784 258.89799348 292.62580735 254.17578125 292.84765625 C253.32822266 292.88955078 252.48066406 292.93144531 251.60742188 292.97460938 C250.72634766 293.01392578 249.84527344 293.05324219 248.9375 293.09375 C248.04482422 293.13693359 247.15214844 293.18011719 246.23242188 293.22460938 C244.03009892 293.33060353 241.82766527 293.43267051 239.625 293.53125 C239.45278931 294.40354248 239.45278931 294.40354248 239.27709961 295.29345703 C236.32071144 310.05662257 232.4765937 324.2792992 227.625 338.53125 C228.34558594 338.80324219 229.06617188 339.07523437 229.80859375 339.35546875 C237.15842336 342.42384422 243.95986173 346.20097345 247.625 353.53125 C248.7204296 362.12073443 246.66849646 367.80082123 242.3125 375.09375 C241.77359131 376.03395996 241.23468262 376.97416992 240.67944336 377.94287109 C239.01888692 380.82065154 237.32441772 383.67628762 235.625 386.53125 C234.60092367 388.29259748 233.57745948 390.05430105 232.5546875 391.81640625 C231.60170443 393.43131117 230.6461067 395.04467691 229.6875 396.65625 C229.25203857 397.39560791 228.81657715 398.13496582 228.36791992 398.89672852 C224.93521695 404.51717761 221.16030763 408.66401925 214.625 410.53125 C209.00121708 410.98907923 205.27058541 409.78699607 200.4375 407.09375 C195.26577304 404.21363324 195.26577304 404.21363324 189.625 402.53125 C189.10292969 403.19769531 188.58085937 403.86414063 188.04296875 404.55078125 C179.61689062 415.10182479 170.40988031 424.36655753 159.625 432.53125 C160.19984409 436.5407875 161.45871774 439.25060433 163.625 442.65625 C166.88402412 447.81114872 168.13271975 451.33706906 167.625 457.53125 C164.33842177 468.3748648 153.56250964 472.91060035 144.3125 478.03125 C143.34376953 478.57394531 142.37503906 479.11664063 141.37695312 479.67578125 C139.43435463 480.76177027 137.48856713 481.84207553 135.53955078 482.91650391 C133.56063278 484.01288216 131.59044818 485.12514377 129.62841797 486.25146484 C128.6695166 486.79496582 127.71061523 487.3384668 126.72265625 487.8984375 C125.44080444 488.63489502 125.44080444 488.63489502 124.13305664 489.38623047 C119.30220029 491.59169297 114.67588675 491.45741205 109.65625 489.93359375 C104.22283929 487.37178826 101.58079321 482.54714151 98.625 477.53125 C98.00625 476.561875 97.3875 475.5925 96.75 474.59375 C95.625 472.53125 95.625 472.53125 95.625 470.53125 C95.07900146 470.7171167 94.53300293 470.9029834 93.97045898 471.09448242 C79.6883549 475.91059255 65.40949529 479.61244898 50.625 482.53125 C50.6156543 483.10568848 50.60630859 483.68012695 50.59667969 484.27197266 C50.54264969 486.90090304 50.45907106 489.52811567 50.375 492.15625 C50.36082031 493.05988281 50.34664063 493.96351563 50.33203125 494.89453125 C50.12555163 500.55207294 49.54416898 504.15177594 45.625 508.53125 C40.14294998 513.35394692 35.04169583 513.14477452 27.9453125 513.1328125 C26.81858124 513.14138275 25.69184998 513.149953 24.53097534 513.15878296 C22.15235069 513.17024646 19.77365594 513.17128703 17.39501953 513.16259766 C13.76863088 513.15628244 10.14551604 513.20319662 6.51953125 513.25390625 C4.2031291 513.25845328 1.88671821 513.25985874 -0.4296875 513.2578125 C-1.50701141 513.27623199 -2.58433533 513.29465149 -3.69430542 513.31362915 C-10.05996278 513.23596779 -13.89884103 512.28852617 -18.84963989 508.20883179 C-21.8016663 504.96221106 -22.62292248 502.08526552 -22.7890625 497.765625 C-22.82773438 496.87617188 -22.86640625 495.98671875 -22.90625 495.0703125 C-22.95265625 493.68972656 -22.95265625 493.68972656 -23 492.28125 C-23.03867188 491.34539062 -23.07734375 490.40953125 -23.1171875 489.4453125 C-23.21124844 487.14081946 -23.29689399 484.83632987 -23.375 482.53125 C-23.95652832 482.41644287 -24.53805664 482.30163574 -25.13720703 482.18334961 C-39.90037257 479.22696144 -54.1230492 475.3828437 -68.375 470.53125 C-68.64699219 471.25183594 -68.91898438 471.97242188 -69.19921875 472.71484375 C-71.90070115 479.18583646 -75.28633254 485.74640266 -81.375 489.53125 C-87.18954443 491.46943148 -91.97133226 491.54242867 -97.69921875 489.1328125 C-100.93506918 487.47859696 -104.07199114 485.66091287 -107.19921875 483.81103516 C-109.54403285 482.4318256 -111.90996857 481.09487093 -114.28125 479.76171875 C-115.95901988 478.81110653 -117.63611225 477.85929747 -119.3125 476.90625 C-120.09294678 476.46369873 -120.87339355 476.02114746 -121.67749023 475.56518555 C-137.55887595 466.37944222 -137.55887595 466.37944222 -140.375 457.53125 C-141.90956372 449.55151864 -136.66865042 441.97172563 -132.375 435.53125 C-132.48441718 432.52227766 -133.27699746 431.62256233 -135.4921875 429.55859375 C-136.85730469 428.52412109 -136.85730469 428.52412109 -138.25 427.46875 C-147.44346066 420.19755839 -155.49489171 412.0412973 -162.375 402.53125 C-166.98872407 403.34408972 -170.93514442 405.83862056 -174.97851562 408.09179688 C-179.97982714 410.72607546 -184.20482318 411.49796491 -189.66796875 409.83203125 C-190.29316406 409.50589844 -190.91835937 409.17976563 -191.5625 408.84375 C-192.51189453 408.37388672 -192.51189453 408.37388672 -193.48046875 407.89453125 C-197.73105419 404.83586255 -200.27278275 400.21337989 -202.8359375 395.7421875 C-203.79113281 394.08123047 -203.79113281 394.08123047 -204.765625 392.38671875 C-205.09240234 391.81356934 -205.41917969 391.24041992 -205.75585938 390.64990234 C-206.7367018 388.92957411 -207.72377907 387.21280552 -208.7109375 385.49609375 C-209.9938421 383.2587702 -211.27047023 381.01783494 -212.54052734 378.77319336 C-213.73745099 376.65794861 -214.94562775 374.54902064 -216.16650391 372.44750977 C-216.70968262 371.49416748 -217.25286133 370.5408252 -217.8125 369.55859375 C-218.29332031 368.72577881 -218.77414063 367.89296387 -219.26953125 367.03491211 C-221.23608137 362.58107564 -221.23260613 358.26705731 -220.375 353.53125 C-217.77304398 347.5354383 -212.77823424 344.80213644 -207.375 341.53125 C-206.405625 340.9125 -205.43625 340.29375 -204.4375 339.65625 C-202.375 338.53125 -202.375 338.53125 -200.375 338.53125 C-200.5608667 337.98525146 -200.7467334 337.43925293 -200.93823242 336.87670898 C-205.75434255 322.5946049 -209.45619898 308.31574529 -212.375 293.53125 C-213.67695313 293.49386719 -214.97890625 293.45648438 -216.3203125 293.41796875 C-218.04690257 293.35228326 -219.77346381 293.28583682 -221.5 293.21875 C-222.3559375 293.19619141 -223.211875 293.17363281 -224.09375 293.15039062 C-229.21677221 292.93364738 -232.94349716 292.36686387 -237.375 289.53125 C-241.05310526 285.45551174 -242.49267838 283.05704194 -242.55200195 277.62597656 C-242.56483719 276.60441467 -242.57767242 275.58285278 -242.59089661 274.53033447 C-242.59828354 273.42204285 -242.60567047 272.31375122 -242.61328125 271.171875 C-242.621353 270.0347406 -242.62942474 268.8976062 -242.63774109 267.72601318 C-242.65159098 265.31507903 -242.66230907 262.90412519 -242.67016602 260.49316406 C-242.68736496 256.8101672 -242.7312429 253.12807097 -242.77539062 249.4453125 C-242.78551853 247.10417328 -242.79403433 244.76302641 -242.80078125 242.421875 C-242.81828934 241.3216803 -242.83579742 240.2214856 -242.85383606 239.08795166 C-242.83637621 232.91599963 -242.5770799 229.18551229 -238.375 224.53125 C-232.83059966 220.40582852 -228.23157566 219.89491514 -221.4375 219.78125 C-220.56287109 219.75160156 -219.68824219 219.72195312 -218.78710938 219.69140625 C-216.65022123 219.62134434 -214.51260977 219.57395949 -212.375 219.53125 C-212.24971924 218.91830078 -212.12443848 218.30535156 -211.99536133 217.67382812 C-209.3933412 205.05196542 -206.52220795 192.74004813 -202.375 180.53125 C-201.99730469 179.39816406 -201.61960938 178.26507813 -201.23046875 177.09765625 C-200.94816406 176.25074219 -200.66585937 175.40382812 -200.375 174.53125 C-201.09558594 174.25925781 -201.81617188 173.98726562 -202.55859375 173.70703125 C-209.90842336 170.63865578 -216.70986173 166.86152655 -220.375 159.53125 C-221.4704296 150.94176557 -219.41849646 145.26167877 -215.0625 137.96875 C-214.25413696 136.55843506 -214.25413696 136.55843506 -213.42944336 135.11962891 C-211.76888692 132.24184846 -210.07441772 129.38621238 -208.375 126.53125 C-207.35092367 124.76990252 -206.32745948 123.00819895 -205.3046875 121.24609375 C-204.35170443 119.63118883 -203.3961067 118.01782309 -202.4375 116.40625 C-202.00203857 115.66689209 -201.56657715 114.92753418 -201.11791992 114.16577148 C-198.19973191 109.38775041 -195.39879909 105.72775328 -190.015625 103.59765625 C-181.63087679 101.83028285 -176.1147521 103.67465651 -169 108.21875 C-168.37351562 108.65574219 -167.74703125 109.09273438 -167.1015625 109.54296875 C-165.27262669 110.77963659 -165.27262669 110.77963659 -162.375 110.53125 C-160.38013292 108.44859336 -160.38013292 108.44859336 -158.375 105.71875 C-154.92634605 101.35838293 -151.36170987 97.28160365 -147.4375 93.34375 C-146.52097656 92.42207031 -145.60445313 91.50039062 -144.66015625 90.55078125 C-142.375 88.53125 -142.375 88.53125 -140.375 88.53125 C-140.375 87.87125 -140.375 87.21125 -140.375 86.53125 C-138.625 85.0234375 -138.625 85.0234375 -136.375 83.40625 C-135.6325 82.86742188 -134.89 82.32859375 -134.125 81.7734375 C-133.5475 81.36351563 -132.97 80.95359375 -132.375 80.53125 C-132.93558017 76.57215254 -134.12175726 74.12070158 -136.375 70.84375 C-139.50344268 65.77793439 -140.79681206 61.49687767 -140.375 55.53125 C-137.46059241 45.07366981 -127.50227863 41.09161488 -118.6875 36.09375 C-117.56666016 35.45115234 -116.44582031 34.80855469 -115.29101562 34.14648438 C-111.99317103 32.26118146 -108.6845424 30.39591843 -105.375 28.53125 C-104.35301514 27.94077881 -103.33103027 27.35030762 -102.27807617 26.74194336 C-100.84105347 25.92608765 -100.84105347 25.92608765 -99.375 25.09375 C-98.11623047 24.37058594 -98.11623047 24.37058594 -96.83203125 23.6328125 C-91.52756766 21.25465871 -86.54099961 21.86478858 -81.125 23.53125 C-75.29610427 27.77044689 -71.65804387 34.21770409 -68.375 40.53125 C-68.375 41.19125 -68.375 41.85125 -68.375 42.53125 C-67.1375 42.08394531 -65.9 41.63664062 -64.625 41.17578125 C-51.06956894 36.40326394 -37.49476636 33.1583119 -23.375 30.53125 C-23.36098145 29.66959229 -23.36098145 29.66959229 -23.34667969 28.79052734 C-23.29264969 26.16159696 -23.20907106 23.53438433 -23.125 20.90625 C-23.11082031 20.00261719 -23.09664062 19.09898438 -23.08203125 18.16796875 C-22.87618459 12.52777029 -22.3457055 8.85231187 -18.375 4.53125 C-12.32081054 0.14402497 -7.34760915 -0.05744785 0 0 Z M-6.375 16.53125 C-6.54536751 24.95242233 -6.54536751 24.95242233 -6.67285156 33.37426758 C-6.71877441 34.94664185 -6.71877441 34.94664185 -6.765625 36.55078125 C-6.78657227 37.62432861 -6.80751953 38.69787598 -6.82910156 39.80395508 C-7.375 42.53125 -7.375 42.53125 -9.10668945 44.33154297 C-11.54610427 45.62174687 -13.5654675 46.21118493 -16.27734375 46.70703125 C-17.2401123 46.89209229 -18.20288086 47.07715332 -19.19482422 47.26782227 C-20.22365723 47.45787842 -21.25249023 47.64793457 -22.3125 47.84375 C-30.55489967 49.46335091 -38.67396594 51.2773567 -46.75 53.59375 C-47.57363037 53.82682861 -48.39726074 54.05990723 -49.24584961 54.30004883 C-54.34582887 55.79412872 -59.21785965 57.61568766 -64.10473633 59.70458984 C-67.8671833 61.0745915 -70.39334357 61.13862132 -74.375 60.53125 C-79.3516242 56.35884827 -82.07707316 51.21055127 -85.15625 45.61914062 C-86.15192588 43.87670783 -87.25600433 42.19717052 -88.375 40.53125 C-92.07873316 40.53125 -93.67981048 41.62810767 -96.890625 43.453125 C-97.97730469 44.06671875 -99.06398438 44.6803125 -100.18359375 45.3125 C-101.31925781 45.9621875 -102.45492187 46.611875 -103.625 47.28125 C-105.30529297 48.23257812 -105.30529297 48.23257812 -107.01953125 49.203125 C-110.14184339 50.97255809 -113.25941365 52.75000723 -116.375 54.53125 C-117.15294922 54.97533203 -117.93089844 55.41941406 -118.73242188 55.87695312 C-120.280436 56.76086451 -121.82782425 57.64587197 -123.375 58.53125 C-122.83230469 59.47226562 -122.28960937 60.41328125 -121.73046875 61.3828125 C-121.00772484 62.64057463 -120.28507352 63.89838997 -119.5625 65.15625 C-119.20607422 65.77371094 -118.84964844 66.39117187 -118.48242188 67.02734375 C-111.42086007 79.33648818 -111.42086007 79.33648818 -112.375 84.53125 C-115.04136422 88.95427771 -118.95619048 92.05585888 -123 95.171875 C-128.35707672 99.4213333 -133.19257449 104.05153834 -138 108.90625 C-138.7940625 109.69257812 -139.588125 110.47890625 -140.40625 111.2890625 C-145.20300527 116.10154484 -149.54373654 121.08042906 -153.66162109 126.48681641 C-155.86385148 129.11455611 -157.58140827 130.39720536 -160.98828125 130.97265625 C-165.87645861 130.33555816 -169.39162496 127.9956305 -173.5625 125.46875 C-175.15468595 124.51038388 -176.75214045 123.56070011 -178.35546875 122.62109375 C-179.40577271 121.98482056 -179.40577271 121.98482056 -180.47729492 121.33569336 C-182.53434907 120.21691855 -182.53434907 120.21691855 -185.375 121.53125 C-187.26559311 124.2391904 -187.26559311 124.2391904 -189.09765625 127.61328125 C-189.44380478 128.22386887 -189.78995331 128.83445648 -190.14659119 129.46354675 C-191.25222104 131.41887666 -192.34482184 133.38115873 -193.4375 135.34375 C-194.17691507 136.6547593 -194.9171403 137.96531203 -195.65820312 139.27539062 C-199.66192376 146.32585668 -199.66192376 146.32585668 -203.375 153.53125 C-200.7008679 155.23699235 -198.02546072 156.94065106 -195.34765625 158.640625 C-193.53912809 159.79085842 -191.73360007 160.94585092 -189.93359375 162.109375 C-189.23363281 162.55796875 -188.53367188 163.0065625 -187.8125 163.46875 C-187.19246094 163.86964844 -186.57242188 164.27054688 -185.93359375 164.68359375 C-184.37786968 165.69050732 -184.37786968 165.69050732 -182.375 165.53125 C-181.33253862 172.89466772 -182.90283489 178.70140298 -185.5625 185.46875 C-190.86266441 198.97536031 -194.293002 212.86953142 -196.29980469 227.24072266 C-197.03052464 232.04006294 -197.03052464 232.04006294 -198.54956055 234.20605469 C-201.15119683 236.09473754 -203.162706 235.96509649 -206.35546875 236.04296875 C-207.40371826 236.07608154 -208.45196777 236.10919434 -209.53198242 236.14331055 C-210.86205322 236.16820557 -212.19212402 236.19310059 -213.5625 236.21875 C-217.790625 236.321875 -222.01875 236.425 -226.375 236.53125 C-226.375 249.73125 -226.375 262.93125 -226.375 276.53125 C-217.95382767 276.70161751 -217.95382767 276.70161751 -209.53198242 276.82910156 C-208.48373291 276.8597168 -207.4354834 276.89033203 -206.35546875 276.921875 C-204.74514771 276.9532959 -204.74514771 276.9532959 -203.10229492 276.98535156 C-200.375 277.53125 -200.375 277.53125 -198.58398438 279.20117188 C-197.15447096 281.95627607 -196.59332878 284.36392284 -196.05078125 287.421875 C-195.83059326 288.59580811 -195.61040527 289.76974121 -195.38354492 290.97924805 C-195.1538501 292.23390869 -194.92415527 293.48856934 -194.6875 294.78125 C-191.9629697 308.86167208 -188.82582841 323.62959317 -182.375 336.53125 C-181.76715336 339.66448011 -181.67094352 342.40799195 -182.375 345.53125 C-184.58418765 348.25317175 -187.35766035 349.80051497 -190.375 351.53125 C-191.94314453 352.44777344 -191.94314453 352.44777344 -193.54296875 353.3828125 C-195.66199412 354.61321433 -197.79173926 355.82540799 -199.93359375 357.015625 C-202.47744095 358.29944059 -202.47744095 358.29944059 -203.375 360.53125 C-202.14784256 363.19792394 -202.14784256 363.19792394 -200.33203125 366.203125 C-199.33913086 367.91242188 -199.33913086 367.91242188 -198.32617188 369.65625 C-197.61329588 370.86459197 -196.90040513 372.07292523 -196.1875 373.28125 C-195.49344569 374.47355407 -194.80007797 375.6662581 -194.10742188 376.859375 C-191.00130273 382.18552273 -187.83138973 387.42516549 -184.375 392.53125 C-181.3741387 391.43688599 -178.59609322 390.14540028 -175.81640625 388.5859375 C-175.18283203 388.23144531 -174.54925781 387.87695312 -173.89648438 387.51171875 C-172.59009164 386.77451208 -171.28796712 386.02969032 -169.99023438 385.27734375 C-165.9760442 383.05221905 -163.08923271 381.9054067 -158.375 382.53125 C-154.3080297 385.18362193 -151.71649021 388.30335143 -148.76171875 392.12890625 C-144.51942775 397.46961294 -139.90882783 402.30191942 -135.0625 407.09375 C-134.23306885 407.92003906 -133.4036377 408.74632812 -132.54907227 409.59765625 C-127.36295953 414.7144454 -122.10924614 419.5214027 -116.30859375 423.9375 C-113.71427147 426.07585049 -112.49534883 427.80698857 -111.94140625 431.140625 C-112.56619897 436.02639149 -114.83173391 439.5845925 -117.3125 443.78125 C-117.78107422 444.5959375 -118.24964844 445.410625 -118.73242188 446.25 C-119.59683473 447.75246149 -120.4666266 449.2518503 -121.34350586 450.74707031 C-122.0600664 451.98650805 -122.73473991 453.25072982 -123.375 454.53125 C-119.97952553 456.4337172 -116.58393073 458.33596947 -113.18823242 460.23803711 C-111.47633857 461.19699368 -109.76453542 462.15611215 -108.05273438 463.11523438 C-101.83324594 466.59887746 -95.6099961 470.07543055 -89.375 473.53125 C-88.85550781 472.67402344 -88.33601562 471.81679688 -87.80078125 470.93359375 C-77.57220286 454.12985143 -77.57220286 454.12985143 -74.375 452.53125 C-68.25973816 452.00663727 -63.7782212 453.57037945 -58.1875 455.71875 C-44.36196336 460.7816587 -30.25681633 464.41871498 -15.6652832 466.45605469 C-10.86609081 467.18684215 -10.86609081 467.18684215 -8.70019531 468.70581055 C-6.81151246 471.30744683 -6.94115351 473.318956 -6.86328125 476.51171875 C-6.83016846 477.55996826 -6.79705566 478.60821777 -6.76293945 479.68823242 C-6.72559692 481.68333862 -6.72559692 481.68333862 -6.6875 483.71875 C-6.584375 487.946875 -6.48125 492.175 -6.375 496.53125 C6.825 496.53125 20.025 496.53125 33.625 496.53125 C33.83488837 488.11008431 33.83488837 488.11008431 34.01293945 479.68823242 C34.04605225 478.63998291 34.07916504 477.5917334 34.11328125 476.51171875 C34.13946533 475.43817139 34.16564941 474.36462402 34.19262695 473.25854492 C34.625 470.53125 34.625 470.53125 35.82714844 468.73095703 C38.17011953 467.16749153 40.12316236 466.81239504 42.90234375 466.35546875 C43.96380615 466.17040771 45.02526855 465.98534668 46.11889648 465.79467773 C47.82348022 465.50959351 47.82348022 465.50959351 49.5625 465.21875 C63.45816119 462.72697492 76.75292417 459.21212393 89.9375 454.15625 C94.00271822 452.64849301 97.25167633 451.74405174 101.625 452.53125 C106.58252529 456.74836567 109.31917096 461.83759929 112.40625 467.44335938 C113.40192588 469.18579217 114.50600433 470.86532948 115.625 472.53125 C119.32873316 472.53125 120.92981048 471.43439233 124.140625 469.609375 C125.22730469 468.99578125 126.31398438 468.3821875 127.43359375 467.75 C128.56925781 467.1003125 129.70492188 466.450625 130.875 465.78125 C131.99519531 465.14703125 133.11539062 464.5128125 134.26953125 463.859375 C137.39184339 462.08994191 140.50941365 460.31249277 143.625 458.53125 C144.79192383 457.86512695 144.79192383 457.86512695 145.98242188 457.18554688 C147.530436 456.30163549 149.07782425 455.41662803 150.625 454.53125 C150.08230469 453.59023438 149.53960937 452.64921875 148.98046875 451.6796875 C148.25772484 450.42192537 147.53507352 449.16411003 146.8125 447.90625 C146.45607422 447.28878906 146.09964844 446.67132813 145.73242188 446.03515625 C145.0225216 444.7977154 144.31921896 443.55646625 143.62255859 442.31152344 C142.71988853 440.70059096 141.79295834 439.10331154 140.86328125 437.5078125 C139.33552891 433.83542359 139.05172256 431.47253242 139.625 427.53125 C141.75 424.90625 141.75 424.90625 144.625 422.53125 C145.553125 421.7475 146.48125 420.96375 147.4375 420.15625 C147.94152344 419.74270264 148.44554687 419.32915527 148.96484375 418.90307617 C155.14009788 413.80031839 160.96459475 408.38396209 166.625 402.71875 C167.32197998 402.02313965 168.01895996 401.3275293 168.73706055 400.61083984 C173.22549364 396.07987978 177.34536714 391.48086874 181.14453125 386.3515625 C183.22527739 383.79317807 184.98200779 382.63985705 188.23828125 382.08984375 C193.12645861 382.72694184 196.64162496 385.0668695 200.8125 387.59375 C202.40468595 388.55211612 204.00214045 389.50179989 205.60546875 390.44140625 C206.30567139 390.86558838 207.00587402 391.28977051 207.72729492 391.72680664 C209.78434907 392.84558145 209.78434907 392.84558145 212.625 391.53125 C214.51559311 388.8233096 214.51559311 388.8233096 216.34765625 385.44921875 C216.69380478 384.83863113 217.03995331 384.22804352 217.39659119 383.59895325 C218.50222104 381.64362334 219.59482184 379.68134127 220.6875 377.71875 C221.42691507 376.4077407 222.1671403 375.09718797 222.90820312 373.78710938 C226.91192376 366.73664332 226.91192376 366.73664332 230.625 359.53125 C229.93535156 359.09554688 229.24570312 358.65984375 228.53515625 358.2109375 C211.5238764 347.4301264 211.5238764 347.4301264 209.625 345.53125 C208.83598879 338.92247742 210.2951343 333.75332741 212.8125 327.71875 C218.26500546 313.80160272 221.52556896 299.46011166 223.8515625 284.71875 C224.65852196 281.3930989 225.23843741 279.93536789 227.625 277.53125 C230.35229492 276.98535156 230.35229492 276.98535156 233.60546875 276.921875 C234.65371826 276.89125977 235.70196777 276.86064453 236.78198242 276.82910156 C238.11205322 276.81331055 239.44212402 276.79751953 240.8125 276.78125 C245.040625 276.69875 249.26875 276.61625 253.625 276.53125 C253.625 263.33125 253.625 250.13125 253.625 236.53125 C245.20383431 236.32136163 245.20383431 236.32136163 236.78198242 236.14331055 C235.73373291 236.11019775 234.6854834 236.07708496 233.60546875 236.04296875 C232.53192139 236.01678467 231.45837402 235.99060059 230.35229492 235.96362305 C227.625 235.53125 227.625 235.53125 225.82250977 234.32250977 C224.27507299 232.00782197 223.92676529 230.10830989 223.484375 227.359375 C223.21439697 225.78990112 223.21439697 225.78990112 222.93896484 224.1887207 C222.65980225 222.50202271 222.65980225 222.50202271 222.375 220.78125 C220.74380129 211.62286887 218.75146569 202.73287671 216 193.84375 C215.71092773 192.90756836 215.42185547 191.97138672 215.12402344 191.00683594 C213.89926436 187.15538344 212.62429448 183.42682147 210.92578125 179.7578125 C209.57712713 176.41250227 209.30510062 174.16853334 209.4375 170.59375 C209.46457031 169.63597656 209.49164063 168.67820313 209.51953125 167.69140625 C209.55433594 166.97855469 209.58914063 166.26570312 209.625 165.53125 C210.29015625 165.2940625 210.9553125 165.056875 211.640625 164.8125 C215.42250781 163.18886445 218.85529199 161.15392554 222.375 159.03125 C223.05949219 158.62777344 223.74398438 158.22429687 224.44921875 157.80859375 C228.13895027 155.77832091 228.13895027 155.77832091 230.625 152.53125 C229.39784256 149.86457606 229.39784256 149.86457606 227.58203125 146.859375 C226.92009766 145.71984375 226.25816406 144.5803125 225.57617188 143.40625 C224.86329588 142.19790803 224.15040513 140.98957477 223.4375 139.78125 C222.74344569 138.58894593 222.05007797 137.3962419 221.35742188 136.203125 C218.25130273 130.87697727 215.08138973 125.63733451 211.625 120.53125 C206.14755051 122.11770641 201.61357186 124.77044811 196.8359375 127.78515625 C192.92661946 130.13591357 190.17948269 131.12813377 185.625 130.53125 C181.55935697 127.87974368 178.96900378 124.76204132 176.015625 120.9375 C171.7537283 115.57185884 167.11498915 110.7238529 162.25 105.90625 C161.46367187 105.1121875 160.67734375 104.318125 159.8671875 103.5 C155.08601872 98.73445596 150.14732841 94.4218067 144.76708984 90.34228516 C141.75449833 87.79528221 139.85672604 85.77928632 139.12890625 81.859375 C139.84783825 77.03630363 142.10385081 73.44049283 144.5625 69.28125 C145.03107422 68.4665625 145.49964844 67.651875 145.98242188 66.8125 C146.84683473 65.31003851 147.7166266 63.8106497 148.59350586 62.31542969 C149.3100664 61.07599195 149.98473991 59.81177018 150.625 58.53125 C147.22952553 56.6287828 143.83393073 54.72653053 140.43823242 52.82446289 C138.72633857 51.86550632 137.01453542 50.90638785 135.30273438 49.94726562 C129.08324594 46.46362254 122.8599961 42.98706945 116.625 39.53125 C112.87230108 45.06596949 109.3236471 50.64850759 106.01953125 56.46484375 C104.625 58.53125 104.625 58.53125 101.625 60.53125 C95.80054632 60.98068647 92.0000749 60.21381715 86.5625 57.90625 C72.2161965 52.13691728 56.96610707 48.61831046 41.70703125 46.26953125 C38.43302916 45.48526459 36.9977314 44.88106707 34.625 42.53125 C34.07910156 39.80395508 34.07910156 39.80395508 34.015625 36.55078125 C33.98500977 35.50253174 33.95439453 34.45428223 33.92285156 33.37426758 C33.90706055 32.04419678 33.89126953 30.71412598 33.875 29.34375 C33.7925 25.115625 33.71 20.8875 33.625 16.53125 C20.425 16.53125 7.225 16.53125 -6.375 16.53125 Z " fill="#000000" transform="translate(242.375,-0.53125)"/>
</svg>
