<?xml version="1.0" encoding="UTF-8"?>
<svg version="1.1" xmlns="http://www.w3.org/2000/svg" width="225" height="224">
<path d="M0 0 C1.05267563 0.00125885 2.10535126 0.0025177 3.18992615 0.0038147 C4.91443497 0.01380745 4.91443497 0.01380745 6.67378235 0.02400208 C7.88885971 0.02718445 9.10393707 0.03036682 10.35583496 0.03364563 C13.68672352 0.04407762 17.0175066 0.05934151 20.3483541 0.07801604 C22.43226353 0.08967282 24.516176 0.1003344 26.60009193 0.11075783 C33.12857025 0.1439898 39.65699815 0.18202451 46.18541211 0.22612303 C53.70554501 0.27678205 61.22551914 0.31106965 68.745794 0.33130378 C74.56858567 0.34802743 80.39117444 0.37995787 86.21382934 0.42314988 C89.68663799 0.44855186 93.15919462 0.46756687 96.63210106 0.47052574 C100.5121464 0.47428813 104.39156927 0.50957426 108.2714386 0.54743958 C109.41098999 0.54398026 110.55054138 0.54052094 111.72462463 0.53695679 C119.59833005 0.65031168 126.18992334 1.84704366 132.1710968 7.25764465 C132.9754718 8.35979309 132.9754718 8.35979309 133.7960968 9.48420715 C134.3529718 10.21381653 134.9098468 10.9434259 135.4835968 11.69514465 C137.85102307 16.04951796 137.92165859 20.80212647 137.97309875 25.68049622 C137.99235161 27.2831131 137.99235161 27.2831131 138.01199341 28.91810608 C138.01938034 30.05882568 138.02676727 31.19954529 138.03437805 32.37483215 C138.0424498 33.5634082 138.05052155 34.75198425 138.05883789 35.97657776 C138.07264323 38.48805803 138.08338119 40.99955678 138.09126282 43.51106262 C138.1027868 46.06938709 138.12324494 48.62768745 138.15278625 51.18586731 C138.19559145 54.89485409 138.21164972 58.6031286 138.22187805 62.31233215 C138.23938614 63.44495483 138.25689423 64.57757751 138.27493286 65.74452209 C138.25522013 73.02853081 137.03160189 78.58439897 133.7960968 85.10920715 C133.28548454 86.19990509 133.28548454 86.19990509 132.76455688 87.31263733 C130.90333057 90.76535891 127.2998384 91.73326596 123.7960968 93.10920715 C116.52083486 95.12223851 109.38744862 95.40136835 101.87983704 95.38386536 C100.73215851 95.38897629 99.58447998 95.39408722 98.40202332 95.39935303 C94.63619161 95.41316982 90.87054447 95.41229862 87.10469055 95.4099884 C84.4725335 95.4138788 81.84037706 95.41821418 79.20822144 95.42297363 C73.70339844 95.43115895 68.19862684 95.43029625 62.69380188 95.42488098 C56.34984608 95.41883589 50.00611176 95.43117562 43.66219372 95.45245105 C37.53152636 95.4722473 31.40096199 95.47523453 25.27026558 95.47171593 C22.67361493 95.4722282 20.07696065 95.47744828 17.48032951 95.48752785 C13.84770111 95.49990276 10.21558265 95.49309433 6.58296204 95.48152161 C5.51829208 95.48916534 4.45362213 95.49680908 3.35668945 95.50468445 C-5.51629823 95.442397 -13.17773982 93.82817735 -20.2039032 88.10920715 C-26.0726963 80.77321577 -26.51557422 73.48535278 -26.65312195 64.46076965 C-26.67485977 63.44880524 -26.6965976 62.43684082 -26.71899414 61.39421082 C-26.76275227 59.26121005 -26.80198731 57.12811224 -26.83695984 54.99494934 C-26.89111534 51.75144762 -26.96141418 48.50859363 -27.03398132 45.26545715 C-27.07465643 43.18474656 -27.11440051 41.10401752 -27.15312195 39.02326965 C-27.1738829 38.06361298 -27.19464386 37.1039563 -27.21603394 36.11521912 C-27.44817372 20.49784137 -27.44817372 20.49784137 -23.8289032 13.79670715 C-23.19855164 12.59594543 -23.19855164 12.59594543 -22.5554657 11.3709259 C-20.07051128 7.21257733 -18.32236315 4.80401776 -13.7664032 2.92170715 C-13.00456726 2.59815247 -12.24273132 2.27459778 -11.45780945 1.9412384 C-7.53523484 0.49321693 -4.18987014 -0.01421793 0 0 Z M2.42500305 9.49201965 C1.59419724 9.52238312 0.76339142 9.55274658 -0.09259033 9.58403015 C-4.42927569 9.80591921 -8.21569857 10.35037565 -12.2039032 12.10920715 C-18.29637933 20.01295997 -17.36250631 30.14468829 -17.4070282 39.71858215 C-17.41272827 40.68902466 -17.41842834 41.65946716 -17.42430115 42.65931702 C-17.43367587 44.69289584 -17.44025481 46.72648934 -17.44413757 48.76008606 C-17.45392147 51.86500568 -17.48504686 54.96928382 -17.5164032 58.0740509 C-17.52292751 60.0597241 -17.52818022 62.04540197 -17.5320282 64.03108215 C-17.544375 64.95306396 -17.5567218 65.87504578 -17.56944275 66.82496643 C-17.54660438 73.4320004 -16.18530885 77.27487439 -12.36727905 82.73643494 C-7.47318773 86.40737524 -2.76204595 85.80698305 3.20210266 85.75617981 C5.09068748 85.7693222 5.09068748 85.7693222 7.01742554 85.7827301 C10.46394907 85.80548992 13.90972276 85.79670111 17.35625911 85.78083467 C20.96761865 85.7681553 24.57891497 85.77992167 28.1902771 85.7877655 C34.25553382 85.79685738 40.32048596 85.78488781 46.38569641 85.76106262 C53.39039702 85.73386408 60.39436966 85.74265742 67.39905256 85.77019465 C73.41964271 85.79291284 79.44001416 85.79607233 85.46063334 85.7830013 C89.05356778 85.77521993 92.64616053 85.77412821 96.2390728 85.79068375 C100.24671628 85.80786079 104.25311299 85.78402926 108.26069641 85.75617981 C110.0399501 85.77136154 110.0399501 85.77136154 111.85514832 85.78684998 C118.63567866 85.78843097 118.63567866 85.78843097 124.49537659 82.77325439 C129.11812617 77.42048565 129.11613889 71.20013298 129.24531555 64.4568634 C129.26705338 63.63906906 129.2887912 62.82127472 129.31118774 61.97869873 C129.3549128 60.25171821 129.39415504 58.52461898 129.42915344 56.79743958 C129.48279963 54.21015378 129.55332449 51.62374951 129.62617493 49.03694153 C129.82922287 41.10381961 129.91374677 33.16216955 129.62812805 25.2303009 C129.57169128 23.37876404 129.57169128 23.37876404 129.51411438 21.48982239 C128.58936988 17.13588255 127.00778827 15.15813366 123.7960968 12.10920715 C111.66962463 7.15130781 95.98245139 8.95972497 83.07344055 8.97639465 C81.19702136 8.97571838 79.32060225 8.97474568 77.44418335 8.97349548 C73.53031065 8.97203118 69.61646094 8.97413021 65.70259094 8.97883606 C60.75299943 8.98450546 55.80346193 8.98115869 50.8538723 8.97541428 C26.63428982 8.8981343 26.63428982 8.8981343 2.42500305 9.49201965 Z " fill="#1B7CEE" transform="translate(60.20390319824219,67.89079284667969)"/>
<path d="M0 0 C6.36916765 2.4977128 9.54598909 10.23322514 12.1875 16.25 C12.1875 16.91 12.1875 17.57 12.1875 18.25 C16.58826843 14.26835238 18.56544462 9.55556525 20.34375 4.01953125 C21.1875 2.25 21.1875 2.25 24.1875 0.25 C27.8125 0.5 27.8125 0.5 31.1875 1.25 C33.37992711 5.63485421 32.59959717 11.48209301 32.74511719 16.35864258 C32.81108359 18.51617431 32.88936373 20.6730042 32.96875 22.83007812 C33.65918661 43.48449813 33.65918661 43.48449813 31.1875 52.25 C24.4375 53.375 24.4375 53.375 22.1875 52.25 C21.8575 43.34 21.5275 34.43 21.1875 25.25 C20.1975 27.725 20.1975 27.725 19.1875 30.25 C15.31221677 32.61822864 12.5141341 32.25619398 8.1875 31.25 C7.8575 29.27 7.5275 27.29 7.1875 25.25 C6.1975 25.25 5.2075 25.25 4.1875 25.25 C4.19273682 26.03238037 4.19797363 26.81476074 4.20336914 27.62084961 C4.22407106 31.14305833 4.23713838 34.6652543 4.25 38.1875 C4.25837891 39.41919922 4.26675781 40.65089844 4.27539062 41.91992188 C4.27861328 43.08974609 4.28183594 44.25957031 4.28515625 45.46484375 C4.29039307 46.54886475 4.29562988 47.63288574 4.30102539 48.74975586 C4.1875 51.25 4.1875 51.25 3.1875 52.25 C1.375 52.3828125 1.375 52.3828125 -0.8125 52.375 C-1.534375 52.37757813 -2.25625 52.38015625 -3 52.3828125 C-4.8125 52.25 -4.8125 52.25 -5.8125 51.25 C-5.98543965 48.89469945 -6.09665065 46.56608693 -6.1640625 44.20703125 C-6.18721527 43.4869841 -6.21036804 42.76693695 -6.23422241 42.02507019 C-6.28199753 40.48920062 -6.32721447 38.95324973 -6.37011719 37.41723633 C-6.43594103 35.11697938 -6.51424885 32.81739736 -6.59375 30.51757812 C-7.38740848 5.39492084 -7.38740848 5.39492084 -4.44384766 1.38598633 C-2.8125 0.25 -2.8125 0.25 0 0 Z " fill="#236CBC" transform="translate(102.8125,88.75)"/>
<path d="M0 0 C2.64465038 3.1254959 3.84414715 6.08788267 5 10 C5.66 10 6.32 10 7 10 C10 15.75 10 15.75 10 18 C10.66 18 11.32 18 12 18 C12.268125 17.29875 12.53625 16.5975 12.8125 15.875 C14.0709657 12.8281883 15.47729047 9.92360229 17 7 C17.474375 6.071875 17.94875 5.14375 18.4375 4.1875 C20 2 20 2 21.9375 1.125 C24.17912267 0.98914408 25.86994118 1.31533824 28 2 C28.39253254 6.44870215 27.15305957 9.14243493 25 13 C24.34 13 23.68 13 23 13 C22.731875 13.886875 22.46375 14.77375 22.1875 15.6875 C21 19 21 19 19.375 21.375 C17.48169001 24.98950088 17.12016762 28.06913597 18 32 C19.27790686 34.35986801 20.74349611 36.45121324 22.33203125 38.61328125 C25.04040959 42.48873598 26.98691394 46.73332646 29 51 C28.01 51.99 27.02 52.98 26 54 C23.09650611 53.65841248 21.47870411 53.44420363 19 52 C16.59603131 48.51305532 14 44.33159398 14 40 C13.34 40 12.68 40 12 40 C11.67 39.34 11.34 38.68 11 38 C10.52949219 38.74765625 10.05898437 39.4953125 9.57421875 40.265625 C8.95160156 41.25046875 8.32898438 42.2353125 7.6875 43.25 C6.76517578 44.71179688 6.76517578 44.71179688 5.82421875 46.203125 C5.22222656 47.12609375 4.62023437 48.0490625 4 49 C3.5153125 49.7734375 3.030625 50.546875 2.53125 51.34375 C1 53 1 53 -1.04296875 53.390625 C-3.02864583 53.26041667 -5.01432292 53.13020833 -7 53 C-7.33 52.34 -7.66 51.68 -8 51 C-6.890625 48.79296875 -6.890625 48.79296875 -5.25 46.1875 C-4.71890625 45.33542969 -4.1878125 44.48335937 -3.640625 43.60546875 C-3.09921875 42.74566406 -2.5578125 41.88585937 -2 41 C0.01450984 37.72460989 1.65924461 34.60972605 3 31 C3.66 31 4.32 31 5 31 C4.60896442 24.75972385 2.47849499 20.98645514 -1 15.875 C-6.57078313 7.59619729 -6.57078313 7.59619729 -7 3 C-4.69 2.01 -2.38 1.02 0 0 Z " fill="#2567B2" transform="translate(63,88)"/>
<path d="M0 0 C1.21872803 -0.00350464 2.43745605 -0.00700928 3.69311523 -0.01062012 C7.01959908 -0.01789163 10.34583266 -0.01621911 13.67230225 -0.00986195 C17.16304852 -0.00477794 20.65378453 -0.00950005 24.14453125 -0.01263428 C30.00522773 -0.01626695 35.8658737 -0.01149321 41.7265625 -0.00195312 C48.49022977 0.0089301 55.25377644 0.00540402 62.0174408 -0.00560594 C67.83761117 -0.01469877 73.65774535 -0.01595434 79.47792053 -0.0107286 C82.94835383 -0.00761986 86.41873055 -0.00716929 89.88916016 -0.01380157 C93.75948733 -0.02068221 97.62968076 -0.01112969 101.5 0 C102.64202881 -0.00404846 103.78405762 -0.00809692 104.96069336 -0.01226807 C118.19123178 0.05814459 118.19123178 0.05814459 122.67578125 3.91503906 C123.13339844 4.52347656 123.59101563 5.13191406 124.0625 5.75878906 C124.53300781 6.36722656 125.00351563 6.97566406 125.48828125 7.60253906 C125.90464844 8.14910156 126.32101563 8.69566406 126.75 9.25878906 C127.74 10.24878906 127.74 10.24878906 128.75 11.25878906 C129.00396729 13.6295929 129.00396729 13.6295929 129.00878906 16.63891602 C129.01509338 17.76380936 129.02139771 18.8887027 129.02789307 20.04768372 C129.02182037 21.87888008 129.02182037 21.87888008 129.015625 23.74707031 C129.01753845 24.99755661 129.0194519 26.24804291 129.02142334 27.53642273 C129.02278679 30.18710041 129.0200788 32.8374116 129.01074219 35.48803711 C128.99938241 38.87750969 129.0058846 42.26666432 129.01788712 45.65612507 C129.02687885 48.89478465 129.02056935 52.13340657 129.015625 55.37207031 C129.01967346 56.5867952 129.02372192 57.80152008 129.02789307 59.05305481 C129.01843658 60.75457954 129.01843658 60.75457954 129.00878906 62.49047852 C129.00719788 63.48594193 129.00560669 64.48140533 129.00396729 65.5070343 C128.73351276 68.43742954 127.86361846 70.55407242 126.75 73.25878906 C126.75 74.57878906 126.75 75.89878906 126.75 77.25878906 C126.09 77.25878906 125.43 77.25878906 124.75 77.25878906 C123.68267411 74.05681138 123.65395314 71.85183425 123.69995117 68.48974609 C123.71943062 66.71242599 123.71943062 66.71242599 123.73930359 64.89920044 C123.75701309 63.61794281 123.7747226 62.33668518 123.79296875 61.01660156 C123.80962485 59.00646799 123.82625702 56.99633388 123.84147358 54.98618889 C123.87959688 50.02590987 123.92607134 45.06588503 123.99682617 40.10595703 C124.03599682 37.32369993 124.06450303 34.54173002 124.08113098 31.75924683 C124.09710854 29.13810651 124.12873678 26.51700547 124.17753601 23.89627075 C124.18283073 22.10949417 124.18283073 22.10949417 124.18823242 20.28662109 C124.20013107 19.24087921 124.21202972 18.19513733 124.22428894 17.1177063 C123.62374755 13.49776496 122.2996608 11.85255765 119.75 9.25878906 C116.78739474 8.02121029 116.78739474 8.02121029 113.75 7.25878906 C112.79437416 6.74851669 112.79437416 6.74851669 111.81944275 6.22793579 C109.57565796 5.17714244 108.10056987 4.98667999 105.63891602 4.93994141 C104.42143929 4.91015198 104.42143929 4.91015198 103.17936707 4.87976074 C101.85501396 4.86241882 101.85501396 4.86241882 100.50390625 4.84472656 C99.56569534 4.82526978 98.62748444 4.80581299 97.6608429 4.7857666 C94.54482142 4.72468464 91.42879512 4.67860363 88.3125 4.63378906 C86.12711237 4.59639658 83.94172829 4.5587954 81.75634766 4.52099609 C65.38018101 4.25563125 49.00314091 4.15647286 32.625 4.13378906 C31.54203644 4.13111023 30.45907288 4.1284314 29.34329224 4.12567139 C14.45275078 4.09762654 -0.37951926 4.48075168 -15.25 5.25878906 C-15.58 5.91878906 -15.91 6.57878906 -16.25 7.25878906 C-16.91 6.92878906 -17.57 6.59878906 -18.25 6.25878906 C-18.25 6.91878906 -18.25 7.57878906 -18.25 8.25878906 C-20.125 9.32128906 -20.125 9.32128906 -22.25 10.25878906 C-22.91 9.92878906 -23.57 9.59878906 -24.25 9.25878906 C-23.8965342 6.69616201 -23.47529498 5.48408404 -21.625 3.63378906 C-14.7677393 -0.33620397 -7.70946975 -0.02732987 0 0 Z " fill="#197EF1" transform="translate(66.25,70.7412109375)"/>
<path d="M0 0 C1.05267563 0.00125885 2.10535126 0.0025177 3.18992615 0.0038147 C4.91443497 0.01380745 4.91443497 0.01380745 6.67378235 0.02400208 C7.88885971 0.02718445 9.10393707 0.03036682 10.35583496 0.03364563 C13.68672352 0.04407762 17.0175066 0.05934151 20.3483541 0.07801604 C22.43226353 0.08967282 24.516176 0.1003344 26.60009193 0.11075783 C33.12857025 0.1439898 39.65699815 0.18202451 46.18541211 0.22612303 C53.70554501 0.27678205 61.22551914 0.31106965 68.745794 0.33130378 C74.56858567 0.34802743 80.39117444 0.37995787 86.21382934 0.42314988 C89.68663799 0.44855186 93.15919462 0.46756687 96.63210106 0.47052574 C100.5121464 0.47428813 104.39156927 0.50957426 108.2714386 0.54743958 C109.41098999 0.54398026 110.55054138 0.54052094 111.72462463 0.53695679 C118.38926644 0.63290523 124.14303625 1.33082895 129.7960968 5.10920715 C131.83931229 7.34370258 133.23306741 9.48735139 134.7960968 12.10920715 C133.8060968 12.10920715 132.8160968 12.10920715 131.7960968 12.10920715 C131.4660968 11.11920715 131.1360968 10.12920715 130.7960968 9.10920715 C128.79593214 7.90038619 128.79593214 7.90038619 126.7960968 7.10920715 C126.7960968 6.44920715 126.7960968 5.78920715 126.7960968 5.10920715 C120.38028338 3.96007633 114.06788358 3.95445134 107.56196594 3.94807434 C106.34484421 3.94310944 105.12772247 3.93814453 103.87371826 3.93302917 C100.5513715 3.92097074 97.22908724 3.9134763 93.90672612 3.90901852 C91.82732519 3.9060766 89.74792962 3.90196986 87.66853142 3.89751434 C81.15131663 3.88386345 74.63411428 3.87418362 68.1168862 3.87031245 C60.61367999 3.86582986 53.11065579 3.84826265 45.6075049 3.81931186 C39.79242111 3.79765855 33.97738842 3.78760632 28.16226476 3.78627133 C24.69566062 3.78522642 21.22922813 3.77938515 17.7626667 3.76145172 C13.89492603 3.74182879 10.02741135 3.74627454 6.15962219 3.75276184 C5.02118866 3.74354706 3.88275513 3.73433228 2.70982361 3.72483826 C-3.67605324 3.75835547 -8.38222924 4.45555032 -14.2039032 7.10920715 C-15.2764032 7.56295715 -16.3489032 8.01670715 -17.4539032 8.48420715 C-23.17255242 13.94291777 -24.25386939 21.81669846 -24.44560242 29.4490509 C-24.46233101 35.61163292 -24.24208808 41.76413785 -24.0164032 47.92170715 C-23.95656026 50.05902459 -23.89860376 52.19639571 -23.84257507 54.33381653 C-24.59686478 68.65279229 -24.59686478 68.65279229 -20.2039032 81.10920715 C-20.0801532 81.76920715 -19.9564032 82.42920715 -19.8289032 83.10920715 C-19.38267144 85.31185732 -19.38267144 85.31185732 -17.1414032 86.35920715 C-16.5020282 86.60670715 -15.8626532 86.85420715 -15.2039032 87.10920715 C-15.2039032 87.76920715 -15.2039032 88.42920715 -15.2039032 89.10920715 C-14.5439032 89.10920715 -13.8839032 89.10920715 -13.2039032 89.10920715 C-13.2039032 89.76920715 -13.2039032 90.42920715 -13.2039032 91.10920715 C-12.32097595 91.10397034 -11.43804871 91.09873352 -10.52836609 91.09333801 C31.24914302 90.88414595 73.04647869 91.54992635 114.7960968 93.10920715 C114.4660968 93.76920715 114.1360968 94.42920715 113.7960968 95.10920715 C98.43589906 95.17941692 83.07570874 95.23225382 67.71538639 95.26464367 C60.58264857 95.28008536 53.45001069 95.30112296 46.31733704 95.33552551 C40.09749562 95.36551086 33.87772662 95.38480175 27.65781492 95.39147264 C24.367101 95.39536953 21.07664141 95.40606596 17.78598213 95.42639732 C14.10441531 95.44823529 10.42327482 95.45117133 6.74165344 95.44978333 C5.66127304 95.46056915 4.58089264 95.47135498 3.46777344 95.48246765 C-5.45970647 95.4461468 -13.13199277 93.86541332 -20.2039032 88.10920715 C-26.0726963 80.77321577 -26.51557422 73.48535278 -26.65312195 64.46076965 C-26.67485977 63.44880524 -26.6965976 62.43684082 -26.71899414 61.39421082 C-26.76275227 59.26121005 -26.80198731 57.12811224 -26.83695984 54.99494934 C-26.89111534 51.75144762 -26.96141418 48.50859363 -27.03398132 45.26545715 C-27.07465643 43.18474656 -27.11440051 41.10401752 -27.15312195 39.02326965 C-27.1738829 38.06361298 -27.19464386 37.1039563 -27.21603394 36.11521912 C-27.44817372 20.49784137 -27.44817372 20.49784137 -23.8289032 13.79670715 C-23.19855164 12.59594543 -23.19855164 12.59594543 -22.5554657 11.3709259 C-20.07051128 7.21257733 -18.32236315 4.80401776 -13.7664032 2.92170715 C-13.00456726 2.59815247 -12.24273132 2.27459778 -11.45780945 1.9412384 C-7.53523484 0.49321693 -4.18987014 -0.01421793 0 0 Z " fill="#2264B2" transform="translate(60.20390319824219,67.89079284667969)"/>
<path d="M0 0 C2.3431213 0.25561323 4.67843403 0.59270772 7 1 C8.66577625 4.33155251 8.12007856 8.06536059 8.09765625 11.7265625 C8.0962413 12.58937836 8.09482635 13.45219421 8.09336853 14.34115601 C8.08776188 17.1024723 8.07520827 19.86370812 8.0625 22.625 C8.05748586 24.4947905 8.0529228 26.36458226 8.04882812 28.234375 C8.03779029 32.82294777 8.0205212 37.41146023 8 42 C8.74161377 42.01458252 9.48322754 42.02916504 10.24731445 42.04418945 C13.60290631 42.11859457 16.95749494 42.21528006 20.3125 42.3125 C21.47974609 42.33505859 22.64699219 42.35761719 23.84960938 42.38085938 C25.52700195 42.4340332 25.52700195 42.4340332 27.23828125 42.48828125 C28.26993408 42.51446533 29.30158691 42.54064941 30.36450195 42.56762695 C33 43 33 43 34.83666992 44.37182617 C36.49459635 46.69222729 36.42742926 48.22170981 36 51 C32.35695136 53.42869909 29.69277661 53.25675675 25.48828125 53.1953125 C24.76005661 53.1924826 24.03183197 53.18965271 23.28153992 53.18673706 C20.95835863 53.17555257 18.63556453 53.15045166 16.3125 53.125 C14.7363337 53.11496794 13.16016135 53.10584248 11.58398438 53.09765625 C7.72250733 53.07561896 3.86131929 53.04110141 0 53 C-1.70244813 50.02813541 -2.2518105 47.89270916 -2.25878906 44.47851562 C-2.26824554 43.1469342 -2.26824554 43.1469342 -2.27789307 41.78845215 C-2.27182037 40.36176208 -2.27182037 40.36176208 -2.265625 38.90625 C-2.26753845 37.92257446 -2.2694519 36.93889893 -2.27142334 35.92541504 C-2.27278313 33.84757226 -2.26910107 31.76972094 -2.26074219 29.69189453 C-2.25003988 26.51185011 -2.26064457 23.33237061 -2.2734375 20.15234375 C-2.27211587 18.13281125 -2.2695534 16.11327911 -2.265625 14.09375 C-2.26967346 13.14262329 -2.27372192 12.19149658 -2.27789307 11.21154785 C-2.27158875 10.3238269 -2.26528442 9.43610596 -2.25878906 8.52148438 C-2.25719788 7.74301147 -2.25560669 6.96453857 -2.25396729 6.16247559 C-1.96950368 3.7403305 -1.2050331 2.10355614 0 0 Z " fill="#197EEB" transform="translate(141,89)"/>
<path d="M0 0 C1.73733398 0.00182785 1.73733398 0.00182785 3.50976562 0.00369263 C20.96791643 0.02504351 38.4203991 0.2127795 55.875 0.5625 C56.90336975 0.5820575 57.9317395 0.60161499 58.99127197 0.62176514 C61.89016342 0.67860615 64.78881429 0.74215572 67.6875 0.80859375 C68.95882278 0.8336776 68.95882278 0.8336776 70.25582886 0.85926819 C74.55482397 0.96798845 78.64092914 1.28679374 82.875 2.125 C82.545 3.115 82.215 4.105 81.875 5.125 C80.27425629 5.01903 80.27425629 5.01903 78.64117432 4.91091919 C67.03715108 4.18184432 55.48377354 3.97704063 43.859375 3.9921875 C41.98724353 3.99151074 40.11511214 3.99053765 38.24298096 3.98928833 C34.34703727 3.98782736 30.45111674 3.98991275 26.55517578 3.99462891 C21.62921054 4.00030994 16.70329948 3.99695263 11.77733612 3.99119186 C-19.91354979 2.65922418 -19.91354979 2.65922418 -51.125 6.125 C-52.52757876 8.50619246 -52.52757876 8.50619246 -53.125 11.125 C-53.455 11.785 -53.785 12.445 -54.125 13.125 C-55.17535151 19.95093744 -55.29607363 26.84211522 -55.328125 33.734375 C-55.33382507 34.7048175 -55.33952515 35.67526001 -55.34539795 36.67510986 C-55.35477268 38.70868869 -55.36135161 40.74228218 -55.36523438 42.77587891 C-55.37501827 45.88079853 -55.40614367 48.98507666 -55.4375 52.08984375 C-55.44402431 54.07551695 -55.44927702 56.06119481 -55.453125 58.046875 C-55.4654718 58.96885681 -55.4778186 59.89083862 -55.49053955 60.84075928 C-55.46829899 67.27484816 -54.24328087 71.19302641 -50.42675781 76.47558594 C-47.16147276 78.81545291 -44.15870451 78.62588922 -40.296875 78.515625 C-39.54786926 78.50996521 -38.79886353 78.50430542 -38.02716064 78.49847412 C-35.642448 78.47614057 -33.25925592 78.42595386 -30.875 78.375 C-29.25523009 78.35493091 -27.63543654 78.33668085 -26.015625 78.3203125 C-22.05150034 78.27628624 -18.08850768 78.20728298 -14.125 78.125 C-14.125 78.785 -14.125 79.445 -14.125 80.125 C-17.94084818 82.71503166 -21.62610344 82.14177233 -26 81.75 C-31.65251195 81.30536573 -37.14487162 81.1253898 -42.8125 81.3125 C-46.80905349 81.32166641 -49.04304313 81.15694929 -52.8125 79.6875 C-58.38155003 73.5163905 -58.37222258 66.66444602 -58.16015625 58.6796875 C-58.12353001 54.97636732 -58.38187903 51.37759018 -58.6875 47.6875 C-59.47452636 37.49187328 -58.74632433 27.3141554 -58.125 17.125 C-57.795 17.125 -57.465 17.125 -57.125 17.125 C-56.97804687 16.07699219 -56.97804687 16.07699219 -56.828125 15.0078125 C-56.67859375 14.09773438 -56.5290625 13.18765625 -56.375 12.25 C-56.23578125 11.34507813 -56.0965625 10.44015625 -55.953125 9.5078125 C-55.125 7.125 -55.125 7.125 -53.046875 5.8046875 C-52.41265625 5.58039063 -51.7784375 5.35609375 -51.125 5.125 C-51.125 4.465 -51.125 3.805 -51.125 3.125 C-45.78473351 1.65990529 -40.73896858 0.74993739 -35.1953125 0.5078125 C-34.42978058 0.47027863 -33.66424866 0.43274475 -32.8755188 0.39407349 C-21.92353614 -0.08486672 -10.95991415 -0.02509889 0 0 Z " fill="#216DCB" transform="translate(99.125,73.875)"/>
<path d="M0 0 C2.1875 -0.375 2.1875 -0.375 5 0 C8.46917862 2.78750984 9.78598477 4.53684593 10.4359436 8.98040771 C10.57963857 12.78214695 10.56259043 16.56519073 10.48828125 20.3671875 C10.47894568 21.77107479 10.47183308 23.17497847 10.46684265 24.57888794 C10.44783058 28.2585211 10.39878266 31.93715382 10.34332275 35.61639404 C10.29200335 39.37693755 10.26930174 43.1376441 10.24414062 46.8984375 C10.1906558 54.26607911 10.10541641 61.63289892 10 69 C10.66 69 11.32 69 12 69 C11.7215625 67.88625 11.7215625 67.88625 11.4375 66.75 C11.00796892 64.05009037 11.14877026 62.55368923 12 60 C12.66 60 13.32 60 14 60 C13.67 41.19 13.34 22.38 13 3 C13.99 3 14.98 3 16 3 C16.71854411 6.89708651 17.13523521 10.61030621 17.17700195 14.57128906 C17.19625481 16.17390594 17.19625481 16.17390594 17.21589661 17.80889893 C17.22328354 18.94961853 17.23067047 20.09033813 17.23828125 21.265625 C17.246353 22.45420105 17.25442474 23.6427771 17.26274109 24.86737061 C17.27654643 27.37885087 17.28728438 29.89034962 17.29516602 32.40185547 C17.30669 34.96017994 17.32714814 37.51848029 17.35668945 40.07666016 C17.39949465 43.78564693 17.41555292 47.49392145 17.42578125 51.203125 C17.44328934 52.33574768 17.46079742 53.46837036 17.47883606 54.63531494 C17.45912332 61.91932366 16.23550509 67.47519182 13 74 C12.67699417 74.71440247 12.35398834 75.42880493 12.02119446 76.16485596 C10.54231732 78.82248159 8.7177663 79.74054732 6 81 C4.515 80.505 4.515 80.505 3 80 C3.99 78.515 3.99 78.515 5 77 C5.66 77 6.32 77 7 77 C6.34 75.68 5.68 74.36 5 73 C4.0207959 73.65121826 3.0415918 74.30243652 2.03271484 74.97338867 C-2.20410418 77.38339251 -5.73159315 77.53791323 -10.5234375 77.42578125 C-11.70360947 77.42084908 -11.70360947 77.42084908 -12.90762329 77.41581726 C-14.55650209 77.40545887 -16.20534632 77.38561611 -17.85400391 77.35668945 C-20.3885482 77.31226252 -22.92214413 77.29519477 -25.45703125 77.28320312 C-27.06251382 77.26979227 -28.66798465 77.25487296 -30.2734375 77.23828125 C-31.41394058 77.22720085 -31.41394058 77.22720085 -32.57748413 77.21589661 C-37.88162827 77.11837173 -37.88162827 77.11837173 -39 76 C-40.48638992 75.84344973 -41.97949127 75.74933057 -43.47265625 75.68359375 C-44.37177734 75.64169922 -45.27089844 75.59980469 -46.19726562 75.55664062 C-47.14279297 75.51732422 -48.08832031 75.47800781 -49.0625 75.4375 C-50.01189453 75.39431641 -50.96128906 75.35113281 -51.93945312 75.30664062 C-54.29281353 75.20020724 -56.64628354 75.09818992 -59 75 C-59 74.34 -59 73.68 -59 73 C-57.90791985 73.01332367 -57.90791985 73.01332367 -56.79377747 73.0269165 C-49.92298657 73.10715951 -43.05226597 73.16801368 -36.18112659 73.20724869 C-32.64878618 73.22809843 -29.11683387 73.25636679 -25.5847168 73.30175781 C-21.52128433 73.35364825 -17.45825772 73.37296666 -13.39453125 73.390625 C-12.1297847 73.41127014 -10.86503815 73.43191528 -9.56196594 73.45318604 C-8.38111923 73.45348816 -7.20027252 73.45379028 -5.98364258 73.45410156 C-4.94661697 73.46298401 -3.90959137 73.47186646 -2.84114075 73.48101807 C0.76774193 72.8700178 2.41378504 71.5462391 5 69 C7.07195962 63.82305471 7.34393242 58.84380501 7.44921875 53.34765625 C7.47095657 52.52986191 7.4926944 51.71206757 7.51509094 50.86949158 C7.558816 49.14251106 7.59805823 47.41541183 7.63305664 45.68823242 C7.68670283 43.10094662 7.75722769 40.51454235 7.83007812 37.92773438 C8.03298434 29.96959826 8.10606711 22.01388409 7.76953125 14.05859375 C7.72030518 12.81263428 7.6710791 11.5666748 7.62036133 10.28295898 C6.89610823 6.45020362 5.70694319 4.76316408 3 2 C2.01 1.34 1.02 0.68 0 0 Z " fill="#1F79DF" transform="translate(181,79)"/>
<path d="M0 0 C1.47206013 2.94412027 1.23807192 5.96285915 1.31640625 9.1953125 C1.33718735 9.90275604 1.35796844 10.61019958 1.37937927 11.33908081 C1.44481078 13.60095425 1.50372974 15.86294462 1.5625 18.125 C1.60569133 19.65756422 1.64930582 21.19011657 1.69335938 22.72265625 C1.80048555 26.48165073 1.9017709 30.24076292 2 34 C1.34 34 0.68 34 0 34 C0 35.98 0 37.96 0 40 C-0.33 40 -0.66 40 -1 40 C-1.33 42.97 -1.66 45.94 -2 49 C-3.32 49 -4.64 49 -6 49 C-6.495 33.655 -6.495 33.655 -7 18 C-7.99 17.67 -8.98 17.34 -10 17 C-10.433125 18.093125 -10.86625 19.18625 -11.3125 20.3125 C-13.62619863 25.59330289 -13.62619863 25.59330289 -16 27 C-19.1875 26.6875 -19.1875 26.6875 -22 26 C-22.33 24.68 -22.66 23.36 -23 22 C-22.01 21.34 -21.02 20.68 -20 20 C-20 20.66 -20 21.32 -20 22 C-18.68 22 -17.36 22 -16 22 C-15.74605469 20.83082031 -15.49210937 19.66164063 -15.23046875 18.45703125 C-14.88327833 16.90874963 -14.53559609 15.36057825 -14.1875 13.8125 C-14.02185547 13.04357422 -13.85621094 12.27464844 -13.68554688 11.48242188 C-12.70566935 7.1746584 -11.67516888 3.61604192 -9 0 C-5.88173308 -1.55913346 -3.32926126 -0.66585225 0 0 Z " fill="#2B7BD9" transform="translate(134,90)"/>
<path d="M0 0 C1.32 0.33 2.64 0.66 4 1 C3.10464743 2.64609493 2.20868601 4.29185868 1.3125 5.9375 C0.76980469 6.94039063 0.22710937 7.94328125 -0.33203125 8.9765625 C-1.36150338 10.84263142 -2.41647269 12.69519731 -3.51171875 14.5234375 C-7.09170861 20.3603072 -7.09170861 20.3603072 -7 27 C-5.5074753 29.62868817 -3.92648883 32.14102986 -2.21484375 34.6328125 C-1 37 -1 37 -1.31640625 39.3046875 C-1.54199219 39.86414063 -1.76757812 40.42359375 -2 41 C-1.071875 41.0928125 -1.071875 41.0928125 -0.125 41.1875 C2 42 2 42 3.25 44.5625 C3.4975 45.366875 3.745 46.17125 4 47 C2.35 46.67 0.7 46.34 -1 46 C-1 45.01 -1 44.02 -1 43 C-1.66 43 -2.32 43 -3 43 C-4.98 39.04 -6.96 35.08 -9 31 C-13.25658189 33.12829094 -13.74754718 34.10939967 -16 38 C-16.66 38 -17.32 38 -18 38 C-18.103125 38.7425 -18.20625 39.485 -18.3125 40.25 C-19.06030424 43.24121694 -19.82441679 44.82441679 -22 47 C-23.32 47 -24.64 47 -26 47 C-26.20086443 43.28400809 -26.1519437 42.22791555 -24 39 C-23.34 39 -22.68 39 -22 39 C-21.34 35.37 -20.68 31.74 -20 28 C-19.01 27.67 -18.02 27.34 -17 27 C-17.93343502 18.22571078 -20.90323319 10.76973017 -25 3 C-24.34 2.34 -23.68 1.68 -23 1 C-21.62437146 2.28965176 -20.29233607 3.62689293 -19 5 C-19 5.66 -19 6.32 -19 7 C-18.38125 7.185625 -17.7625 7.37125 -17.125 7.5625 C-13.94397134 9.71437233 -13.80548053 12.37533763 -13 16 C-11.35 16 -9.7 16 -8 16 C-8 15.01 -8 14.02 -8 13 C-7.34 13 -6.68 13 -6 13 C-6 12.01 -6 11.02 -6 10 C-5.34 10 -4.68 10 -4 10 C-3.566875 8.3603125 -3.566875 8.3603125 -3.125 6.6875 C-2 3 -2 3 0 0 Z " fill="#1C7ADD" transform="translate(85,92)"/>
<path d="M0 0 C0.99 0.495 0.99 0.495 2 1 C2 5 2 5 0.5625 6.625 C0.046875 7.07875 -0.46875 7.5325 -1 8 C-1.33 8.66 -1.66 9.32 -2 10 C-10.44585604 11.56196895 -19.02526696 10.89328362 -27.5625 10.5625 C-29.06312987 10.50916661 -30.56378098 10.45642738 -32.06445312 10.40429688 C-35.70990579 10.2763813 -39.35500524 10.1404248 -43 10 C-43 9.34 -43 8.68 -43 8 C-44.65 8 -46.3 8 -48 8 C-48 7.34 -48 6.68 -48 6 C-49.24088379 6.00785522 -49.24088379 6.00785522 -50.50683594 6.01586914 C-54.25454957 6.03665469 -58.00225106 6.04966524 -61.75 6.0625 C-63.05195312 6.07087891 -64.35390625 6.07925781 -65.6953125 6.08789062 C-67.57089844 6.09272461 -67.57089844 6.09272461 -69.484375 6.09765625 C-71.21252441 6.10551147 -71.21252441 6.10551147 -72.97558594 6.11352539 C-75.5554987 6.01668495 -77.53805275 5.66889682 -80 5 C-81.58567839 4.8578299 -83.17518632 4.75495959 -84.765625 4.68359375 C-85.65507813 4.64169922 -86.54453125 4.59980469 -87.4609375 4.55664062 C-88.38132812 4.51732422 -89.30171875 4.47800781 -90.25 4.4375 C-91.18585938 4.39431641 -92.12171875 4.35113281 -93.0859375 4.30664062 C-95.39048641 4.2008195 -97.69513839 4.09873443 -100 4 C-93.11764426 -0.58823716 -82.8789808 0.87130932 -74.875 0.9375 C-73.2971875 0.94426758 -73.2971875 0.94426758 -71.6875 0.95117188 C-69.12493779 0.96281989 -66.56250123 0.97917447 -64 1 C-64 1.66 -64 2.32 -64 3 C-63.39937744 2.99476318 -62.79875488 2.98952637 -62.17993164 2.98413086 C-59.47413162 2.96341986 -56.76834823 2.95035875 -54.0625 2.9375 C-52.64420898 2.92493164 -52.64420898 2.92493164 -51.19726562 2.91210938 C-49.84858398 2.90727539 -49.84858398 2.90727539 -48.47265625 2.90234375 C-47.22367554 2.89448853 -47.22367554 2.89448853 -45.94946289 2.88647461 C-44 3 -44 3 -43 4 C-40.41556077 4.13832264 -37.85979665 4.21315384 -35.2734375 4.23828125 C-34.49239655 4.246353 -33.71135559 4.25442474 -32.90664673 4.26274109 C-31.24719473 4.27660276 -29.58771398 4.28731555 -27.92822266 4.29516602 C-25.40601124 4.31228946 -22.88514138 4.35614313 -20.36328125 4.40039062 C-18.75000963 4.41052532 -17.13672686 4.41903899 -15.5234375 4.42578125 C-14.7752475 4.44328934 -14.0270575 4.46079742 -13.25619507 4.47883606 C-7.70405451 4.45618142 -4.69689954 2.90246587 0 0 Z " fill="#2A75D1" transform="translate(186,151)"/>
<path d="M0 0 C0.33 0 0.66 0 1 0 C1.02505615 1.01835938 1.0501123 2.03671875 1.07592773 3.0859375 C1.17071658 6.89545413 1.27075718 10.70481846 1.37231445 14.51416016 C1.41539494 16.15702734 1.45708657 17.79993159 1.49731445 19.44287109 C1.55567485 21.81619397 1.61917275 24.18933479 1.68359375 26.5625 C1.70030624 27.28679199 1.71701874 28.01108398 1.73423767 28.75732422 C1.52008102 37.59053611 1.52008102 37.59053611 5 45 C5.12375 45.66 5.2475 46.32 5.375 47 C5.82123176 49.20265017 5.82123176 49.20265017 8.0625 50.25 C8.701875 50.4975 9.34125 50.745 10 51 C10 51.66 10 52.32 10 53 C10.66 53 11.32 53 12 53 C12 53.66 12 54.32 12 55 C12.88292725 54.99476318 13.76585449 54.98952637 14.67553711 54.98413086 C56.45304622 54.77493879 98.25038189 55.4407192 140 57 C139.67 57.66 139.34 58.32 139 59 C123.63980226 59.07020976 108.27961194 59.12304666 92.91928959 59.15543652 C85.78655177 59.17087821 78.65391389 59.1919158 71.52124023 59.22631836 C65.30139882 59.2563037 59.08162981 59.2755946 52.86171812 59.28226548 C49.57100419 59.28616238 46.28054461 59.29685881 42.98988533 59.31719017 C39.3083185 59.33902814 35.62717802 59.34196417 31.94555664 59.34057617 C30.86517624 59.351362 29.78479584 59.36214783 28.67167664 59.3732605 C19.74419673 59.33693964 12.07191043 57.75620617 5 52 C1.6776294 47.6001038 -0.12969857 44.22721141 -0.11352539 38.7121582 C-0.11344986 37.85149246 -0.11337433 36.99082672 -0.11329651 36.1040802 C-0.10813522 35.17899155 -0.10297394 34.25390289 -0.09765625 33.30078125 C-0.0962413 32.35059616 -0.09482635 31.40041107 -0.09336853 30.4214325 C-0.08776875 27.38508971 -0.07521632 24.34882052 -0.0625 21.3125 C-0.05748497 19.25455836 -0.05292207 17.19661556 -0.04882812 15.13867188 C-0.0377994 10.09241954 -0.02053493 5.04622225 0 0 Z " fill="#3071C3" transform="translate(35,104)"/>
<path d="M0 0 C2.3431213 0.25561323 4.67843403 0.59270772 7 1 C8.50606515 4.01213029 8.12160331 7.11282622 8.09765625 10.4140625 C8.0962413 11.14370209 8.09482635 11.87334167 8.09336853 12.62509155 C8.08776531 14.95843585 8.07521235 17.29168464 8.0625 19.625 C8.05748541 21.20572778 8.05292243 22.78645707 8.04882812 24.3671875 C8.03779484 28.24482854 8.02052811 32.12239807 8 36 C7.34 36 6.68 36 6 36 C6 25.11 6 14.22 6 3 C5.34 3 4.68 3 4 3 C4 2.34 4 1.68 4 1 C3.34 1 2.68 1 2 1 C1.67 17.17 1.34 33.34 1 50 C12.22 49.67 23.44 49.34 35 49 C35.33 48.01 35.66 47.02 36 46 C36.1875 48.375 36.1875 48.375 36 51 C32.35695136 53.42869909 29.69277661 53.25675675 25.48828125 53.1953125 C24.76005661 53.1924826 24.03183197 53.18965271 23.28153992 53.18673706 C20.95835863 53.17555257 18.63556453 53.15045166 16.3125 53.125 C14.7363337 53.11496794 13.16016135 53.10584248 11.58398438 53.09765625 C7.72250733 53.07561896 3.86131929 53.04110141 0 53 C-1.70244813 50.02813541 -2.2518105 47.89270916 -2.25878906 44.47851562 C-2.26824554 43.1469342 -2.26824554 43.1469342 -2.27789307 41.78845215 C-2.27182037 40.36176208 -2.27182037 40.36176208 -2.265625 38.90625 C-2.26753845 37.92257446 -2.2694519 36.93889893 -2.27142334 35.92541504 C-2.27278313 33.84757226 -2.26910107 31.76972094 -2.26074219 29.69189453 C-2.25003988 26.51185011 -2.26064457 23.33237061 -2.2734375 20.15234375 C-2.27211587 18.13281125 -2.2695534 16.11327911 -2.265625 14.09375 C-2.26967346 13.14262329 -2.27372192 12.19149658 -2.27789307 11.21154785 C-2.27158875 10.3238269 -2.26528442 9.43610596 -2.25878906 8.52148438 C-2.25719788 7.74301147 -2.25560669 6.96453857 -2.25396729 6.16247559 C-1.96950368 3.7403305 -1.2050331 2.10355614 0 0 Z " fill="#2665B9" transform="translate(141,89)"/>
<path d="M0 0 C1.2509478 2.5018956 0.92474591 3.70456173 0.57519531 6.46191406 C-0.0270593 11.85851192 -0.17788931 17.18274395 -0.203125 22.609375 C-0.20882507 23.5798175 -0.21452515 24.55026001 -0.22039795 25.55010986 C-0.22977268 27.58368869 -0.23635161 29.61728218 -0.24023438 31.65087891 C-0.25001827 34.75579853 -0.28114367 37.86007666 -0.3125 40.96484375 C-0.31902431 42.95051695 -0.32427702 44.93619481 -0.328125 46.921875 C-0.3404718 47.84385681 -0.3528186 48.76583862 -0.36553955 49.71575928 C-0.34329899 56.14984816 0.88171913 60.06802641 4.69824219 65.35058594 C7.96352724 67.69045291 10.96629549 67.50088922 14.828125 67.390625 C15.57713074 67.38496521 16.32613647 67.37930542 17.09783936 67.37347412 C19.482552 67.35114057 21.86574408 67.30095386 24.25 67.25 C25.86976991 67.22993091 27.48956346 67.21168085 29.109375 67.1953125 C33.07349966 67.15128624 37.03649232 67.08228298 41 67 C41 67.66 41 68.32 41 69 C37.18415182 71.59003166 33.49889656 71.01677233 29.125 70.625 C23.47248805 70.18036573 17.98012838 70.0003898 12.3125 70.1875 C8.31594651 70.19666641 6.08195687 70.03194929 2.3125 68.5625 C-3.25655003 62.3913905 -3.24722258 55.53944602 -3.03515625 47.5546875 C-2.99853001 43.85136732 -3.25687903 40.25259018 -3.5625 36.5625 C-4.34952636 26.36687328 -3.62132433 16.1891554 -3 6 C-2.67 6 -2.34 6 -2 6 C-1.34 4.02 -0.68 2.04 0 0 Z " fill="#135CB7" transform="translate(44,85)"/>
<path d="M0 0 C1.65 0 3.3 0 5 0 C5.67408308 1.26691507 6.33900497 2.53870749 7 3.8125 C7.556875 4.87404297 7.556875 4.87404297 8.125 5.95703125 C9 8 9 8 9 11 C8.01 11.495 8.01 11.495 7 12 C7 12.99 7 13.98 7 15 C6.34 15.66 5.68 16.32 5 17 C4.62677573 20.10756015 4.62677573 20.10756015 4.5859375 23.7578125 C4.56657135 24.42086395 4.5472052 25.08391541 4.5272522 25.76705933 C4.46744046 27.88624177 4.42106612 30.0054785 4.375 32.125 C4.33682155 33.56122169 4.29776989 34.99742045 4.2578125 36.43359375 C4.16173875 39.95551936 4.07771358 43.47761608 4 47 C2.68 47 1.36 47 0 47 C0 31.49 0 15.98 0 0 Z " fill="#1B7EEE" transform="translate(100,92)"/>
<path d="M0 0 C3.38232468 1.05697646 4.32750998 1.87126829 6 4.9375 C6 5.5975 6 6.2575 6 6.9375 C4.68 6.6075 3.36 6.2775 2 5.9375 C2 4.9475 2 3.9575 2 2.9375 C0.35 2.9375 -1.3 2.9375 -3 2.9375 C-3 18.4475 -3 33.9575 -3 49.9375 C-0.03 49.4425 -0.03 49.4425 3 48.9375 C3 46.2975 3 43.6575 3 40.9375 C3.33 40.9375 3.66 40.9375 4 40.9375 C4.02688151 42.58324566 4.04634123 44.22911413 4.0625 45.875 C4.07410156 46.79152344 4.08570312 47.70804688 4.09765625 48.65234375 C4 50.9375 4 50.9375 3 51.9375 C1.1875 52.0703125 1.1875 52.0703125 -1 52.0625 C-1.721875 52.06507813 -2.44375 52.06765625 -3.1875 52.0703125 C-5 51.9375 -5 51.9375 -6 50.9375 C-6.17293965 48.58219945 -6.28415065 46.25358693 -6.3515625 43.89453125 C-6.37471527 43.1744841 -6.39786804 42.45443695 -6.42172241 41.71257019 C-6.46949753 40.17670062 -6.51471447 38.64074973 -6.55761719 37.10473633 C-6.62344103 34.80447938 -6.70174885 32.50489736 -6.78125 30.20507812 C-7.57366182 5.12188303 -7.57366182 5.12188303 -4.64306641 1.05395508 C-3 -0.0625 -3 -0.0625 0 0 Z " fill="#226EC1" transform="translate(103,89.0625)"/>
<path d="M0 0 C0 4.62 0 9.24 0 14 C-0.33 14 -0.66 14 -1 14 C-1.33 15.98 -1.66 17.96 -2 20 C-2.6496875 19.0409375 -2.6496875 19.0409375 -3.3125 18.0625 C-4.91239177 15.73253997 -4.91239177 15.73253997 -8 15 C-8.433125 16.093125 -8.86625 17.18625 -9.3125 18.3125 C-11.62619863 23.59330289 -11.62619863 23.59330289 -14 25 C-17.1875 24.6875 -17.1875 24.6875 -20 24 C-20.33 22.68 -20.66 21.36 -21 20 C-20.01 19.34 -19.02 18.68 -18 18 C-18 18.66 -18 19.32 -18 20 C-16.68 20 -15.36 20 -14 20 C-13.81824219 19.24074219 -13.63648437 18.48148438 -13.44921875 17.69921875 C-13.19785156 16.70535156 -12.94648437 15.71148437 -12.6875 14.6875 C-12.32205078 13.20830078 -12.32205078 13.20830078 -11.94921875 11.69921875 C-10.97948916 8.94167492 -10.12663654 7.90487498 -8 6 C-7.32650839 4.33607955 -6.6590841 2.66967972 -6 1 C-4 0 -4 0 0 0 Z " fill="#1D7FEC" transform="translate(132,92)"/>
<path d="M0 0 C0.33 0 0.66 0 1 0 C1 1.98 1 3.96 1 6 C0.01 6.33 -0.98 6.66 -2 7 C-2.33 7.99 -2.66 8.98 -3 10 C-7.70528369 13.09306605 -11.95070954 13.41785688 -17.42578125 13.328125 C-18.21397751 13.32625183 -19.00217377 13.32437866 -19.81425476 13.32244873 C-21.46906812 13.31575942 -23.12386651 13.3019075 -24.77856445 13.28125 C-27.32192537 13.24988376 -29.86466728 13.24025431 -32.40820312 13.234375 C-34.01823679 13.2252127 -35.62826413 13.21483941 -37.23828125 13.203125 C-38.38348991 13.19675018 -38.38348991 13.19675018 -39.55183411 13.19024658 C-44.88278486 13.11721514 -44.88278486 13.11721514 -46 12 C-47.48638992 11.84344973 -48.97949127 11.74933057 -50.47265625 11.68359375 C-51.82133789 11.62075195 -51.82133789 11.62075195 -53.19726562 11.55664062 C-54.14279297 11.51732422 -55.08832031 11.47800781 -56.0625 11.4375 C-57.01189453 11.39431641 -57.96128906 11.35113281 -58.93945312 11.30664062 C-61.29281353 11.20020724 -63.64628354 11.09818992 -66 11 C-66 10.34 -66 9.68 -66 9 C-65.27194656 9.00888245 -64.54389313 9.01776489 -63.79377747 9.0269165 C-56.92298657 9.10715951 -50.05226597 9.16801368 -43.18112659 9.20724869 C-39.64878618 9.22809843 -36.11683387 9.25636679 -32.5847168 9.30175781 C-28.52128433 9.35364825 -24.45825772 9.37296666 -20.39453125 9.390625 C-19.1297847 9.41127014 -17.86503815 9.43191528 -16.56196594 9.45318604 C-15.38111923 9.45348816 -14.20027252 9.45379028 -12.98364258 9.45410156 C-11.94661697 9.46298401 -10.90959137 9.47186646 -9.84114075 9.48101807 C-6.24334846 8.87189545 -4.59403901 7.51819348 -2 5 C-0.66701026 2.38181544 -0.66701026 2.38181544 0 0 Z " fill="#2F72CA" transform="translate(188,143)"/>
<path d="M0 0 C0.66 0.33 1.32 0.66 2 1 C2 5 2 5 0.0637207 7.22558594 C-4.08824002 9.63027559 -7.30908607 9.50817755 -12.01953125 9.390625 C-13.30738777 9.38213531 -13.30738777 9.38213531 -14.6212616 9.37347412 C-17.3522516 9.35115787 -20.08190939 9.30097167 -22.8125 9.25 C-24.66860079 9.2299288 -26.52472223 9.21167911 -28.38085938 9.1953125 C-32.92108296 9.15130881 -37.46031593 9.08231521 -42 9 C-42.33 7.68 -42.66 6.36 -43 5 C-41.94611084 4.9906543 -40.89222168 4.98130859 -39.80639648 4.97167969 C-35.8717321 4.93160911 -31.93783566 4.86580448 -28.00366211 4.79248047 C-26.30552078 4.76436929 -24.60725099 4.74310598 -22.90893555 4.72900391 C-20.45815743 4.70743648 -18.00890764 4.66071994 -15.55859375 4.609375 C-14.80726669 4.60814636 -14.05593964 4.60691772 -13.28184509 4.60565186 C-7.7620635 4.45452752 -4.68053672 2.87703055 0 0 Z " fill="#1C7CF1" transform="translate(186,151)"/>
<path d="M0 0 C0.66 0.66 1.32 1.32 2 2 C2.99 1.67 3.98 1.34 5 1 C5.33 1.99 5.66 2.98 6 4 C14.91 4 23.82 4 33 4 C33 5.32 33 6.64 33 8 C29.46173745 9.17942085 26.65851274 9.11289189 22.92578125 9.09765625 C21.90003242 9.09553383 21.90003242 9.09553383 20.8535614 9.09336853 C18.67316278 9.08777876 16.49286749 9.07522822 14.3125 9.0625 C12.83268378 9.05748367 11.35286594 9.052921 9.87304688 9.04882812 C6.24866443 9.03781271 2.6243423 9.02055512 -1 9 C-0.67 6.03 -0.34 3.06 0 0 Z " fill="#1B7CEA" transform="translate(143,130)"/>
<path d="M0 0 C-0.14179687 0.60585937 -0.28359375 1.21171875 -0.4296875 1.8359375 C-1.41490925 7.45342994 -1.13553288 10.51998134 2 15.375 C2.5775 16.16648437 3.155 16.95796875 3.75 17.7734375 C5 20 5 20 4.6875 22.2890625 C4.460625 22.85367188 4.23375 23.41828125 4 24 C4.928125 24.0928125 4.928125 24.0928125 5.875 24.1875 C8 25 8 25 9.25 27.5625 C9.4975 28.366875 9.745 29.17125 10 30 C8.35 29.67 6.7 29.34 5 29 C5 28.01 5 27.02 5 26 C4.34 26 3.68 26 3 26 C1.02 22.04 -0.96 18.08 -3 14 C-7.06609032 15.57806133 -7.06609032 15.57806133 -8.5 18.5625 C-10 21 -10 21 -12.09375 21.65234375 C-13.03734375 21.82443359 -13.03734375 21.82443359 -14 22 C-13.52309796 20.37433394 -13.04340334 18.74948689 -12.5625 17.125 C-12.16224609 15.76761719 -12.16224609 15.76761719 -11.75390625 14.3828125 C-11 12 -11 12 -10 10 C-9.34 10 -8.68 10 -8 10 C-7.89042969 9.36191406 -7.78085938 8.72382812 -7.66796875 8.06640625 C-7.50941406 7.24011719 -7.35085937 6.41382812 -7.1875 5.5625 C-7.03667969 4.73878906 -6.88585937 3.91507812 -6.73046875 3.06640625 C-6.48941406 2.38449219 -6.24835938 1.70257813 -6 1 C-3 0 -3 0 0 0 Z " fill="#1E7BE4" transform="translate(79,109)"/>
<path d="M0 0 C2.1875 -0.375 2.1875 -0.375 5 0 C8.36333228 2.76479159 9.76506643 4.51090222 10.44967651 8.85021973 C10.6129203 12.45669266 10.61388584 16.03083131 10.55859375 19.640625 C10.55626236 20.95915466 10.55393097 22.27768433 10.55152893 23.63616943 C10.54538359 26.41697167 10.52277503 29.19696198 10.48706055 31.97753906 C10.44161232 35.54435659 10.42702429 39.1104442 10.42332363 42.67752457 C10.41783891 46.08199845 10.39447283 49.48622439 10.37109375 52.890625 C10.36573105 54.17390686 10.36036835 55.45718872 10.35484314 56.77935791 C10.33885574 57.96108582 10.32286835 59.14281372 10.30639648 60.36035156 C10.29575668 61.40370667 10.28511688 62.44706177 10.27415466 63.52203369 C10 66 10 66 8 68 C7.18943674 62.46580948 6.92170157 57.26781117 7.15625 51.6875 C7.20967145 50.10026163 7.26305564 48.513022 7.31640625 46.92578125 C7.40643068 44.47565685 7.4990133 42.02564903 7.59326172 39.57568359 C7.91171527 31.08760548 8.14693423 22.615191 7.78125 14.125 C7.73033203 12.86945313 7.67941406 11.61390625 7.62695312 10.3203125 C6.89900582 6.46513986 5.7245301 4.77678136 3 2 C2.01 1.34 1.02 0.68 0 0 Z " fill="#1A58A9" transform="translate(181,79)"/>
<path d="M0 0 C0.66 0 1.32 0 2 0 C1.97679687 0.92554687 1.95359375 1.85109375 1.9296875 2.8046875 C1.78243289 11.98823265 2.29390032 20.97762671 3.125 30.125 C3.98152962 39.77560571 4.03704722 48.50422602 2 58 C1.34 57.67 0.68 57.34 0 57 C-0.02505615 55.69853027 -0.0501123 54.39706055 -0.07592773 53.05615234 C-0.1703047 48.21426029 -0.27045085 43.37250158 -0.37231445 38.53076172 C-0.41554894 36.43769456 -0.45723185 34.34459474 -0.49731445 32.25146484 C-0.55529601 29.23785574 -0.61890942 26.22440929 -0.68359375 23.2109375 C-0.70030624 22.27945892 -0.71701874 21.34798035 -0.73423767 20.38827515 C-0.81760324 16.70819333 -0.95920984 13.23950661 -1.57836914 9.60400391 C-2.15606934 6.0361114 -1.14796903 3.3763795 0 0 Z " fill="#1D7BF5" transform="translate(38,87)"/>
<path d="M0 0 C4 0 4 0 5.6328125 1.4609375 C6.37144531 2.40839844 6.37144531 2.40839844 7.125 3.375 C7.87136719 4.31472656 7.87136719 4.31472656 8.6328125 5.2734375 C9.08398438 5.84320313 9.53515625 6.41296875 10 7 C10.66 7.66 11.32 8.32 12 9 C11.625 11.625 11.625 11.625 11 14 C10.34 14 9.68 14 9 14 C9 29.51 9 45.02 9 61 C9.66 61.33 10.32 61.66 11 62 C10.01 64.97 10.01 64.97 9 68 C8.67 68 8.34 68 8 68 C7.99635437 67.30953079 7.99270874 66.61906158 7.98895264 65.90766907 C7.94714191 58.72106266 7.87780555 51.53509574 7.79248047 44.34887695 C7.76204491 41.66689575 7.74136468 38.98510248 7.72900391 36.30297852 C7.70759728 32.44764441 7.66095492 28.59331514 7.609375 24.73828125 C7.60814636 23.53915604 7.60691772 22.34003082 7.60565186 21.10456848 C7.54464287 14.65473108 7.54464287 14.65473108 5.16503906 8.78588867 C2.57654117 6.65069899 0.23743682 5.80935921 -3 5 C-2.34 4.67 -1.68 4.34 -1 4 C-1 3.34 -1 2.68 -1 2 C0.32 1.67 1.64 1.34 3 1 C2.01 0.67 1.02 0.34 0 0 Z " fill="#1E7AE4" transform="translate(183,73)"/>
<path d="M0 0 C0.99 0 1.98 0 3 0 C3.83848804 1.45537568 4.67063934 2.91440373 5.5 4.375 C6.19609375 5.59316406 6.19609375 5.59316406 6.90625 6.8359375 C8 9 8 9 8 11 C8.433125 10.566875 8.86625 10.13375 9.3125 9.6875 C10.875 8.125 12.4375 6.5625 14 5 C13.69078116 6.45903258 13.37751201 7.91720722 13.0625 9.375 C12.88847656 10.18710938 12.71445313 10.99921875 12.53515625 11.8359375 C12 14 12 14 11 16 C10.278125 15.814375 9.55625 15.62875 8.8125 15.4375 C5.86017948 14.97825014 3.88699336 15.37578522 1 16 C0.34 15.67 -0.32 15.34 -1 15 C-0.835 14.236875 -0.67 13.47375 -0.5 12.6875 C0.09145396 9.96403764 0.09145396 9.96403764 0 7 C0.66 7 1.32 7 2 7 C1.34 4.69 0.68 2.38 0 0 Z " fill="#1D75D2" transform="translate(107,96)"/>
<path d="M0 0 C0.99 0 1.98 0 3 0 C3 19.14 3 38.28 3 58 C2.34 57.67 1.68 57.34 1 57 C0.67 38.19 0.34 19.38 0 0 Z " fill="#1354A5" transform="translate(195,85)"/>
<path d="M0 0 C0.33 0 0.66 0 1 0 C1 10.89 1 21.78 1 33 C2.32 33 3.64 33 5 33 C5 26.73 5 20.46 5 14 C8.25936266 18.34581688 8.40659786 20.5159948 8.25 25.625 C8.24484375 26.305625 8.2396875 26.98625 8.234375 27.6875 C8.15529337 32.68941327 8.15529337 32.68941327 7 35 C4.67843403 35.40729228 2.3431213 35.74438677 0 36 C-3.41283994 25.27393163 -0.82823632 11.12203063 0 0 Z " fill="#1565C5" transform="translate(127,106)"/>
<path d="M0 0 C2.28774596 0.05335803 4.57550644 0.10609687 6.86328125 0.15820312 C12.40904169 0.28584014 17.95457471 0.42108335 23.5 0.5625 C23.5 0.8925 23.5 1.2225 23.5 1.5625 C13.0764224 2.41320656 2.72994498 2.72064427 -7.72558594 2.69287109 C-10.12962092 2.68748966 -12.53347046 2.69286664 -14.9375 2.69921875 C-23.84511602 2.70264449 -32.62754711 2.42786477 -41.5 1.5625 C-41.5 1.2325 -41.5 0.9025 -41.5 0.5625 C-27.64335475 -0.68361054 -13.89247421 -0.35453384 0 0 Z " fill="#1D70D7" transform="translate(152.5,74.4375)"/>
<path d="M0 0 C0.33 0 0.66 0 1 0 C1 8.91 1 17.82 1 27 C-0.32 27 -1.64 27 -3 27 C-3.08741124 23.43765572 -3.14052896 19.87558892 -3.1875 16.3125 C-3.21263672 15.30509766 -3.23777344 14.29769531 -3.26367188 13.25976562 C-3.35653364 3.88072781 -3.35653364 3.88072781 0 0 Z " fill="#1B7EF1" transform="translate(131,112)"/>
<path d="M0 0 C0.33 0.66 0.66 1.32 1 2 C0.67 2.66 0.34 3.32 0 4 C0.66 4 1.32 4 2 4 C1.67 7.96 1.34 11.92 1 16 C0.67 16 0.34 16 0 16 C-0.33 22.93 -0.66 29.86 -1 37 C-1.33 37 -1.66 37 -2 37 C-2.93855755 28.17755905 -2.93855755 19.82244095 -2 11 C-2.66 11 -3.32 11 -4 11 C-4.33 13.31 -4.66 15.62 -5 18 C-5.66 17.34 -6.32 16.68 -7 16 C-6.40772295 13.89245578 -5.80073662 11.78904124 -5.1875 9.6875 C-4.85105469 8.51574219 -4.51460937 7.34398438 -4.16796875 6.13671875 C-3.08908941 3.23926019 -2.37542816 1.88536848 0 0 Z " fill="#247CE6" transform="translate(42,76)"/>
<path d="M0 0 C0.33 0.66 0.66 1.32 1 2 C1.66 2 2.32 2 3 2 C3 12.89 3 23.78 3 35 C2.34 35 1.68 35 1 35 C0.67 26.09 0.34 17.18 0 8 C-0.66 9.65 -1.32 11.3 -2 13 C-5.87528323 15.36822864 -8.6733659 15.00619398 -13 14 C-12.67 13.34 -12.34 12.68 -12 12 C-10.02 12 -8.04 12 -6 12 C-3.68336156 8.06171464 -1.56641751 4.30764815 0 0 Z " fill="#2D6BB5" transform="translate(124,106)"/>
<path d="M0 0 C2.3431213 0.25561323 4.67843403 0.59270772 7 1 C8.50606515 4.01213029 8.12160331 7.11282622 8.09765625 10.4140625 C8.0962413 11.14370209 8.09482635 11.87334167 8.09336853 12.62509155 C8.08776531 14.95843585 8.07521235 17.29168464 8.0625 19.625 C8.05748541 21.20572778 8.05292243 22.78645707 8.04882812 24.3671875 C8.03779484 28.24482854 8.02052811 32.12239807 8 36 C7.34 36 6.68 36 6 36 C6 25.11 6 14.22 6 3 C5.34 3 4.68 3 4 3 C4 2.34 4 1.68 4 1 C3.34 1 2.68 1 2 1 C1.67 7.27 1.34 13.54 1 20 C0.67 20 0.34 20 0 20 C-0.3902803 17.41814569 -0.76263148 14.83579017 -1.125 12.25 C-1.23714844 11.52039063 -1.34929687 10.79078125 -1.46484375 10.0390625 C-2.00206512 6.0994391 -2.3715758 3.33777335 0 0 Z " fill="#285EA3" transform="translate(141,89)"/>
<path d="M0 0 C5 5 5 5 6.18481445 6.6496582 C9.08565728 8.80763556 12.26061673 8.36674638 15.73046875 8.29296875 C16.85609978 8.28660149 16.85609978 8.28660149 18.00447083 8.28010559 C20.39918026 8.2633245 22.79304534 8.2256749 25.1875 8.1875 C26.8118368 8.17245235 28.4361868 8.15876409 30.06054688 8.14648438 C34.04068948 8.11342305 38.02020163 8.06164594 42 8 C42 8.66 42 9.32 42 10 C38.1836047 12.59040303 34.49932798 12.01552141 30.125 11.625 C23.26936819 11.10362539 16.53830442 10.93615055 9.66015625 11.0625 C7 11 7 11 5 10 C2.87162047 6.8074307 1.33407921 3.59175173 0 0 Z " fill="#3371B9" transform="translate(43,144)"/>
<path d="M0 0 C0.33 0 0.66 0 1 0 C1.02505615 1.01835938 1.0501123 2.03671875 1.07592773 3.0859375 C1.17071658 6.89545413 1.27075718 10.70481846 1.37231445 14.51416016 C1.41539494 16.15702734 1.45708657 17.79993159 1.49731445 19.44287109 C1.55567485 21.81619397 1.61917275 24.18933479 1.68359375 26.5625 C1.70030624 27.28679199 1.71701874 28.01108398 1.73423767 28.75732422 C1.52008102 37.59053611 1.52008102 37.59053611 5 45 C5.12375 45.66 5.2475 46.32 5.375 47 C5.82123176 49.20265017 5.82123176 49.20265017 8.0625 50.25 C8.701875 50.4975 9.34125 50.745 10 51 C10 51.66 10 52.32 10 53 C10.66 53 11.32 53 12 53 C12 53.66 12 54.32 12 55 C12.66 55 13.32 55 14 55 C14 55.66 14 56.32 14 57 C8.24569792 55.13831403 4.23312143 52.33593632 1.42895508 47.02392578 C-0.51037511 42.36394688 -0.37824522 37.89132805 -0.29296875 32.91015625 C-0.28872391 31.96563095 -0.28447906 31.02110565 -0.28010559 30.04795837 C-0.26340933 27.05250676 -0.22577406 24.0577458 -0.1875 21.0625 C-0.17244146 19.02279622 -0.1587551 16.98308183 -0.14648438 14.94335938 C-0.11353547 9.96197639 -0.06181604 4.98110501 0 0 Z " fill="#1E6BBD" transform="translate(35,104)"/>
<path d="M0 0 C0.99 0 1.98 0 3 0 C3.47597561 6.30667679 2.24401692 10.67066719 -0.22265625 16.484375 C-1.0784451 19.25386253 -0.75673599 20.29409555 0 23 C-1.6875 25.75 -1.6875 25.75 -4 28 C-5.32 28 -6.64 28 -8 28 C-8.20086443 24.28400809 -8.1519437 23.22791555 -6 20 C-5.34 20 -4.68 20 -4 20 C-3.34 16.37 -2.68 12.74 -2 9 C-1.01 8.67 -0.02 8.34 1 8 C0.67 5.36 0.34 2.72 0 0 Z " fill="#2175DA" transform="translate(67,111)"/>
<path d="M0 0 C1.093125 0.28875 2.18625 0.5775 3.3125 0.875 C4.72162096 3.69324192 4.42433553 6.04751282 4.41015625 9.1953125 C4.40693359 10.45214844 4.40371094 11.70898438 4.40039062 13.00390625 C4.39201172 14.32261719 4.38363281 15.64132813 4.375 17 C4.36998489 18.33984211 4.36542201 19.679686 4.36132812 21.01953125 C4.34951086 24.30473206 4.33303617 27.58984397 4.3125 30.875 C3.9825 30.875 3.6525 30.875 3.3125 30.875 C3.3125 22.295 3.3125 13.715 3.3125 4.875 C2.6525 4.875 1.9925 4.875 1.3125 4.875 C1.3125 4.215 1.3125 3.555 1.3125 2.875 C-1.43681827 3.56232957 -3.22168821 4.23060222 -4.91015625 6.56640625 C-5.89074656 8.30616325 -6.79438055 10.0887611 -7.6875 11.875 C-8.3475 11.875 -9.0075 11.875 -9.6875 11.875 C-8.26196809 4.74734043 -8.26196809 4.74734043 -6 1.3125 C-3.6875 -0.125 -3.6875 -0.125 0 0 Z " fill="#305E99" transform="translate(130.6875,89.125)"/>
<path d="M0 0 C0.66 0 1.32 0 2 0 C1.86042877 0.58111542 1.72085754 1.16223083 1.57705688 1.76095581 C0.05854636 8.59547231 -0.33821367 15.14658647 -0.4140625 22.1328125 C-0.43342865 23.25066132 -0.4527948 24.36851013 -0.4727478 25.52023315 C-0.53204289 29.05508028 -0.57872733 32.58996087 -0.625 36.125 C-0.66322591 38.53647174 -0.70228025 40.9479305 -0.7421875 43.359375 C-0.83770268 49.23946724 -0.92289342 55.11963908 -1 61 C-1.33 61 -1.66 61 -2 61 C-2.16927133 54.47146672 -2.32895707 47.9427479 -2.48217773 41.41381836 C-2.53534099 39.1956662 -2.59064786 36.97756428 -2.64819336 34.75952148 C-2.73082597 31.55984326 -2.80558806 28.36005986 -2.87890625 25.16015625 C-2.90594131 24.17854019 -2.93297638 23.19692413 -2.96083069 22.18556213 C-3.28968382 6.79867989 -3.28968382 6.79867989 0 0 Z " fill="#2767A6" transform="translate(36,82)"/>
<path d="M0 0 C-0.33 0.99 -0.66 1.98 -1 3 C-2.04849121 2.9285376 -3.09698242 2.8570752 -4.17724609 2.78344727 C-16.33697597 2.00437634 -28.44381122 1.88018439 -40.625 1.9375 C-42.51822796 1.94253345 -44.41145724 1.94709304 -46.3046875 1.95117188 C-50.8698253 1.96201198 -55.43489731 1.97917088 -60 2 C-60 1.67 -60 1.34 -60 1 C-17.77270285 -0.19388403 -17.77270285 -0.19388403 0 0 Z " fill="#3D72B4" transform="translate(182,76)"/>
<path d="M0 0 C0.33 0 0.66 0 1 0 C1.66 10.23 2.32 20.46 3 31 C4.98 31 6.96 31 9 31 C9 28.36 9 25.72 9 23 C9.33 23 9.66 23 10 23 C10.02688151 24.64574566 10.04634123 26.29161413 10.0625 27.9375 C10.07410156 28.85402344 10.08570312 29.77054688 10.09765625 30.71484375 C10 33 10 33 9 34 C7.1875 34.1328125 7.1875 34.1328125 5 34.125 C4.278125 34.12757813 3.55625 34.13015625 2.8125 34.1328125 C1 34 1 34 0 33 C-0.08843793 30.55169574 -0.11528752 28.13179401 -0.09765625 25.68359375 C-0.0962413 24.95253922 -0.09482635 24.22148468 -0.09336853 23.46827698 C-0.08775408 21.12464368 -0.07519922 18.78110461 -0.0625 16.4375 C-0.05748686 14.85221492 -0.05292363 13.26692834 -0.04882812 11.68164062 C-0.03777997 7.7877239 -0.02050572 3.89387795 0 0 Z " fill="#345D98" transform="translate(97,107)"/>
<path d="M0 0 C1.32 0.33 2.64 0.66 4 1 C4 6.94 4 12.88 4 19 C2.68 18.34 1.36 17.68 0 17 C0 11.39 0 5.78 0 0 Z " fill="#1A7EED" transform="translate(142,93)"/>
<path d="M0 0 C0.33 0.99 0.66 1.98 1 3 C1.74685059 3.01981934 2.49370117 3.03963867 3.26318359 3.06005859 C6.63415605 3.15508211 10.00448929 3.26485259 13.375 3.375 C14.550625 3.4059375 15.72625 3.436875 16.9375 3.46875 C18.05898437 3.50742188 19.18046875 3.54609375 20.3359375 3.5859375 C21.89127197 3.63306885 21.89127197 3.63306885 23.47802734 3.68115234 C26 4 26 4 28 6 C19.09 6 10.18 6 1 6 C0.34 4.35 -0.32 2.7 -1 1 C-0.67 0.67 -0.34 0.34 0 0 Z " fill="#175CA6" transform="translate(148,128)"/>
<path d="M0 0 C0.625 1.8125 0.625 1.8125 1 4 C0.01 5.485 0.01 5.485 -1 7 C-1.66 7 -2.32 7 -3 7 C-3.66 9.64 -4.32 12.28 -5 15 C-1.16263678 14.04065919 -0.40339772 13.76390737 2 11 C2.33 11.66 2.66 12.32 3 13 C2 15 2 15 0 17 C-2.75372909 17.36933645 -5.20365661 17.18336678 -8 17 C-8.33 16.34 -8.66 15.68 -9 15 C-7.890625 12.79296875 -7.890625 12.79296875 -6.25 10.1875 C-5.71890625 9.33542969 -5.1878125 8.48335937 -4.640625 7.60546875 C-4.09921875 6.74566406 -3.5578125 5.88585937 -3 5 C-1.99627849 3.3355719 -0.99514698 1.66956888 0 0 Z " fill="#315E9F" transform="translate(64,124)"/>
<path d="M0 0 C9.24 0 18.48 0 28 0 C28 0.33 28 0.66 28 1 C27.04746338 1.03758423 27.04746338 1.03758423 26.07568359 1.07592773 C23.17528458 1.19256789 20.27515651 1.31498393 17.375 1.4375 C16.37597656 1.47681641 15.37695312 1.51613281 14.34765625 1.55664062 C7.10631297 1.7681979 7.10631297 1.7681979 0 3 C-1.23290201 5.45704762 -1.23290201 5.45704762 -2 8 C-2.99 8.33 -3.98 8.66 -5 9 C-4.1875 6.0625 -4.1875 6.0625 -3 3 C-2.01 2.67 -1.02 2.34 0 2 C0 1.34 0 0.68 0 0 Z " fill="#336EB3" transform="translate(48,77)"/>
<path d="M0 0 C0.33 0 0.66 0 1 0 C1 1.98 1 3.96 1 6 C0.01 6.33 -0.98 6.66 -2 7 C-2.33 7.99 -2.66 8.98 -3 10 C-6.83953018 12.55968679 -9.72554674 12.08247186 -14.125 11.75 C-14.86621094 11.71003906 -15.60742188 11.67007813 -16.37109375 11.62890625 C-18.25476622 11.50149148 -20.12992606 11.25938386 -22 11 C-22.33 10.34 -22.66 9.68 -23 9 C-21.90300781 9.04640625 -20.80601562 9.0928125 -19.67578125 9.140625 C-18.2213815 9.1781579 -16.76695217 9.21455643 -15.3125 9.25 C-14.59126953 9.28351563 -13.87003906 9.31703125 -13.12695312 9.3515625 C-9.25777012 9.42223251 -7.43011227 9.26996408 -4.0625 7.15625 C-1.86748983 4.86146664 -0.92210321 3.01779232 0 0 Z " fill="#346FB4" transform="translate(188,143)"/>
<path d="M0 0 C0.66 0 1.32 0 2 0 C2 0.66 2 1.32 2 2 C2.66 2 3.32 2 4 2 C4 12.89 4 23.78 4 35 C4.66 35.33 5.32 35.66 6 36 C5.01 38.475 5.01 38.475 4 41 C3.67 41 3.34 41 3 41 C2.98541748 39.88963379 2.97083496 38.77926758 2.95581055 37.63525391 C2.89792875 33.52375746 2.82069636 29.41281457 2.73754883 25.30175781 C2.7042516 23.52092458 2.67623469 21.73998459 2.65356445 19.95898438 C2.62010568 17.40188001 2.56779699 14.84575824 2.51171875 12.2890625 C2.50213387 11.09055161 2.50213387 11.09055161 2.49235535 9.86782837 C2.46045783 7.3870923 2.46045783 7.3870923 2 4 C1.01 3.34 0.02 2.68 -1 2 C-0.67 1.34 -0.34 0.68 0 0 Z " fill="#246ED7" transform="translate(143,90)"/>
<path d="M0 0 C3 1 3 1 4.16796875 2.77734375 C4.50441406 3.49019531 4.84085937 4.20304687 5.1875 4.9375 C5.70376953 6.00291016 5.70376953 6.00291016 6.23046875 7.08984375 C7 9 7 9 7 11 C7.66 11 8.32 11 9 11 C8.67 12.65 8.34 14.3 8 16 C4.46489093 13.64326062 3.6181197 11.77251357 1.75 8 C1.20859375 6.9275 0.6671875 5.855 0.109375 4.75 C-0.25671875 3.8425 -0.6228125 2.935 -1 2 C-0.67 1.34 -0.34 0.68 0 0 Z " fill="#1F7DE6" transform="translate(61,93)"/>
<path d="M0 0 C0.495 0.99 0.495 0.99 1 2 C-7.38691829 3.26506589 -15.62552804 2.90051817 -24.0625 2.5625 C-25.51495191 2.50916183 -26.96742595 2.45642267 -28.41992188 2.40429688 C-31.94689641 2.27643515 -35.47350261 2.14047379 -39 2 C-39 1.67 -39 1.34 -39 1 C-34.41019224 0.85640142 -29.82034873 0.71402534 -25.23046875 0.57275391 C-23.67088816 0.52458278 -22.11131764 0.47608477 -20.55175781 0.42724609 C-18.30276042 0.35687517 -16.05372879 0.28770195 -13.8046875 0.21875 C-13.1138205 0.19687622 -12.42295349 0.17500244 -11.71115112 0.15246582 C-7.80580218 0.03404068 -3.90707789 -0.02126301 0 0 Z " fill="#1564C6" transform="translate(183,159)"/>
<path d="M0 0 C0.71929687 0.47566406 0.71929687 0.47566406 1.453125 0.9609375 C5.16222106 2.47415767 8.77809202 2.46691411 12.75 2.625 C13.93916016 2.68300781 13.93916016 2.68300781 15.15234375 2.7421875 C17.10119416 2.836108 19.05056451 2.91912822 21 3 C21.33 3.66 21.66 4.32 22 5 C20.68 5 19.36 5 18 5 C17.67 5.99 17.34 6.98 17 8 C16.34 8 15.68 8 15 8 C14.67 7.01 14.34 6.02 14 5 C8.72 5 3.44 5 -2 5 C-2 4.34 -2 3.68 -2 3 C-1.34 3 -0.68 3 0 3 C0 2.01 0 1.02 0 0 Z " fill="#1976E9" transform="translate(85,152)"/>
<path d="M0 0 C3.25936266 4.34581688 3.40659786 6.5159948 3.25 11.625 C3.24484375 12.305625 3.2396875 12.98625 3.234375 13.6875 C3.15529337 18.68941327 3.15529337 18.68941327 2 21 C0.35 20.67 -1.3 20.34 -3 20 C-2.01 19.67 -1.02 19.34 0 19 C0 12.73 0 6.46 0 0 Z " fill="#2569C0" transform="translate(132,120)"/>
<path d="M0 0 C0.33 0.66 0.66 1.32 1 2 C0.67 2.66 0.34 3.32 0 4 C0.66 4 1.32 4 2 4 C1.67 7.96 1.34 11.92 1 16 C0.34 15.67 -0.32 15.34 -1 15 C-1 13.68 -1 12.36 -1 11 C-2.4166747 9.2488427 -2.4166747 9.2488427 -4 8 C-2.25 2.25 -2.25 2.25 0 0 Z " fill="#2073DC" transform="translate(42,76)"/>
<path d="M0 0 C0.66 0 1.32 0 2 0 C1.26886812 5.849055 -0.93676874 11.33935045 -5.5625 15.0625 C-8 16 -8 16 -11 15 C-6.25 10.125 -6.25 10.125 -4 9 C-2.87293294 6.88984046 -2.87293294 6.88984046 -1.875 4.4375 C-1.52179688 3.61121094 -1.16859375 2.78492188 -0.8046875 1.93359375 C-0.53914062 1.29550781 -0.27359375 0.65742188 0 0 Z " fill="#2E72C4" transform="translate(195,144)"/>
<path d="M0 0 C0.33 0 0.66 0 1 0 C1.05784708 4.12494151 1.09354407 8.24977944 1.125 12.375 C1.14175781 13.550625 1.15851563 14.72625 1.17578125 15.9375 C1.18222656 17.05898437 1.18867188 18.18046875 1.1953125 19.3359375 C1.20578613 20.37282715 1.21625977 21.4097168 1.22705078 22.47802734 C1 25 1 25 -1 27 C-2.03286554 20.75946977 -1.83661455 15.26023069 -1.0625 9 C-0.96259766 8.12988281 -0.86269531 7.25976562 -0.75976562 6.36328125 C-0.51491026 4.24120143 -0.25864281 2.12044354 0 0 Z " fill="#2165BB" transform="translate(190,120)"/>
<path d="M0 0 C0.33 0.66 0.66 1.32 1 2 C-0.19625 2.4125 -1.3925 2.825 -2.625 3.25 C-6.48164454 4.7022356 -9.7306708 6.44832843 -13 9 C-13.33 9.99 -13.66 10.98 -14 12 C-14.66 12 -15.32 12 -16 12 C-14.22274966 7.07838367 -12.66818706 4.01541821 -8.125 1.25 C-5.09879337 0.03951735 -3.20861988 -0.28311352 0 0 Z " fill="#2971C1" transform="translate(53,70)"/>
<path d="M0 0 C0.33 0 0.66 0 1 0 C1.1875 2.375 1.1875 2.375 1 5 C-2.5922854 7.39485693 -3.96005459 7.17558429 -8.19921875 6.9765625 C-9.40771484 6.925 -10.61621094 6.8734375 -11.86132812 6.8203125 C-13.7552832 6.72363281 -13.7552832 6.72363281 -15.6875 6.625 C-16.96173828 6.56828125 -18.23597656 6.5115625 -19.54882812 6.453125 C-22.69977629 6.31150935 -25.84994472 6.16008115 -29 6 C-29 5.67 -29 5.34 -29 5 C-28.26362305 4.97494385 -27.52724609 4.9498877 -26.76855469 4.92407227 C-23.42886622 4.80795727 -20.08944903 4.68530082 -16.75 4.5625 C-15.59113281 4.52318359 -14.43226563 4.48386719 -13.23828125 4.44335938 C-12.12324219 4.40146484 -11.00820312 4.35957031 -9.859375 4.31640625 C-8.31975098 4.26141968 -8.31975098 4.26141968 -6.74902344 4.20532227 C-4.36389113 4.02717872 -2.28700501 3.67222637 0 3 C0 2.01 0 1.02 0 0 Z " fill="#326BB1" transform="translate(176,135)"/>
<path d="M0 0 C3.0916909 2.52956528 3.90931332 5.22454612 5 9 C5.6496875 8.3503125 5.6496875 8.3503125 6.3125 7.6875 C7.875 6.125 9.4375 4.5625 11 3 C10.71758359 4.46015291 10.42373386 5.91809793 10.125 7.375 C9.96257812 8.18710938 9.80015625 8.99921875 9.6328125 9.8359375 C9 12 9 12 7 14 C6.67 13.01 6.34 12.02 6 11 C5.175 10.236875 4.35 9.47375 3.5 8.6875 C0.69510964 5.67224287 0.28137724 4.03307384 0 0 Z " fill="#4272B1" transform="translate(110,98)"/>
<path d="M0 0 C0 1.65 0 3.3 0 5 C-0.66 4.34 -1.32 3.68 -2 3 C-5.94631527 2.58353663 -5.94631527 2.58353663 -8.1875 4.75 C-9.96144273 6.9521358 -10.60611241 8.24278687 -11 11 C-11.66 11 -12.32 11 -13 11 C-11.77759242 6.95665186 -10.39561694 3.49360803 -8 0 C-5.13822943 -1.43088528 -3.06624227 -0.59991697 0 0 Z " fill="#215FA8" transform="translate(91,90)"/>
<path d="M0 0 C0.99 0 1.98 0 3 0 C3 2.97 3 5.94 3 9 C1.35 9.33 -0.3 9.66 -2 10 C-3.39195915 5.82412255 -1.82323219 3.86525224 0 0 Z " fill="#1581F6" transform="translate(73,112)"/>
<path d="M0 0 C2.50037734 2.17424117 3.43628586 3.73045798 4 7 C1.02486836 8.5300677 -0.43432926 9.12856153 -3.75 8.375 C-6 7 -6 7 -6.8125 4.875 C-6.874375 4.25625 -6.93625 3.6375 -7 3 C-6.401875 3.33 -5.80375 3.66 -5.1875 4 C-2.94613529 5.20787988 -2.94613529 5.20787988 0 5 C0 3.35 0 1.7 0 0 Z " fill="#3060A8" transform="translate(88,133)"/>
<path d="M0 0 C9.9 0 19.8 0 30 0 C30 0.33 30 0.66 30 1 C21.75 1 13.5 1 5 1 C5 1.66 5 2.32 5 3 C3.35 2.67 1.7 2.34 0 2 C0 1.34 0 0.68 0 0 Z " fill="#1765BF" transform="translate(142,139)"/>
<path d="M0 0 C3 3.1 3 3.1 3 6 C1.68 5.67 0.36 5.34 -1 5 C-1 4.01 -1 3.02 -1 2 C-2.98 2 -4.96 2 -7 2 C-7.66 3.32 -8.32 4.64 -9 6 C-8.625 3.0625 -8.625 3.0625 -8 0 C-5.03475663 -1.48262169 -3.14877613 -0.83538959 0 0 Z " fill="#2D5A94" transform="translate(106,90)"/>
<path d="M0 0 C0.33 0 0.66 0 1 0 C1 2.97 1 5.94 1 9 C1.66 9.33 2.32 9.66 3 10 C2.9175 10.886875 2.835 11.77375 2.75 12.6875 C3.0537589 16.71230539 4.37232494 18.04386556 7 21 C7 21.66 7 22.32 7 23 C4.64277539 22.05516204 3.28163577 21.46869236 1.953125 19.2578125 C-0.18106074 12.78411576 -0.30970113 6.77901373 0 0 Z " fill="#1865C6" transform="translate(41,130)"/>
<path d="M0 0 C0.66 0 1.32 0 2 0 C1.7834375 0.87398438 1.7834375 0.87398438 1.5625 1.765625 C0.01885182 8.58340445 -0.21566154 15.02694354 0 22 C-2.31171717 19.55686738 -2.98318565 18.35582792 -3.14453125 14.94140625 C-2.98017578 13.26884766 -2.98017578 13.26884766 -2.8125 11.5625 C-2.71582031 10.45003906 -2.61914062 9.33757812 -2.51953125 8.19140625 C-2.03025912 5.18587745 -1.25455635 2.76208908 0 0 Z " fill="#286CB1" transform="translate(36,82)"/>
<path d="M0 0 C1.125 3.75 1.125 3.75 0 6 C-0.66 6 -1.32 6 -2 6 C-2 6.99 -2 7.98 -2 9 C-2.66 9 -3.32 9 -4 9 C-4 9.99 -4 10.98 -4 12 C-5.65 12.33 -7.3 12.66 -9 13 C-9.33 11.68 -9.66 10.36 -10 9 C-9.67 9.66 -9.34 10.32 -9 11 C-6.12579877 8.28395285 -6.12579877 8.28395285 -4 5 C-3.01 5 -2.02 5 -1 5 C-0.67 3.35 -0.34 1.7 0 0 Z " fill="#1F68BE" transform="translate(81,96)"/>
<path d="M0 0 C6.93 0 13.86 0 21 0 C20.67 0.99 20.34 1.98 20 3 C13.4 2.34 6.8 1.68 0 1 C0 0.67 0 0.34 0 0 Z " fill="#225EB0" transform="translate(161,76)"/>
<path d="M0 0 C3.17538332 0.34021964 4.02276865 1.02466604 6.25 3.4375 C8 6 8 6 8 8 C7.38125 7.814375 6.7625 7.62875 6.125 7.4375 C3.95839822 6.76313824 3.95839822 6.76313824 2 8 C0.74335022 5.09399739 0 3.20395416 0 0 Z " fill="#217CDB" transform="translate(109,104)"/>
<path d="M0 0 C1.25205243 2.50410487 0.95815898 3.80064009 0.66015625 6.5703125 C0.56669922 7.46621094 0.47324219 8.36210938 0.37695312 9.28515625 C0.27318359 10.22230469 0.16941406 11.15945312 0.0625 12.125 C-0.08735352 13.54232422 -0.08735352 13.54232422 -0.24023438 14.98828125 C-0.48818915 17.32614055 -0.74166315 19.6632689 -1 22 C-1.33 22 -1.66 22 -2 22 C-2.33 16.72 -2.66 11.44 -3 6 C-2.67 6 -2.34 6 -2 6 C-1.34 4.02 -0.68 2.04 0 0 Z " fill="#1E5E9E" transform="translate(44,85)"/>
<path d="M0 0 C0.66 0.33 1.32 0.66 2 1 C2 10.24 2 19.48 2 29 C1.67 29 1.34 29 1 29 C1 20.42 1 11.84 1 3 C0.34 3 -0.32 3 -1 3 C-0.67 2.01 -0.34 1.02 0 0 Z " fill="#3D6FA7" transform="translate(133,91)"/>
<path d="M0 0 C0.99 0 1.98 0 3 0 C3.16682272 4.92127034 3.24828052 8.50343896 1 13 C0.01 13 -0.98 13 -2 13 C-1.67 11.35 -1.34 9.7 -1 8 C-0.34 8 0.32 8 1 8 C0.67 5.36 0.34 2.72 0 0 Z " fill="#2761AF" transform="translate(67,111)"/>
<path d="M0 0 C2.97 0 5.94 0 9 0 C9 0.66 9 1.32 9 2 C5.00439392 4.83022097 1.57262677 3.76210446 -3 3 C-2.01 2.67 -1.02 2.34 0 2 C0 1.34 0 0.68 0 0 Z " fill="#2D69C7" transform="translate(76,152)"/>
<path d="M0 0 C0.99 0 1.98 0 3 0 C2.67 3.3 2.34 6.6 2 10 C1.01 9.34 0.02 8.68 -1 8 C-0.67 5.36 -0.34 2.72 0 0 Z " fill="#157CF9" transform="translate(127,94)"/>
<path d="M0 0 C0.66 0 1.32 0 2 0 C2 5.94 2 11.88 2 18 C1.67 18 1.34 18 1 18 C0.63835477 15.37583048 0.28538847 12.75099687 -0.0625 10.125 C-0.2181543 9.00544922 -0.2181543 9.00544922 -0.37695312 7.86328125 C-1.11328125 2.2265625 -1.11328125 2.2265625 0 0 Z " fill="#1659AB" transform="translate(140,91)"/>
<path d="M0 0 C2.64 0 5.28 0 8 0 C8 1.32 8 2.64 8 4 C5.69 4.33 3.38 4.66 1 5 C1.99 4.67 2.98 4.34 4 4 C3.34 3.67 2.68 3.34 2 3 C2 2.34 2 1.68 2 1 C1.34 0.67 0.68 0.34 0 0 Z " fill="#297AE1" transform="translate(168,134)"/>
<path d="M0 0 C0.68359375 1.734375 0.68359375 1.734375 1 4 C-0.21484375 6.140625 -0.21484375 6.140625 -1.9375 8.25 C-2.50339844 8.95640625 -3.06929688 9.6628125 -3.65234375 10.390625 C-4.31943359 11.18726563 -4.31943359 11.18726563 -5 12 C-6.24546405 9.50907189 -5.7767578 8.58919267 -5 6 C-4.34 6 -3.68 6 -3 6 C-2.690625 5.195625 -2.38125 4.39125 -2.0625 3.5625 C-1 1 -1 1 0 0 Z " fill="#3674B8" transform="translate(72,124)"/>
<path d="M0 0 C0.33 0.99 0.66 1.98 1 3 C0.401875 3.0825 -0.19625 3.165 -0.8125 3.25 C-3.5966296 4.20455872 -4.43311142 5.57132271 -6 8 C-6.33 6.35 -6.66 4.7 -7 3 C-4.69 2.01 -2.38 1.02 0 0 Z " fill="#3F65A1" transform="translate(63,88)"/>
<path d="M0 0 C0.515625 0.309375 1.03125 0.61875 1.5625 0.9375 C4.66665423 2.29059287 7.65115007 2.61359424 11 3 C11 3.33 11 3.66 11 4 C4.565 4.495 4.565 4.495 -2 5 C-2 4.34 -2 3.68 -2 3 C-1.34 3 -0.68 3 0 3 C0 2.01 0 1.02 0 0 Z " fill="#1B66DB" transform="translate(85,152)"/>
<path d="M0 0 C0.66 0.66 1.32 1.32 2 2 C-0.01554557 4.72691459 -1.14158939 5.02980829 -4.5625 5.75 C-8 6 -8 6 -10 5 C-9.67 4.34 -9.34 3.68 -9 3 C-7.6078125 3.0928125 -7.6078125 3.0928125 -6.1875 3.1875 C-3.01604897 3.30894264 -3.01604897 3.30894264 -1.125 1.5 C-0.75375 1.005 -0.3825 0.51 0 0 Z " fill="#3F72AC" transform="translate(121,115)"/>
<path d="M0 0 C0.66 0 1.32 0 2 0 C2 2.97 2 5.94 2 9 C0.68 9 -0.64 9 -2 9 C-2 8.01 -2 7.02 -2 6 C-1.34 6 -0.68 6 0 6 C0 4.02 0 2.04 0 0 Z " fill="#1E78E1" transform="translate(130,130)"/>
<path d="M0 0 C1.32 0.33 2.64 0.66 4 1 C4.33 3.31 4.66 5.62 5 8 C3 7 3 7 0 5 C-0.1875 2.375 -0.1875 2.375 0 0 Z " fill="#2972B6" transform="translate(83,128)"/>
<path d="M0 0 C0.33 0 0.66 0 1 0 C1.06058594 0.58007812 1.12117188 1.16015625 1.18359375 1.7578125 C1.66016561 6.20092863 2.21008666 10.59905423 3 15 C2.01 14.67 1.02 14.34 0 14 C0 9.38 0 4.76 0 0 Z " fill="#135FB5" transform="translate(41,98)"/>
<path d="M0 0 C0.66 0.66 1.32 1.32 2 2 C1.01 4.31 0.02 6.62 -1 9 C-1.99 8.67 -2.98 8.34 -4 8 C-4 7.01 -4 6.02 -4 5 C-3.34 5 -2.68 5 -2 5 C-2 4.01 -2 3.02 -2 2 C-1.34 2 -0.68 2 0 2 C0 1.34 0 0.68 0 0 Z " fill="#227FE9" transform="translate(81,100)"/>
<path d="M0 0 C0.66 0.33 1.32 0.66 2 1 C0.87548273 3.9719385 -0.22293791 6.33440687 -2 9 C-2.66 9 -3.32 9 -4 9 C-3.38461538 3.46153846 -3.38461538 3.46153846 -1.4375 1.125 C-0.963125 0.75375 -0.48875 0.3825 0 0 Z " fill="#2C6FB7" transform="translate(125,92)"/>
<path d="M0 0 C0.66 0 1.32 0 2 0 C1.39301257 4.12751449 -0.03810791 7.3321148 -2 11 C-2.66 10.34 -3.32 9.68 -4 9 C-2.68 6.03 -1.36 3.06 0 0 Z " fill="#2362A8" transform="translate(195,144)"/>
<path d="M0 0 C0 0.66 0 1.32 0 2 C-2.95664519 3.4783226 -5.74229737 3.06032783 -9 3 C-6.07868595 -0.19953443 -4.37453972 -1.45817991 0 0 Z " fill="#1E7EFA" transform="translate(170,135)"/>
<path d="M0 0 C0.66 0.33 1.32 0.66 2 1 C2 1.99 2 2.98 2 4 C1.34 4 0.68 4 0 4 C0.33 4.66 0.66 5.32 1 6 C1.06950541 7.54023996 1.08452357 9.08334988 1.0625 10.625 C1.05347656 11.44226563 1.04445312 12.25953125 1.03515625 13.1015625 C1.02355469 13.72804688 1.01195312 14.35453125 1 15 C0.67 15 0.34 15 0 15 C-0.19390729 12.68802845 -0.37996367 10.3753971 -0.5625 8.0625 C-0.71912109 6.13083984 -0.71912109 6.13083984 -0.87890625 4.16015625 C-0.91886719 3.11730469 -0.95882812 2.07445313 -1 1 C-0.67 0.67 -0.34 0.34 0 0 Z " fill="#2570BA" transform="translate(195,81)"/>
<path d="M0 0 C-0.33 2.64 -0.66 5.28 -1 8 C-1.66 8 -2.32 8 -3 8 C-3 6.35 -3 4.7 -3 3 C-3.99 3 -4.98 3 -6 3 C-6 2.34 -6 1.68 -6 1 C-3 0 -3 0 0 0 Z " fill="#1F7BEB" transform="translate(79,109)"/>
<path d="M0 0 C1.66666667 1.66666667 3.33333333 3.33333333 5 5 C5.8971875 5.8353125 5.8971875 5.8353125 6.8125 6.6875 C8 8 8 8 8 10 C7.01 10 6.02 10 5 10 C2.76916059 6.87682483 1.33213058 3.5865054 0 0 Z " fill="#366DAD" transform="translate(43,144)"/>
<path d="M0 0 C1.9375 0.375 1.9375 0.375 4 1 C4.33 1.66 4.66 2.32 5 3 C2.69 3.33 0.38 3.66 -2 4 C-2.33 3.34 -2.66 2.68 -3 2 C-2.01 2 -1.02 2 0 2 C0 1.34 0 0.68 0 0 Z " fill="#237EF5" transform="translate(179,155)"/>
<path d="M0 0 C1 2 1 2 0.44140625 4.1640625 C0.15136719 4.97617188 -0.13867188 5.78828125 -0.4375 6.625 C-0.72496094 7.44226563 -1.01242188 8.25953125 -1.30859375 9.1015625 C-1.53675781 9.72804688 -1.76492187 10.35453125 -2 11 C-2.66 10.01 -3.32 9.02 -4 8 C-2.68 5.36 -1.36 2.72 0 0 Z " fill="#2B6CB8" transform="translate(120,101)"/>
<path d="M0 0 C0 1.65 0 3.3 0 5 C-0.5775 4.505 -1.155 4.01 -1.75 3.5 C-4.10400629 1.63019987 -4.10400629 1.63019987 -8 2 C-8 1.34 -8 0.68 -8 0 C-5.13822943 -1.43088528 -3.06624227 -0.59991697 0 0 Z " fill="#2A5D8F" transform="translate(91,90)"/>
<path d="M0 0 C0.99 0.33 1.98 0.66 3 1 C2.195625 1.763125 1.39125 2.52625 0.5625 3.3125 C-2.16799024 5.79430898 -2.16799024 5.79430898 -3 9 C-3.66 9 -4.32 9 -5 9 C-3.7508258 5.54074837 -2.32472205 2.85306797 0 0 Z " fill="#568DC1" transform="translate(42,73)"/>
<path d="M0 0 C2.50037734 2.17424117 3.43628586 3.73045798 4 7 C3.01 7.33 2.02 7.66 1 8 C0.67 5.36 0.34 2.72 0 0 Z " fill="#335E9B" transform="translate(88,133)"/>
<path d="M0 0 C0.66 0.33 1.32 0.66 2 1 C2 3.31 2 5.62 2 8 C1.01 8 0.02 8 -1 8 C-0.67 5.36 -0.34 2.72 0 0 Z " fill="#147DF7" transform="translate(101,129)"/>
<path d="M0 0 C2.84326464 -0.23053497 4.46145349 -0.35903101 6.875 1.25 C8 3 8 3 7.6875 5.1875 C7.460625 5.785625 7.23375 6.38375 7 7 C6.401875 6.21625 5.80375 5.4325 5.1875 4.625 C3.08914751 1.85425677 3.08914751 1.85425677 0 0 Z " fill="#1C5FAF" transform="translate(181,79)"/>
<path d="M0 0 C0.99 0.33 1.98 0.66 3 1 C2.67 2.32 2.34 3.64 2 5 C0.35 4.67 -1.3 4.34 -3 4 C-2.01 3.67 -1.02 3.34 0 3 C0 2.01 0 1.02 0 0 Z " fill="#1F518A" transform="translate(132,136)"/>
<path d="M0 0 C0.66 0.66 1.32 1.32 2 2 C1.01 3.485 1.01 3.485 0 5 C-1.9453125 5.29296875 -1.9453125 5.29296875 -4.125 5.1875 C-5.40375 5.125625 -6.6825 5.06375 -8 5 C-8 4.67 -8 4.34 -8 4 C-7.05125 3.896875 -6.1025 3.79375 -5.125 3.6875 C-1.70892499 3.31460705 -1.70892499 3.31460705 0 0 Z " fill="#1B5EA1" transform="translate(65,135)"/>
<path d="M0 0 C0.33 0 0.66 0 1 0 C1 1.65 1 3.3 1 5 C1.66 5.33 2.32 5.66 3 6 C2.34 7.65 1.68 9.3 1 11 C0.67 11 0.34 11 0 11 C0 7.37 0 3.74 0 0 Z " fill="#1961CE" transform="translate(146,120)"/>
<path d="M0 0 C2.0625 0.4375 2.0625 0.4375 4 1 C4 1.99 4 2.98 4 4 C3.34 3.67 2.68 3.34 2 3 C1.34 3.99 0.68 4.98 0 6 C-0.38218767 4.34385343 -0.71395102 2.67542976 -1 1 C-0.67 0.67 -0.34 0.34 0 0 Z " fill="#1176DC" transform="translate(121,102)"/>
<path d="M0 0 C3.875 1.875 3.875 1.875 5 3 C5.04063832 4.66617115 5.042721 6.33388095 5 8 C4.67 7.01 4.34 6.02 4 5 C3.34 5 2.68 5 2 5 C1.34 3.35 0.68 1.7 0 0 Z " fill="#2076CE" transform="translate(66,99)"/>
<path d="M0 0 C2.1385485 2.1385485 2.42655063 3.13275314 3 6 C2.01 6 1.02 6 0 6 C-0.33 5.01 -0.66 4.02 -1 3 C-1.99 2.34 -2.98 1.68 -4 1 C-2.125 0.375 -2.125 0.375 0 0 Z " fill="#1E5496" transform="translate(64,90)"/>
<path d="" fill="#FFFFFF" transform="translate(0,0)"/>
<path d="" fill="#FFFFFF" transform="translate(0,0)"/>
<path d="" fill="#FFFFFF" transform="translate(0,0)"/>
<path d="" fill="#FFFFFF" transform="translate(0,0)"/>
<path d="" fill="#FFFFFF" transform="translate(0,0)"/>
<path d="" fill="#FFFFFF" transform="translate(0,0)"/>
<path d="" fill="#FFFFFF" transform="translate(0,0)"/>
<path d="" fill="#FFFFFF" transform="translate(0,0)"/>
<path d="" fill="#FFFFFF" transform="translate(0,0)"/>
<path d="" fill="#FFFFFF" transform="translate(0,0)"/>
<path d="" fill="#FFFFFF" transform="translate(0,0)"/>
<path d="" fill="#FFFFFF" transform="translate(0,0)"/>
<path d="" fill="#FFFFFF" transform="translate(0,0)"/>
<path d="" fill="#FFFFFF" transform="translate(0,0)"/>
<path d="" fill="#FFFFFF" transform="translate(0,0)"/>
<path d="" fill="#FFFFFF" transform="translate(0,0)"/>
<path d="" fill="#FFFFFF" transform="translate(0,0)"/>
<path d="" fill="#FFFFFF" transform="translate(0,0)"/>
<path d="" fill="#FFFFFF" transform="translate(0,0)"/>
<path d="" fill="#FFFFFF" transform="translate(0,0)"/>
<path d="" fill="#FFFFFF" transform="translate(0,0)"/>
<path d="" fill="#FFFFFF" transform="translate(0,0)"/>
<path d="" fill="#FFFFFF" transform="translate(0,0)"/>
<path d="" fill="#FFFFFF" transform="translate(0,0)"/>
<path d="" fill="#FFFFFF" transform="translate(0,0)"/>
<path d="" fill="#FFFFFF" transform="translate(0,0)"/>
<path d="" fill="#FFFFFF" transform="translate(0,0)"/>
<path d="" fill="#FFFFFF" transform="translate(0,0)"/>
<path d="" fill="#FFFFFF" transform="translate(0,0)"/>
<path d="" fill="#FFFFFF" transform="translate(0,0)"/>
<path d="" fill="#FFFFFF" transform="translate(0,0)"/>
<path d="" fill="#FFFFFF" transform="translate(0,0)"/>
<path d="" fill="#FFFFFF" transform="translate(0,0)"/>
<path d="" fill="#FFFFFF" transform="translate(0,0)"/>
<path d="" fill="#FFFFFF" transform="translate(0,0)"/>
<path d="" fill="#FFFFFF" transform="translate(0,0)"/>
<path d="" fill="#FFFFFF" transform="translate(0,0)"/>
<path d="" fill="#FFFFFF" transform="translate(0,0)"/>
<path d="" fill="#FFFFFF" transform="translate(0,0)"/>
<path d="" fill="#FFFFFF" transform="translate(0,0)"/>
<path d="" fill="#FFFFFF" transform="translate(0,0)"/>
<path d="" fill="#FFFFFF" transform="translate(0,0)"/>
<path d="" fill="#FFFFFF" transform="translate(0,0)"/>
<path d="" fill="#FFFFFF" transform="translate(0,0)"/>
<path d="" fill="#FFFFFF" transform="translate(0,0)"/>
<path d="" fill="#FFFFFF" transform="translate(0,0)"/>
<path d="" fill="#FFFFFF" transform="translate(0,0)"/>
<path d="" fill="#FFFFFF" transform="translate(0,0)"/>
<path d="" fill="#FFFFFF" transform="translate(0,0)"/>
<path d="" fill="#FFFFFF" transform="translate(0,0)"/>
<path d="" fill="#FFFFFF" transform="translate(0,0)"/>
<path d="" fill="#FFFFFF" transform="translate(0,0)"/>
<path d="" fill="#FFFFFF" transform="translate(0,0)"/>
<path d="" fill="#FFFFFF" transform="translate(0,0)"/>
<path d="" fill="#FFFFFF" transform="translate(0,0)"/>
<path d="" fill="#FFFFFF" transform="translate(0,0)"/>
<path d="" fill="#FFFFFF" transform="translate(0,0)"/>
<path d="" fill="#FFFFFF" transform="translate(0,0)"/>
<path d="" fill="#FFFFFF" transform="translate(0,0)"/>
<path d="" fill="#FFFFFF" transform="translate(0,0)"/>
<path d="" fill="#FFFFFF" transform="translate(0,0)"/>
<path d="" fill="#FFFFFF" transform="translate(0,0)"/>
<path d="" fill="#FFFFFF" transform="translate(0,0)"/>
<path d="" fill="#FFFFFF" transform="translate(0,0)"/>
<path d="" fill="#FFFFFF" transform="translate(0,0)"/>
<path d="" fill="#FFFFFF" transform="translate(0,0)"/>
<path d="" fill="#FFFFFF" transform="translate(0,0)"/>
<path d="" fill="#FFFFFF" transform="translate(0,0)"/>
<path d="" fill="#FFFFFF" transform="translate(0,0)"/>
<path d="" fill="#FFFFFF" transform="translate(0,0)"/>
<path d="" fill="#FFFFFF" transform="translate(0,0)"/>
<path d="" fill="#FFFFFF" transform="translate(0,0)"/>
<path d="" fill="#FFFFFF" transform="translate(0,0)"/>
<path d="" fill="#FFFFFF" transform="translate(0,0)"/>
<path d="" fill="#FFFFFF" transform="translate(0,0)"/>
</svg>
